<svg id="レイヤー_1" data-name="レイヤー 1" xmlns="http://www.w3.org/2000/svg" viewBox="0 0 384 256"><defs><style>.cls-1{fill:#0c4b33;fill-rule:evenodd;}</style></defs><g id="レイヤー_2" data-name="レイヤー 2"><g id="レイヤー_1-2" data-name="レイヤー 1-2"><g id="Page-1"><g id="logo-django"><path id="Shape" class="cls-1" d="M53.16,65.21H73v91.18a129.81,129.81,0,0,1-25.78,2.68c-24.3,0-37-10.85-37-31.72,0-20.09,13.4-33.14,34.2-33.14a33.26,33.26,0,0,1,8.66,1Zm0,46a20.7,20.7,0,0,0-6.72-1c-10,0-15.88,6.12-15.88,16.87s5.55,16.27,15.78,16.27a50.23,50.23,0,0,0,6.82-.49Zm51.53-15.56v45.66c0,15.71-1.2,23.28-4.63,29.78s-7.5,10.22-16.27,14.61L65.33,177c8.63-4.1,13-7.71,15.7-13.19s3.75-12.17,3.75-29.29V95.62ZM84.82,65.21h19.87v20.3H84.82ZM116.65,100A60,60,0,0,1,143,94.21c10.22,0,16.94,2.69,19.92,8,1.66,2.93,2.19,6.75,2.19,15v40a221.53,221.53,0,0,1-28.3,2.16c-16.66,0-24.15-5.76-24.15-18.53,0-13.83,9.94-20.2,34.34-22.25v-4.35c0-3.54-1.8-4.84-6.83-4.84a52.5,52.5,0,0,0-23.37,6Zm31.12,31.3c-13.15,1.27-17.43,3.32-17.43,8.45,0,3.86,2.47,5.66,7.88,5.66a55.57,55.57,0,0,0,9.55-.92V131.31Zm27-32.72a119.81,119.81,0,0,1,31.27-4.38c10.18,0,17.68,2.33,21.93,6.79s5.44,8.81,5.44,18.67v38.62H213.52V120.45c0-7.57-2.58-10.36-9.69-10.36a30,30,0,0,0-9.16,1.41v46.79H174.83Zm66.35,70.46a45.75,45.75,0,0,0,21.22,5.23c13,0,18.57-5.27,18.57-17.68v-.5A27.42,27.42,0,0,1,268,158.79c-17.43,0-28.5-11.39-28.5-29.43,0-22.38,16.41-35.05,45.45-35.05a125.21,125.21,0,0,1,26,2.73l-6.83,14.14c-5.27-1-.43-.17-4.42-.53v2.06l.25,8.31v10.61c0,2.69,0,5.37.24,8.06v5.38c0,16.9-1.41,24.75-5.66,31.33q-9.33,14.37-32.18,14.36a57.26,57.26,0,0,1-21.43-3.85V169.05Zm39.51-58.86h-2A21.92,21.92,0,0,0,267.1,113,15.25,15.25,0,0,0,260,127.49C259.89,137.32,265,143,273.58,143a24,24,0,0,0,7.46-1.28v-30ZM341.87,94c19.88,0,31.83,12.41,31.83,32.5S361.08,160,340.92,160s-32.15-12.38-32.15-32.36C308.94,106.87,321.54,94,341.87,94Zm-.39,50.12c7.64,0,12.13-6.26,12.13-17.12s-4.38-17.15-12-17.15-12.41,6.26-12.41,17.15S333.74,144.08,341.48,144.08Z"/></g></g></g></g></svg>