<svg id="レイヤー_1" data-name="レイヤー 1" xmlns="http://www.w3.org/2000/svg" viewBox="0 0 256 256"><defs><style>.cls-1{fill:#0c4b33;fill-rule:evenodd;}</style></defs><g id="レイヤー_2" data-name="レイヤー 2"><g id="レイヤー_1-2" data-name="レイヤー 1-2"><g id="Page-1"><g id="logo-django"><path id="Shape" class="cls-1" d="M46.89,91.31H58.5v53.27a76.25,76.25,0,0,1-15.07,1.57c-14.19,0-21.59-6.34-21.59-18.54,0-11.73,7.83-19.36,20-19.36a19.7,19.7,0,0,1,5.07.6Zm0,26.86a12.2,12.2,0,0,0-3.93-.58c-5.87,0-9.28,3.58-9.28,9.86s3.25,9.5,9.22,9.5a28.19,28.19,0,0,0,4-.29ZM77,109.08v26.67c0,9.18-.7,13.6-2.7,17.4s-4.39,6-9.51,8.54L54,156.6c5-2.39,7.61-4.5,9.18-7.7s2.19-7.11,2.19-17.11V109.08ZM65.38,91.31H77v11.86H65.38ZM84,111.64a35.21,35.21,0,0,1,15.41-3.39c6,0,9.9,1.57,11.63,4.65,1,1.72,1.29,3.95,1.29,8.74V145a127.07,127.07,0,0,1-16.53,1.26c-9.74,0-14.12-3.36-14.12-10.82,0-8.08,5.81-11.8,20.07-13v-2.54c0-2.07-1.06-2.83-4-2.83a30.55,30.55,0,0,0-13.66,3.51Zm18.18,18.29c-7.69.74-10.19,1.94-10.19,4.94,0,2.25,1.45,3.3,4.61,3.3a33.68,33.68,0,0,0,5.58-.53v-7.71ZM118,110.81a70.47,70.47,0,0,1,18.26-2.56c5.95,0,10.34,1.37,12.82,4s3.18,5.14,3.18,10.91v22.56H140.57V123.58c0-4.42-1.5-6-5.66-6a17.08,17.08,0,0,0-5.35.83v27.33H118ZM156.71,152a26.78,26.78,0,0,0,12.4,3.05C176.71,155,180,152,180,144.7v-.29a16,16,0,0,1-7.54,1.57c-10.19,0-16.66-6.65-16.66-17.19,0-13.08,9.59-20.48,26.55-20.48a73,73,0,0,1,15.17,1.6l-4,8.26c-3.08-.6-.25-.1-2.58-.31v1.2l.14,4.85v6.2c0,1.57,0,3.14.15,4.72V138c0,9.87-.83,14.46-3.31,18.3q-5.44,8.4-18.8,8.39a33.28,33.28,0,0,1-12.52-2.25V152Zm23.08-34.39h-1.2a12.71,12.71,0,0,0-6.71,1.65,8.9,8.9,0,0,0-4.13,8.46c-.09,5.74,2.87,9.07,7.91,9.07A14.06,14.06,0,0,0,180,136V118.48Zm35.77-9.48c11.61,0,18.6,7.25,18.6,19s-7.38,19.57-19.16,19.57-18.78-7.24-18.78-18.91C196.32,115.65,203.68,108.11,215.56,108.11Zm-.23,29.28c4.47,0,7.09-3.66,7.09-10s-2.56-10-7-10-7.26,3.66-7.26,10S210.81,137.39,215.33,137.39Z"/></g></g></g></g></svg>