<svg xmlns="http://www.w3.org/2000/svg" viewBox="0 0 102.8 35.59"><defs><style>.cls-1{fill:#0c4b33;fill-rule:evenodd;}</style></defs><g id="レイヤー_2" data-name="レイヤー 2"><g id="レイヤー_1-2" data-name="レイヤー 1"><g id="Page-1"><g id="logo-django"><path id="Shape" class="cls-1" d="M12.12,0h5.62V25.78a36.79,36.79,0,0,1-7.29.76C3.58,26.53,0,23.47,0,17.57,0,11.89,3.79,8.2,9.67,8.2a9.4,9.4,0,0,1,2.45.29V0Zm0,13a5.8,5.8,0,0,0-1.9-.28c-2.84,0-4.49,1.73-4.49,4.77s1.57,4.6,4.46,4.6a14.33,14.33,0,0,0,1.93-.14V13ZM26.69,8.6V21.51c0,4.44-.34,6.58-1.31,8.42s-2.12,2.89-4.6,4.13L15.56,31.6C18,30.44,19.24,29.42,20,27.87s1.06-3.44,1.06-8.28V8.6ZM21.07,0h5.62V5.74H21.07Zm9,9.84A17,17,0,0,1,37.53,8.2c2.89,0,4.79.76,5.63,2.25.47.83.62,1.91.62,4.23V26a62.78,62.78,0,0,1-8,.61c-4.71,0-6.83-1.63-6.83-5.24,0-3.91,2.81-5.71,9.71-6.29V13.85c0-1-.51-1.37-1.93-1.37a14.86,14.86,0,0,0-6.61,1.7Zm8.8,8.85c-3.72.36-4.93.94-4.93,2.39,0,1.09.7,1.6,2.23,1.6a15.75,15.75,0,0,0,2.7-.26V18.72Zm7.64-9.25A33.87,33.87,0,0,1,55.35,8.2c2.88,0,5,.66,6.2,1.92s1.54,2.49,1.54,5.28V26.32H57.46V15.62c0-2.14-.73-2.93-2.74-2.93a8.42,8.42,0,0,0-2.59.4V26.32H46.52ZM65.27,29.36a12.92,12.92,0,0,0,6,1.48c3.68,0,5.25-1.49,5.25-5V25.7a7.76,7.76,0,0,1-3.65.76c-4.93,0-8.06-3.22-8.06-8.32,0-6.33,4.64-9.91,12.85-9.91A35.31,35.31,0,0,1,85,9l-1.93,4c-1.49-.29-.12-.05-1.25-.15v.58l.07,2.35,0,3c0,.76,0,1.52.07,2.28v1.52c0,4.78-.4,7-1.6,8.86q-2.64,4.06-9.1,4.06a16.2,16.2,0,0,1-6.06-1.09V29.36ZM76.44,12.72h-.58a6.15,6.15,0,0,0-3.25.8,4.31,4.31,0,0,0-2,4.09C70.57,20.39,72,22,74.44,22a6.82,6.82,0,0,0,2.11-.36V19.7c0-.65,0-1.38,0-2.14l0-2.56,0-1.85ZM93.75,8.13c5.62,0,9,3.51,9,9.19s-3.57,9.47-9.27,9.47-9.09-3.5-9.09-9.15C84.44,11.78,88,8.13,93.75,8.13ZM93.64,22.3c2.16,0,3.43-1.77,3.43-4.84s-1.24-4.85-3.39-4.85-3.51,1.77-3.51,4.85,1.28,4.84,3.47,4.84Z"/></g></g></g></g></svg>