<svg id="レイヤー_1" data-name="レイヤー 1" xmlns="http://www.w3.org/2000/svg" viewBox="0 0 256 256"><defs><style>.cls-1{fill:#300;}.cls-2{fill:#ff9a00;}</style></defs><rect class="cls-1" y="0.28" width="256" height="256" rx="46"/><path class="cls-2" d="M121,70.17l45.69,109.14H145.54l-10.73-26.56h-46l-10,26.56H57.87L100.52,70.17ZM94.89,136.73h33.4l-17.48-43.2Z"/><path class="cls-2" d="M187.27,72.59a10.93,10.93,0,0,1,10.86,10.86A10.75,10.75,0,0,1,195,91.07a10.48,10.48,0,0,1-15.31,0,10.63,10.63,0,0,1-3.24-7.62,10.29,10.29,0,0,1,3.28-7.7A10.57,10.57,0,0,1,187.27,72.59Zm9.61,29.75v77H177.67v-77Z"/></svg>