<svg id="レイヤー_1" data-name="レイヤー 1" xmlns="http://www.w3.org/2000/svg" viewBox="0 0 256 256"><defs><style>.cls-1{fill:#001e36;}.cls-2{fill:#31a8ff;}</style></defs><rect class="cls-1" width="256" height="256" rx="46"/><path class="cls-2" d="M103.2,69.89q15.3,0,24.88,8.87t9.57,22.85q0,14.15-9.69,22.89t-25.55,8.75H82.1V179H61V69.89ZM98,116.77q8.45,0,13.16-3.87t4.73-11.45q0-15.08-19.37-15.08H82.1v30.4Z"/><path class="cls-2" d="M175.7,104.66A45.31,45.31,0,0,1,187,106a57.87,57.87,0,0,1,11.25,4.34v15.39a54,54,0,0,0-11.72-5.66,34.61,34.61,0,0,0-11.17-2.15,11.59,11.59,0,0,0-6.48,1.56,5.05,5.05,0,0,0-2.35,4.45,4.49,4.49,0,0,0,2,3.28q2,1.65,10.7,6,12.49,6.33,17.54,11.68a18.08,18.08,0,0,1,5,12.85q0,10.54-7.34,16.6t-19.85,6.06A59.27,59.27,0,0,1,160,178.72a49.37,49.37,0,0,1-11.21-4.14v-16q14.07,7.81,23.67,7.81a15.87,15.87,0,0,0,8-1.75c2-1.18,3-2.72,3-4.65a5,5,0,0,0-1.1-3.13,14.49,14.49,0,0,0-3.28-2.89q-2.19-1.48-13.67-7.11-8.84-4.22-13.05-9.18a17.54,17.54,0,0,1-4.21-11.75,18.46,18.46,0,0,1,7.57-15.47Q163.34,104.65,175.7,104.66Z"/></svg>