<svg id="レイヤー_1" data-name="レイヤー 1" xmlns="http://www.w3.org/2000/svg" xmlns:xlink="http://www.w3.org/1999/xlink" viewBox="0 0 256 256"><defs><style>.cls-1{fill:url(#名称未設定グラデーション_3);}.cls-2{fill:url(#名称未設定グラデーション_2);}</style><linearGradient id="名称未設定グラデーション_3" x1="3688.05" y1="9486.96" x2="3907.38" y2="9675.64" gradientTransform="translate(-2034.47 -5369.38) scale(0.56 0.57)" gradientUnits="userSpaceOnUse"><stop offset="0" stop-color="#5a9fd4"/><stop offset="1" stop-color="#306998"/></linearGradient><linearGradient id="名称未設定グラデーション_2" x1="3996.98" y1="9815.24" x2="3918.67" y2="9704.46" gradientTransform="translate(-2034.47 -5369.38) scale(0.56 0.57)" gradientUnits="userSpaceOnUse"><stop offset="0" stop-color="#ffd43b"/><stop offset="1" stop-color="#ffe873"/></linearGradient></defs><g id="レイヤー_2" data-name="レイヤー 2"><g id="レイヤー_1-2" data-name="レイヤー 1-2"><path id="path1948" class="cls-1" d="M126.69,14.74A151.62,151.62,0,0,0,100.9,17c-22.82,4-27,12.63-27,28V65.53h54v6.88H53.71A33.68,33.68,0,0,0,20,99.74a100.92,100.92,0,0,0,0,54.83c3.85,16,13,27.46,28.69,27.46H67.22V157.41a34.27,34.27,0,0,1,33.71-33.65h53.88a27.13,27.13,0,0,0,26.95-27.33V45c0-14.62-12.31-25.6-26.95-28A168.73,168.73,0,0,0,126.69,14.74ZM97.52,31.28a10.29,10.29,0,1,1-10.1,10.48V41.6A10.23,10.23,0,0,1,97.52,31.28Z"/><path id="path1950" class="cls-2" d="M188.52,72.41v24a34.73,34.73,0,0,1-33.71,34.19H100.93a27.53,27.53,0,0,0-27,27.42v51.36c0,14.61,12.63,23.23,27,27.4a90.35,90.35,0,0,0,53.88,0c13.57-3.92,26.95-11.84,26.95-27.4V188.78H127.89V182h80.86c15.78,0,21.53-10.92,27-27.34s5.39-33.14,0-54.82c-3.86-15.69-11.18-27.46-27-27.46ZM158.25,202.48A10.29,10.29,0,1,1,148.15,213v-.25a10.16,10.16,0,0,1,10.1-10.23Z"/></g></g></svg>