<svg xmlns="http://www.w3.org/2000/svg" xmlns:xlink="http://www.w3.org/1999/xlink" viewBox="0 0 70.85 71.64"><defs><style>.cls-1{fill:url(#名称未設定グラデーション_3);}.cls-2{fill:url(#名称未設定グラデーション_2);}</style><linearGradient id="名称未設定グラデーション_3" x1="1905.49" y1="-9201.04" x2="1974.98" y2="-9260.82" gradientTransform="matrix(0.56, 0, 0, -0.57, -1073.66, -5223.89)" gradientUnits="userSpaceOnUse"><stop offset="0" stop-color="#5a9fd4"/><stop offset="1" stop-color="#306998"/></linearGradient><linearGradient id="名称未設定グラデーション_2" x1="2001.84" y1="-9297" x2="1977.03" y2="-9261.9" gradientTransform="matrix(0.56, 0, 0, -0.57, -1073.66, -5223.89)" gradientUnits="userSpaceOnUse"><stop offset="0" stop-color="#ffd43b"/><stop offset="1" stop-color="#ffe873"/></linearGradient></defs><g id="レイヤー_2" data-name="レイヤー 2"><g id="レイヤー_1-2" data-name="レイヤー 1"><path id="path1948" class="cls-1" d="M35,0a47.76,47.76,0,0,0-8.17.7c-7.23,1.28-8.55,4-8.55,8.88v6.51H35.38v2.18H11.88A10.67,10.67,0,0,0,1.2,26.93a31.93,31.93,0,0,0,0,17.37C2.42,49.36,5.32,53,10.29,53h5.87v-7.8A10.86,10.86,0,0,1,26.84,34.54H43.91a8.6,8.6,0,0,0,8.54-8.68V9.58c0-4.63-3.9-8.11-8.54-8.88A53.56,53.56,0,0,0,35,0ZM25.76,5.24a3.26,3.26,0,1,1-3.2,3.27A3.24,3.24,0,0,1,25.76,5.24Z"/><path id="path1950" class="cls-2" d="M54.59,18.27v7.59A11,11,0,0,1,43.91,36.69H26.84a8.72,8.72,0,0,0-8.55,8.69V61.65c0,4.63,4,7.36,8.55,8.68a28.58,28.58,0,0,0,17.07,0c4.3-1.24,8.54-3.75,8.54-8.68V55.14H35.38V53H61c5,0,6.82-3.46,8.54-8.66s1.71-10.5,0-17.37C68.32,22,66,18.27,61,18.27ZM45,59.48a3.26,3.26,0,1,1-3.2,3.24A3.22,3.22,0,0,1,45,59.48Z"/></g></g></svg>