<svg id="レイヤー_1" data-name="レイヤー 1" xmlns="http://www.w3.org/2000/svg" xmlns:xlink="http://www.w3.org/1999/xlink" viewBox="0 0 256 256"><defs><style>.cls-1{fill:url(#名称未設定グラデーション_3);}.cls-2{fill:url(#名称未設定グラデーション_2);}</style><linearGradient id="名称未設定グラデーション_3" x1="3532.2" y1="9525.63" x2="3697.59" y2="9667.9" gradientTransform="translate(-1923.3 -5369.38) scale(0.56 0.57)" gradientUnits="userSpaceOnUse"><stop offset="0" stop-color="#5a9fd4"/><stop offset="1" stop-color="#306998"/></linearGradient><linearGradient id="名称未設定グラデーション_2" x1="3765.15" y1="9773.16" x2="3706.1" y2="9689.62" gradientTransform="translate(-1923.3 -5369.38) scale(0.56 0.57)" gradientUnits="userSpaceOnUse"><stop offset="0" stop-color="#ffd43b"/><stop offset="1" stop-color="#ffe873"/></linearGradient></defs><g id="レイヤー_2" data-name="レイヤー 2"><g id="レイヤー_1-2" data-name="レイヤー 1-2"><path id="path1948" class="cls-1" d="M127,42.55a113.17,113.17,0,0,0-19.45,1.66c-17.21,3-20.35,9.52-20.35,21.14V80.84h40.7V86H72a25.4,25.4,0,0,0-25.42,20.61,76,76,0,0,0,0,41.34c2.91,12,9.81,20.71,21.64,20.71h14V150.12a25.84,25.84,0,0,1,25.41-25.37h40.63a20.48,20.48,0,0,0,20.33-20.61V65.35c0-11-9.29-19.3-20.33-21.14A127.59,127.59,0,0,0,127,42.55ZM105,55a7.76,7.76,0,1,1-7.61,7.9V62.8A7.7,7.7,0,0,1,105,55Z"/><path id="path1950" class="cls-2" d="M173.63,86v18.06a26.18,26.18,0,0,1-25.42,25.78H107.58a20.74,20.74,0,0,0-20.34,20.68v38.72c0,11,9.52,17.52,20.34,20.66a68,68,0,0,0,40.63,0c10.23-3,20.33-8.92,20.33-20.66V173.78H127.91v-5.09h61c11.9,0,16.24-8.24,20.33-20.62s4.07-25,0-41.33C206.31,94.91,200.78,86,188.88,86ZM150.8,184.11a7.76,7.76,0,1,1-7.61,7.9v-.19a7.65,7.65,0,0,1,7.61-7.71Z"/></g></g></svg>