<svg xmlns="http://www.w3.org/2000/svg" viewBox="0 0 59.45 57.96"><defs><style>.cls-1{fill:#470137;}.cls-2{fill:#ff61f6;}</style></defs><g id="レイヤー_2" data-name="レイヤー 2"><g id="レイヤー_1-2" data-name="レイヤー 1"><g id="Layer_2" data-name="Layer 2"><g id="Surfaces"><g id="UI_UX_Surface" data-name="UI UX Surface"><g id="Outline_no_shadow" data-name="Outline no shadow"><g id="Group_175492" data-name="Group 175492"><path id="Path_104683" data-name="Path 104683" class="cls-1" d="M12.79,0H46.66A12.79,12.79,0,0,1,59.45,12.79V45.17A12.79,12.79,0,0,1,46.66,58H12.79A12.79,12.79,0,0,1,0,45.17H0V12.79A12.79,12.79,0,0,1,12.79,0Z"/></g></g></g></g><g id="Outlined_Mnemonics_Logos" data-name="Outlined Mnemonics Logos"><g id="Xd"><g id="Group_175493" data-name="Group 175493"><path id="Path_104674" data-name="Path 104674" class="cls-2" d="M31.25,15.24,23.83,27.49l7.94,13a.39.39,0,0,1,0,.3c0,.09-.12,0-.28.06H25.87c-.4,0-.68,0-.84-.28-.53-1-1.07-2.07-1.6-3.09s-1.09-2.07-1.69-3.13S20.55,32.21,20,31.12h0c-.53,1.06-1.08,2.12-1.65,3.19l-1.7,3.17c-.56,1.05-1.13,2.09-1.71,3.13-.11.24-.29.26-.56.26H8.84c-.11,0-.17,0-.18-.06a.39.39,0,0,1,.06-.28l7.7-12.65L8.92,15.2c-.08-.1-.1-.19,0-.26a.28.28,0,0,1,.24-.1h5.62a.74.74,0,0,1,.36.06.84.84,0,0,1,.24.22c.48,1.06,1,2.13,1.59,3.19s1.18,2.11,1.78,3.15,1.15,2.09,1.65,3.15h0c.53-1.09,1.07-2.15,1.62-3.19l1.67-3.13c.57-1.05,1.13-2.1,1.66-3.13a.54.54,0,0,1,.16-.26.51.51,0,0,1,.32-.06h5.22a.23.23,0,0,1,.28.16h0a.22.22,0,0,1-.08.23Z"/></g><g id="Group_175494" data-name="Group 175494"><path id="Path_104675" data-name="Path 104675" class="cls-2" d="M42.7,41.37a12.46,12.46,0,0,1-5.32-1.12,8.4,8.4,0,0,1-3.73-3.37,10.78,10.78,0,0,1-1.36-5.64A10.31,10.31,0,0,1,33.65,26a10,10,0,0,1,4-3.83,12.71,12.71,0,0,1,6.26-1.43l.52,0,.75.06V13c0-.19.08-.28.24-.28h5a.21.21,0,0,1,.24.18h0V36.51q0,.68.06,1.47c0,.53.07,1,.1,1.44a.42.42,0,0,1-.24.39,20.29,20.29,0,0,1-4,1.2A22.37,22.37,0,0,1,42.7,41.37Zm2.43-4.95V25.53a3.82,3.82,0,0,0-.66-.12c-.27,0-.54,0-.82,0a6.17,6.17,0,0,0-2.79.64,5.53,5.53,0,0,0-2.09,1.84A5.46,5.46,0,0,0,38,31a6.93,6.93,0,0,0,.42,2.55,4.81,4.81,0,0,0,1.12,1.76,4.29,4.29,0,0,0,1.67,1,6.25,6.25,0,0,0,2.06.32c.37,0,.71,0,1,0a3.79,3.79,0,0,0,.88-.16Z"/></g></g></g></g></g></g></svg>