<svg id="レイヤー_1" data-name="レイヤー 1" xmlns="http://www.w3.org/2000/svg" viewBox="0 0 256 256"><defs><style>.cls-1{fill:#470137;}.cls-2{fill:#ff61f6;}</style></defs><rect class="cls-1" y="0.28" width="256" height="256" rx="46"/><path class="cls-2" d="M70.79,70.17l24.15,37,23.78-36.95h21.07l-34.31,52.65L143,179.31H121.54l-26.6-40.78-26.6,40.78H47l37.13-56.49L49.46,70.17Z"/><path class="cls-2" d="M190.85,106V70.17H209V174.58s-9.83,4.73-32,4.73q-16.59,0-26.54-10.08t-10-27.5A38.32,38.32,0,0,1,145.13,123a34.2,34.2,0,0,1,12.73-13.24,33.79,33.79,0,0,1,17.51-4.81C180.21,104.93,185.15,104.78,190.85,106Zm-9.56,57.64h9.56V121.36c-3.76-2-7.66-2-11.7-2q-9.1,0-14.55,6t-5.44,15.79C159.16,156.78,166.54,163.62,181.29,163.62Z"/></svg>