<?xml version="1.0" encoding="utf-8"?>
<!-- Generator: Adobe Illustrator 28.3.0, SVG Export Plug-In . SVG Version: 6.00 Build 0)  -->
<svg version="1.1" id="_x32_" xmlns="http://www.w3.org/2000/svg" xmlns:xlink="http://www.w3.org/1999/xlink" x="0px" y="0px"
	 viewBox="0 0 512 512" style="enable-background:new 0 0 512 512;" xml:space="preserve">
<style type="text/css">
	.st0{fill:#FFFFFF;}
</style>
<g>
	<path class="st0" d="M298.8,409.4c0,22.2,0.8,55.9,0.8,65.8c0,21.4-3.3,24.7-23.9,24.7h-41.1c-20.6,0-23.9-3.3-23.9-24.7
		c0-8.2,0.8-43.6,0.8-65.8v-87.2c0-20.6-4.1-24.7-24.7-24.7h-87c-25.5,0-60.1,0.8-70.7,0.8c-17.3,0-19.7-4.9-19.7-23.9v-36.2
		c0-18.9,2.5-23.9,19.7-23.9c10.7,0,45.2,0.8,70.7,0.8H187c20.6,0,24.7-4.1,24.7-24.7v-88c0-25.5-0.8-60.1-0.8-70.7
		c0-17.3,4.9-19.7,23.9-19.7h41.1c18.9,0,23.9,2.5,23.9,19.7c0,10.7-0.8,45.2-0.8,70.7v88c0,20.6,4.1,24.7,24.7,24.7h88.8
		c25.5,0,60.1-0.8,70.7-0.8c17.3,0,19.7,4.9,19.7,23.9v36.2c0,18.9-2.5,23.9-19.7,23.9c-10.7,0-45.2-0.8-70.7-0.8h-88.8
		c-20.6,0-24.7,4.1-24.7,24.7v87.2L298.8,409.4L298.8,409.4z"/>
</g>
</svg>
