<svg xmlns="http://www.w3.org/2000/svg" viewBox="0 0 517.63 93.22"><defs><style>.cls-1{fill:#af9679;}</style></defs><g id="レイヤー_2" data-name="レイヤー 2"><g id="レイヤー_1-2" data-name="レイヤー 1"><path class="cls-1" d="M56.52,46.57H54.84c-5.49,0-10.13-.51-14.6-.84v3.54c.09,14.93-7.76,25.06-20.08,25.06C9,74.33,0,66,0,52.39,0,37.8,8.27,31.81,14.51,31.81c7.42,0,10.8,5.56,10.8,13.16,0,6.83-4.47,12.48-6.83,14a2.78,2.78,0,0,1-1.27.51.83.83,0,0,1-.76-.85,2,2,0,0,1,.42-1C17.8,56,20,52.73,20,45.39c0-5.74-1.68-10.63-5.31-10.63-4.39,0-8.61,4.89-8.61,17.46,0,11.56,6.16,19.15,14.43,19.15,9.7,0,13.25-9.19,13.25-23.62V45.47h-.26c-1.77,0-3.46,1.18-3.88,1.18s-1.18-1.09-1.18-1.77c0-1,2.62-1.68,4.73-1.68h.59c.17-9.12.75-17.64,3.12-24.56C40.5,8,47.67,1.18,59.14,1.18,60.91,1.18,62.77,0,63.36,0a.73.73,0,0,1,.76.84c0,.59-.51,1.78-.51,2.79A201.21,201.21,0,0,0,62,30.54c0,3,0,7.17.25,11.56,2.79-1.52,3.8-3.29,4.22-3.29A3.88,3.88,0,0,1,69,41.25c0,.76-1.69,3.13-6.5,4.48.68,8.18,2.2,15.94,5.4,15.94,5,0,8.86-10.8,8.86-10.8s.34-.93,1.1-.93a.91.91,0,0,1,1,.93,5.23,5.23,0,0,1-.25,1.18s-5.23,15-12.57,15C59.48,67.07,57,60.57,56.52,46.57Zm-.16-2.78V39.06c0-23.37,2.1-33.83,2.1-34.76,0-.5-.25-.59-.84-.59C50.2,3.71,45,10.46,42.44,20.33,40.66,27,40.24,35,40.24,43.53c3.63.26,8,.42,13,.42A19.44,19.44,0,0,0,56.36,43.79Z"/><path class="cls-1" d="M102,66.31c.26,2.7.43,5.57.43,8.86,0,11.3-5.57,18-12,18a8.22,8.22,0,0,1-8.52-7.93c0-6.07,7.5-11.39,14.93-17.8-.51-5.73-1.18-10.8-1.18-10.8-1.86,4.64-5.57,9.62-9.45,9.62-4.64,0-10-4-10-16.28,0-14.85,3.8-20.84,7.68-20.84a1,1,0,0,1,1.1,1c0,1.1-2.37,7.85-2.37,19.24,0,10,1.94,13.24,4.56,13.24,3,0,7.68-7.59,7.68-12.14,0-14.85,2.87-18.57,6.75-18.57a1,1,0,0,1,1.09,1c0,1.09-2.11,5.06-2.11,17.12a106,106,0,0,0,1,13.16c3.71-3.62,6.91-7.67,8.6-12.4,0,0,.34-.93,1.1-.93a.91.91,0,0,1,1,.93,5.23,5.23,0,0,1-.25,1.18C110.26,57.71,106.3,62.35,102,66.31ZM89.76,89.93c4.3,0,7.59-4.89,7.59-13.16,0-1.94-.08-4-.25-6.16C90.86,75.93,85.21,80.32,85.21,85,85.21,88.33,87,89.93,89.76,89.93Z"/><path class="cls-1" d="M127.13,58c-.08.42-2,8.44-7.67,8.44-4.56,0-9.62-4.73-9.62-13.59,0-15.6,8.86-22.94,16.28-22.94,4.22,0,7.51,2.78,7.51,6.83,0,1.35-2.28,2.53-3.29,2.53a.57.57,0,0,1-.59-.59c0-.59.17-1,.17-2.11,0-2.61-1.61-3.8-3.88-3.8-4.39,0-10,6.33-10,20.08,0,6.33,2,10.13,4.64,10.13,3.12,0,5.06-7.68,5.91-12.74.67-4,.92-9.37,6.91-9.37a.69.69,0,0,1,.76.68c0,.76-2.11,3.29-2.11,11.47,0,4.47.76,7.85,3.21,7.85,4,0,7.51-10,7.51-10s.34-.93,1.09-.93a.91.91,0,0,1,1,.93,5.06,5.06,0,0,1-.26,1.18s-4.47,13-10.29,13C128.9,65.05,127.3,58.55,127.13,58Z"/><path class="cls-1" d="M190.57,50.87s.34-.93,1.1-.93a.91.91,0,0,1,1,.93,5.23,5.23,0,0,1-.25,1.18S187.54,66.31,180,66.31a6.89,6.89,0,0,1-6.84-7c0-9,4.39-13.08,4.39-19.4,0-1.27-.67-2.54-2.19-2.45-2.62.08-6.41,4.3-8.19,9.7-1.77,5.57-1.94,11.31-1.94,16.45,0,.76-.33,1.18-1.09,1.18-4.39,0-3.88-2.36-3.88-21.93,0-6.67,0-9.79-2.37-9.79-3.37,0-6.83,10-8.6,20.5a52.09,52.09,0,0,0-.85,9.37c0,1.26-1.68,1.85-2.53,1.85-1.43,0-3.46-6.32-3.46-15.77,0-12.24,1.35-16.71,5.23-16.71.68,0,1.1.34,1.1,1,0,1.1-1.18,4-1.18,17.72,1.69-9.79,4.56-21.85,11.9-21.85,4.64,0,6.41,4.3,6.41,10.55a27.73,27.73,0,0,1-.26,4.55c1.36-3,6.5-10.71,11.9-10.71,3.46,0,5.23,2.61,5.23,5.73,0,6-3.8,12.41-3.8,19.66,0,1.94,1.1,3.29,2.87,3.29C186.44,62.26,190.57,50.87,190.57,50.87Z"/><path class="cls-1" d="M189.3,50.79c0-13.42,7.34-19.74,13.08-19.74,4.13,0,8.44,3,8.44,10.71,0,5.74-4.14,10.21-9,10.21-2.45,0-4.3-1.27-4.3-1.94a1.1,1.1,0,0,1,.93-1.1c.5,0,.92.76,2.36.76,2.87,0,4.81-4.22,4.81-8,0-5.32-1.27-7.76-3.38-7.76-3,0-6.92,5-6.92,15.43,0,8.78,4.14,13.25,9.2,13.25,3.88,0,6.16-2.45,7.68-4.64.59-.84.84-1.27,1.43-1.27a.89.89,0,0,1,.93.93,3.63,3.63,0,0,1-.51,1.44c-1.26,2.53-4.38,7.5-11.39,7.5C195.8,66.56,189.3,61.92,189.3,50.79Z"/><path class="cls-1" d="M255.44,59.82a2.79,2.79,0,0,1-1.26.5.83.83,0,0,1-.76-.84,2,2,0,0,1,.42-1,19.78,19.78,0,0,0,3.21-10.64c0-4.63-1.78-8.68-6.16-8.68-3.63,0-8.44,4.64-8.44,13.92,0,11.22,7.85,17.12,14.43,17.12,10.12,0,15-8.52,15-22,0-13-5-19.91-5-32.31a19.93,19.93,0,0,1,2.28-8.69s-2.54-1.77-8.27-1.77c-9.37,0-14.6,5.23-14.6,10.88s4.73,10.72,7.43,12.07c.67.33.84.67.84.93a.9.9,0,0,1-1,.84c-4.31,0-14-6.41-14-14.6s7-13.83,18-13.83a38.1,38.1,0,0,1,13.59,2.87s4-3.46,7.59-3.46c2,0,3.2.92,3.2,2.61,0,4-5.39,5.23-9.28,4.39a15.07,15.07,0,0,0-1.18,6.24c0,11.73,7.6,20,7.6,34.34,0,13.5-8.36,24.13-21.86,24.13-8.85,0-20.75-5.23-20.75-19.58,0-10.71,8.1-16.45,14.6-16.45,6.32,0,11.22,4.47,11.22,10.8A14.5,14.5,0,0,1,255.44,59.82Z"/><path class="cls-1" d="M302.18,58c-.09.42-2,8.44-7.68,8.44-4.55,0-9.62-4.73-9.62-13.59,0-15.6,8.86-22.94,16.29-22.94,4.21,0,7.5,2.78,7.5,6.83,0,1.35-2.27,2.53-3.29,2.53a.58.58,0,0,1-.59-.59c0-.59.17-1,.17-2.11,0-2.61-1.6-3.8-3.88-3.8-4.38,0-9.95,6.33-9.95,20.08,0,6.33,2,10.13,4.64,10.13,3.12,0,5.06-7.68,5.9-12.74.68-4,.93-9.37,6.92-9.37a.7.7,0,0,1,.76.68c0,.76-2.11,3.29-2.11,11.47,0,4.47.76,7.85,3.21,7.85,4,0,7.51-10,7.51-10s.33-.93,1.09-.93a.91.91,0,0,1,1,.93,5.23,5.23,0,0,1-.25,1.18s-4.47,13-10.29,13C304,65.05,302.35,58.55,302.18,58Z"/><path class="cls-1" d="M317.53,48.17a111.29,111.29,0,0,1,1.6-18.64,38.46,38.46,0,0,1-4.13-.42c-1.1-.17-1.69-2-1.69-2.62a.4.4,0,0,1,.42-.42,32.91,32.91,0,0,0,6,.42,32.33,32.33,0,0,1,3.46-9.79,5.19,5.19,0,0,1,3.46-2.36.85.85,0,0,1,.93.93c0,.59-1.26,4.39-2.36,11.05,6.5-.42,8.18-1.85,8.86-1.85a.62.62,0,0,1,.67.67c0,1.27-1.77,3.46-3.88,3.88a30.63,30.63,0,0,1-6.07.51,138.5,138.5,0,0,0-1.18,18.64c0,10.3,2.78,14,5.73,14,4.14,0,8.35-11.31,8.35-11.31s.34-.93,1.1-.93a.91.91,0,0,1,1,.93,5.23,5.23,0,0,1-.25,1.18s-5.15,14.68-12.06,14.68C322.59,66.73,317.53,61.42,317.53,48.17Z"/><path class="cls-1" d="M337.36,49.1c0-13.92,7.08-19.74,12.65-19.74,4.81,0,9.28,3.54,9.28,11.22,0,6.75-4.3,10.29-10.12,10.29a19.53,19.53,0,0,1-5.66-.76c.68,7.43,5,10.8,9.62,10.8,7.68,0,11.56-10,11.56-10s.34-.93,1.1-.93a.91.91,0,0,1,1,.93,5.23,5.23,0,0,1-.25,1.18S362,64.88,351.78,64.88C344.61,64.88,337.36,59.73,337.36,49.1Zm6.07-1.35a14,14,0,0,0,4.22.51c4,0,6.24-3.8,6.24-8.86,0-4.64-1.94-7.17-3.63-7.17C347.4,32.23,343.51,37.54,343.43,47.75Z"/><path class="cls-1" d="M412.36,50.87s.33-.93,1.09-.93a.91.91,0,0,1,1,.93,5.23,5.23,0,0,1-.25,1.18s-4.89,14.26-12.4,14.26a6.88,6.88,0,0,1-6.83-7c0-9,4.38-13.08,4.38-19.4,0-1.27-.67-2.54-2.19-2.45-2.62.08-6.41,4.3-8.18,9.7-1.78,5.57-1.94,11.31-1.94,16.45,0,.76-.34,1.18-1.1,1.18-4.39,0-3.88-2.36-3.88-21.93,0-6.67,0-9.79-2.36-9.79-3.38,0-6.84,10-8.61,20.5a52.69,52.69,0,0,0-.84,9.37c0,1.26-1.69,1.85-2.53,1.85-1.44,0-3.46-6.32-3.46-15.77,0-12.24,1.35-16.71,5.23-16.71a1,1,0,0,1,1.09,1c0,1.1-1.18,4-1.18,17.72,1.69-9.79,4.56-21.85,11.9-21.85,4.64,0,6.41,4.3,6.41,10.55a28.82,28.82,0,0,1-.25,4.55c1.35-3,6.49-10.71,11.89-10.71,3.46,0,5.23,2.61,5.23,5.73,0,6-3.79,12.41-3.79,19.66,0,1.94,1.09,3.29,2.87,3.29C408.22,62.26,412.36,50.87,412.36,50.87Z"/><path class="cls-1" d="M429.22,58c-.08.42-2,8.44-7.67,8.44-4.56,0-9.62-4.73-9.62-13.59,0-15.6,8.86-22.94,16.28-22.94,4.22,0,7.51,2.78,7.51,6.83,0,1.35-2.28,2.53-3.29,2.53a.57.57,0,0,1-.59-.59c0-.59.17-1,.17-2.11,0-2.61-1.6-3.8-3.88-3.8-4.39,0-10,6.33-10,20.08,0,6.33,2,10.13,4.64,10.13,3.12,0,5.07-7.68,5.91-12.74.67-4,.93-9.37,6.92-9.37a.7.7,0,0,1,.76.68c0,.76-2.11,3.29-2.11,11.47,0,4.47.76,7.85,3.2,7.85,4,0,7.51-10,7.51-10s.34-.93,1.1-.93a.91.91,0,0,1,1,.93,5.23,5.23,0,0,1-.25,1.18s-4.47,13-10.3,13C431,65.05,429.39,58.55,429.22,58Z"/><path class="cls-1" d="M444.58,48.17a111.29,111.29,0,0,1,1.6-18.64,38.18,38.18,0,0,1-4.13-.42c-1.1-.17-1.69-2-1.69-2.62a.4.4,0,0,1,.42-.42,32.91,32.91,0,0,0,6,.42,32.33,32.33,0,0,1,3.46-9.79,5.16,5.16,0,0,1,3.46-2.36.85.85,0,0,1,.93.93c0,.59-1.27,4.39-2.37,11.05,6.5-.42,8.19-1.85,8.86-1.85a.62.62,0,0,1,.68.67c0,1.27-1.77,3.46-3.88,3.88a30.67,30.67,0,0,1-6.08.51,140.17,140.17,0,0,0-1.18,18.64c0,10.3,2.79,14,5.74,14,4.13,0,8.35-11.31,8.35-11.31s.34-.93,1.1-.93a.91.91,0,0,1,1,.93,5.23,5.23,0,0,1-.25,1.18s-5.15,14.68-12.07,14.68C449.64,66.73,444.58,61.42,444.58,48.17Z"/><path class="cls-1" d="M467.19,32.23c.08-3.88,1.77-5.91,4-5.91a3.13,3.13,0,0,1,3.21,3.46c0,2-1.78,5.82-1.78,5.82,0,5.06,11.06,11.48,11.06,19.66a7.76,7.76,0,0,1-.26,2c4-1.51,5.57-6.41,5.57-6.41s.34-.93,1.1-.93a.91.91,0,0,1,1,.93,5.23,5.23,0,0,1-.25,1.18s-1.94,6.5-8.35,7.68c-2.11,3.88-6.84,6.33-11.22,6.33s-9-2.28-9-6.16a4,4,0,0,1,4.13-3.8c3,0,6.5.93,10.55,1.35a17.2,17.2,0,0,0,.17-2c0-7.26-5.74-13-7-16.12a72.92,72.92,0,0,1-3.45,12.74s-.34.93-1.1.93a.91.91,0,0,1-1-.93,5.23,5.23,0,0,1,.25-1.18A86.52,86.52,0,0,0,468,38,27.29,27.29,0,0,1,467.19,32.23Zm9,27.42c-3-.34-5.73-.93-7.84-.93-1.52,0-2.28.84-2.28,1.85,0,1.61,2.11,3.13,4.55,3.13C473.43,63.7,475.2,61.92,476.21,59.65Z"/><path class="cls-1" d="M516.79,63.7c.42.33.84.5.84.92s-.42.85-1.51.85a9,9,0,0,1-8.78-8.94c-1.94,4.21-4.55,8.77-9.62,8.77-3.62,0-9.36-2.36-9.36-15.86,0-13.67,4.72-17.72,7.68-17.72a1,1,0,0,1,1.09,1c0,1.1-2.95,4.81-2.95,18.56,0,9,3.38,10.63,5.49,10.63,3.37,0,7.59-8.94,7.59-13.49,0-14.85,3.54-19.91,7.42-19.91.68,0,1.1.33,1.1,1,0,1.09-2.11,5.4-2.11,19.66C513.67,60.32,514.68,62,516.79,63.7Z"/></g></g></svg>