<?xml version="1.0" encoding="UTF-8"?><svg id="_イヤー_2" xmlns="http://www.w3.org/2000/svg" viewBox="0 0 81.07 215.16"><defs><style>.cls-1{fill:#fff;}.cls-2{fill:#9bd1cf;}</style></defs><g id="_イヤー_1-2"><g><g><path class="cls-2" d="M33.35,.76c46.21-7.77,55.08,46.05,42.6,72.29-5.29,11.12-14.62,18.27-23.64,20.85l2.54,5.69-5.55,1.1c-.28,7.52,1.4,14.52,4.1,22.65,4.33,13.01,5.92,25.64,7.6,39.02l.07,.59c.56,4.45,2.03,8.83,3.46,13.07,1.27,3.78,2.59,7.69,3.27,11.69,.7,4.06,.63,8.26,.56,12.32-.08,4.91-.17,9.99,1.14,14.74l-1.39,.38c-1.36-4.95-1.27-10.13-1.19-15.14,.07-4,.13-8.13-.54-12.06-.67-3.89-1.97-7.74-3.22-11.47-1.45-4.31-2.94-8.76-3.52-13.35l-.07-.59c-1.67-13.3-3.25-25.87-7.53-38.74-2.72-8.17-4.42-15.23-4.19-22.82l-4.45,.88,1.36-6.85c-9.12,.15-19.71-3.6-27.99-12.01C-3.63,62.29-12.87,8.53,33.35,.76Z"/><path class="cls-1" d="M25.22,21.34c1.61,5.99-4.81,14.01-12.28,10.36-10.32-5.05,.03-18.66,8.22-14.94,.23,.1,.45,.22,.69,.35,1.85,1.05,2.93,2.56,3.38,4.23Z"/></g><path id="Logo" class="cls-1" d="M59.31,46.64c.02,.34,.02,.68,.02,1.03,0,10.49-7.98,22.58-22.58,22.58h0c-4.31,0-8.53-1.24-12.16-3.56,.63,.08,1.26,.11,1.89,.11,3.57,0,7.04-1.2,9.85-3.4-3.39-.06-6.37-2.28-7.41-5.51,1.19,.23,2.41,.18,3.58-.14-3.7-.75-6.36-4-6.37-7.78v-.1c1.1,.62,2.34,.96,3.6,.99-3.49-2.33-4.56-6.97-2.46-10.59,4.03,4.96,9.97,7.97,16.35,8.29-.64-2.76,.23-5.64,2.3-7.58,3.2-3,8.22-2.85,11.23,.34,1.78-.35,3.48-1,5.04-1.93-.59,1.84-1.83,3.4-3.49,4.39,1.57-.19,3.11-.61,4.56-1.25-1.07,1.59-2.41,2.98-3.96,4.11Z"/></g></g></svg>