<svg xmlns="http://www.w3.org/2000/svg" viewBox="0 0 102.34 274.47"><defs><style>.cls-1{fill:#e595ac;}.cls-2,.cls-3{fill:#fff;}.cls-3{fill-rule:evenodd;}</style></defs><g id="レイヤー_2" data-name="レイヤー 2"><g id="レイヤー_1-2" data-name="レイヤー 1"><path class="cls-1" d="M56.64.36c59.18,5.94,52,74.8,28,102.75-10.2,11.84-24,17.48-35.91,17.62l1.2,7.82L42.74,128c-2.85,9.12-3.14,18.25-2.55,29.11,1,17.38-1.33,33.37-3.75,50.31l-.11.75c-.8,5.63-.46,11.49-.13,17.16a101.44,101.44,0,0,1,.1,15.4,84.48,84.48,0,0,1-3.43,15.28c-1.75,6-3.55,12.17-3.54,18.42H27.5c0-6.51,1.83-12.83,3.61-18.94a83,83,0,0,0,3.37-14.94,100.43,100.43,0,0,0-.11-15.12c-.33-5.75-.68-11.71.15-17.52l.11-.75c2.4-16.85,4.67-32.76,3.73-49.95-.59-10.91-.31-20.12,2.5-29.34l-5.75-.41,4-7.93c-11.21-2.86-22.93-11-30.26-24.07C-9.21,63.33-2.54-5.58,56.64.36Z"/><path class="cls-2" d="M39.8,22.84c0,7.87-10.57,15.55-18.5,8.58-11-9.64,6.28-22.83,15.06-15.55.24.21.48.42.72.66A8.69,8.69,0,0,1,39.8,22.84Z"/><circle class="cls-2" cx="71.52" cy="57.05" r="6.49"/><path class="cls-3" d="M45.25,75.66c-.39-.26-1.5-1.74-4.56-9.06q-.28-.69-.54-1.2l-.63-1.51-5.37-13H23.4l5.38,13,5.37,13,5,12a.45.45,0,0,0,.59.24.43.43,0,0,0,.24-.24l5.4-12.92A.22.22,0,0,0,45.25,75.66Z"/><path class="cls-3" d="M65.38,75.66c-.38-.26-1.49-1.74-4.56-9.06q-.28-.69-.54-1.2l-.62-1.51-5.38-13H43.54l5.37,13,5.37,13,5,12a.44.44,0,0,0,.82,0l5.4-12.92A.22.22,0,0,0,65.38,75.66Z"/></g></g></svg>