<svg xmlns="http://www.w3.org/2000/svg" viewBox="0 0 153.57 212.38"><defs><style>.cls-1{fill:#b5a081;}.cls-2{fill:#fff;}</style></defs><g id="レイヤー_2" data-name="レイヤー 2"><g id="レイヤー_1-2" data-name="レイヤー 1"><path class="cls-1" d="M21.1,8.37C65-20.2,98,31,97,63.38c-.46,13.75-6.82,25.23-14.9,31.9L87.19,100,82,103.58c3.08,7.82,7.91,14.24,14.3,21.36,10.24,11.39,17.5,23.62,25.19,36.56l.34.58c2.55,4.3,6,8.13,9.37,11.84a89.68,89.68,0,0,1,8.56,10.5,73.84,73.84,0,0,1,6.07,12.37c2.11,5.07,4.29,10.3,7.74,14.58l-1.25,1c-3.6-4.45-5.82-9.8-8-15a72.6,72.6,0,0,0-5.94-12.1A86.41,86.41,0,0,0,130,175c-3.4-3.77-6.92-7.66-9.56-12.1l-.34-.57c-7.64-12.88-14.86-25-25-36.31-6.43-7.15-11.32-13.62-14.47-21.5l-4.17,2.9L74.81,99.8c-9.27,4.22-21.79,5.1-34,.18C10.69,87.87-22.75,36.94,21.1,8.37Z"/><path class="cls-2" d="M22,33.07c4.32,5.41,1.32,16.49-8,16.08-12.82-.56-8.28-19.11,1.75-19,.28,0,.57,0,.86,0A7.7,7.7,0,0,1,22,33.07Z"/><path class="cls-2" d="M35.65,40.67H69.84a4.21,4.21,0,0,1,1.75.38L52.74,63l-18.84-22a4.17,4.17,0,0,1,1.75-.38ZM31.37,70.59V44.94c0-.09,0-.17,0-.26L43.92,59.3,31.52,71.7a4.13,4.13,0,0,1-.15-1.11Zm38.47,4.27H35.65a4.56,4.56,0,0,1-1.11-.14L46.71,62.55l6,7,6-7L71,74.72a4.56,4.56,0,0,1-1.11.14Zm4.28-4.27A4.13,4.13,0,0,1,74,71.7L61.57,59.3,74.11,44.68c0,.09,0,.17,0,.26V70.59Z"/></g></g></svg>