<svg xmlns="http://www.w3.org/2000/svg" viewBox="0 0 81.07 215.16"><defs><style>.cls-1{fill:#9bd1cf;}.cls-2,.cls-3{fill:#fff;}.cls-3{fill-rule:evenodd;}</style></defs><g id="レイヤー_2" data-name="レイヤー 2"><g id="レイヤー_1-2" data-name="レイヤー 1"><path class="cls-1" d="M33.35.76C79.57-7,88.43,46.81,76,73.05,70.66,84.17,61.33,91.32,52.31,93.9l2.54,5.69-5.55,1.1c-.28,7.53,1.39,14.53,4.1,22.66,4.33,13,5.91,25.64,7.59,39l.08.59A68.27,68.27,0,0,0,64.53,176a79.83,79.83,0,0,1,3.27,11.68A66.16,66.16,0,0,1,68.36,200c-.08,4.91-.16,10,1.14,14.74l-1.39.38C66.75,210.21,66.84,205,66.92,200A64.71,64.71,0,0,0,66.38,188a78.75,78.75,0,0,0-3.22-11.47,69.79,69.79,0,0,1-3.52-13.35l-.08-.59c-1.67-13.31-3.25-25.87-7.53-38.75-2.72-8.17-4.42-15.23-4.19-22.82l-4.46.89L44.74,95c-9.11.15-19.71-3.6-28-12C-3.63,62.29-12.87,8.53,33.35.76Z"/><path class="cls-2" d="M25.22,21.34c1.61,6-4.81,14-12.28,10.36-10.33-5.05,0-18.65,8.22-14.94.22.1.45.22.68.35A6.91,6.91,0,0,1,25.22,21.34Z"/><g id="Group"><path id="Path_2" data-name="Path 2" class="cls-3" d="M25.28,42.74l24.29-10a7.61,7.61,0,0,1,9.92,4.08,7.52,7.52,0,0,1,.5,4l-3.71,26.3A7.6,7.6,0,0,1,44,71.91L23.47,55.63A7.53,7.53,0,0,1,22.25,45,7.66,7.66,0,0,1,25.28,42.74ZM42.82,54.61a5.3,5.3,0,0,1-.24-1.6c0-3,2.41-5.32,5.78-5.32,2.9,0,5.67,1.93,5.67,6H45.6c.06,1.27,1.27,2.19,3.21,2.19a4.47,4.47,0,0,0,2.89-1.2l1.76,1.62a6.72,6.72,0,0,1-4.88,2,6.38,6.38,0,0,1-4.44-1.52,6,6,0,0,1-3.77,1.52c-3.39,0-4.43-3.67-4.59-5.13h-1.9V58H30.74V44.22h6.34a4.33,4.33,0,0,1,4.55,4.53,4.18,4.18,0,0,1-3,4.14c.37,1.46.94,2.65,2.37,2.65A3.08,3.08,0,0,0,42.82,54.61Zm-8.94-3.94h2.79a2,2,0,0,0,0-3.89H33.88Zm14.44-.59a2.6,2.6,0,0,0-2.66,1.79h5.25A2.45,2.45,0,0,0,48.32,50.08Z"/></g></g></g></svg>