<?xml version="1.0" encoding="utf-8"?>
<!-- Generator: Adobe Illustrator 26.0.3, SVG Export Plug-In . SVG Version: 6.00 Build 0)  -->
<svg version="1.1" id="_x32_" xmlns="http://www.w3.org/2000/svg" xmlns:xlink="http://www.w3.org/1999/xlink" x="0px" y="0px"
	 viewBox="0 0 512 512" style="enable-background:new 0 0 512 512;" xml:space="preserve">
<style type="text/css">
	.st0{fill:#AD5A88;}
</style>
<g>
	<path class="st0" d="M436.6,374.3c16.3,16.3,33.4,32.5,50.6,48.8c9.1,8.1,12.7,12.7,12.7,18.1c0,5.4-3.6,10.9-11.7,19l-27.1,27.1
		c-8.1,8.1-14.5,12.7-19.9,12.7c-5.4,0-9.9-4.5-18.1-12.7c-17.1-19-33.4-35.3-49.6-51.4L275,337.3c-7.2-7.2-12.7-11.7-18.1-11.7
		c-6.3,0-10.9,2.7-19.9,11.7l-99.3,98.5c-16.3,16.3-32.5,33.4-48.8,51.4c-8.1,8.1-13.5,12.7-19,12.7c-4.5,0-9.9-3.6-18.1-11.7
		l-28-28c-8.1-8.2-11.7-13.5-11.7-18.1c0-5.4,4.5-10.9,12.7-19c18.1-16.3,34.3-32.5,50.6-48.8l99.4-99.4c8.1-8.1,11.7-13.5,11.7-19
		s-3.6-10.9-11.7-19l-97.6-97.6c-16.3-16.3-34.3-34.3-52.4-50.6c-8.2-8.1-12.7-12.7-12.7-18.1c0-5.4,4.5-11.7,12.7-19.9L51,24.7
		c8.1-8.1,13.5-12.6,19-12.6s10.9,4.5,19,13.5c16.3,18.1,34.3,36.1,51.4,52.4l96.7,96.7c7.2,7.2,12.7,11.7,18.1,11.7
		c5.4,0,10.9-2.7,19.9-11.7L371.7,78c15.3-16.3,33.4-34.3,51.4-53.3c8.1-8.1,12.7-12.7,18.1-12.7c5.4,0,11.7,4.5,19.9,12.7L487.3,51
		c8.1,8.1,12.7,14.5,12.7,19.9c0,5.4-4.5,9.9-12.7,18.1c-18.1,16.3-36.1,34.3-53.3,51.4L337.3,237c-7.2,7.2-11.7,12.7-11.7,18.1
		c0,5.4,2.7,10.9,11.7,19.9L436.6,374.3z"/>
</g>
</svg>
