<svg xmlns="http://www.w3.org/2000/svg" xmlns:xlink="http://www.w3.org/1999/xlink" viewBox="0 0 150.76 111.05"><defs><style>.cls-1{fill:none;}.cls-2{fill:#d18fa1;}.cls-3{fill:#c37394;}.cls-4{fill:#eeb1c0;}.cls-5{fill:#470137;}.cls-6{fill:#ff61f6;}.cls-7{isolation:isolate;}.cls-8{clip-path:url(#clip-path);}.cls-9{fill:#fff;}.cls-10{clip-path:url(#clip-path-2);}</style><clipPath id="clip-path" transform="translate(-6.06)"><polygon class="cls-1" points="37.12 95.53 13.11 78.58 13.05 66.69 37.13 83.41 37.12 95.53"/></clipPath><clipPath id="clip-path-2" transform="translate(-6.06)"><polygon class="cls-1" points="88.28 84.76 88.38 71.85 109.06 65.59 108.88 78.4 88.28 84.76"/></clipPath></defs><g id="レイヤー_2" data-name="レイヤー 2"><g id="About_Me" data-name="About Me"><g id="XD"><polygon class="cls-2" points="0 84.53 100.68 53.63 100.68 14.93 0.03 45.24 0 84.53"/><polygon class="cls-3" points="137.6 40.35 100.68 13.59 0 43.77 1.42 44.82 100.64 14.93 136.17 40.84 137.6 40.35"/><polygon class="cls-4" points="136.17 40.84 100.68 14.93 100.68 53.63 136.17 79.45 136.17 40.84"/><polygon class="cls-3" points="0.03 84.74 0.03 43.77 36.92 71.22 36.92 111.05 0.03 84.74"/><rect class="cls-5" x="36.63" width="72.25" height="72.25" rx="12.98"/><path class="cls-6" d="M62.67,19.72l6.82,10.43L76.2,19.72h5.94L72.46,34.58,83.05,50.52H77L69.49,39,62,50.52H56L66.44,34.58,56.65,19.72Z" transform="translate(-6.06)"/><path class="cls-6" d="M96.55,29.83V19.72h5.12V49.19s-2.77,1.33-9,1.33a10,10,0,0,1-7.49-2.84,10.57,10.57,0,0,1-2.81-7.76,10.83,10.83,0,0,1,1.31-5.29,9.71,9.71,0,0,1,8.53-5.1A19.84,19.84,0,0,1,96.55,29.83ZM93.86,46.1h2.69V34.17a6.61,6.61,0,0,0-3.3-.58,5.3,5.3,0,0,0-4.11,1.7,6.4,6.4,0,0,0-1.53,4.45C87.61,44.17,89.69,46.1,93.86,46.1Z" transform="translate(-6.06)"/><polygon class="cls-3" points="137.6 80.16 36.92 111.05 36.92 71.22 36.92 71.25 137.6 40.35 137.6 80.16"/><path class="cls-3" d="M143.66,80.16l13.17-4.39c-1.37-15.52-13.17-35.42-13.17-35.42" transform="translate(-6.06)"/><g id="星"><g class="cls-7"><g class="cls-8"><polyline class="cls-9" points="27.7 81.07 28.49 86.25 31.06 88.05 28.98 89.45 29.77 94.62 27.7 90.32 25.64 91.7 26.42 87.66 24.36 83.36 26.91 85.14 27.7 81.07"/><polyline class="cls-9" points="18.89 74.95 19.68 80.09 22.21 81.86 20.17 83.27 20.95 88.4 18.91 84.14 16.89 85.53 17.65 81.51 15.62 77.25 18.13 79 18.89 74.95"/><polyline class="cls-9" points="10.23 68.94 11.01 74.03 13.5 75.77 11.49 77.19 12.28 82.28 10.26 78.06 8.28 79.45 9.02 75.45 7.01 71.24 9.48 72.96 10.23 68.94"/></g></g></g><g class="cls-7"><g class="cls-10"><path class="cls-9" d="M97.66,69.08l-1.2.36-.24.09a.57.57,0,0,0-.18.12.86.86,0,0,0-.14.18,2.37,2.37,0,0,0-.15.28l-.4.82-.38.78c-.12.25-.25.5-.38.75l-.39.77-.64,1.27-.08.14-.07.11s0,0-.06.06l-.06,0h-.06l-.06,0-.07-.07L93,74.66l-.62-.88c-.12-.18-.25-.35-.38-.53l-.37-.53-.39-.55-.39-.58a1,1,0,0,0-.15-.19.33.33,0,0,0-.14-.1.51.51,0,0,0-.18,0l-.24.06-1.25.37-.16.06-.11.07-.07.08a.24.24,0,0,0,0,.09.18.18,0,0,0,0,.06s0,0,0,.06a.25.25,0,0,0,0,.07l.05.07.55.72c.18.23.35.44.51.66l.48.62.45.61,1.25,1.73a.83.83,0,0,1,.08.12.31.31,0,0,1,0,.1l0,.08a.28.28,0,0,1,0,.09.34.34,0,0,1,0,.1l0,.12a1.21,1.21,0,0,1,0,.14s0,.1-.08.16l-1.69,3.24-.44.85c-.16.28-.31.58-.47.87l-.46.87-.45.84-.06.11,0,.09a.31.31,0,0,0,0,.08.2.2,0,0,0,0,.07.08.08,0,0,0,0,.07.09.09,0,0,0,.06,0h.11l.16,0,1.17-.36.24-.09.18-.12a.72.72,0,0,0,.14-.19,2.13,2.13,0,0,0,.16-.28l.36-.75.36-.72.34-.69.36-.7.94-1.87.07-.13.07-.11.06-.07s0,0,.06,0a.06.06,0,0,1,.06,0,.09.09,0,0,1,.06,0l.07.06.07.09L94.34,80l.33.47.34.48.34.51.35.54a1,1,0,0,0,.15.19.24.24,0,0,0,.14.09.31.31,0,0,0,.17,0l.24-.06,1.24-.38.16-.06a.41.41,0,0,0,.11-.07.27.27,0,0,0,.07-.08.19.19,0,0,0,0-.08.13.13,0,0,0,0-.06.64.64,0,0,1,0-.07.16.16,0,0,1,0-.07l-.06-.07-.46-.6L97,80.1l-.43-.57L96.11,79l-1.59-2.19-.08-.11,0-.11,0-.1v-.1a.28.28,0,0,1,0-.09l0-.11a1.39,1.39,0,0,1,.06-.13s0-.1.07-.15l1.32-2.56c.14-.27.29-.55.44-.85l.49-.91c.17-.31.34-.64.53-1l.57-1.07.05-.11a.36.36,0,0,0,0-.09l0-.08s0,0,0-.07a.14.14,0,0,0,0-.07l-.07,0a.2.2,0,0,0-.11,0l-.15,0" transform="translate(-6.06)"/><path class="cls-9" d="M102,78.65a1.39,1.39,0,0,1-.23,0,.2.2,0,0,1-.14,0,.19.19,0,0,1-.07-.14,1.12,1.12,0,0,1,0-.27l.09-7.88a2.19,2.19,0,0,1,0-.29.75.75,0,0,1,.07-.18.58.58,0,0,1,.14-.13l.24-.09L104,69.1a3,3,0,0,1,1.44-.13,1.7,1.7,0,0,1,1,.56,2.71,2.71,0,0,1,.56,1.14,6.2,6.2,0,0,1,.17,1.62,8.59,8.59,0,0,1-.25,2,6.24,6.24,0,0,1-.68,1.72,4.65,4.65,0,0,1-2.7,2.14l-1.55.48m-1.72-10.39a.67.67,0,0,0-.21.09.33.33,0,0,0-.13.13.43.43,0,0,0-.07.2,2.16,2.16,0,0,0,0,.29c0,.26,0,.52,0,.78V72l-.07,5.67c0,.21,0,.45,0,.69s0,.5,0,.76,0,.52,0,.79,0,.52,0,.77a1.06,1.06,0,0,0,0,.27.34.34,0,0,0,.06.16.21.21,0,0,0,.13,0,.56.56,0,0,0,.21,0l.27-.09.53-.17.64-.21.61-.2,1.39-.43a7.12,7.12,0,0,0,4-3,8.41,8.41,0,0,0,1.07-2.44,11.33,11.33,0,0,0,.4-2.93,8.76,8.76,0,0,0-.29-2.53,3.48,3.48,0,0,0-.93-1.59,2.67,2.67,0,0,0-1.51-.66,5.08,5.08,0,0,0-2,.24l-1.89.58-.61.18-.64.18-.53.15-.27.08" transform="translate(-6.06)"/></g></g></g></g></g></svg>