<svg xmlns="http://www.w3.org/2000/svg" xmlns:xlink="http://www.w3.org/1999/xlink" viewBox="0 0 144.35 115.59"><defs><style>.cls-1{fill:#c37394;}.cls-2{fill:#d18fa1;}.cls-3{fill:#eeb1c0;}.cls-4{fill:#aa7285;}.cls-5{fill:url(#名称未設定グラデーション_3);}.cls-6{fill:url(#名称未設定グラデーション_2);}.cls-7{fill:#fff;}</style><linearGradient id="名称未設定グラデーション_3" x1="570.94" y1="-3534.26" x2="636.37" y2="-3590.56" gradientTransform="matrix(0.56, 0, 0, -0.57, -290.67, -2005.44)" gradientUnits="userSpaceOnUse"><stop offset="0" stop-color="#5a9fd4"/><stop offset="1" stop-color="#306998"/></linearGradient><linearGradient id="名称未設定グラデーション_2" x1="661.67" y1="-3624.63" x2="638.3" y2="-3591.57" gradientTransform="matrix(0.56, 0, 0, -0.57, -290.67, -2005.44)" gradientUnits="userSpaceOnUse"><stop offset="0" stop-color="#ffd43b"/><stop offset="1" stop-color="#ffe873"/></linearGradient></defs><g id="レイヤー_2" data-name="レイヤー 2"><g id="レイヤー_1-2" data-name="レイヤー 1"><polygon class="cls-1" points="128.79 19.3 72.43 5.34 0 52.2 3.73 53.12 72.93 7.34 126.93 20.51 128.79 19.3"/><polygon class="cls-2" points="72.93 7.34 72.93 52.2 3.73 96.97 3.73 53.12 72.93 7.34"/><polygon class="cls-3" points="72.93 52.2 126.93 65.37 126.93 20.51 72.93 7.34 72.93 52.2"/><polygon class="cls-4" points="72.93 52.2 52.58 65.37 56.36 66.16 76.72 53.12 72.93 52.2"/><polygon class="cls-1" points="56.36 115.59 0 99.37 0 52.2 56.36 66.16 56.36 115.59"/><path id="path1948" class="cls-5" d="M65.1,0a45.63,45.63,0,0,0-7.69.66c-6.81,1.2-8,3.72-8,8.36v6.14H65.46v2H43.33a10.05,10.05,0,0,0-10.06,8.16,30.2,30.2,0,0,0,0,16.36c1.15,4.76,3.88,8.16,8.56,8.16h5.53V42.52a10.22,10.22,0,0,1,10-10H73.49a8.12,8.12,0,0,0,8.05-8.18V9c0-4.36-3.68-7.64-8.05-8.36A50.56,50.56,0,0,0,65.1,0ZM56.4,4.93a3.07,3.07,0,1,1-3,3.08A3.06,3.06,0,0,1,56.4,4.93Z"/><path id="path1950" class="cls-6" d="M83.54,17.2v7.15a10.31,10.31,0,0,1-10.05,10.2H57.41a8.21,8.21,0,0,0-8,8.18V58.05c0,4.37,3.79,6.93,8,8.18a26.92,26.92,0,0,0,16.08,0c4.05-1.17,8.05-3.53,8.05-8.18V51.92H65.46v-2H89.58c4.68,0,6.42-3.27,8-8.16s1.61-9.89,0-16.36c-1.16-4.66-3.36-8.16-8-8.16ZM74.5,56a3.07,3.07,0,1,1-3,3.06A3,3,0,0,1,74.5,56Z"/><polygon class="cls-1" points="56.36 66.16 56.36 115.59 128.79 69.88 128.79 19.3 56.36 66.16"/><path class="cls-1" d="M128.79,69.88l15.4-9.75S147,47,128.79,19.3"/><path class="cls-7" d="M73.75,92.2c-.4.23-.54.22-.75-.15-.07-.12-1.1-2.06-1.68-3.07l-3.06-5.39c-.49-.86-1.12-1.92-1.7-2.9-.23-.42-.21-.62.17-.84.13-.07,1.52-.81,2.34-1.28l1.77-1c2.47-1.4,4.62-1.1,6,1.35S77.9,84,74.68,85.85l-1.38.78c-.43.25-.47.39-.22.82l.23.4c.57,1,1.71,2.89,1.78,3,.21.36.14.49-.26.72Zm-2.24-7.51c.24.43.38.47.82.22l1.37-.78c1.44-.82,2.19-2.14,1.21-3.86-.86-1.52-2.13-1.44-3.42-.71l-1.67,1c-.43.25-.47.38-.22.82Z"/><path class="cls-7" d="M88.44,84.84c.1.8.21,1.61.37,2.6.08.51,0,.63-.42.88l-1.1.63c-.28.16-.4.18-.48,0a.78.78,0,0,1-.08-.35c-.09-1.09-.18-1.94-.25-2.59l-.08-.62a1.4,1.4,0,0,0-.14-.57,1.35,1.35,0,0,0-.42-.4l-5.38-4.17c-.76-.58-1.43-1.1-2.33-1.76a1,1,0,0,1-.26-.25c-.07-.14,0-.24.31-.4l1.2-.68c.45-.26.57-.23,1,.09.8.69,1.47,1.26,2.15,1.81l3.09,2.51c.16.14.28.21.34.17s.08-.16,0-.39l-.57-3.91c-.12-.87-.27-1.73-.46-2.8-.08-.5,0-.62.42-.88l1.09-.62c.28-.16.42-.19.5-.05a.8.8,0,0,1,.08.34c.11,1.16.22,2,.33,2.88Z"/><path class="cls-7" d="M98,77.62c.25.43.22.59-.15.89a9.86,9.86,0,0,1-.92.62c-2.12,1.2-3.45.58-4.44-1.18L90.2,74c-.2-.35-.3-.41-.59-.24l-.58.35c-.46.26-.57.23-.82-.22l-.41-.71c-.25-.46-.23-.57.23-.82l.62-.33c.29-.17.3-.24.09-.61-.31-.54-.91-1.51-1-1.63-.21-.36-.15-.49.25-.72l1-.54c.4-.23.54-.22.75.15.07.12.56,1.06.91,1.67.2.36.28.38.63.19l.47-.27,1-.6c.45-.26.56-.23.81.21l.42.74c.25.44.22.55-.23.81-.16.09-.73.38-1,.56l-.35.2c-.43.25-.47.38-.22.82l2.06,3.63a1.29,1.29,0,0,0,2.08.57,8.37,8.37,0,0,0,.79-.59c.21-.11.31,0,.5.32Z"/><path class="cls-7" d="M100.86,73.11c.45.79,1.3,2.21,1.37,2.33.21.37.14.5-.26.72l-1,.58c-.41.22-.55.21-.76-.15-.07-.12-.85-1.59-1.3-2.37L94.78,67c-.44-.78-1.3-2.21-1.37-2.33-.2-.36-.14-.49.26-.72l1-.57c.4-.23.54-.22.75.14.07.13.86,1.59,1.3,2.37l.85,1.5c.14.24.24.34.35.29a.83.83,0,0,0,.2-.3,4.47,4.47,0,0,1,1.86-2,3.28,3.28,0,0,1,4.76,1.41l1.78,3.13c.45.78,1.3,2.21,1.37,2.33.21.36.14.49-.26.72l-1,.57c-.41.23-.55.22-.76-.14-.07-.13-.85-1.59-1.3-2.37l-1.47-2.59a1.82,1.82,0,0,0-2.71-.81,3.15,3.15,0,0,0-1.31,1.5,1,1,0,0,0,.06,1Z"/><path class="cls-7" d="M116.34,61.85c1.66,2.93.84,5.81-1.91,7.37a4.72,4.72,0,0,1-6.77-1.91c-1.59-2.8-1-5.76,1.9-7.4A4.77,4.77,0,0,1,116.34,61.85Zm-6.65,4.34a2.74,2.74,0,0,0,3.84,1.32c1.49-.86,1.87-2.61.88-4.35a2.75,2.75,0,0,0-3.87-1.32C108.9,62.77,108.74,64.52,109.69,66.19Z"/><path class="cls-7" d="M121.43,61.42c.45.79,1.3,2.21,1.37,2.33.21.37.14.5-.26.72l-1,.58c-.4.22-.55.21-.76-.15-.06-.12-.85-1.59-1.3-2.37l-1.9-3.36c-.45-.78-1.3-2.2-1.37-2.32-.21-.37-.14-.5.26-.73l.83-.47c.42-.24.53-.21.78.2.15.22.24.3.33.25a.59.59,0,0,0,.19-.27,4.59,4.59,0,0,1,2-2.17,3.28,3.28,0,0,1,4.76,1.41l1.78,3.13c.45.78,1.3,2.21,1.37,2.33.21.36.14.49-.26.72l-1,.57c-.4.23-.55.22-.76-.14-.06-.13-.85-1.59-1.3-2.37l-1.47-2.59a1.82,1.82,0,0,0-2.71-.81,3.15,3.15,0,0,0-1.31,1.5,1,1,0,0,0,.06,1Z"/></g></g></svg>