<svg xmlns="http://www.w3.org/2000/svg" viewBox="0 0 176.55 129.95"><defs><style>.cls-1{fill:#c37394;}.cls-2{fill:#d18fa1;}.cls-3{fill:#eeb1c0;}.cls-4{fill:#aa7285;}.cls-5{fill:#001e36;}.cls-6{fill:#31a8ff;}.cls-7{fill:#fff;}</style></defs><g id="レイヤー_2" data-name="レイヤー 2"><g id="レイヤー_1-2" data-name="レイヤー 1"><polygon class="cls-1" points="157.52 21.21 88.59 5.45 0 58.36 4.56 59.41 89.19 7.7 155.24 22.57 157.52 21.21"/><polygon class="cls-2" points="89.19 7.7 89.19 58.36 4.56 108.92 4.56 59.41 89.19 7.7"/><polygon class="cls-3" points="89.19 58.36 155.24 73.23 155.24 22.57 89.19 7.7 89.19 58.36"/><polygon class="cls-4" points="89.19 58.36 64.31 73.23 68.93 74.13 93.83 59.41 89.19 58.36"/><rect class="cls-5" x="41.23" width="77.05" height="77.05" rx="13.84"/><path class="cls-6" d="M72.29,21a10.62,10.62,0,0,1,7.49,2.66,9,9,0,0,1,2.88,6.88,8.84,8.84,0,0,1-2.91,6.89,11,11,0,0,1-7.69,2.63H65.94V53.88H59.59V21Zm-1.57,14.1a6.07,6.07,0,0,0,4-1.16,4.19,4.19,0,0,0,1.42-3.45Q76.1,26,70.27,26H65.94v9.14Z"/><path class="cls-6" d="M94.11,31.5a13.79,13.79,0,0,1,3.41.41,16.65,16.65,0,0,1,3.39,1.31v4.63a16,16,0,0,0-3.53-1.71A10.45,10.45,0,0,0,94,35.5a3.43,3.43,0,0,0-2,.47,1.52,1.52,0,0,0-.71,1.34,1.33,1.33,0,0,0,.59,1,21.27,21.27,0,0,0,3.22,1.81,19.78,19.78,0,0,1,5.28,3.52A5.44,5.44,0,0,1,102,47.49a6.16,6.16,0,0,1-2.21,5,9.16,9.16,0,0,1-6,1.82,18,18,0,0,1-4.38-.52A14.39,14.39,0,0,1,86,52.54V47.72c2.83,1.57,5.2,2.35,7.13,2.35a4.8,4.8,0,0,0,2.4-.52,1.58,1.58,0,0,0,.91-1.4,1.53,1.53,0,0,0-.32-.94,4,4,0,0,0-1-.87q-.66-.45-4.12-2.14a11.65,11.65,0,0,1-3.92-2.77,5.25,5.25,0,0,1-1.27-3.54,5.55,5.55,0,0,1,2.28-4.65A9.62,9.62,0,0,1,94.11,31.5Z"/><polygon class="cls-1" points="68.93 129.95 0 111.63 0 58.36 68.93 74.13 68.93 129.95"/><polygon class="cls-1" points="68.93 74.13 68.93 129.95 157.52 78.33 157.52 21.21 68.93 74.13"/><path class="cls-1" d="M157.52,78.33l18.83-11s3.46-14.8-18.83-46.11"/><path class="cls-7" d="M82.77,104c-.4.22-.55.21-.76-.15-.06-.12-1.1-2.07-1.67-3.08l-3.07-5.39c-.48-.85-1.11-1.92-1.69-2.9-.24-.42-.21-.61.17-.83l2.33-1.28,1.77-1c2.47-1.4,4.62-1.11,6,1.35s1,5.11-2.18,6.94l-1.37.78c-.44.25-.48.38-.23.82l.23.4c.57,1,1.71,2.89,1.78,3,.21.37.14.5-.26.72Zm-2.25-7.52c.25.44.38.48.82.23l1.37-.78c1.45-.82,2.19-2.14,1.21-3.87-.86-1.51-2.13-1.43-3.41-.7l-1.67,1c-.44.25-.47.38-.23.82Z"/><path class="cls-7" d="M93.27,94.32c.44.78,1.3,2.2,1.37,2.32.21.37.14.5-.26.73l-1,.57c-.4.23-.54.22-.75-.15-.07-.12-.85-1.58-1.3-2.37l-4.13-7.27c-.44-.78-1.3-2.2-1.37-2.32-.21-.37-.14-.5.26-.73l1-.57c.4-.23.54-.22.75.15.07.12.85,1.58,1.3,2.37L90,88.54c.14.25.24.35.34.29a.65.65,0,0,0,.2-.3,4.5,4.5,0,0,1,1.87-2A3.28,3.28,0,0,1,97.16,88l1.78,3.14c.44.78,1.3,2.2,1.37,2.32.21.37.14.5-.26.72l-1,.58c-.4.23-.54.21-.75-.15-.07-.12-.85-1.59-1.3-2.37l-1.47-2.59a1.82,1.82,0,0,0-2.71-.81,3.13,3.13,0,0,0-1.31,1.51,1,1,0,0,0,.06,1Z"/><path class="cls-7" d="M108.75,83.06c1.66,2.92.84,5.8-1.91,7.36a4.73,4.73,0,0,1-6.77-1.9c-1.59-2.8-1-5.76,1.89-7.4A4.77,4.77,0,0,1,108.75,83.06Zm-6.65,4.33a2.73,2.73,0,0,0,3.83,1.32c1.5-.85,1.88-2.61.89-4.35A2.77,2.77,0,0,0,102.94,83C101.31,84,101.15,85.72,102.1,87.39Z"/><path class="cls-7" d="M118,83.16c.25.44.22.59-.16.9a10.29,10.29,0,0,1-.91.61c-2.13,1.2-3.45.58-4.45-1.18l-2.27-4c-.2-.35-.3-.41-.59-.24l-.59.36c-.45.25-.56.22-.81-.23l-.41-.71c-.26-.45-.23-.56.23-.82l.61-.33c.3-.17.3-.24.1-.6-.31-.54-.91-1.51-1-1.64-.2-.36-.14-.49.26-.72l1-.54c.4-.23.54-.22.75.15.07.12.56,1.06.9,1.67.21.36.29.39.64.19l.47-.27,1-.6c.45-.26.56-.23.81.21l.42.75c.25.43.22.54-.24.8l-1,.56-.35.2c-.43.25-.47.38-.22.82l2.06,3.63a1.28,1.28,0,0,0,2.07.57c.33-.18.67-.51.8-.58s.31,0,.5.31Z"/><path class="cls-7" d="M126.21,73.14c1.66,2.92.83,5.8-1.91,7.36a4.73,4.73,0,0,1-6.77-1.9c-1.59-2.8-1-5.76,1.89-7.4A4.77,4.77,0,0,1,126.21,73.14Zm-6.65,4.33a2.73,2.73,0,0,0,3.83,1.32c1.5-.85,1.88-2.61.89-4.35a2.77,2.77,0,0,0-3.88-1.32C118.77,74.05,118.61,75.8,119.56,77.47Z"/><path class="cls-7" d="M135.54,70.69c1,1.84-.16,3.54-2,4.58a7.25,7.25,0,0,1-3.23,1c-.3,0-.46,0-.55-.19a.91.91,0,0,1-.08-.39l-.08-.86c0-.31,0-.45.12-.52a.78.78,0,0,1,.44,0,4.89,4.89,0,0,0,2.5-.57c.89-.51,1.29-1.18.95-1.78s-1.24-.45-2.31-.26c-1.55.26-3.48.56-4.48-1.2-.86-1.52-.25-3.31,2-4.57a6.87,6.87,0,0,1,2.62-.86c.31,0,.48,0,.58.17a1.41,1.41,0,0,1,.09.37l.15,1c0,.3,0,.47-.09.53a.88.88,0,0,1-.42.06,4.46,4.46,0,0,0-2.07.53c-.82.47-1.16,1.12-.87,1.64s1.28.43,2.39.24C132.75,69.26,134.58,69,135.54,70.69Z"/><path class="cls-7" d="M139.24,68.19c.45.78,1.3,2.21,1.37,2.33.21.36.15.49-.25.72l-1,.57c-.4.23-.55.22-.75-.14-.07-.13-.86-1.59-1.3-2.37L133.17,62c-.45-.79-1.3-2.21-1.37-2.33-.21-.37-.15-.49.25-.72l1-.57c.4-.23.55-.22.75.14.07.13.86,1.59,1.3,2.37l.85,1.5c.14.24.25.34.35.28a.77.77,0,0,0,.2-.29,4.42,4.42,0,0,1,1.86-2,3.28,3.28,0,0,1,4.76,1.41L144.91,65c.45.78,1.3,2.21,1.37,2.33.21.36.15.49-.25.72l-1,.57c-.4.23-.55.22-.75-.15-.07-.12-.86-1.58-1.3-2.36l-1.48-2.6a1.82,1.82,0,0,0-2.71-.8,3.1,3.1,0,0,0-1.31,1.5,1,1,0,0,0,.06,1Z"/><path class="cls-7" d="M154.72,56.93c1.66,2.92.84,5.81-1.91,7.37a4.73,4.73,0,0,1-6.76-1.91c-1.59-2.8-1-5.76,1.89-7.4A4.77,4.77,0,0,1,154.72,56.93Zm-6.65,4.33a2.74,2.74,0,0,0,3.84,1.32c1.49-.85,1.87-2.61.89-4.35a2.76,2.76,0,0,0-3.88-1.31C147.28,57.85,147.13,59.59,148.07,61.26Z"/><path class="cls-7" d="M161.72,59.86c.45.78,1.3,2.2,1.37,2.33.21.36.14.49-.26.72l-1,.57c-.4.23-.55.22-.76-.15-.07-.12-.85-1.58-1.3-2.37L156,54.25c-.45-.78-1.3-2.21-1.37-2.33-.21-.36-.14-.49.26-.72l.85-.48c.4-.23.51-.2.75.19.15.22.23.28.32.23a.59.59,0,0,0,.19-.27,4.65,4.65,0,0,1,1.86-2.07c2.21-1.25,4.53-.45,5.93,2a5.51,5.51,0,0,1-2.09,7.89,6,6,0,0,1-.73.34,1.47,1.47,0,0,0-.25.12c-.23.13-.21.25,0,.6Zm1.16-7.63c-.88-1.57-2.29-1.94-3.53-1.24A3.14,3.14,0,0,0,158,52.45a1,1,0,0,0,.05,1l2,3.62c.24.41.41.48.85.32a5.78,5.78,0,0,0,.76-.37A3.37,3.37,0,0,0,162.88,52.23Z"/></g></g></svg>