<svg xmlns="http://www.w3.org/2000/svg" viewBox="0 0 189.77 138.27"><defs><style>.cls-1{fill:#d18fa1;}.cls-2{fill:#c37394;}.cls-3{fill:#eeb1c0;}.cls-4{fill:#0c4b33;fill-rule:evenodd;}.cls-5{font-size:25.38px;fill:#fff;font-family:PA1GothicStdN-Medium-83pv-RKSJ-H, A P-OTF A1Gothic StdN;}</style></defs><g id="レイヤー_2" data-name="レイヤー 2"><g id="レイヤー_1-2" data-name="レイヤー 1"><polygon class="cls-1" points="0 100.64 126.73 56.81 126.73 1.9 0.04 44.9 0 100.64"/><polygon class="cls-2" points="0.04 100.94 0.04 42.81 46.47 81.75 46.47 138.27 0.04 100.94"/><polygon class="cls-2" points="173.2 37.97 126.73 0 0 42.81 1.78 44.3 126.67 1.9 171.39 38.66 173.2 37.97"/><polygon class="cls-3" points="171.39 38.66 126.73 1.9 126.73 56.81 171.39 93.44 171.39 38.66"/><g id="Page-1"><g id="logo-django"><path id="Shape" class="cls-4" d="M43.65,24.08H50V53a42,42,0,0,1-8.2.85C34.06,53.89,30,50.44,30,43.82,30,37.44,34.3,33.3,40.9,33.3a10.31,10.31,0,0,1,2.75.32V24.08Zm0,14.57a6.4,6.4,0,0,0-2.13-.32c-3.2,0-5,2-5,5.37s1.76,5.16,5,5.16a15,15,0,0,0,2.17-.16V38.65ZM60,33.74v14.5c0,5-.37,7.39-1.47,9.46S56.16,61,53.38,62.33l-5.87-2.76c2.79-1.29,4.14-2.44,5-4.19s1.19-3.85,1.19-9.3V33.74ZM53.7,24.12H60v6.42H53.7ZM63.82,35.17a19.17,19.17,0,0,1,8.37-1.87c3.25,0,5.37.85,6.32,2.52.53.93.7,2.15.7,4.75V53.28a71.3,71.3,0,0,1-9,.69c-5.29,0-7.67-1.83-7.67-5.88,0-4.39,3.16-6.42,10.91-7.07V39.64c0-1.13-.58-1.54-2.18-1.54A16.67,16.67,0,0,0,63.83,40Zm9.89,9.94c-4.18.41-5.54,1.06-5.54,2.69,0,1.21.78,1.78,2.51,1.78a17.83,17.83,0,0,0,3-.28V45.11Zm8.57-10.39A38,38,0,0,1,92.2,33.3c3.24,0,5.58.73,7,2.15s1.72,2.8,1.72,5.93V53.64H94.58v-12c0-2.4-.83-3.3-3.08-3.3a9.47,9.47,0,0,0-2.91.45V53.64H82.28Zm21.07,22.34a14.52,14.52,0,0,0,6.76,1.66c4.14,0,5.91-1.67,5.91-5.65V53a8.72,8.72,0,0,1-4.1.86c-5.54,0-9.06-3.62-9.06-9.35,0-7.11,5.21-11.13,14.43-11.13a40.17,40.17,0,0,1,8.25.89l-2.16,4.52c-1.69-.33-.14-.05-1.41-.17v.65l.08,2.64,0,3.42c0,.85,0,1.7.08,2.56v1.7c0,5.37-.45,7.88-1.8,10q-3,4.56-10.22,4.55a18,18,0,0,1-6.8-1.22V57.06ZM115.9,38.37h-.66a6.85,6.85,0,0,0-3.65.9c-1.52.85-2.3,2.4-2.3,4.59,0,3.12,1.57,4.91,4.35,4.91a7.92,7.92,0,0,0,2.38-.4V46.21c0-.73,0-1.55,0-2.4l0-2.88,0-2.07Zm19.44-5.15c6.31,0,10.16,3.94,10.16,10.32,0,6.54-4,10.63-10.42,10.63s-10.21-3.93-10.21-10.27C124.88,37.32,128.9,33.22,135.34,33.22Zm-.13,15.91c2.42,0,3.85-2,3.85-5.44s-1.39-5.45-3.81-5.45-3.94,2-3.94,5.45,1.44,5.44,3.9,5.44Z"/></g></g><polygon class="cls-2" points="173.2 94.43 46.47 138.27 46.47 81.75 46.47 81.8 173.2 37.97 173.2 94.43"/><path class="cls-2" d="M173.2,94.43l16.57-6.21C188,66.2,173.2,38,173.2,38"/><text class="cls-5" transform="translate(78.35 109.04) rotate(-19.43)">Django</text></g></g></svg>