<svg xmlns="http://www.w3.org/2000/svg" xmlns:xlink="http://www.w3.org/1999/xlink" viewBox="0 0 115.14 81.2"><defs><style>.cls-1{fill:none;}.cls-2{fill:#c37394;}.cls-3{fill:#d18fa1;}.cls-4{fill:#eeb1c0;}.cls-5{fill:#aa7285;}.cls-6{fill:#470137;}.cls-7{fill:#ff61f6;}.cls-8{isolation:isolate;}.cls-9{clip-path:url(#clip-path);}.cls-10{fill:#fff;}.cls-11{clip-path:url(#clip-path-2);}</style><clipPath id="clip-path"><polygon class="cls-1" points="33.94 67.34 11.2 62.47 11.08 52.41 33.87 57.22 33.94 67.34"/></clipPath><clipPath id="clip-path-2"><polygon class="cls-1" points="72.79 56.11 72.77 45.55 88.09 36.75 88.05 47.25 72.79 56.11"/></clipPath></defs><g id="レイヤー_2" data-name="レイヤー 2"><g id="About_Me" data-name="About Me"><g id="XD"><polygon class="cls-2" points="102.73 10.28 57.77 0 0 34.51 2.97 35.19 58.17 1.47 101.24 11.17 102.73 10.28"/><polygon class="cls-3" points="58.17 1.47 58.17 34.51 2.97 67.49 2.97 35.19 58.17 1.47"/><polygon class="cls-4" points="58.17 34.51 101.24 44.21 101.24 11.17 58.17 1.47 58.17 34.51"/><polygon class="cls-5" points="58.17 34.51 41.94 44.21 44.95 44.79 61.19 35.19 58.17 34.51"/><rect class="cls-6" x="27.91" y="0.76" width="47.66" height="47.66" rx="8.56"/><path class="cls-7" d="M41.09,13.78l4.49,6.88L50,13.78h3.92l-6.38,9.8,7,10.51h-4l-5-7.59-4.95,7.59h-4l6.91-10.51-6.45-9.8Z"/><path class="cls-7" d="M63.44,20.44V13.78h3.38V33.22a15.27,15.27,0,0,1-6,.87,6.62,6.62,0,0,1-4.94-1.87,7,7,0,0,1-1.86-5.12,7.09,7.09,0,0,1,.87-3.49,6.38,6.38,0,0,1,5.63-3.36A13.3,13.3,0,0,1,63.44,20.44ZM61.66,31.17h1.78V23.31a4.34,4.34,0,0,0-2.18-.39A3.51,3.51,0,0,0,58.55,24a4.25,4.25,0,0,0-1,2.94C57.54,29.9,58.91,31.17,61.66,31.17Z"/><polygon class="cls-2" points="44.95 81.2 0 69.25 0 34.51 44.95 44.79 44.95 81.2"/><polygon class="cls-2" points="44.95 44.79 44.95 81.2 102.73 47.53 102.73 10.28 44.95 44.79"/><path class="cls-2" d="M102.73,47.53,115,40.35s2.25-9.65-12.28-30.07"/><g id="星"><g class="cls-8"><g class="cls-9"><polyline class="cls-10" points="29.03 56.2 30.2 60.3 33.89 61.09 30.93 62.84 32.09 66.95 29.09 63.92 26.14 65.67 27.24 62.06 24.24 59.04 27.92 59.82 29.03 56.2"/><polyline class="cls-10" points="15.86 53.42 17.03 57.51 20.69 58.28 17.75 60.04 18.92 64.13 15.94 61.12 13.02 62.86 14.11 59.26 11.12 56.25 14.77 57.03 15.86 53.42"/></g></g></g><g class="cls-8"><g class="cls-11"><path class="cls-10" d="M79.64,41.63l-.88.51a1,1,0,0,0-.19.12l-.13.13a1.45,1.45,0,0,0-.1.18,1.53,1.53,0,0,0-.11.25c-.1.25-.19.5-.29.74l-.27.7c-.1.23-.19.46-.28.69l-.28.69-.48,1.15,0,.13,0,.1,0,.07,0,0h-.09l0-.05L76.24,47l-.47-.61-.28-.36-.29-.37c-.09-.13-.19-.25-.29-.38s-.19-.27-.3-.41a.65.65,0,0,0-.11-.12.27.27,0,0,0-.1-.06l-.13,0-.19.09-.92.53-.12.08-.08.08,0,.07a.09.09,0,0,0,0,.07v.05l0,0,0,0a.21.21,0,0,0,0,.06l.42.48.38.44.36.43.34.42,1,1.19,0,.08,0,.07,0,.07v.15l0,.1,0,.12c0,.05,0,.09-.06.15l-1.23,2.95c-.11.25-.21.5-.32.77s-.23.53-.34.79-.23.54-.34.8-.23.52-.33.77a.36.36,0,0,0,0,.09l0,.09s0,0,0,.06v.06a.13.13,0,0,0,0,.06h0a.13.13,0,0,0,.08,0,.34.34,0,0,0,.12-.06l.87-.5.18-.12a.8.8,0,0,0,.13-.13.69.69,0,0,0,.1-.17,2,2,0,0,0,.12-.25c.09-.24.18-.46.26-.69l.26-.65.25-.63c.08-.21.17-.42.26-.63l.69-1.68a.58.58,0,0,1,0-.14.73.73,0,0,1,0-.09l0-.07,0,0h.09l0,0,0,.07.71.88.25.32.25.34c.09.11.17.23.26.36l.27.38a.65.65,0,0,0,.11.12.14.14,0,0,0,.1.05.32.32,0,0,0,.13,0l.18-.09.91-.53.12-.08.08-.07a.18.18,0,0,0,0-.08.19.19,0,0,0,0-.07s0,0,0,0l0,0,0-.06,0,0-.35-.4-.34-.4-.33-.39L78.57,50l-1.2-1.51-.06-.07,0-.08a.19.19,0,0,1,0-.08s0-.05,0-.08,0,0,0-.07a.54.54,0,0,1,0-.1,1,1,0,0,0,0-.12l.06-.14,1-2.31.32-.77c.12-.27.23-.55.36-.84l.38-.89c.13-.32.27-.64.42-1a1,1,0,0,1,0-.1l0-.09s0,0,0-.07a.43.43,0,0,1,0,0,.11.11,0,0,0,0-.06l0,0-.08,0-.12.06"/><path class="cls-10" d="M82.93,48.68l-.17.08a.11.11,0,0,1-.11,0,.19.19,0,0,1-.05-.1,1.41,1.41,0,0,1,0-.22V42a1.3,1.3,0,0,1,0-.23.42.42,0,0,1,0-.17.35.35,0,0,1,.1-.12l.17-.12,1.43-.82a2.33,2.33,0,0,1,1.07-.36,1,1,0,0,1,.74.28,1.76,1.76,0,0,1,.42.83,5,5,0,0,1,.14,1.29,8.52,8.52,0,0,1-.17,1.7,6.78,6.78,0,0,1-.5,1.52,5.48,5.48,0,0,1-.82,1.28,4.92,4.92,0,0,1-1.17.95l-1.15.67m-1.35-8.19a.67.67,0,0,0-.16.12.64.64,0,0,0-.1.13,1,1,0,0,0,0,.18,1.77,1.77,0,0,0,0,.24v.64c0,.21,0,.42,0,.63s0,.41,0,.61v5.79c0,.2,0,.41,0,.62s0,.43,0,.65,0,.43,0,.63a1.27,1.27,0,0,0,0,.22.16.16,0,0,0,0,.11s0,0,.1,0l.15-.07.2-.12.39-.24.47-.28.45-.27,1-.6a7.23,7.23,0,0,0,1.67-1.35A8.28,8.28,0,0,0,87,46.35a9.55,9.55,0,0,0,.78-2.18,11.52,11.52,0,0,0,.27-2.46,7.48,7.48,0,0,0-.23-2,2.2,2.2,0,0,0-.7-1.13A1.5,1.5,0,0,0,86,38.28a4.16,4.16,0,0,0-1.51.56l-1.4.81c-.14.08-.29.17-.46.25l-.47.27-.4.21-.19.11"/></g></g></g></g></g></svg>