<svg xmlns="http://www.w3.org/2000/svg" viewBox="0 0 242.85 188.71"><defs><style>.cls-1{fill:#d18fa1;}.cls-2{fill:#c37394;}.cls-3{fill:#eeb1c0;}.cls-4{fill:#2e4960;}.cls-4,.cls-5{isolation:isolate;}.cls-5{fill:#00bc7e;}.cls-6{fill:#fff;}</style></defs><g id="レイヤー_2" data-name="レイヤー 2"><g id="レイヤー_1-2" data-name="レイヤー 1"><polygon class="cls-1" points="0 147.86 162.18 100.26 162.18 40.65 0.05 87.33 0 147.86"/><polygon class="cls-2" points="0.05 148.18 0.05 85.06 59.47 127.35 59.47 188.71 0.05 148.18"/><polygon class="cls-2" points="221.64 79.8 162.18 38.58 0 85.06 2.28 86.69 162.1 40.65 219.33 80.55 221.64 79.8"/><polygon class="cls-3" points="219.33 80.55 162.18 40.65 162.18 100.26 219.33 140.03 219.33 80.55"/><g id="A4gAvk.tif"><polygon class="cls-4" points="117.58 78.65 163.01 0 135.37 0 117.58 29.96 99.79 0 72.15 0 117.58 78.65"/><polyline class="cls-5" points="117.58 78.76 163.01 0.12 193.23 0.12 117.58 131.07 117.58 130.95 41.93 0 72.15 0 117.58 78.65"/></g><polygon class="cls-2" points="221.64 141.12 59.47 188.71 59.47 127.35 59.47 127.4 221.64 79.8 221.64 141.12"/><path class="cls-2" d="M221.64,141.12l21.21-6.75c-2.21-23.91-21.21-54.57-21.21-54.57"/><path class="cls-6" d="M90.55,153.59c-.16,1.11-.35,2.37-.5,3.78-.06.61-.15.73-.76.89l-1,.26c-.61.16-.75.09-1.13-.4-.82-1.15-1.58-2.14-2.25-3L79.6,148.2c-.85-1.09-1.68-2.14-2.84-3.55a1.38,1.38,0,0,1-.22-.36c-.05-.19.1-.28.48-.37l1.78-.47c.61-.16.75-.1,1.1.4.95,1.37,1.71,2.36,2.41,3.32l5.09,6.72c.12.17.24.24.33.22s.14-.14.18-.35L89,145.45c.15-1.23.32-2.47.46-4.12.06-.61.15-.73.76-.89L92,140c.37-.1.52-.09.57.1a1.27,1.27,0,0,1,0,.42c-.32,1.8-.53,3.17-.71,4.46Z"/><path class="cls-6" d="M107.33,153.53c-.56.14-.69.1-.87-.49-.11-.3-.16-.41-.28-.38a.75.75,0,0,0-.3.26,5.55,5.55,0,0,1-2.95,1.91,3.93,3.93,0,0,1-5.08-3.11l-1.11-4.2c-.26-1-.82-2.94-.86-3.1-.13-.49,0-.61.52-.75l1.35-.36c.53-.14.7-.08.82.41.05.16.51,2.1.78,3.12l1,3.64a2.18,2.18,0,0,0,2.9,1.77,3.75,3.75,0,0,0,2-1.33,1.16,1.16,0,0,0,.24-1.18l-1.11-4.2c-.27-1-.82-2.94-.86-3.1-.13-.49,0-.62.52-.76l1.35-.35c.53-.14.69-.09.82.4,0,.16.5,2.1.77,3.12l1.19,4.51c.27,1,.82,3,.86,3.12.13.49,0,.61-.52.75Z"/><path class="cls-6" d="M121.4,148.07a1,1,0,0,1,.26.4c0,.21,0,.37-.34.61a8.91,8.91,0,0,1-3.58,1.86c-4.13,1.09-6.56-1.18-7.38-4.31-1-3.6.61-6.94,4.21-7.88,3-.78,5.22.81,6.16,4.39.31,1.18.17,1.41-.43,1.57l-6.57,1.73c-.42.11-.56.22-.49.5a3.22,3.22,0,0,0,.83,1.17,3.33,3.33,0,0,0,3.32.54,5.71,5.71,0,0,0,2.43-1.31,1.22,1.22,0,0,1,.42-.3c.19,0,.32.09.57.37Zm-3.46-5.37a2.73,2.73,0,0,0-.62-1,2.09,2.09,0,0,0-2.24-.61,3.05,3.05,0,0,0-2.21,2,2.29,2.29,0,0,0-.17,1.06c0,.18.23.21.6.11l4.11-1.08C117.83,143.05,118,142.94,117.94,142.7Z"/><path class="cls-6" d="M124.23,149.09c-.33.09-.5.08-.54-.06a.84.84,0,0,1,.06-.43c.26-.81.49-1.62.75-2.43l3.66-12.83c.23-.8.45-1.58.66-2.38.15-.58.26-.71.87-.87l1.41-.37c.33-.09.5-.08.54.06a.84.84,0,0,1-.06.43c-.26.82-.51,1.65-.74,2.46l-3.67,12.77c-.22.78-.45,1.61-.66,2.41-.15.58-.26.71-.87.87Z"/><path class="cls-6" d="M139.51,140.12c.36,1.34,1.1,3.88,1.14,4,.13.49,0,.62-.52.76l-1.39.36c-.54.14-.7.09-.83-.4,0-.16-.64-2.74-1-4.08L135,133.42c-.35-1.3-1-3.65-1.08-3.82-.13-.48,0-.61.52-.75l.77-.2a1.13,1.13,0,0,1,1.26.26c1,.76,2,1.47,2.93,2.18l7.7,5.72c.16.11.27.16.34.14s.12-.18.06-.41L146,130.78c-.35-1.35-1.09-3.88-1.13-4-.13-.48,0-.61.52-.75l1.39-.37c.53-.14.7-.08.82.41.05.16.65,2.73,1,4.08l1.94,7.38c.34,1.27,1,3.65,1.07,3.81.13.49,0,.62-.52.76l-.46.12a1.12,1.12,0,0,1-1.26-.27c-.93-.69-1.82-1.35-2.83-2.08l-8.18-6c-.15-.11-.26-.16-.33-.14s-.13.18-.06.41Z"/><path class="cls-6" d="M163.53,138.78c-.56.14-.69.1-.87-.49-.11-.3-.16-.41-.28-.38a.79.79,0,0,0-.3.25,5.51,5.51,0,0,1-3,1.92,3.93,3.93,0,0,1-5.08-3.11l-1.11-4.2c-.26-1-.82-2.94-.86-3.1-.13-.49,0-.62.52-.76l1.35-.35c.53-.14.7-.08.82.4,0,.17.51,2.1.77,3.13l1,3.64a2.19,2.19,0,0,0,2.9,1.77,3.71,3.71,0,0,0,2-1.34,1.16,1.16,0,0,0,.24-1.18l-1.11-4.2c-.27-1-.82-2.93-.86-3.1-.13-.48,0-.61.52-.75l1.35-.36c.53-.14.69-.08.82.41,0,.16.5,2.1.77,3.12l1.18,4.5c.28,1.05.83,3,.87,3.13.13.48,0,.61-.52.75Z"/><path class="cls-6" d="M171.3,133.68c-.29.87-.57,1.72-.85,2.63-.19.6-.33.74-.91.89l-1.65.43c-.35.09-.52.09-.56-.07a.69.69,0,0,1,.06-.42c.54-1.35,1-2.49,1.44-3.7l.83-2.21c.22-.6.18-.74-.3-1.16l-1.44-1.21c-1-.85-2-1.66-3-2.55a.7.7,0,0,1-.26-.33c0-.16.11-.25.46-.34l1.76-.46a1,1,0,0,1,1.22.3c.73.68,1.46,1.3,2.14,1.89l.41.34c.19.18.35.28.49.25s.18-.15.28-.45l.16-.49c.31-.92.58-1.76.85-2.65.19-.6.33-.73.91-.89l1.6-.42c.35-.09.52-.08.56.08a.67.67,0,0,1-.06.41c-.5,1.3-1,2.51-1.39,3.69l-.71,1.93c-.22.6-.18.74.3,1.16l1.67,1.42c1,.88,2.09,1.74,3,2.53a.64.64,0,0,1,.26.33c0,.16-.1.25-.45.34l-1.74.46a1,1,0,0,1-1.22-.3c-.72-.64-1.5-1.35-2.13-1.88l-.67-.56c-.23-.2-.37-.28-.49-.25s-.2.18-.28.45Z"/><path class="cls-6" d="M187.13,131.71c.15.58.07.75-.46,1a11.46,11.46,0,0,1-1.25.43c-2.83.74-4.17-.39-4.79-2.74l-1.4-5.34c-.12-.46-.22-.56-.62-.46l-.78.23c-.6.16-.72.09-.88-.51l-.25-1c-.16-.61-.09-.72.51-.88.19,0,.57-.12.82-.19.4-.11.43-.19.3-.67-.19-.72-.58-2-.63-2.2-.13-.49,0-.62.52-.75l1.28-.34c.53-.14.7-.08.83.4,0,.16.31,1.41.53,2.22.13.49.21.54.68.42l.63-.17,1.36-.38c.6-.16.72-.09.87.49l.26,1c.16.58.09.7-.52.86l-1.37.33-.47.12c-.58.16-.66.3-.51.88l1.27,4.85c.35,1.33,1,1.62,2.23,1.31.44-.12.94-.4,1.1-.44s.37.08.49.52Z"/><path class="cls-6" d="M192.81,129.23a1.83,1.83,0,0,1-1.34,2.36,1.64,1.64,0,0,1-2.1-1.19,1.82,1.82,0,0,1,1.37-2.34A1.63,1.63,0,0,1,192.81,129.23Z"/><path class="cls-6" d="M195.3,114.26a1.75,1.75,0,0,1-1.26,2.29,1.59,1.59,0,0,1-2-1.14,1.73,1.73,0,0,1,1.28-2.22A1.54,1.54,0,0,1,195.3,114.26Zm.86,20.84c-.37.1-.48,0-.61-.53l-.34-1.3c-.09-.33,0-.44.26-.52l.21-.06c.95-.24,1-1,.7-2.24L194.15,122c-.27-1-.82-3-.86-3.12-.13-.49,0-.62.52-.76l1.34-.35c.54-.14.7-.09.83.4,0,.16.5,2.1.77,3.15l2.27,8.61c.48,1.83.35,3.16-.82,4.16A7.12,7.12,0,0,1,196.16,135.1Z"/><path class="cls-6" d="M209.57,123.14c.65,2.46-1.27,4.06-3.7,4.7a8.7,8.7,0,0,1-4,.11c-.35-.08-.52-.18-.58-.39a1.15,1.15,0,0,1,0-.48l.19-1c.07-.37.13-.53.29-.58a1,1,0,0,1,.52.09,5.84,5.84,0,0,0,3.08.11c1.19-.31,1.86-1,1.65-1.77s-1.31-.9-2.6-1c-1.88-.17-4.21-.43-4.82-2.78-.53-2,.73-3.91,3.68-4.69a8.08,8.08,0,0,1,3.3-.19c.36.07.56.15.62.38a1.74,1.74,0,0,1,0,.45l-.13,1.2c0,.36-.1.55-.27.59a1.15,1.15,0,0,1-.51-.06,5.15,5.15,0,0,0-2.56,0c-1.09.28-1.69.93-1.51,1.63s1.35.89,2.7,1C206.78,120.63,209,120.89,209.57,123.14Z"/></g></g></svg>