<svg xmlns="http://www.w3.org/2000/svg" xmlns:xlink="http://www.w3.org/1999/xlink" viewBox="0 0 165.82 115.37"><defs><style>.cls-1{fill:none;}.cls-2{fill:#d18fa1;}.cls-3{fill:#c37394;}.cls-4{fill:#eeb1c0;}.cls-5{fill:#300;}.cls-6{fill:#ff9a00;}.cls-7{isolation:isolate;}.cls-8{clip-path:url(#clip-path);}.cls-9{fill:#fff;}.cls-10{clip-path:url(#clip-path-2);}</style><clipPath id="clip-path" transform="translate(-4.59)"><polygon class="cls-1" points="37.52 96.65 12.65 79.74 12.65 67.84 37.59 84.53 37.52 96.65"/></clipPath><clipPath id="clip-path-2" transform="translate(-4.59)"><polygon class="cls-1" points="68.18 95.19 68.18 81.51 139.47 61.28 139.21 74.61 68.18 95.19"/></clipPath></defs><g id="レイヤー_2" data-name="レイヤー 2"><g id="About_Me" data-name="About Me"><g id="Illustrator"><polygon class="cls-2" points="0 87.47 110.74 54.98 110.74 14.27 0.04 46.15 0 87.47"/><polygon class="cls-3" points="0.04 87.69 0.04 44.6 40.6 73.47 40.6 115.37 0.04 87.69"/><polygon class="cls-3" points="151.34 41.01 110.74 12.86 0 44.6 1.56 45.71 110.69 14.27 149.76 41.52 151.34 41.01"/><polygon class="cls-4" points="149.76 41.52 110.74 14.27 110.74 54.98 149.76 82.13 149.76 41.52"/><rect class="cls-5" x="43.16" width="72.9" height="72.9" rx="13.1"/><path class="cls-6" d="M82.2,19.9,95.21,51h-6l-3.06-7.56H73.05L70.2,51h-6L76.38,19.9Zm-7.42,19h9.51l-5-12.3Z" transform="translate(-4.59)"/><path class="cls-6" d="M101.09,20.59a3.12,3.12,0,0,1,3.09,3.1,3.08,3.08,0,0,1-.9,2.17,3,3,0,0,1-4.36,0A3,3,0,0,1,98,23.69a2.94,2.94,0,0,1,.94-2.2A3,3,0,0,1,101.09,20.59Zm2.73,8.48V51H98.35V29.07Z" transform="translate(-4.59)"/><polygon class="cls-3" points="151.34 82.87 40.6 115.37 40.6 73.47 40.6 73.5 151.34 41.01 151.34 82.87"/><path class="cls-3" d="M155.93,82.87l14.48-4.61C168.9,61.94,155.93,41,155.93,41" transform="translate(-4.59)"/><g id="星"><g class="cls-7"><g class="cls-8"><polyline class="cls-9" points="29.52 82.2 30.31 87.38 32.98 89.17 30.81 90.57 31.6 95.75 29.47 91.44 27.32 92.83 28.16 88.78 26.03 84.49 28.68 86.27 29.52 82.2"/><polyline class="cls-9" points="20.39 76.09 21.18 81.23 23.8 82.99 21.68 84.4 22.46 89.53 20.36 85.27 18.25 86.67 19.07 82.64 16.97 78.39 19.57 80.14 20.39 76.09"/><polyline class="cls-9" points="11.41 70.08 12.2 75.18 14.78 76.92 12.69 78.33 13.48 83.42 11.4 79.2 9.33 80.6 10.12 76.59 8.06 72.39 10.62 74.11 11.41 70.08"/></g></g></g><g class="cls-7"><g class="cls-10"><path class="cls-9" d="M69.68,81.64l-1,.29-.23.08a.53.53,0,0,0-.14.11.39.39,0,0,0-.07.16.86.86,0,0,0,0,.24v.41c0,.22,0,.52,0,.85s0,.68,0,1,0,.67,0,.93v5.66c0,.27,0,.6,0,.94s0,.7,0,1,0,.63,0,.85v.41a.79.79,0,0,0,0,.23.24.24,0,0,0,.07.12.21.21,0,0,0,.14,0,.8.8,0,0,0,.23,0l1-.3a1.23,1.23,0,0,0,.23-.08.53.53,0,0,0,.14-.11.39.39,0,0,0,.07-.16.86.86,0,0,0,0-.24v-.4c0-.22,0-.52,0-.84s0-.68,0-1,0-.66,0-.93V85.2c0-.27,0-.6,0-.94s0-.7,0-1,0-.63,0-.86,0-.38,0-.41a1.3,1.3,0,0,0,0-.23.25.25,0,0,0-.08-.12.2.2,0,0,0-.14,0,.8.8,0,0,0-.23,0" transform="translate(-4.59)"/><path class="cls-9" d="M73.94,79.88l-.94.26-.23.08a.4.4,0,0,0-.14.11.48.48,0,0,0-.08.16,1.69,1.69,0,0,0,0,.25s0,.15,0,.33v.67c0,.25,0,.52,0,.78s0,.5,0,.69v7.63a5.71,5.71,0,0,0,.13,1.35,1.49,1.49,0,0,0,.42.81,1.13,1.13,0,0,0,.77.31A3.65,3.65,0,0,0,75,93.14l.12,0,.12,0,.12,0,.12,0a1.24,1.24,0,0,0,.23-.11.58.58,0,0,0,.14-.13.48.48,0,0,0,.06-.18,1,1,0,0,0,0-.26v-.93a.63.63,0,0,0,0-.16.29.29,0,0,0,0-.1.09.09,0,0,0-.07,0,.18.18,0,0,0-.1,0l-.08,0-.11,0-.11,0-.11,0a1.34,1.34,0,0,1-.5.05.5.5,0,0,1-.31-.17.89.89,0,0,1-.15-.38,3.54,3.54,0,0,1,0-.6l0-7.45V82c0-.27,0-.54,0-.79s0-.48,0-.66,0-.29,0-.33a1.4,1.4,0,0,0,0-.23.25.25,0,0,0-.08-.12.2.2,0,0,0-.14,0,.8.8,0,0,0-.23,0" transform="translate(-4.59)"/><path class="cls-9" d="M79,78.44l-.94.26-.23.09a.38.38,0,0,0-.14.11.34.34,0,0,0-.07.16.82.82,0,0,0,0,.24v.33c0,.18,0,.41,0,.67s0,.52,0,.78v.69l0,7.62a5.67,5.67,0,0,0,.13,1.34,1.55,1.55,0,0,0,.41.81,1.17,1.17,0,0,0,.77.31,3.65,3.65,0,0,0,1.17-.17l.12,0,.12,0,.12,0,.12,0a.9.9,0,0,0,.22-.11.35.35,0,0,0,.14-.13A.61.61,0,0,0,81,91.1a1.72,1.72,0,0,0,0-.26v-.93a.81.81,0,0,0,0-.16.19.19,0,0,0,0-.09l-.07,0h-.11l-.07,0-.1,0-.12,0-.1,0a1.17,1.17,0,0,1-.5,0,.44.44,0,0,1-.3-.16.86.86,0,0,1-.15-.39,3.39,3.39,0,0,1,0-.6l0-7.43c0-.2,0-.45,0-.71s0-.54,0-.79,0-.48,0-.66v-.32a.75.75,0,0,0,0-.23.18.18,0,0,0-.07-.12.31.31,0,0,0-.15,0l-.22,0" transform="translate(-4.59)"/><path class="cls-9" d="M89.2,79.65l-.92.26-.23.09a.39.39,0,0,0-.14.1.45.45,0,0,0-.08.17,1.44,1.44,0,0,0,0,.24v.32c0,.17,0,.39,0,.64s0,.51,0,.77v.7l0,3.3a2.26,2.26,0,0,1,0,.27,1.41,1.41,0,0,1-.06.22,1.36,1.36,0,0,1-.11.2l-.17.23a4.3,4.3,0,0,1-.37.37,4.5,4.5,0,0,1-.38.3,3.72,3.72,0,0,1-.38.22,2.79,2.79,0,0,1-.37.14,1.7,1.7,0,0,1-.69.06.9.9,0,0,1-.48-.23,1.16,1.16,0,0,1-.29-.51,2.6,2.6,0,0,1-.09-.73V83.92c0-.2,0-.45,0-.71s0-.52,0-.77,0-.48,0-.65,0-.3,0-.33a1.4,1.4,0,0,0,0-.23.18.18,0,0,0-.07-.11.17.17,0,0,0-.14,0,1.24,1.24,0,0,0-.23,0l-.93.27-.22.08a.41.41,0,0,0-.22.27,1.66,1.66,0,0,0,0,.24v.32c0,.18,0,.4,0,.65s0,.51,0,.77v4a3.94,3.94,0,0,0,.19,1.31,2,2,0,0,0,.55.86,1.66,1.66,0,0,0,.87.39,2.62,2.62,0,0,0,1.12-.1A3.61,3.61,0,0,0,86,90a4.79,4.79,0,0,0,.58-.33c.18-.13.36-.27.53-.42a5.44,5.44,0,0,0,.48-.48.6.6,0,0,1,.08-.08l.06-.06.06,0,0,0a0,0,0,0,1,0,0l0,0s0,.06,0,.1,0,.09,0,.15a1.65,1.65,0,0,0,0,.27.24.24,0,0,0,.08.14s.08,0,.14,0l.24-.06.76-.22a.93.93,0,0,0,.22-.08.31.31,0,0,0,.14-.11.34.34,0,0,0,.08-.16,1.44,1.44,0,0,0,0-.24v-.31c0-.18,0-.4,0-.65s0-.51,0-.77V86l0-3.53c0-.2,0-.45,0-.7s0-.53,0-.78,0-.48,0-.65,0-.29,0-.32a1.3,1.3,0,0,0,0-.23.22.22,0,0,0-.07-.12.29.29,0,0,0-.14,0,1.39,1.39,0,0,0-.23.05" transform="translate(-4.59)"/><path class="cls-9" d="M94.75,77.94a4.75,4.75,0,0,0-1.33.59,4.11,4.11,0,0,0-1,.85,3.46,3.46,0,0,0-.62,1,3.17,3.17,0,0,0-.21,1.15,2.19,2.19,0,0,0,.23,1.1,1.73,1.73,0,0,0,.62.64,2.93,2.93,0,0,0,.84.32c.3.07.61.11.9.15a4.54,4.54,0,0,1,.57.09,2.09,2.09,0,0,1,.48.13.85.85,0,0,1,.32.23.59.59,0,0,1,.11.36,1,1,0,0,1-.1.45,1.26,1.26,0,0,1-.27.38,2,2,0,0,1-.43.31,2.26,2.26,0,0,1-.55.22,2.19,2.19,0,0,1-.51.1,2.9,2.9,0,0,1-.51,0,2.63,2.63,0,0,1-.49-.07,2,2,0,0,1-.43-.15l-.1,0-.08,0h-.14l-.07,0a.27.27,0,0,0-.07.08l-.07.13c0,.06,0,.12-.07.19l-.3.8a.76.76,0,0,1,0,.11l0,.09s0,.06,0,.09v.07a.37.37,0,0,0,0,.11.47.47,0,0,0,.06.09l.09.06.14,0a3.06,3.06,0,0,0,.56.13q.3,0,.63,0a4,4,0,0,0,.68-.06,6.2,6.2,0,0,0,.72-.16,5.66,5.66,0,0,0,1.19-.5,4.44,4.44,0,0,0,1-.77,3.39,3.39,0,0,0,.7-1A3.26,3.26,0,0,0,97.44,84a2.24,2.24,0,0,0-.22-1,1.6,1.6,0,0,0-.59-.62,2.74,2.74,0,0,0-.81-.32,8.72,8.72,0,0,0-.89-.16l-.59-.09a4.19,4.19,0,0,1-.49-.14.92.92,0,0,1-.33-.23A.48.48,0,0,1,93.4,81a.93.93,0,0,1,.09-.4,1.07,1.07,0,0,1,.25-.36,1.68,1.68,0,0,1,.38-.3,2.28,2.28,0,0,1,.51-.21l.44-.09a3,3,0,0,1,.42,0,2.43,2.43,0,0,1,.4,0l.37.1.09,0,.09,0h.13a.18.18,0,0,0,.08-.05.35.35,0,0,0,.06-.09.81.81,0,0,0,.06-.13,1.07,1.07,0,0,0,.07-.19l.3-.94,0-.11,0-.09s0-.06,0-.08a.2.2,0,0,0,0-.07.36.36,0,0,0,0-.11.27.27,0,0,0-.17-.14l-.14-.05a3,3,0,0,0-.45-.07,4.47,4.47,0,0,0-.52,0l-.57.06c-.19,0-.39.08-.6.14" transform="translate(-4.59)"/><path class="cls-9" d="M101,73.7l-.87.25a.93.93,0,0,0-.22.08.39.39,0,0,0-.14.1.26.26,0,0,0-.07.16,1.29,1.29,0,0,0,0,.24s0,.12,0,.24v.45c0,.18,0,.36,0,.54v.49a1.55,1.55,0,0,1,0,.23.54.54,0,0,1,0,.15.24.24,0,0,1-.09.08.49.49,0,0,1-.16.06l-.14,0-.15,0-.15,0-.12,0a.93.93,0,0,0-.24.09.45.45,0,0,0-.15.11.47.47,0,0,0-.06.19,2.19,2.19,0,0,0,0,.29v.75a1.91,1.91,0,0,0,0,.28.23.23,0,0,0,.06.14.2.2,0,0,0,.14,0l.25-.06.09,0,.14,0,.15,0,.16-.05a.33.33,0,0,1,.16,0,.1.1,0,0,1,.09,0,.22.22,0,0,1,0,.13c0,.06,0,.13,0,.22l0,4.17a4.64,4.64,0,0,0,.12,1.19,1.63,1.63,0,0,0,.43.79,1.34,1.34,0,0,0,.79.35,3.33,3.33,0,0,0,1.21-.16l.22-.07.22-.08.22-.08.2-.09a1.27,1.27,0,0,0,.24-.14.62.62,0,0,0,.14-.14.93.93,0,0,0,.07-.2,2.16,2.16,0,0,0,0-.28v-.76a1.41,1.41,0,0,0,0-.22c0-.06,0-.1,0-.14a.13.13,0,0,0-.07-.06.22.22,0,0,0-.11,0l-.13,0-.19.09-.22.11-.23.08a1.55,1.55,0,0,1-.53.08.57.57,0,0,1-.37-.12.64.64,0,0,1-.21-.36,2.24,2.24,0,0,1-.07-.63l0-3.79a1.14,1.14,0,0,1,0-.28.36.36,0,0,1,.07-.19.33.33,0,0,1,.14-.12.93.93,0,0,1,.24-.09l.31-.09.25-.07.27-.07.24-.07.17,0,.25-.09a.4.4,0,0,0,.14-.11.36.36,0,0,0,.07-.18,2.16,2.16,0,0,0,0-.28v-.78a1.87,1.87,0,0,0,0-.27.2.2,0,0,0-.06-.14.22.22,0,0,0-.15,0l-.24.05-.17.06-.25.08-.27.08-.24.07-.42.12a.58.58,0,0,1-.19,0,.1.1,0,0,1-.11,0s0-.06,0-.12a1.35,1.35,0,0,1,0-.22c0-.16,0-.34,0-.52s0-.37,0-.54,0-.32,0-.44V74a.8.8,0,0,0,0-.23.23.23,0,0,0-.07-.11.21.21,0,0,0-.14,0,1.39,1.39,0,0,0-.23,0" transform="translate(-4.59)"/><path class="cls-9" d="M109.64,73.72l-.19.07-.22.11A2.53,2.53,0,0,0,109,74l-.23.13-.33.25-.32.28c-.1.1-.21.2-.31.32s-.2.22-.3.35l-.07.09a.46.46,0,0,0-.07.07l-.05,0,0,0a0,0,0,0,1-.06,0,.19.19,0,0,1,0-.08.63.63,0,0,1,0-.16,1.85,1.85,0,0,1,0-.25,1.19,1.19,0,0,0,0-.28.24.24,0,0,0-.08-.14.24.24,0,0,0-.15,0l-.25.06-.66.19a.93.93,0,0,0-.22.08.39.39,0,0,0-.14.1.33.33,0,0,0-.07.16.88.88,0,0,0,0,.24v.32c0,.17,0,.4,0,.64v1.48l0,3.49c0,.21,0,.45,0,.71s0,.53,0,.78,0,.47,0,.64,0,.29,0,.32a.68.68,0,0,0,0,.22.15.15,0,0,0,.07.12.23.23,0,0,0,.13,0,1.12,1.12,0,0,0,.22,0l.91-.26.22-.08a.4.4,0,0,0,.14-.11.26.26,0,0,0,.07-.16.78.78,0,0,0,0-.24V83c0-.17,0-.39,0-.64V80.87l0-2.77a2.13,2.13,0,0,1,0-.27.79.79,0,0,1,.06-.22.78.78,0,0,1,.11-.2,1.09,1.09,0,0,1,.17-.22,3.76,3.76,0,0,1,.38-.41,4.18,4.18,0,0,1,.42-.34,3.19,3.19,0,0,1,.42-.26,2.31,2.31,0,0,1,.41-.16l.11,0,.1,0h.09l.07,0a.43.43,0,0,0,.12,0,.3.3,0,0,0,.08-.08.5.5,0,0,0,0-.13.79.79,0,0,0,0-.17l0-1.38c0-.09,0-.17,0-.23a.39.39,0,0,0,0-.13.11.11,0,0,0-.09-.06.35.35,0,0,0-.14,0" transform="translate(-4.59)"/><path class="cls-9" d="M113.69,80.32a1.53,1.53,0,0,1-.44.07.71.71,0,0,1-.34-.08.52.52,0,0,1-.21-.23.81.81,0,0,1-.08-.37,1.45,1.45,0,0,1,.23-.68,3.16,3.16,0,0,1,.58-.66,7.17,7.17,0,0,1,.85-.62c.32-.19.67-.37,1-.54l.06,0,0,0h0l0,0a.35.35,0,0,1,.14,0,.11.11,0,0,1,.07.06.26.26,0,0,1,0,.14,1.41,1.41,0,0,1,0,.22v.79a2.33,2.33,0,0,1,0,.29.79.79,0,0,1-.06.22,1,1,0,0,1-.12.19l-.2.22c-.12.12-.26.24-.39.35s-.28.22-.42.31a4.49,4.49,0,0,1-.42.24,2.22,2.22,0,0,1-.42.16m.89-8a5.76,5.76,0,0,0-.76.27c-.26.12-.52.25-.77.39s-.5.31-.73.47a7.22,7.22,0,0,0-.66.52,1,1,0,0,0-.15.13.47.47,0,0,0-.09.12.41.41,0,0,0-.06.11.5.5,0,0,0,0,.12v.07s0,0,0,.08,0,0,0,.08a.36.36,0,0,1,0,.09l.29.71.07.15.06.09.06,0H112l.06,0,.08,0,.08-.08.1-.1c.14-.14.29-.28.46-.42s.34-.26.52-.38a4.29,4.29,0,0,1,.55-.31,3.24,3.24,0,0,1,.53-.21,2.18,2.18,0,0,1,.4-.08,1.19,1.19,0,0,1,.33,0,.81.81,0,0,1,.27.11.69.69,0,0,1,.19.19,1,1,0,0,1,.1.17,1.19,1.19,0,0,1,.08.2,1.29,1.29,0,0,1,0,.19,1.15,1.15,0,0,1,0,.16.47.47,0,0,1,0,.14.26.26,0,0,1-.07.11.36.36,0,0,1-.12.08.91.91,0,0,1-.17.08,9.9,9.9,0,0,0-1.57.77,9.09,9.09,0,0,0-1.43,1.08,5.4,5.4,0,0,0-1.05,1.36,3.61,3.61,0,0,0-.42,1.62,2.53,2.53,0,0,0,.17,1,1.37,1.37,0,0,0,.47.62,1.42,1.42,0,0,0,.74.25,2.56,2.56,0,0,0,.92-.12,3.69,3.69,0,0,0,.6-.23,5.54,5.54,0,0,0,1.16-.75,4.88,4.88,0,0,0,.53-.49l.08-.07.06-.06,0,0,0,0a.06.06,0,0,1,.06,0l0,0a.2.2,0,0,1,0,.09s0,.08,0,.13a.91.91,0,0,0,0,.27.23.23,0,0,0,.06.14.21.21,0,0,0,.14,0,.82.82,0,0,0,.22-.05l.69-.2.21-.07a.34.34,0,0,0,.13-.1.32.32,0,0,0,.08-.14.92.92,0,0,0,0-.19V80c0-.18,0-.4,0-.65v-.78c0-.27,0-.54,0-.8l.09-2.76a6,6,0,0,0-.16-1.58,2,2,0,0,0-.54-1,1.51,1.51,0,0,0-.92-.38,3.55,3.55,0,0,0-1.3.17" transform="translate(-4.59)"/><path class="cls-9" d="M121.47,67.89l-.86.24a1.56,1.56,0,0,0-.21.08.39.39,0,0,0-.14.1.26.26,0,0,0-.07.16.75.75,0,0,0,0,.23V69c0,.12,0,.28,0,.45v1c0,.1,0,.17,0,.23a.33.33,0,0,1,0,.15.2.2,0,0,1-.08.08.49.49,0,0,1-.16.06l-.14,0-.15,0-.14,0-.11,0-.25.09a.41.41,0,0,0-.14.12.48.48,0,0,0-.06.18,1.23,1.23,0,0,0,0,.29v.74a2.18,2.18,0,0,0,0,.28.26.26,0,0,0,.06.15.26.26,0,0,0,.14,0,.93.93,0,0,0,.24,0l.09,0,.13,0,.16,0,.15,0,.16,0a.13.13,0,0,1,.09,0,.34.34,0,0,1,0,.12,1.48,1.48,0,0,1,0,.23l-.06,4.14a4.64,4.64,0,0,0,.11,1.18,1.72,1.72,0,0,0,.42.78,1.25,1.25,0,0,0,.78.34,3.11,3.11,0,0,0,1.18-.14l.21-.07.22-.08.21-.08.21-.09.23-.13a.58.58,0,0,0,.13-.15.43.43,0,0,0,.07-.2,1.09,1.09,0,0,0,0-.28v-.75a1.41,1.41,0,0,0,0-.22.23.23,0,0,0,0-.13.09.09,0,0,0-.06-.06.2.2,0,0,0-.11,0l-.12.06-.19.09-.22.1-.23.08a1.5,1.5,0,0,1-.52.08.64.64,0,0,1-.36-.12.78.78,0,0,1-.21-.36,2.74,2.74,0,0,1-.06-.63l.06-3.76a1.19,1.19,0,0,1,0-.28.38.38,0,0,1,.07-.18.44.44,0,0,1,.14-.13,1,1,0,0,1,.23-.08l.31-.09.25-.07.26-.07.24-.06.16,0a1.23,1.23,0,0,0,.25-.08.41.41,0,0,0,.14-.12.54.54,0,0,0,.07-.17c0-.07,0-.16,0-.28v-.77a2,2,0,0,0,0-.27c0-.07,0-.11-.07-.14a.2.2,0,0,0-.14,0l-.24,0-.17.06-.24.07-.26.09-.24.07-.42.12-.18,0a.14.14,0,0,1-.11,0,.23.23,0,0,1,0-.11,1.74,1.74,0,0,1,0-.23c0-.16,0-.33,0-.51s0-.37,0-.54,0-.32,0-.44,0-.2,0-.23a.75.75,0,0,0,0-.23.14.14,0,0,0-.07-.11s-.07,0-.13,0a.74.74,0,0,0-.22,0" transform="translate(-4.59)"/><path class="cls-9" d="M129.16,75.78a1.55,1.55,0,0,1-.82,0,1.21,1.21,0,0,1-.64-.36,1.72,1.72,0,0,1-.41-.73,3.25,3.25,0,0,1-.14-1.08,5.54,5.54,0,0,1,.16-1.24,4.15,4.15,0,0,1,.44-1.08,3.2,3.2,0,0,1,.7-.84,2.93,2.93,0,0,1,1-.5,1.7,1.7,0,0,1,.83,0,1.21,1.21,0,0,1,.65.36,1.71,1.71,0,0,1,.42.74,3.24,3.24,0,0,1,.14,1.09,5.12,5.12,0,0,1-.18,1.27,4.43,4.43,0,0,1-.48,1.08,3.32,3.32,0,0,1-.72.81,2.66,2.66,0,0,1-.91.48m.36-7.75a5.22,5.22,0,0,0-1.72.85,6.14,6.14,0,0,0-1.3,1.39,6.86,6.86,0,0,0-.82,1.8,7.42,7.42,0,0,0-.31,2.08,5.22,5.22,0,0,0,.25,1.77,2.72,2.72,0,0,0,.78,1.18,2.31,2.31,0,0,0,1.18.55,3.62,3.62,0,0,0,1.51-.12,5.59,5.59,0,0,0,1.66-.82A5.87,5.87,0,0,0,132,75.37a6.65,6.65,0,0,0,.85-1.78,7.24,7.24,0,0,0,.33-2.12,5.31,5.31,0,0,0-.25-1.78,2.93,2.93,0,0,0-.77-1.2,2.42,2.42,0,0,0-1.18-.57,3.41,3.41,0,0,0-1.5.11" transform="translate(-4.59)"/><path class="cls-9" d="M139.1,65.31l-.18.07-.21.1-.23.12-.22.13-.33.25a3.74,3.74,0,0,0-.31.27l-.3.31-.3.35L137,67s0,0-.06.06l-.06,0,0,0h-.06a.29.29,0,0,1,0-.08s0-.09,0-.16v-.25a1.06,1.06,0,0,0,0-.27.21.21,0,0,0-.07-.15.28.28,0,0,0-.15,0,.93.93,0,0,0-.24,0l-.64.18-.22.08a.53.53,0,0,0-.14.11.48.48,0,0,0-.07.16,1.29,1.29,0,0,0,0,.23V69.4L135,72.86c0,.2,0,.44,0,.7l0,.77c0,.24,0,.46,0,.63s0,.29,0,.32a.73.73,0,0,0,0,.22.27.27,0,0,0,.07.12.2.2,0,0,0,.14,0l.21,0,.89-.26a1,1,0,0,0,.21-.08.5.5,0,0,0,.14-.1.59.59,0,0,0,.07-.16,1.4,1.4,0,0,0,0-.23v-.32c0-.16,0-.38,0-.63v-.76c0-.25,0-.49,0-.69l.05-2.74a2,2,0,0,1,0-.26.79.79,0,0,1,.06-.22,1.06,1.06,0,0,1,.11-.21,1.3,1.3,0,0,1,.16-.21,5,5,0,0,1,.38-.41c.13-.12.27-.23.4-.33a3.77,3.77,0,0,1,.41-.25,2.56,2.56,0,0,1,.4-.16l.11,0,.1,0h.16l.11-.05a.34.34,0,0,0,.08-.09.33.33,0,0,0,.05-.12.44.44,0,0,0,0-.17l0-1.37a1.41,1.41,0,0,0,0-.22.33.33,0,0,0,0-.13.1.1,0,0,0-.09-.06.23.23,0,0,0-.14,0" transform="translate(-4.59)"/></g></g></g></g></g></svg>