<svg xmlns="http://www.w3.org/2000/svg" xmlns:xlink="http://www.w3.org/1999/xlink" viewBox="0 0 129.58 94.41"><defs><style>.cls-1{fill:none;}.cls-2{fill:#d18fa1;}.cls-3{fill:#c37394;}.cls-4{fill:#eeb1c0;}.cls-5{fill:#0c4b33;fill-rule:evenodd;}.cls-6{isolation:isolate;}.cls-7{clip-path:url(#clip-path);}.cls-8{fill:#fff;}.cls-9{clip-path:url(#clip-path-2);}</style><clipPath id="clip-path" transform="translate(-2.08)"><polygon class="cls-1" points="25.05 76.61 8.82 64.29 8.86 52.5 25.14 64.67 25.05 76.61"/></clipPath><clipPath id="clip-path-2" transform="translate(-2.08)"><polygon class="cls-1" points="55.99 77.86 55.93 61.07 102.22 45.33 102.07 61.8 55.99 77.86"/></clipPath></defs><g id="レイヤー_2" data-name="レイヤー 2"><g id="About_Me" data-name="About Me"><g id="Django"><polygon class="cls-2" points="0 68.72 86.53 38.79 86.53 1.3 0.03 30.66 0 68.72"/><polygon class="cls-3" points="0.03 68.92 0.03 29.23 31.73 55.82 31.73 94.41 0.03 68.92"/><polygon class="cls-3" points="118.26 25.92 86.53 0 0 29.23 1.22 30.25 86.49 1.3 117.03 26.39 118.26 25.92"/><polygon class="cls-4" points="117.03 26.39 86.53 1.3 86.53 38.79 117.03 63.8 117.03 26.39"/><g id="Page-1"><g id="logo-django"><path id="Shape" class="cls-5" d="M31.88,16.44H36.2V36.22a29.17,29.17,0,0,1-5.6.58c-5.27,0-8-2.36-8-6.88,0-4.36,2.91-7.18,7.42-7.18a6.75,6.75,0,0,1,1.87.22V16.44Zm0,10a4.44,4.44,0,0,0-1.45-.22c-2.18,0-3.44,1.33-3.44,3.67s1.2,3.52,3.41,3.52a9.14,9.14,0,0,0,1.48-.11V26.39ZM43.05,23v9.9c0,3.41-.25,5.05-1,6.46a6.83,6.83,0,0,1-3.53,3.16l-4-1.88c1.91-.89,2.83-1.67,3.42-2.86s.81-2.64.81-6.36V23Zm-4.3-6.57h4.31v4.38H38.75ZM45.66,24a13.14,13.14,0,0,1,5.71-1.27c2.22,0,3.67.58,4.32,1.72a6.59,6.59,0,0,1,.47,3.24v8.68a47.39,47.39,0,0,1-6.15.47c-3.62,0-5.24-1.24-5.24-4,0-3,2.15-4.38,7.44-4.82v-.94c0-.78-.39-1.06-1.48-1.06a11.45,11.45,0,0,0-5.07,1.31Zm6.75,6.79c-2.85.28-3.78.73-3.78,1.84,0,.83.53,1.22,1.71,1.22a12,12,0,0,0,2.07-.2V30.8Zm5.85-7.1a26.3,26.3,0,0,1,6.77-1c2.21,0,3.81.5,4.76,1.46S71,26.12,71,28.25v8.38H66.66V28.42c0-1.64-.56-2.25-2.1-2.25a6.58,6.58,0,0,0-2,.31V36.63H58.26ZM72.65,39a9.82,9.82,0,0,0,4.62,1.13c2.82,0,4-1.13,4-3.85v-.08a6,6,0,0,1-2.8.58c-3.78,0-6.19-2.47-6.19-6.38,0-4.86,3.56-7.6,9.86-7.6a27.18,27.18,0,0,1,5.63.61l-1.48,3.08a3.16,3.16,0,0,0-1-.12v.45l.06,1.8,0,2.34c0,.58,0,1.16.06,1.74v1.17c0,3.66-.31,5.38-1.23,6.8-1.35,2.08-3.67,3.11-7,3.11a12.25,12.25,0,0,1-4.64-.84V39ZM81.21,26.2h-.45a4.7,4.7,0,0,0-2.49.61A3.31,3.31,0,0,0,76.71,30c0,2.13,1.06,3.35,3,3.35A5.61,5.61,0,0,0,81.3,33V31.55c0-.5,0-1.05,0-1.64l0-2,0-1.41Zm13.28-3.52c4.31,0,6.94,2.69,6.94,7.05S98.69,37,94.32,37s-7-2.69-7-7C87.35,25.48,90.09,22.68,94.49,22.68ZM94.4,33.55c1.65,0,2.63-1.36,2.63-3.72s-1-3.72-2.6-3.72-2.69,1.36-2.69,3.72,1,3.72,2.66,3.72Z" transform="translate(-2.08)"/></g></g><polygon class="cls-3" points="118.26 64.48 31.73 94.41 31.73 55.82 31.73 55.85 118.26 25.92 118.26 64.48"/><path class="cls-3" d="M120.34,64.48l11.31-4.24c-1.17-15-11.31-34.32-11.31-34.32" transform="translate(-2.08)"/><g id="星"><g class="cls-6"><g class="cls-7"><polyline class="cls-8" points="19.72 62.18 20.48 67.32 23.02 69.24 20.94 70.51 21.69 75.64 19.66 71.28 17.6 72.53 18.41 68.59 16.38 64.24 18.91 66.14 19.72 62.18"/><polyline class="cls-8" points="10.04 54.93 10.79 60.03 13.29 61.92 11.25 63.19 12 68.29 10 63.98 7.98 65.23 8.76 61.31 6.77 57.01 9.25 58.88 10.04 54.93"/></g></g></g><g class="cls-6"><g class="cls-9"><path class="cls-8" d="M58.22,71.47l-.23.06a.17.17,0,0,1-.14,0,.3.3,0,0,1-.07-.14,1.87,1.87,0,0,1,0-.27l0-8a1.14,1.14,0,0,1,0-.28.38.38,0,0,1,.2-.33l.24-.1,1.89-.64a3,3,0,0,1,1.43-.18,1.65,1.65,0,0,1,1,.54,2.73,2.73,0,0,1,.58,1.14,6.08,6.08,0,0,1,.19,1.63,8.86,8.86,0,0,1-.22,2,6.4,6.4,0,0,1-.65,1.75,4.7,4.7,0,0,1-1.09,1.36,4.83,4.83,0,0,1-1.55.89l-1.54.53M56.36,61a1,1,0,0,0-.21.1.57.57,0,0,0-.13.14,1,1,0,0,0-.07.21,2.16,2.16,0,0,0,0,.28c0,.27,0,.53,0,.8s0,.52,0,.78,0,.51,0,.76,0,.48,0,.7l0,5.73V72c0,.26,0,.53,0,.79s0,.53,0,.79a1.87,1.87,0,0,0,0,.27.26.26,0,0,0,.07.15.14.14,0,0,0,.13,0,.59.59,0,0,0,.21,0l.26-.09.52-.2.64-.23.59-.21,1.38-.48A7.24,7.24,0,0,0,62,71.56a7.46,7.46,0,0,0,1.65-1.92,9.32,9.32,0,0,0,1-2.5,12.13,12.13,0,0,0,.35-3,9.08,9.08,0,0,0-.33-2.55,3.5,3.5,0,0,0-1-1.58,2.57,2.57,0,0,0-1.51-.62,5,5,0,0,0-2,.31l-1.87.63c-.17.07-.38.13-.6.2l-.63.21-.53.17-.26.08" transform="translate(-2.08)"/><path class="cls-8" d="M68.24,60.57l-.86.3-.22.09a.53.53,0,0,0-.14.11.44.44,0,0,0-.06.16.86.86,0,0,0,0,.24v.32c0,.17,0,.4,0,.65s0,.51,0,.77,0,.5,0,.71v6.61a4.55,4.55,0,0,1,0,.67,1.82,1.82,0,0,1-.12.51,1,1,0,0,1-.24.37,1,1,0,0,1-.38.23l-.13,0-.12.06a.3.3,0,0,0-.08.08.29.29,0,0,0,0,.11.76.76,0,0,0,0,.16v1a1.55,1.55,0,0,0,0,.23.39.39,0,0,0,0,.15.11.11,0,0,0,.09,0,.28.28,0,0,0,.15,0l.28-.12.38-.21c.14-.08.27-.17.4-.26a1.81,1.81,0,0,0,.33-.26,3.33,3.33,0,0,0,.55-.65,3.22,3.22,0,0,0,.35-.75,4,4,0,0,0,.19-.87,7.91,7.91,0,0,0,.06-1V63.34c0-.2,0-.45,0-.71s0-.53,0-.78,0-.48,0-.65,0-.3,0-.33,0-.17,0-.22a.27.27,0,0,0-.07-.12.21.21,0,0,0-.14,0,.74.74,0,0,0-.22,0M67.85,57a1.44,1.44,0,0,0-.48.28,1.57,1.57,0,0,0-.35.42,1.92,1.92,0,0,0-.22.51,2.1,2.1,0,0,0-.08.56,1.32,1.32,0,0,0,.08.47.73.73,0,0,0,.22.31.69.69,0,0,0,.33.14,1,1,0,0,0,.41-.05,1.44,1.44,0,0,0,.48-.28,1.68,1.68,0,0,0,.36-.43,2.27,2.27,0,0,0,.22-.53,2.32,2.32,0,0,0,.07-.59,1.15,1.15,0,0,0-.08-.44.67.67,0,0,0-.22-.3.6.6,0,0,0-.33-.12,1,1,0,0,0-.41,0" transform="translate(-2.08)"/><path class="cls-8" d="M73.06,66.63a1.87,1.87,0,0,1-.42.09.67.67,0,0,1-.33-.07.47.47,0,0,1-.21-.21,1,1,0,0,1-.07-.37,1.32,1.32,0,0,1,.21-.69,3.08,3.08,0,0,1,.55-.69,6.22,6.22,0,0,1,.82-.66,8.44,8.44,0,0,1,1-.58l0,0,0,0h0l0,0,.12,0a.12.12,0,0,1,.08.06.39.39,0,0,1,0,.14,1.41,1.41,0,0,1,0,.22v.8a2.16,2.16,0,0,1,0,.28.79.79,0,0,1-.06.22,1,1,0,0,1-.11.2,1.74,1.74,0,0,1-.19.22,4.31,4.31,0,0,1-.37.37c-.13.12-.27.23-.4.33a4.65,4.65,0,0,1-.41.26,3.52,3.52,0,0,1-.4.18m.77-8.07a5,5,0,0,0-.73.31,6.08,6.08,0,0,0-.74.42c-.24.15-.47.32-.7.49s-.44.36-.63.55l-.14.14a.47.47,0,0,0-.09.12.34.34,0,0,0-.06.12.49.49,0,0,0,0,.12v.07s0,.05,0,.08l0,.08,0,.09.29.7a1,1,0,0,0,.06.14l.06.1.06,0h.07l.06,0,.07-.06.08-.08.09-.1.45-.45a4.74,4.74,0,0,1,.49-.4,5.24,5.24,0,0,1,.53-.34,2.3,2.3,0,0,1,.51-.23,1.6,1.6,0,0,1,.39-.1.86.86,0,0,1,.32,0,.5.5,0,0,1,.25.09.58.58,0,0,1,.19.19.86.86,0,0,1,.1.16A1.67,1.67,0,0,1,75,61a1.42,1.42,0,0,1,0,.2,1,1,0,0,1,0,.16.28.28,0,0,1,0,.13.41.41,0,0,1-.07.11.31.31,0,0,1-.11.09l-.17.09a11.4,11.4,0,0,0-1.51.84,8.88,8.88,0,0,0-1.37,1.15,5.44,5.44,0,0,0-1,1.4,3.79,3.79,0,0,0-.38,1.63,2.68,2.68,0,0,0,.17,1,1.34,1.34,0,0,0,.47.61,1.21,1.21,0,0,0,.71.21,2.48,2.48,0,0,0,.89-.15,3.6,3.6,0,0,0,.57-.26,5.84,5.84,0,0,0,.57-.35c.19-.14.37-.29.55-.45a6.2,6.2,0,0,0,.5-.52l.07-.08.06,0,0,0,0,0a.06.06,0,0,1,.06,0l0,0a.29.29,0,0,1,0,.09s0,.08,0,.13a1.91,1.91,0,0,0,0,.28.2.2,0,0,0,.07.13s.07,0,.13,0l.2-.06.67-.23.21-.09a.69.69,0,0,0,.13-.11.26.26,0,0,0,.06-.13.6.6,0,0,0,0-.2c0-.08,0-.21,0-.39s0-.4,0-.65,0-.51,0-.78,0-.54,0-.8l.05-2.77a6.21,6.21,0,0,0-.17-1.57,2.06,2.06,0,0,0-.53-.95,1.44,1.44,0,0,0-.89-.34,3.52,3.52,0,0,0-1.26.23" transform="translate(-2.08)"/><path class="cls-8" d="M82.71,55.52a4.23,4.23,0,0,0-.58.25,5.63,5.63,0,0,0-.54.36,4,4,0,0,0-.49.43,5.23,5.23,0,0,0-.45.49l-.08.09-.06.06-.05,0,0,0s0,0,0,0a.07.07,0,0,1,0,0s0-.06,0-.1,0-.09,0-.15a1.57,1.57,0,0,0,0-.25.2.2,0,0,0-.06-.13.14.14,0,0,0-.13,0l-.21.06-.72.24-.21.09a.36.36,0,0,0-.13.11.34.34,0,0,0-.07.16,1.4,1.4,0,0,0,0,.23v.33c0,.17,0,.39,0,.64s0,.51,0,.76v4.9c0,.26,0,.52,0,.77s0,.47,0,.65v.31a.75.75,0,0,0,0,.23.17.17,0,0,0,.06.11.21.21,0,0,0,.14,0,.76.76,0,0,0,.21-.05l.86-.3.21-.09a.47.47,0,0,0,.13-.11.77.77,0,0,0,.07-.16,1.66,1.66,0,0,0,0-.24s0-.15,0-.32v-.63c0-.25,0-.51,0-.77V59.65a2.17,2.17,0,0,1,0-.26.79.79,0,0,1,.06-.22.75.75,0,0,1,.1-.2,2.29,2.29,0,0,1,.15-.24l.35-.38a4.6,4.6,0,0,1,.35-.31,3.61,3.61,0,0,1,.36-.23,2.52,2.52,0,0,1,.34-.15,1.56,1.56,0,0,1,.64-.09.8.8,0,0,1,.45.22,1.16,1.16,0,0,1,.27.49,2.63,2.63,0,0,1,.09.72v2.69c0,.2,0,.44,0,.7s0,.52,0,.77,0,.47,0,.64,0,.29,0,.32a.65.65,0,0,0,0,.22.17.17,0,0,0,.06.12.19.19,0,0,0,.13,0l.21,0,.86-.3L85,64a.36.36,0,0,0,.13-.11.77.77,0,0,0,.07-.16,1.66,1.66,0,0,0,0-.24v-.32c0-.17,0-.39,0-.63s0-.51,0-.77v-.7l0-3.24a4,4,0,0,0-.18-1.28,1.93,1.93,0,0,0-.51-.84,1.52,1.52,0,0,0-.8-.37,2.39,2.39,0,0,0-1.05.14" transform="translate(-2.08)"/><path class="cls-8" d="M89.82,64.5a2.91,2.91,0,0,1-.72.18,1.39,1.39,0,0,1-.55,0,.6.6,0,0,1-.36-.22.7.7,0,0,1-.12-.42,1.57,1.57,0,0,1,.05-.37,1.66,1.66,0,0,1,.14-.37,1.9,1.9,0,0,1,.2-.37,4.22,4.22,0,0,1,.27-.36l.12-.13.12-.11.11-.08.12,0,.06,0h.19l.16,0,.16,0,.17,0,.17,0c.26,0,.5-.06.72-.07a3.42,3.42,0,0,1,.59,0,.73.73,0,0,1,.39.2.55.55,0,0,1,.14.39,1.06,1.06,0,0,1-.15.52,2.2,2.2,0,0,1-.43.51,4.08,4.08,0,0,1-.68.48,5,5,0,0,1-.87.39m.25-6.76a1.58,1.58,0,0,1-.61.1.8.8,0,0,1-.45-.13.77.77,0,0,1-.29-.35,1.2,1.2,0,0,1-.09-.53,2.34,2.34,0,0,1,.09-.63,2.63,2.63,0,0,1,.28-.62,2.27,2.27,0,0,1,.49-.54,2.4,2.4,0,0,1,.71-.38,1.61,1.61,0,0,1,.58-.1.89.89,0,0,1,.45.14.75.75,0,0,1,.29.34,1.45,1.45,0,0,1,.09.54,2.62,2.62,0,0,1-.08.61,2.59,2.59,0,0,1-.27.62,2.17,2.17,0,0,1-.47.54,2.47,2.47,0,0,1-.72.39M90.25,53a5.22,5.22,0,0,0-1.37.71,4.6,4.6,0,0,0-1,1,4.5,4.5,0,0,0-.62,1.24,4.4,4.4,0,0,0-.21,1.36,3.6,3.6,0,0,0,0,.58,1.85,1.85,0,0,0,.12.49,1.79,1.79,0,0,0,.19.42,2.16,2.16,0,0,0,.27.33.35.35,0,0,1,.09.07l.06.07a.16.16,0,0,1,0,.07.15.15,0,0,1,0,.07.17.17,0,0,1,0,.07.32.32,0,0,1,0,.09,1,1,0,0,1,0,.12s0,.09-.08.14a1.51,1.51,0,0,0-.12.26,2,2,0,0,0-.1.26l-.06.28a2.64,2.64,0,0,0,0,.29,1.85,1.85,0,0,0,0,.24,1.55,1.55,0,0,0,0,.21.64.64,0,0,0,.06.18,1.09,1.09,0,0,0,.08.15l.06.1a.56.56,0,0,0,0,.08.25.25,0,0,1,0,.07.13.13,0,0,1,0,.06.22.22,0,0,1,0,.08l0,.1a.59.59,0,0,1-.08.11l-.11.14a5.9,5.9,0,0,0-.43.59,5.36,5.36,0,0,0-.34.62,4,4,0,0,0-.21.64,2.72,2.72,0,0,0-.08.63,1.67,1.67,0,0,0,.2.87,1.22,1.22,0,0,0,.6.54,2.08,2.08,0,0,0,1,.14,5.68,5.68,0,0,0,1.43-.32,8.06,8.06,0,0,0,1.79-.87,5.63,5.63,0,0,0,1.22-1.07A4.21,4.21,0,0,0,93.38,63a3.19,3.19,0,0,0,.24-1.18,1.88,1.88,0,0,0-.28-1.1,1.36,1.36,0,0,0-.72-.5,3.21,3.21,0,0,0-1-.1,7.79,7.79,0,0,0-1.07.12l-.74.09a2.33,2.33,0,0,1-.53,0,.59.59,0,0,1-.31-.12.35.35,0,0,1-.1-.27.7.7,0,0,1,0-.16.4.4,0,0,1,0-.13l.08-.1.1-.05.06,0,.09,0h.17l.15,0,.14,0,.14-.05.15,0a5.38,5.38,0,0,0,1.37-.72,4.41,4.41,0,0,0,1-1,4.49,4.49,0,0,0,.59-1.23,5.21,5.21,0,0,0,.2-1.37,1.09,1.09,0,0,0,0-.18V54.6c0-.06,0-.11,0-.17a.88.88,0,0,0,0-.16l0-.08a.13.13,0,0,0,0-.06V54a.31.31,0,0,1,0-.1.16.16,0,0,1,0-.07.16.16,0,0,1,.08-.06.33.33,0,0,1,.12-.05l.22-.08a.67.67,0,0,0,.17-.08.24.24,0,0,0,.09-.11.34.34,0,0,0,0-.16,1.77,1.77,0,0,0,0-.24v-.74a1.7,1.7,0,0,0,0-.25.32.32,0,0,0,0-.14.12.12,0,0,0-.1,0,.93.93,0,0,0-.19,0l-.2.08-.29.1-.34.12-.33.12-.23.08-.35.11-.36.1-.35.1-.36.08-.11,0-.11,0-.11,0-.12,0" transform="translate(-2.08)"/><path class="cls-8" d="M98.31,57.83a1.59,1.59,0,0,1-.79.08,1.17,1.17,0,0,1-.61-.34,1.78,1.78,0,0,1-.4-.72,3.75,3.75,0,0,1-.14-1.07,6.19,6.19,0,0,1,.15-1.24,4.31,4.31,0,0,1,.41-1.09,3.33,3.33,0,0,1,.66-.86,2.62,2.62,0,0,1,.91-.54,1.59,1.59,0,0,1,.79-.08,1.21,1.21,0,0,1,.62.33,1.79,1.79,0,0,1,.41.72,3.9,3.9,0,0,1,.14,1.09,5.81,5.81,0,0,1-.17,1.27,4.7,4.7,0,0,1-.45,1.1,3.1,3.1,0,0,1-.67.84,2.61,2.61,0,0,1-.86.51m.28-7.74A5.13,5.13,0,0,0,97,51a5.9,5.9,0,0,0-1.23,1.44A6.88,6.88,0,0,0,95,54.27a7.91,7.91,0,0,0-.28,2.08,4.84,4.84,0,0,0,.26,1.76,2.58,2.58,0,0,0,.74,1.15,2,2,0,0,0,1.14.5,3.08,3.08,0,0,0,1.43-.18,5.1,5.1,0,0,0,1.57-.89,5.68,5.68,0,0,0,1.23-1.39,7.06,7.06,0,0,0,.8-1.81,8,8,0,0,0,.29-2.12,5.22,5.22,0,0,0-.25-1.77,2.77,2.77,0,0,0-.74-1.16,2.14,2.14,0,0,0-1.13-.52,3,3,0,0,0-1.43.17" transform="translate(-2.08)"/></g></g></g></g></g></svg>