<svg xmlns="http://www.w3.org/2000/svg" viewBox="0 0 235.63 161.02"><defs><style>.cls-1{fill:#d18fa1;}.cls-2{fill:#c37394;}.cls-3{fill:#eeb1c0;}.cls-4{fill:#300;}.cls-5{fill:#ff9a00;}.cls-6{fill:#fff;}</style></defs><g id="レイヤー_2" data-name="レイヤー 2"><g id="レイヤー_1-2" data-name="レイヤー 1"><polygon class="cls-1" points="0 121.38 157.36 75.2 157.36 17.35 0.05 62.65 0 121.38"/><polygon class="cls-2" points="0.05 121.69 0.05 60.45 57.7 101.48 57.7 161.02 0.05 121.69"/><polygon class="cls-2" points="215.06 55.34 157.36 15.35 0 60.45 2.21 62.02 157.29 17.35 212.82 56.07 215.06 55.34"/><polygon class="cls-3" points="212.82 56.07 157.36 17.35 157.36 75.2 212.82 113.79 212.82 56.07"/><rect class="cls-4" x="61.78" width="98.14" height="98.14" rx="17.63"/><path class="cls-5" d="M108.15,26.79l17.52,41.84h-8.1l-4.11-10.18H95.83L92,68.63H84l16.35-41.84Zm-10,25.52H111l-6.7-16.56Z"/><path class="cls-5" d="M133.57,27.72a4.2,4.2,0,0,1,4.17,4.16,4.1,4.1,0,0,1-1.22,2.92,4,4,0,0,1-5.87,0,4,4,0,0,1-1.24-2.92,4,4,0,0,1,1.26-2.95A4.08,4.08,0,0,1,133.57,27.72Zm3.69,11.41v29.5h-7.37V39.13Z"/><polygon class="cls-2" points="215.06 114.84 57.7 161.02 57.7 101.48 57.7 101.53 215.06 55.34 215.06 114.84"/><path class="cls-2" d="M215.06,114.84l20.57-6.55c-2.14-23.2-20.57-52.95-20.57-52.95"/><path class="cls-6" d="M93.32,129.66c-.54.14-.7.08-.83-.4,0-.16-.64-2.74-1-4.08L89.62,118c-.36-1.35-1.09-3.89-1.14-4-.13-.49,0-.62.52-.76l1.49-.39c.53-.14.7-.08.83.41,0,.16.64,2.73,1,4.08l1.88,7.15c.35,1.35,1.09,3.88,1.14,4,.12.49,0,.62-.53.76Z"/><path class="cls-6" d="M103.24,127.11c-.22.08-.46.14-.69.2-2.69.71-3.88-.15-4.6-2.88l-2.54-9.66c-.25-1-.82-3-.87-3.12-.12-.49,0-.62.53-.76l1.34-.35c.54-.15.7-.09.83.4,0,.16.5,2.1.77,3.14l2.48,9.43c.31,1.18.71,1.67,1.9,1.39.19-.05.45-.17.57-.2s.35,0,.44.35l.31,1.19C103.85,126.77,103.76,126.92,103.24,127.11Z"/><path class="cls-6" d="M110.53,125.19a5.49,5.49,0,0,1-.69.21c-2.69.7-3.88-.15-4.6-2.89l-2.54-9.66c-.25-.95-.82-3-.87-3.12-.12-.48,0-.61.52-.75l1.35-.36c.54-.14.7-.08.83.41,0,.16.5,2.1.77,3.14l2.48,9.43c.31,1.18.71,1.67,1.9,1.38.18,0,.45-.16.57-.19s.35,0,.44.35l.31,1.18C111.14,124.86,111.05,125,110.53,125.19Z"/><path class="cls-6" d="M121.92,122.15c-.56.15-.69.11-.87-.49-.11-.29-.16-.4-.28-.37a.7.7,0,0,0-.3.25,5.6,5.6,0,0,1-3,1.92,3.93,3.93,0,0,1-5.08-3.11l-1.11-4.2c-.26-1-.82-2.94-.86-3.1-.13-.49,0-.62.52-.76l1.35-.35c.53-.14.7-.09.82.4,0,.16.51,2.1.77,3.13l1,3.64a2.19,2.19,0,0,0,2.9,1.77,3.77,3.77,0,0,0,2-1.34,1.16,1.16,0,0,0,.24-1.18l-1.11-4.2c-.27-1-.82-2.94-.86-3.1-.13-.48,0-.61.52-.75l1.35-.36c.53-.14.69-.08.82.41,0,.16.5,2.1.77,3.12l1.18,4.5c.28,1,.83,3,.87,3.12.13.49,0,.62-.52.76Z"/><path class="cls-6" d="M134.3,115.36c.65,2.46-1.27,4-3.7,4.69a8.85,8.85,0,0,1-4,.12c-.35-.09-.52-.19-.58-.4a1,1,0,0,1,0-.47l.18-1c.07-.37.13-.53.29-.57a1,1,0,0,1,.52.08,5.65,5.65,0,0,0,3.08.11c1.18-.31,1.86-1,1.65-1.77s-1.31-.9-2.6-1c-1.88-.17-4.21-.43-4.82-2.77-.53-2,.73-3.92,3.68-4.69a8.1,8.1,0,0,1,3.3-.2c.36.08.56.15.62.38a1.75,1.75,0,0,1,0,.45l-.13,1.2c-.05.36-.1.55-.27.59A1.15,1.15,0,0,1,131,110a5.27,5.27,0,0,0-2.56,0c-1.09.28-1.69.94-1.51,1.63s1.35.89,2.7,1C131.51,112.84,133.71,113.1,134.3,115.36Z"/><path class="cls-6" d="M144,115.49c.15.58.07.75-.46,1a12.25,12.25,0,0,1-1.25.43c-2.84.74-4.18-.39-4.79-2.74l-1.4-5.34c-.12-.46-.23-.56-.62-.46l-.78.23c-.61.16-.72.09-.88-.51l-.25-1c-.16-.61-.09-.72.51-.88l.82-.19c.39-.1.42-.19.29-.67-.18-.72-.58-2-.62-2.2-.13-.48,0-.61.52-.76l1.28-.33c.53-.14.69-.08.82.4,0,.17.32,1.41.54,2.22.12.49.21.54.68.42L139,105l1.37-.38c.6-.16.72-.09.87.49l.26,1c.15.58.09.7-.52.86-.21,0-1,.22-1.37.33l-.47.12c-.58.16-.66.3-.51.88l1.27,4.86c.35,1.32,1,1.61,2.23,1.3.44-.12.94-.4,1.1-.44s.37.08.48.52Z"/><path class="cls-6" d="M148.71,111.15c.27,1,.82,3,.87,3.12.12.49,0,.62-.53.76l-1.34.36c-.54.13-.7.08-.83-.41,0-.16-.5-2.1-.77-3.14l-1.18-4.49c-.27-1-.83-3-.87-3.12-.13-.48,0-.61.52-.75l1-.26c.6-.16.76-.1.92.5s.25.68.39.64.17-.12.3-.3a5.93,5.93,0,0,1,1.57-1.55,5.47,5.47,0,0,1,1.22-.57c.35-.09.48,0,.61.51l.46,1.76c.09.35,0,.51-.27.57s-.34,0-.57.1a4.17,4.17,0,0,0-2.18,1.54,1.14,1.14,0,0,0-.24,1.18Z"/><path class="cls-6" d="M163.19,111.32c-.53.14-.66.12-.85-.5-.09-.25-.15-.38-.29-.34s-.15.09-.28.25a6.67,6.67,0,0,1-3.14,1.94c-2,.52-3.76-.13-4.31-2.25-.78-3,2.38-5.19,5.42-6.31.39-.12.52-.26.48-.52a2.12,2.12,0,0,0-.64-.92,2,2,0,0,0-2-.28,6.4,6.4,0,0,0-2.82,1.76,1,1,0,0,1-.41.33c-.16,0-.29-.07-.51-.36l-.71-.91a1,1,0,0,1-.23-.41c-.06-.21,0-.38.33-.63a10.62,10.62,0,0,1,4.06-2.19c3-.78,4.8.21,5.66,3.48l.85,3.55c.33,1.33.83,3,.94,3.38s0,.52-.52.66Zm-2.68-5.13a1.9,1.9,0,0,0-.28.1c-2,.86-3.69,2.11-3.38,3.27.2.77.94,1,1.91.76a5,5,0,0,0,2.26-1.41,1,1,0,0,0,.31-1.17l-.26-1C160.94,106.25,160.83,106.11,160.51,106.19Z"/><path class="cls-6" d="M174.38,107.52c.15.58.07.75-.46,1a12.4,12.4,0,0,1-1.26.42c-2.83.75-4.17-.39-4.79-2.73l-1.4-5.34c-.12-.47-.22-.57-.61-.46s-.67.2-.79.23c-.6.16-.72.09-.88-.52l-.25-1c-.15-.6-.09-.72.52-.88l.82-.19c.39-.1.42-.18.29-.67-.19-.72-.58-2-.62-2.19-.13-.49,0-.62.52-.76l1.27-.34c.54-.14.7-.08.83.41,0,.16.32,1.4.53,2.22.13.48.22.53.68.41l.63-.16,1.36-.38c.61-.16.72-.09.88.49l.26,1c.15.58.08.7-.52.86l-1.38.34-.46.12c-.58.15-.67.3-.52.88l1.28,4.85c.35,1.32,1,1.62,2.22,1.3a9.72,9.72,0,0,0,1.11-.44c.28-.07.36.08.48.52Z"/><path class="cls-6" d="M187,98.44c1,3.9-.82,7-4.49,8a5.68,5.68,0,0,1-7.26-4.3c-1-3.74.63-7,4.48-8A5.73,5.73,0,0,1,187,98.44Zm-9.05,3c.56,2.13,2.23,3.19,4,2.71,2-.52,3-2.44,2.37-4.77-.57-2.18-2.28-3.19-4.09-2.72C178.12,97.2,177.4,99.18,178,101.41Z"/><path class="cls-6" d="M193.07,99.51c.27,1,.82,3,.87,3.12.12.49,0,.62-.53.76l-1.34.35c-.54.14-.7.08-.83-.4,0-.16-.5-2.1-.77-3.15l-1.18-4.48c-.27-1-.83-3-.87-3.12-.13-.49,0-.62.52-.76l1-.25c.6-.16.76-.11.92.5s.25.68.39.64.17-.12.3-.3a6,6,0,0,1,1.57-1.56,6.12,6.12,0,0,1,1.22-.56c.35-.1.48,0,.61.51l.46,1.76c.09.35,0,.5-.27.57s-.34,0-.57.1a4.17,4.17,0,0,0-2.18,1.54,1.15,1.15,0,0,0-.24,1.18Z"/></g></g></svg>