<svg xmlns="http://www.w3.org/2000/svg" viewBox="0 0 168.62 118.92"><defs><style>.cls-1{fill:#c37394;}.cls-2{fill:#d18fa1;}.cls-3{fill:#eeb1c0;}.cls-4{fill:#aa7285;}.cls-5{fill:#470137;}.cls-6{fill:#ff61f6;}.cls-7{font-size:20px;fill:#fff;font-family:PA1GothicStdN-Medium-83pv-RKSJ-H, A P-OTF A1Gothic StdN;}</style></defs><g id="レイヤー_2" data-name="レイヤー 2"><g id="レイヤー_1-2" data-name="レイヤー 1"><polygon class="cls-1" points="150.44 15.06 84.61 0 0 50.54 4.35 51.54 85.19 2.15 148.28 16.36 150.44 15.06"/><polygon class="cls-2" points="85.19 2.15 85.19 50.54 4.35 98.83 4.35 51.54 85.19 2.15"/><polygon class="cls-3" points="85.19 50.54 148.28 64.74 148.28 16.36 85.19 2.15 85.19 50.54"/><polygon class="cls-4" points="85.19 50.54 61.42 64.74 65.84 65.6 89.61 51.54 85.19 50.54"/><g id="Layer_2" data-name="Layer 2"><g id="Surfaces"><g id="UI_UX_Surface" data-name="UI UX Surface"><g id="Outline_no_shadow" data-name="Outline no shadow"><g id="Group_175492" data-name="Group 175492"><path id="Path_104683" data-name="Path 104683" class="cls-5" d="M55.92,1.09H95.79a15.06,15.06,0,0,1,15.06,15.06V54.27A15.06,15.06,0,0,1,95.79,69.33H55.92A15.06,15.06,0,0,1,40.86,54.27h0V16.15A15.06,15.06,0,0,1,55.92,1.09Z"/></g></g></g></g><g id="Outlined_Mnemonics_Logos" data-name="Outlined Mnemonics Logos"><g id="Xd"><g id="Group_175493" data-name="Group 175493"><path id="Path_104674" data-name="Path 104674" class="cls-6" d="M77.65,19,68.92,33.45l9.34,15.31a.47.47,0,0,1,0,.35c0,.11-.14,0-.33.07H71.31c-.46,0-.8,0-1-.33-.62-1.22-1.25-2.43-1.87-3.64s-1.29-2.43-2-3.68-1.4-2.52-2.09-3.81h0C63.69,39,63,40.23,62.37,41.48S61,44,60.37,45.21s-1.33,2.47-2,3.69c-.12.28-.34.31-.65.31H51.26c-.12,0-.19,0-.21-.08a.48.48,0,0,1,.07-.33l9.07-14.89L51.36,19c-.1-.13-.11-.23,0-.31a.34.34,0,0,1,.28-.12h6.62a1.05,1.05,0,0,1,.43.07,1,1,0,0,1,.28.26c.56,1.25,1.19,2.5,1.88,3.76s1.38,2.48,2.08,3.7,1.36,2.46,1.95,3.71h0c.62-1.28,1.25-2.53,1.9-3.75s1.3-2.45,2-3.69,1.32-2.47,2-3.69a.84.84,0,0,1,.19-.31.77.77,0,0,1,.37-.07h6.15a.28.28,0,0,1,.33.2h0a.27.27,0,0,1-.09.27Z"/></g><g id="Group_175494" data-name="Group 175494"><path id="Path_104675" data-name="Path 104675" class="cls-6" d="M91.13,49.79a14.6,14.6,0,0,1-6.27-1.32,10,10,0,0,1-4.39-4,12.77,12.77,0,0,1-1.6-6.65,12.2,12.2,0,0,1,1.6-6.15,11.7,11.7,0,0,1,4.65-4.5,15,15,0,0,1,7.37-1.7l.61,0,.89.07V16.36c0-.22.1-.33.29-.33h5.91a.24.24,0,0,1,.28.21h0a.09.09,0,0,1,0,.07V44.07c0,.53,0,1.11.08,1.73s.08,1.19.11,1.69a.5.5,0,0,1-.28.47,23.9,23.9,0,0,1-4.74,1.41A26.28,26.28,0,0,1,91.13,49.79ZM94,44V31.15a4,4,0,0,0-.78-.14,7.72,7.72,0,0,0-1-.05,7.37,7.37,0,0,0-3.29.75,6,6,0,0,0-3.42,5.87,8.13,8.13,0,0,0,.49,3,5.69,5.69,0,0,0,1.32,2.06,5,5,0,0,0,2,1.18,7.6,7.6,0,0,0,2.42.37A11.83,11.83,0,0,0,93,44.15,4.54,4.54,0,0,0,94,44Z"/></g></g></g></g><polygon class="cls-1" points="65.84 118.92 0 101.42 0 50.54 65.84 65.6 65.84 118.92"/><polygon class="cls-1" points="65.84 65.6 65.84 118.92 150.44 69.61 150.44 15.06 65.84 65.6"/><path class="cls-1" d="M150.44,69.61l18-10.51s3.29-14.13-18-44"/><text class="cls-7" transform="matrix(0.87, -0.49, 0.49, 0.87, 108.24, 80.83)">XD</text></g></g></svg>