<svg xmlns="http://www.w3.org/2000/svg" xmlns:xlink="http://www.w3.org/1999/xlink" viewBox="0 0 160.89 102.41"><defs><style>.cls-1{fill:none;}.cls-2{fill:#d18fa1;}.cls-3{fill:#c37394;}.cls-4{fill:#eeb1c0;}.cls-5{fill:#00c58e;}.cls-6{fill:#2f495e;}.cls-7{fill:#108775;}.cls-8{fill:#2e4960;}.cls-10,.cls-8,.cls-9{isolation:isolate;}.cls-9{fill:#00bc7e;}.cls-11{clip-path:url(#clip-path);}.cls-12{fill:#fff;}.cls-13{clip-path:url(#clip-path-2);}</style><clipPath id="clip-path"><polygon class="cls-1" points="28.68 83.54 11.84 72.09 11.85 60.16 28.74 71.46 28.68 83.54"/></clipPath><clipPath id="clip-path-2"><polygon class="cls-1" points="52.8 89.81 52.77 72.98 140.61 48.12 140.26 64.41 52.8 89.81"/></clipPath></defs><g id="レイヤー_2" data-name="レイヤー 2"><g id="About_Me" data-name="About Me"><g id="Vue.js_Nuxt.js" data-name="Vue.js/Nuxt.js"><polygon class="cls-2" points="0 75.34 107.45 43.8 107.45 4.31 0.03 35.23 0 75.34"/><polygon class="cls-3" points="0.03 75.55 0.03 33.74 39.4 61.75 39.4 102.41 0.03 75.55"/><polygon class="cls-3" points="146.84 30.25 107.45 2.94 0 33.74 1.51 34.81 107.4 4.31 145.31 30.75 146.84 30.25"/><polygon class="cls-4" points="145.31 30.75 107.45 4.31 107.45 43.8 145.31 70.16 145.31 30.75"/><path class="cls-5" d="M109,26l-1.78,3.08-6.08-10.53L82.51,50.87H95.15A3.07,3.07,0,0,0,98.22,54H82.51a3.08,3.08,0,0,1-2.66-4.62L98.51,17a3.09,3.09,0,0,1,5.33,0Z"/><path class="cls-6" d="M122.5,49.33,110.81,29.08,109,26l-1.78,3.08L95.56,49.33A3.08,3.08,0,0,0,98.22,54h21.61a3.08,3.08,0,0,0,2.67-4.62ZM98.22,50.87,109,32.16l10.8,18.71Z"/><path class="cls-7" d="M130.86,52.41A3.09,3.09,0,0,1,128.19,54h-8.36a3.08,3.08,0,0,0,3.08-3.08h5.28l-15-25.95-2.4,4.16L109,26l1.51-2.62a3.09,3.09,0,0,1,5.33,0l15,26A3.08,3.08,0,0,1,130.86,52.41Z"/><g id="A4gAvk.tif"><polygon class="cls-8" points="58.66 40.48 82.05 0 67.82 0 58.66 15.42 49.5 0 35.27 0 58.66 40.48"/><polyline class="cls-9" points="58.66 40.55 82.05 0.06 97.6 0.06 58.66 67.47 58.66 67.41 19.72 0 35.27 0 58.66 40.48"/></g><polygon class="cls-3" points="146.84 70.87 39.4 102.41 39.4 61.75 39.4 61.78 146.84 30.25 146.84 70.87"/><path class="cls-3" d="M146.84,70.87l14-4.47c-1.46-15.84-14-36.15-14-36.15"/><g id="星"><g class="cls-10"><g class="cls-11"><polyline class="cls-12" points="25.28 69.15 26.08 74.3 28.72 76.08 26.57 77.48 27.36 82.64 25.25 78.36 23.11 79.75 23.94 75.7 21.83 71.44 24.45 73.2 25.28 69.15"/><polyline class="cls-12" points="15.23 62.42 16.02 67.53 18.62 69.28 16.51 70.69 17.3 75.8 15.21 71.56 13.12 72.96 13.93 68.94 11.85 64.72 14.42 66.45 15.23 62.42"/></g></g></g><g class="cls-10"><g class="cls-13"><path class="cls-12" d="M63.63,70.05l-1.2.34a1.09,1.09,0,0,0-.26.1.43.43,0,0,0-.17.12.52.52,0,0,0-.12.19l-.1.29c-.09.33-.19.64-.27.93s-.18.56-.26.83l-.24.77-.24.73-2.16,6.56s0,.08,0,.11a.59.59,0,0,0,0,.08s0,0-.05.05a.05.05,0,0,1,0,0h0s0,0,0,0l0-.05a.25.25,0,0,1,0-.09l-2.19-5.36c-.07-.19-.15-.38-.22-.58s-.16-.41-.25-.62-.17-.44-.26-.68L55.05,73a.91.91,0,0,0-.1-.24.23.23,0,0,0-.12-.12.23.23,0,0,0-.17,0l-.26.06L53.15,73l-.17.06-.12.06a.23.23,0,0,0-.07.07.18.18,0,0,0,0,.1v.07a.64.64,0,0,1,0,.07l0,.07,0,.08.37.8.32.72.29.68.29.65,2.32,5.49c.07.18.15.36.23.55l.23.58.25.61c.08.22.16.44.25.66s.08.18.11.24a.29.29,0,0,0,.13.12.29.29,0,0,0,.17,0l.26-.06.68-.2.26-.09a.52.52,0,0,0,.17-.12.68.68,0,0,0,.11-.19,1.5,1.5,0,0,0,.1-.3c.09-.28.17-.55.26-.81s.17-.52.25-.77l.24-.72c.08-.23.15-.46.22-.68L62.67,74c.08-.25.17-.51.26-.78l.29-.83c.1-.28.2-.58.32-.9s.23-.65.36-1l0-.1a.46.46,0,0,1,0-.09s0-.06,0-.08v-.06s0-.07,0-.09a.09.09,0,0,0-.06,0h-.11l-.16,0"/><path class="cls-12" d="M72.07,71.24l-.93.27-.23.08a.53.53,0,0,0-.14.11.34.34,0,0,0-.07.16.82.82,0,0,0,0,.24v.32c0,.17,0,.4,0,.65s0,.51,0,.77v4a1.14,1.14,0,0,1,0,.27,1.42,1.42,0,0,1,0,.22,2.12,2.12,0,0,1-.11.21l-.17.23a4.54,4.54,0,0,1-.38.38,3.2,3.2,0,0,1-.38.29,2.48,2.48,0,0,1-.38.22,2.87,2.87,0,0,1-.37.15,1.76,1.76,0,0,1-.7.06.84.84,0,0,1-.49-.24,1.07,1.07,0,0,1-.29-.5,2.37,2.37,0,0,1-.1-.74V75.53c0-.2,0-.45,0-.71s0-.53,0-.78,0-.48,0-.65,0-.3,0-.33a1.3,1.3,0,0,0,0-.23.21.21,0,0,0-.08-.12.2.2,0,0,0-.14,0l-.24,0-.93.27a.87.87,0,0,0-.23.08.39.39,0,0,0-.14.1.48.48,0,0,0-.08.16,1.66,1.66,0,0,0,0,.24v.33c0,.17,0,.4,0,.65s0,.51,0,.77,0,.5,0,.71v3.32a3.88,3.88,0,0,0,.2,1.31,2,2,0,0,0,.57.87,1.59,1.59,0,0,0,.87.4,2.71,2.71,0,0,0,1.14-.1,4.67,4.67,0,0,0,.62-.24,4.3,4.3,0,0,0,.59-.34c.18-.13.36-.27.53-.42a5.66,5.66,0,0,0,.49-.49.6.6,0,0,1,.08-.08l.06-.06s0,0,.06,0a.05.05,0,0,1,0,0s0,0,0,0a.1.1,0,0,1,0,0,.51.51,0,0,0,0,.09s0,.09,0,.15a1.7,1.7,0,0,0,0,.28.26.26,0,0,0,.07.14.29.29,0,0,0,.14,0l.24,0,.77-.23a1,1,0,0,0,.23-.08.41.41,0,0,0,.22-.27,1.54,1.54,0,0,0,0-.24s0-.15,0-.32,0-.4,0-.65,0-.51,0-.77V74c0-.2,0-.45,0-.71s0-.52,0-.77,0-.48,0-.66v-.33a.68.68,0,0,0,0-.22.18.18,0,0,0-.07-.12.21.21,0,0,0-.14,0,1.32,1.32,0,0,0-.24,0"/><path class="cls-12" d="M76.73,73.61l-.17,0a.2.2,0,0,1-.11,0l-.07,0a.2.2,0,0,1,0-.09.55.55,0,0,1,0-.16c0-.07,0-.14.06-.22l.09-.23c0-.08.07-.15.11-.22a4.59,4.59,0,0,1,.33-.52,2.79,2.79,0,0,1,.4-.44,3.21,3.21,0,0,1,.48-.34,3,3,0,0,1,.55-.23,2.65,2.65,0,0,1,.44-.07,1,1,0,0,1,.38.07.7.7,0,0,1,.29.19,1.09,1.09,0,0,1,.23.31l.09.19c0,.07,0,.14.07.21a1.77,1.77,0,0,1,0,.2,1.54,1.54,0,0,1,0,.19.28.28,0,0,1,0,.13.32.32,0,0,1-.08.09.35.35,0,0,1-.12.07l-.19.07-2.82.81m1.75-4.3a4.82,4.82,0,0,0-1.67.86,5.62,5.62,0,0,0-1.28,1.42,6.61,6.61,0,0,0-.82,1.81,7.43,7.43,0,0,0-.29,2.06,5.91,5.91,0,0,0,.22,1.69,2.94,2.94,0,0,0,.72,1.26,2.21,2.21,0,0,0,1.24.64,4,4,0,0,0,1.82-.15,6,6,0,0,0,.71-.25c.23-.1.46-.21.68-.33s.44-.26.65-.4a5.26,5.26,0,0,0,.58-.45l.14-.13.1-.11s0-.08.06-.11a.5.5,0,0,0,0-.12s0,0,0-.07a.24.24,0,0,0,0-.08.13.13,0,0,0,0-.08.36.36,0,0,0,0-.09L81,76.15c0-.05,0-.1-.08-.14l-.06-.1a.18.18,0,0,0-.08,0,.11.11,0,0,0-.08,0l-.06,0-.07.05-.09.08-.1.09c-.13.11-.26.22-.4.32a4.08,4.08,0,0,1-.44.28,4,4,0,0,1-.46.23,2.84,2.84,0,0,1-.49.17,3.46,3.46,0,0,1-.7.14,2.07,2.07,0,0,1-.57,0,1.27,1.27,0,0,1-.44-.2,1.34,1.34,0,0,1-.32-.35,1.59,1.59,0,0,1-.13-.22,2.56,2.56,0,0,1-.11-.24c0-.09,0-.17-.07-.25a.88.88,0,0,1,0-.21.33.33,0,0,1,0-.15.17.17,0,0,1,.07-.1.36.36,0,0,1,.12-.08l.19-.06L81.14,74a.89.89,0,0,0,.26-.11.46.46,0,0,0,.16-.2.81.81,0,0,0,.09-.35,4.45,4.45,0,0,0,0-.57,6.46,6.46,0,0,0-.2-1.81,2.94,2.94,0,0,0-.62-1.21,1.84,1.84,0,0,0-1-.57,3,3,0,0,0-1.37.09"/><path class="cls-12" d="M90.62,62.41l-1,.28a.81.81,0,0,0-.25.09.57.57,0,0,0-.18.12.52.52,0,0,0-.13.18,1.82,1.82,0,0,0-.14.28c-.06.16-.13.31-.2.47l-.21.46c-.07.15-.13.31-.2.46s-.15.31-.22.47l-4.54,10c-.08.16-.16.32-.23.48s-.15.31-.22.47l-.23.47-.22.48s0,.08-.06.11l0,.09a.25.25,0,0,0,0,.07s0,.05,0,.07a.14.14,0,0,0,0,.06l.07,0h.1l.15,0,1-.28.26-.09a.43.43,0,0,0,.17-.12.86.86,0,0,0,.14-.18l.13-.28.21-.48L85,75.6l.21-.47.21-.46,4.54-10c.07-.16.14-.32.22-.48l.22-.48c.08-.16.16-.32.23-.48l.23-.47a1,1,0,0,0,0-.12l0-.09a.24.24,0,0,1,0-.08v-.05a.08.08,0,0,0,0-.07s0,0-.06,0h-.1l-.15,0"/><path class="cls-12" d="M101.23,59.41l-.94.26-.22.08a.53.53,0,0,0-.14.11.39.39,0,0,0-.07.16.86.86,0,0,0,0,.24v.4c0,.22,0,.51,0,.84v1.93l0,4.49a.53.53,0,0,1,0,.13.24.24,0,0,1,0,.09l0,.07a.1.1,0,0,1,0,0h0l0,0,0,0,0-.06-3.88-4.54-.37-.42c-.12-.15-.25-.29-.37-.43l-.37-.44-.36-.45c-.07-.07-.12-.13-.17-.17a.44.44,0,0,0-.15-.1.59.59,0,0,0-.19,0l-.25,0-.52.15-.22.08a.41.41,0,0,0-.22.27,1.54,1.54,0,0,0,0,.24v.38c0,.2,0,.48,0,.78s0,.63,0,.95,0,.63,0,.88l0,5.78c0,.27,0,.59,0,.93s0,.69,0,1,0,.62,0,.84,0,.37,0,.4a.75.75,0,0,0,0,.23.16.16,0,0,0,.07.12.2.2,0,0,0,.14,0,1.15,1.15,0,0,0,.22,0l1-.28a.93.93,0,0,0,.22-.08.5.5,0,0,0,.14-.1.46.46,0,0,0,.07-.16.9.9,0,0,0,0-.24v-.4c0-.22,0-.51,0-.83V70.63l0-4.7a.53.53,0,0,1,0-.13.3.3,0,0,1,0-.1.11.11,0,0,1,0-.06.1.1,0,0,1,0,0h0l.05,0,0,0,.06.06,4.12,4.76.37.42.36.41.34.4.34.41a1.54,1.54,0,0,0,.16.18l.16.09a.51.51,0,0,0,.18,0l.25-.06.31-.09a1,1,0,0,0,.23-.08.38.38,0,0,0,.14-.11.34.34,0,0,0,.07-.16.75.75,0,0,0,0-.23s0-.17,0-.38,0-.48,0-.78V68.69l.06-5.76c0-.26,0-.59,0-.93s0-.69,0-1,0-.62,0-.84,0-.37,0-.4a1.21,1.21,0,0,0,0-.23.18.18,0,0,0-.08-.12.26.26,0,0,0-.14,0l-.22,0"/><path class="cls-12" d="M110.32,60.36l-.9.25a1.32,1.32,0,0,0-.22.08.31.31,0,0,0-.14.11A.26.26,0,0,0,109,61a.83.83,0,0,0,0,.24v1c0,.24,0,.51,0,.76v.69l0,3.27a2.13,2.13,0,0,1,0,.27.83.83,0,0,1-.06.21,1.06,1.06,0,0,1-.11.21c0,.07-.1.14-.16.23s-.25.26-.37.37a4.68,4.68,0,0,1-.37.29,3.47,3.47,0,0,1-.37.21,1.78,1.78,0,0,1-.36.14,1.62,1.62,0,0,1-.67.06.79.79,0,0,1-.47-.24,1.06,1.06,0,0,1-.28-.5,2.27,2.27,0,0,1-.08-.72l0-2.85c0-.19,0-.44,0-.69s0-.52,0-.77,0-.47,0-.64,0-.3,0-.33a1.18,1.18,0,0,0,0-.22.15.15,0,0,0-.07-.12.18.18,0,0,0-.13,0,1.24,1.24,0,0,0-.23,0l-.9.26a.93.93,0,0,0-.22.08.39.39,0,0,0-.14.1.34.34,0,0,0-.07.16,1.29,1.29,0,0,0,0,.24V63c0,.17,0,.39,0,.64v.76c0,.25,0,.5,0,.69l0,3.28a3.91,3.91,0,0,0,.17,1.3,2.11,2.11,0,0,0,.54.86,1.65,1.65,0,0,0,.84.4,2.43,2.43,0,0,0,1.08-.1,4,4,0,0,0,.61-.23,4.3,4.3,0,0,0,1.09-.75,4.17,4.17,0,0,0,.47-.47l.08-.08.06-.06s0,0,.06,0l0,0a0,0,0,0,1,0,0,.08.08,0,0,1,0,0,.2.2,0,0,1,0,.09.66.66,0,0,1,0,.15,1.87,1.87,0,0,0,0,.27.3.3,0,0,0,.07.14.21.21,0,0,0,.14,0,1.39,1.39,0,0,0,.23,0l.75-.22.22-.08a.45.45,0,0,0,.13-.1.33.33,0,0,0,.07-.16.83.83,0,0,0,0-.24V66.61l0-3.5c0-.2,0-.45,0-.7s0-.52,0-.77,0-.47,0-.64,0-.29,0-.32a.75.75,0,0,0,0-.23.14.14,0,0,0-.07-.11s-.07,0-.13,0l-.22,0"/><path class="cls-12" d="M119.23,57.82l-1.07.3-.24.09a.57.57,0,0,0-.18.12.66.66,0,0,0-.14.18c0,.08-.1.17-.16.29l-.24.5q-.11.26-.24.51l-.24.5c-.08.17-.17.35-.26.52l-.19.38-.07.15-.07.1,0,.06a.09.09,0,0,1-.06,0,.09.09,0,0,1-.07,0l-.06,0-.06-.06a.86.86,0,0,1-.07-.1l-.19-.26-.24-.36-.25-.36c-.09-.13-.17-.26-.26-.38s-.17-.26-.25-.4a1.89,1.89,0,0,0-.14-.19.37.37,0,0,0-.14-.09.5.5,0,0,0-.18,0l-.24.06-1.18.33-.15,0-.11.06a.17.17,0,0,0-.06.06.16.16,0,0,0,0,.09s0,0,0,.05a.25.25,0,0,0,0,.07l0,.06,0,.07.38.52.37.5.35.5.36.5.67,1a1.35,1.35,0,0,1,.13.21.43.43,0,0,1,0,.19.63.63,0,0,1,0,.21,3,3,0,0,1-.13.29l-.9,1.69c-.12.23-.24.46-.37.69s-.24.46-.37.69l-.38.71-.42.75,0,.1,0,.09a.25.25,0,0,0,0,.07s0,0,0,.06a.12.12,0,0,0,0,.07l.06,0h.11l.15,0,1.1-.32a1.34,1.34,0,0,0,.24-.09.78.78,0,0,0,.18-.11.72.72,0,0,0,.14-.19,3.08,3.08,0,0,0,.16-.28l.24-.52.25-.51.24-.49c.08-.17.17-.33.25-.5l.31-.63s0-.1.07-.14a.86.86,0,0,1,.07-.1l0-.07a.09.09,0,0,1,.06,0,.06.06,0,0,1,.06,0,.09.09,0,0,1,.06,0l.07.06.08.1.3.45c.08.1.16.22.24.34l.25.36.26.39.25.38a1.63,1.63,0,0,0,.14.18.41.41,0,0,0,.14.1.5.5,0,0,0,.18,0l.24-.06,1.15-.33.15,0,.11-.06a.13.13,0,0,0,.06-.07.11.11,0,0,0,0-.08s0,0,0-.06a.14.14,0,0,0,0-.06l0-.07-.05-.07L119,66l-.36-.5-.37-.5-.36-.51-.78-1.12a1.2,1.2,0,0,1-.12-.21.31.31,0,0,1,0-.19.59.59,0,0,1,0-.21,2.45,2.45,0,0,1,.14-.29L118,61l.36-.68.36-.7c.13-.23.26-.47.38-.71l.4-.74,0-.1,0-.09a.19.19,0,0,0,0-.07.13.13,0,0,0,0-.06.08.08,0,0,0,0-.07.06.06,0,0,0-.06,0h-.1a.4.4,0,0,0-.15,0"/><path class="cls-12" d="M122.9,54.23l-.85.24a.93.93,0,0,0-.22.08.5.5,0,0,0-.14.1.39.39,0,0,0-.07.16.82.82,0,0,0,0,.24v.69c0,.17,0,.35,0,.53s0,.34,0,.48a1.55,1.55,0,0,1,0,.23.47.47,0,0,1,0,.14.24.24,0,0,1-.09.08.49.49,0,0,1-.16.06l-.14,0-.14,0-.14,0-.11,0a.93.93,0,0,0-.24.09.45.45,0,0,0-.15.11.48.48,0,0,0-.06.18,2,2,0,0,0,0,.29v.74a2.18,2.18,0,0,0,0,.28.3.3,0,0,0,.07.14.2.2,0,0,0,.14,0,.93.93,0,0,0,.24-.05l.09,0,.13,0,.15,0,.15-.05.16,0a.1.1,0,0,1,.09,0,.24.24,0,0,1,0,.12,1.41,1.41,0,0,1,0,.22l-.07,4.13a5.09,5.09,0,0,0,.11,1.18,1.74,1.74,0,0,0,.41.79,1.3,1.3,0,0,0,.77.34,3,3,0,0,0,1.17-.14l.22-.07.21-.08.22-.08.2-.08.22-.13a.64.64,0,0,0,.14-.15.93.93,0,0,0,.07-.2,2.16,2.16,0,0,0,0-.28v-.75a.8.8,0,0,0,0-.22.23.23,0,0,0,0-.13.09.09,0,0,0-.06-.07.22.22,0,0,0-.11,0l-.12.05-.19.1-.22.1-.22.08a1.5,1.5,0,0,1-.52.08.63.63,0,0,1-.36-.13.66.66,0,0,1-.2-.36,1.88,1.88,0,0,1-.06-.62l.06-3.76a2.16,2.16,0,0,1,0-.28.75.75,0,0,1,.07-.18.47.47,0,0,1,.15-.12.87.87,0,0,1,.23-.08l.3-.09.24-.07.27-.07.24-.06.16,0,.24-.09a.53.53,0,0,0,.14-.11.75.75,0,0,0,.07-.18c0-.08,0-.17,0-.28V56.6a2.1,2.1,0,0,0,0-.27.2.2,0,0,0-.06-.13.21.21,0,0,0-.14,0l-.24.05-.17,0-.24.07-.26.09-.24.07-.41.11a.54.54,0,0,1-.18,0,.18.18,0,0,1-.11,0,.23.23,0,0,1,0-.11c0-.06,0-.13,0-.22s0-.34,0-.52,0-.37,0-.54,0-.32,0-.43,0-.2,0-.24a1.41,1.41,0,0,0,0-.22.22.22,0,0,0-.07-.12.26.26,0,0,0-.14,0,1.23,1.23,0,0,0-.21,0"/><path class="cls-12" d="M128.1,61.88a1.55,1.55,0,0,0-.92.7,1.75,1.75,0,0,0-.24.52,2.18,2.18,0,0,0-.09.56,1.44,1.44,0,0,0,.08.49.71.71,0,0,0,.22.33.66.66,0,0,0,.34.15.92.92,0,0,0,.43,0,1.81,1.81,0,0,0,.52-.26,1.9,1.9,0,0,0,.38-.42,1.7,1.7,0,0,0,.24-.53,2.35,2.35,0,0,0,.1-.59,1.42,1.42,0,0,0-.08-.48.83.83,0,0,0-.22-.32.7.7,0,0,0-.34-.15,1,1,0,0,0-.42,0"/><path class="cls-12" d="M132.59,54l-.89.25a1,1,0,0,0-.21.08.36.36,0,0,0-.14.1.52.52,0,0,0-.07.15,1.54,1.54,0,0,0,0,.24v.32c0,.17,0,.39,0,.63v.76c0,.26,0,.5,0,.71l-.12,6.52a6,6,0,0,1-.05.66,2.28,2.28,0,0,1-.13.5,1.11,1.11,0,0,1-.25.34,1,1,0,0,1-.39.21l-.14,0-.12,0a.23.23,0,0,0-.07.07.36.36,0,0,0,0,.11.81.81,0,0,0,0,.16l0,1v.23a.46.46,0,0,0,0,.15.15.15,0,0,0,.09.06.44.44,0,0,0,.15,0l.28-.11.39-.18.41-.23.34-.25a3.27,3.27,0,0,0,.56-.62,3.49,3.49,0,0,0,.37-.72,5,5,0,0,0,.21-.85,9.48,9.48,0,0,0,.08-1l.12-6.63c0-.2,0-.45,0-.71s0-.52,0-.76,0-.47,0-.64,0-.29,0-.33a.75.75,0,0,0,0-.22.14.14,0,0,0-.07-.11s-.07,0-.13,0l-.22.05m-.33-3.54a1.62,1.62,0,0,0-.49.25,1.72,1.72,0,0,0-.36.4,1.75,1.75,0,0,0-.23.5,2,2,0,0,0-.09.54,1.33,1.33,0,0,0,.07.47.73.73,0,0,0,.22.31.63.63,0,0,0,.33.15,1,1,0,0,0,.41,0,1.27,1.27,0,0,0,.49-.25,1.54,1.54,0,0,0,.36-.4,1.81,1.81,0,0,0,.23-.51,1.84,1.84,0,0,0,.09-.57,1.25,1.25,0,0,0-.07-.45.66.66,0,0,0-.54-.44,1,1,0,0,0-.42,0"/><path class="cls-12" d="M137.92,52.37a5.16,5.16,0,0,0-1.28.56,4.11,4.11,0,0,0-1,.83,3.39,3.39,0,0,0-.59,1,3.11,3.11,0,0,0-.22,1.13,2.23,2.23,0,0,0,.21,1.08,1.57,1.57,0,0,0,.58.64,2.73,2.73,0,0,0,.79.32,6.81,6.81,0,0,0,.86.16c.19,0,.37,0,.54.09a1.75,1.75,0,0,1,.44.14.71.71,0,0,1,.3.23.56.56,0,0,1,.11.35,1.13,1.13,0,0,1-.1.44,1.17,1.17,0,0,1-.27.37,1.78,1.78,0,0,1-.4.31,3.66,3.66,0,0,1-.53.21,3,3,0,0,1-1,.1,2.21,2.21,0,0,1-.46-.08,1.5,1.5,0,0,1-.42-.15l-.09,0-.08,0h-.13l-.07,0a.27.27,0,0,0-.07.08l-.06.13c0,.06-.05.12-.08.19l-.29.77s0,.08,0,.11l0,.1s0,.06,0,.09v.07a.31.31,0,0,0,0,.1.41.41,0,0,0,.05.09l.09.06.12.06a4.28,4.28,0,0,0,.54.12,3.86,3.86,0,0,0,.6,0,4.87,4.87,0,0,0,.65-.05c.23,0,.45-.09.68-.15a5.82,5.82,0,0,0,1.15-.48,4.4,4.4,0,0,0,1-.76,3.25,3.25,0,0,0,.68-1,3.48,3.48,0,0,0,.27-1.28,2.12,2.12,0,0,0-.2-1,1.42,1.42,0,0,0-.55-.61,2.74,2.74,0,0,0-.76-.33c-.28-.07-.57-.12-.85-.17a5,5,0,0,1-.56-.09A2.5,2.5,0,0,1,137,56a.8.8,0,0,1-.32-.23.56.56,0,0,1-.11-.35.85.85,0,0,1,.09-.38,1.07,1.07,0,0,1,.25-.35,1.53,1.53,0,0,1,.37-.29,2.41,2.41,0,0,1,.49-.21,3.1,3.1,0,0,1,.42-.08,2.71,2.71,0,0,1,.4,0,2.32,2.32,0,0,1,.38.05,2,2,0,0,1,.35.1l.09,0,.08,0h.13a.15.15,0,0,0,.07,0,.35.35,0,0,0,.06-.09.81.81,0,0,0,.06-.13,1.71,1.71,0,0,0,.07-.18l.29-.92,0-.11,0-.1s0-.05,0-.07a.2.2,0,0,0,0-.07.2.2,0,0,0,0-.11.35.35,0,0,0-.05-.08l-.1-.06-.14,0a2.58,2.58,0,0,0-.43-.07,2.64,2.64,0,0,0-.49,0,3.5,3.5,0,0,0-.54.05,4.22,4.22,0,0,0-.57.13"/></g></g></g></g></g></svg>