<svg xmlns="http://www.w3.org/2000/svg" xmlns:xlink="http://www.w3.org/1999/xlink" viewBox="0 0 1501.04 1656.64"><defs><style>.cls-1,.cls-10,.cls-3,.cls-4,.cls-5,.cls-6,.cls-7,.cls-9{fill:none;}.cls-2{clip-path:url(#clip-path);}.cls-3,.cls-4,.cls-5,.cls-6,.cls-7{stroke:#f7f7f7;}.cls-10,.cls-3,.cls-4,.cls-5,.cls-6,.cls-7,.cls-9{stroke-miterlimit:10;}.cls-3{stroke-width:11px;}.cls-4{stroke-width:10px;}.cls-5{stroke-width:9px;}.cls-6{stroke-width:8px;}.cls-7{stroke-width:6px;}.cls-8{clip-path:url(#clip-path-2);}.cls-9{stroke:#efefef;}.cls-10,.cls-9{stroke-width:12px;}.cls-10{stroke:#e8e8e8;}</style><clipPath id="clip-path" transform="translate(208.39 -2.47)"><rect class="cls-1" width="1366" height="1659.11"/></clipPath><clipPath id="clip-path-2" transform="translate(208.39 -2.47)"><rect class="cls-1" width="1366" height="1659.11"/></clipPath></defs><g id="レイヤー_2" data-name="レイヤー 2"><g id="レール"><g id="アートワーク_1" data-name="アートワーク 1"><g class="cls-2"><line class="cls-3" x1="457.22" y1="1166.3" x2="457.22" y2="1343.81"/><line class="cls-3" x1="397.32" y1="1149.37" x2="397.32" y2="1343.81"/><line class="cls-4" x1="693.14" y1="1030.75" x2="693.14" y2="1276.24"/><line class="cls-4" x1="637.24" y1="1013.81" x2="637.24" y2="1276.24"/><line class="cls-5" x1="948.95" y1="877.73" x2="948.95" y2="1194.36"/><line class="cls-5" x1="897.43" y1="862.28" x2="897.43" y2="1195.84"/><line class="cls-5" x1="1142.21" y1="752.6" x2="1142.21" y2="1124.8"/><line class="cls-5" x1="1090.7" y1="739.59" x2="1090.7" y2="1124.8"/><line class="cls-6" x1="1249.35" y1="620.83" x2="1249.35" y2="1093.37"/><line class="cls-6" x1="1212.65" y1="608.68" x2="1212.65" y2="1093.37"/><line class="cls-7" x1="1407.09" y1="239.53" x2="1407.09" y2="813.28"/><line class="cls-7" x1="1385.86" y1="268.59" x2="1385.86" y2="813.28"/><g class="cls-8"><path class="cls-9" d="M0,1312.41S886.61,803.17,957.4,737.82c97.55-90.07,145.07-243.23,43.42-348.07-101.26-104.42-199.06-125.55-203.56-212-4.1-78.58,28.16-169.3,205.57-169.3s241.19,170,181.45,254C1109,368.47,830,474,675.14,487.55c-171.74,15-681.6,36.73-681.6,36.73" transform="translate(208.39 -2.47)"/><path class="cls-9" d="M-6.46,1252.34s811.08-447,886.77-506.6c77.09-60.71,201-143.08,120.51-356" transform="translate(208.39 -2.47)"/><line class="cls-9" x1="247.61" y1="1224.85" x2="328.73" y2="1240.83"/><line class="cls-9" x1="329.12" y1="1180.05" x2="405.52" y2="1195.1"/><line class="cls-9" x1="409.73" y1="1134.46" x2="485.39" y2="1149.37"/><line class="cls-9" x1="567.63" y1="1100.2" x2="498.24" y2="1086.53"/><line class="cls-9" x1="583.24" y1="1040.32" x2="652.63" y2="1053.99"/><line class="cls-9" x1="673.02" y1="988.86" x2="742.41" y2="1002.53"/><line class="cls-9" x1="747.28" y1="947.12" x2="811.8" y2="959.83"/><line class="cls-9" x1="834.42" y1="897.57" x2="894.43" y2="910.28"/><line class="cls-9" x1="919" y1="850.55" x2="971.33" y2="861.64"/><line class="cls-9" x1="990.41" y1="809.39" x2="1034.93" y2="818.82"/><line class="cls-9" x1="1058.29" y1="767.33" x2="1102.81" y2="776.76"/><line class="cls-9" x1="1114.95" y1="725.53" x2="1159.48" y2="734.96"/><line class="cls-9" x1="1165.79" y1="682.57" x2="1210.31" y2="692"/><line class="cls-9" x1="1194.41" y1="641.87" x2="1239.41" y2="648.69"/><line class="cls-9" x1="1221.14" y1="599.57" x2="1255.35" y2="600.19"/><line class="cls-9" x1="1229.21" y1="557.46" x2="1263.34" y2="554.95"/><line class="cls-9" x1="1236.03" y1="514.02" x2="1268.84" y2="504.29"/><line class="cls-9" x1="1233.26" y1="476.72" x2="1255.76" y2="464.51"/><line class="cls-3" x1="357.96" y1="1503.83" x2="357.96" y2="1656.64"/><line class="cls-3" x1="292.66" y1="1462.2" x2="292.66" y2="1656.64"/><line class="cls-3" x1="613.48" y1="1426.26" x2="613.48" y2="1589.07"/><line class="cls-3" x1="548.18" y1="1384.62" x2="548.18" y2="1589.07"/><line class="cls-3" x1="852.72" y1="1358.09" x2="852.72" y2="1530.9"/><line class="cls-3" x1="789.43" y1="1316.45" x2="789.43" y2="1530.9"/><line class="cls-3" x1="1056.96" y1="1295.82" x2="1056.96" y2="1478.63"/><line class="cls-3" x1="999.67" y1="1254.18" x2="999.67" y2="1478.63"/><line class="cls-3" x1="1243.79" y1="1241.23" x2="1243.79" y2="1437.04"/><line class="cls-3" x1="1195.49" y1="1202.6" x2="1195.49" y2="1437.04"/><line class="cls-3" x1="1419.57" y1="1141.1" x2="1419.57" y2="1393.9"/><line class="cls-3" x1="1386.27" y1="1116.42" x2="1386.27" y2="1396.9"/><line class="cls-3" x1="1495.04" y1="982.96" x2="1495.04" y2="1356.5"/><line class="cls-3" x1="1475.39" y1="955.24" x2="1475.39" y2="1356.31"/><path class="cls-10" d="M0,1486.31l1011.77-285.75s57.52-20.2,80.71-31,89.68-49.93,128.92-98.68c56.17-69.78,78.51-154.28-46.62-243.4" transform="translate(208.39 -2.47)"/><path class="cls-10" d="M-11.62,1551.78l1004.77-294s129-44.12,171.79-81.46,46.46-40.2,59.68-55.77c125.88-148.18,44.81-272.72-106-313.62-191.71-52-613.71-119.4-794.09-145.6s-532.84-20.58-532.84-20.58" transform="translate(208.39 -2.47)"/><line class="cls-10" x1="257.15" y1="1470.07" x2="312.04" y2="1515.58"/><line class="cls-10" x1="392.28" y1="1432.34" x2="447.17" y2="1477.85"/><line class="cls-10" x1="525.94" y1="1395.88" x2="580.83" y2="1441.39"/><line class="cls-10" x1="638.58" y1="1359.67" x2="693.47" y2="1405.18"/><line class="cls-10" x1="742.41" y1="1336.92" x2="789.43" y2="1375.9"/><line class="cls-10" x1="836.98" y1="1309.94" x2="883.38" y2="1348.4"/><line class="cls-10" x1="927.27" y1="1282.29" x2="974.77" y2="1321.67"/><line class="cls-10" x1="1008.96" y1="1259.27" x2="1055.67" y2="1297.99"/><line class="cls-10" x1="1087.24" y1="1237.18" x2="1130.02" y2="1276.24"/><line class="cls-10" x1="1157.37" y1="1216.23" x2="1201.54" y2="1255.31"/><line class="cls-10" x1="1231.37" y1="1199.68" x2="1267.41" y2="1231.58"/><line class="cls-10" x1="1285.55" y1="1178.41" x2="1321.58" y2="1210.3"/><line class="cls-10" x1="1330.11" y1="1154.45" x2="1367.76" y2="1184.43"/><line class="cls-10" x1="1367.76" y1="1129.98" x2="1398.47" y2="1151.92"/><line class="cls-10" x1="1400.12" y1="1105.22" x2="1433.71" y2="1122.43"/><line class="cls-10" x1="1427.55" y1="1071.76" x2="1463.72" y2="1082.55"/><line class="cls-10" x1="1453.44" y1="1028.73" x2="1482.93" y2="1037.53"/><line class="cls-10" x1="1470.4" y1="990.49" x2="1495.04" y2="992.5"/></g></g></g></g></g></svg>