<svg xmlns="http://www.w3.org/2000/svg" viewBox="0 0 242.85 162.26"><defs><style>.cls-1{fill:#d18fa1;}.cls-2{fill:#c37394;}.cls-3{fill:#eeb1c0;}.cls-4{fill:#300;}.cls-5{fill:#ff9a00;}.cls-6{fill:#fff;}</style></defs><g id="レイヤー_2" data-name="レイヤー 2"><g id="レイヤー_1-2" data-name="レイヤー 1"><polygon class="cls-1" points="0 121.41 162.18 73.81 162.18 14.2 0.05 60.88 0 121.41"/><polygon class="cls-2" points="0.05 121.73 0.05 58.62 59.47 100.89 59.47 162.26 0.05 121.73"/><polygon class="cls-2" points="221.64 53.35 162.18 12.13 0 58.62 2.28 60.24 162.1 14.2 219.33 54.1 221.64 53.35"/><polygon class="cls-3" points="219.33 54.1 162.18 14.2 162.18 73.81 219.33 113.58 219.33 54.1"/><rect class="cls-4" x="68.4" width="98.14" height="98.14" rx="17.63"/><path class="cls-5" d="M114.77,26.79l17.52,41.84H124.2l-4.12-10.18H102.45L98.62,68.63h-8l16.36-41.84Zm-10,25.52h12.8l-6.7-16.56Z"/><path class="cls-5" d="M140.19,27.72a4.2,4.2,0,0,1,4.17,4.16,4.1,4.1,0,0,1-1.22,2.92,3.91,3.91,0,0,1-2.95,1.28,4,4,0,0,1-2.92-1.28A4,4,0,0,1,136,31.88a4,4,0,0,1,1.26-2.95A4.1,4.1,0,0,1,140.19,27.72Zm3.69,11.41v29.5h-7.37V39.13Z"/><polygon class="cls-2" points="221.64 114.67 59.47 162.26 59.47 100.89 59.47 100.95 221.64 53.35 221.64 114.67"/><path class="cls-2" d="M221.64,114.67l21.21-6.75C240.64,84,221.64,53.35,221.64,53.35"/><path class="cls-6" d="M94.4,130.47c-.54.14-.7.08-.83-.4,0-.16-.64-2.74-1-4.08l-1.88-7.15c-.35-1.35-1.09-3.89-1.14-4-.12-.49,0-.62.52-.76l1.49-.39c.53-.14.7-.08.83.41,0,.16.64,2.73,1,4.08l1.88,7.15c.35,1.35,1.09,3.88,1.14,4,.12.49,0,.62-.53.76Z"/><path class="cls-6" d="M104.32,127.91a5.49,5.49,0,0,1-.69.21c-2.69.71-3.88-.15-4.6-2.88l-2.54-9.66c-.25-1-.82-3-.87-3.12-.12-.49,0-.62.53-.76l1.34-.36c.54-.14.7-.08.83.41,0,.16.5,2.1.77,3.14l2.48,9.43c.31,1.18.71,1.67,1.9,1.39.19,0,.45-.17.57-.2s.35,0,.44.35l.31,1.19C104.93,127.58,104.85,127.73,104.32,127.91Z"/><path class="cls-6" d="M111.61,126a5.49,5.49,0,0,1-.69.21c-2.69.7-3.88-.15-4.6-2.89l-2.54-9.66c-.25-1-.82-3-.87-3.12-.12-.48,0-.61.53-.75l1.34-.36c.54-.14.7-.08.83.4,0,.17.5,2.11.77,3.15l2.48,9.43c.31,1.18.71,1.67,1.9,1.38.18-.05.45-.16.57-.19s.35,0,.44.35l.31,1.18C112.22,125.67,112.13,125.82,111.61,126Z"/><path class="cls-6" d="M123,123c-.56.15-.69.11-.87-.49-.11-.29-.16-.4-.28-.37a.7.7,0,0,0-.3.25,5.6,5.6,0,0,1-3,1.92,3.93,3.93,0,0,1-5.08-3.11l-1.11-4.2c-.26-1-.82-2.94-.86-3.1-.13-.49,0-.62.52-.76l1.35-.35c.53-.14.7-.09.82.4.05.16.51,2.1.77,3.13l1,3.64a2.19,2.19,0,0,0,2.9,1.77,3.71,3.71,0,0,0,2-1.34,1.16,1.16,0,0,0,.24-1.18L120,115c-.27-1-.82-2.94-.86-3.1-.13-.48,0-.61.52-.75l1.35-.36c.53-.14.69-.08.82.4,0,.17.5,2.11.77,3.13l1.19,4.5c.27,1,.82,3,.86,3.12.13.49,0,.62-.52.76Z"/><path class="cls-6" d="M135.38,116.16c.65,2.47-1.27,4.06-3.7,4.7a8.85,8.85,0,0,1-4,.12c-.35-.09-.52-.19-.58-.4a1,1,0,0,1,0-.48l.18-1c.07-.37.13-.53.29-.57a1,1,0,0,1,.52.08,5.65,5.65,0,0,0,3.08.11c1.19-.31,1.86-1,1.65-1.77s-1.31-.9-2.6-1c-1.88-.17-4.21-.43-4.82-2.77-.53-2,.73-3.92,3.68-4.69a8.1,8.1,0,0,1,3.3-.2c.36.08.56.15.62.38a1.75,1.75,0,0,1,0,.45l-.13,1.2c0,.36-.1.55-.27.59a1.15,1.15,0,0,1-.51-.06,5.27,5.27,0,0,0-2.56,0c-1.09.28-1.69.94-1.51,1.63s1.35.89,2.7,1C132.59,113.65,134.79,113.91,135.38,116.16Z"/><path class="cls-6" d="M145.07,116.3c.15.58.07.75-.46,1a12.25,12.25,0,0,1-1.25.43c-2.84.74-4.18-.39-4.79-2.74l-1.4-5.34c-.12-.46-.23-.56-.62-.46l-.78.23c-.61.16-.72.09-.88-.51l-.25-1c-.16-.61-.09-.72.51-.88.19,0,.57-.12.82-.19s.42-.19.3-.67c-.19-.72-.59-2-.63-2.2-.13-.49,0-.61.52-.76l1.28-.33c.53-.14.7-.08.82.4.05.17.32,1.41.54,2.22.12.49.21.54.68.42l.62-.17,1.37-.38c.6-.16.72-.09.87.49l.26,1c.15.58.09.7-.52.86-.21,0-1,.22-1.37.33l-.47.12c-.58.16-.66.3-.51.88L141,114c.35,1.32,1,1.61,2.23,1.3.44-.12.94-.4,1.1-.44s.37.08.48.52Z"/><path class="cls-6" d="M149.79,112c.27,1.05.82,3,.87,3.12.12.49,0,.62-.53.76l-1.34.35c-.54.14-.7.09-.83-.4,0-.16-.5-2.1-.77-3.14L146,108.16c-.27-1-.83-3-.87-3.12-.13-.48,0-.61.52-.75l1-.26c.6-.16.76-.1.92.5s.25.68.39.64.17-.12.3-.3a5.93,5.93,0,0,1,1.57-1.55,5.68,5.68,0,0,1,1.22-.57c.35-.09.48,0,.61.51l.46,1.76c.09.35,0,.51-.27.57s-.34,0-.57.1a4.17,4.17,0,0,0-2.18,1.54,1.14,1.14,0,0,0-.24,1.18Z"/><path class="cls-6" d="M164.27,112.13c-.53.14-.66.12-.85-.5-.09-.25-.15-.38-.29-.34s-.15.09-.28.25a6.67,6.67,0,0,1-3.14,1.94c-2,.52-3.76-.13-4.31-2.25-.78-3,2.38-5.19,5.42-6.31.39-.12.52-.26.48-.52a2.12,2.12,0,0,0-.64-.92,2,2,0,0,0-2-.28,6.4,6.4,0,0,0-2.82,1.76,1,1,0,0,1-.41.33c-.16,0-.29-.07-.51-.36l-.71-.91a1,1,0,0,1-.23-.41c-.06-.21,0-.38.33-.63a10.62,10.62,0,0,1,4.06-2.19c3-.78,4.8.21,5.66,3.48l.85,3.55c.33,1.33.83,3,.94,3.38s0,.52-.52.66ZM161.59,107a1.9,1.9,0,0,0-.28.1c-2.05.86-3.69,2.11-3.38,3.27.2.77.94,1,1.91.76a5,5,0,0,0,2.26-1.41,1,1,0,0,0,.31-1.17l-.26-1C162,107.06,161.91,106.92,161.59,107Z"/><path class="cls-6" d="M175.46,108.33c.15.58.07.75-.46,1a12.4,12.4,0,0,1-1.26.42c-2.83.75-4.17-.39-4.79-2.74l-1.4-5.34c-.12-.46-.22-.56-.61-.45s-.67.2-.79.23c-.6.16-.72.09-.88-.52l-.25-1c-.15-.6-.08-.72.52-.88l.82-.19c.39-.1.42-.18.29-.67-.19-.72-.58-2-.62-2.19-.13-.49,0-.62.52-.76l1.27-.34c.54-.14.7-.08.83.41,0,.16.32,1.4.53,2.22.13.48.22.53.68.41l.63-.16c.42-.11,1.13-.32,1.36-.39.61-.15.72-.08.88.5l.26,1c.15.58.08.7-.52.86l-1.38.34-.46.12c-.58.15-.67.3-.52.88l1.28,4.85c.35,1.32,1,1.62,2.22,1.3a9.72,9.72,0,0,0,1.11-.44c.28-.07.36.08.48.52Z"/><path class="cls-6" d="M188.11,99.25c1,3.9-.82,7-4.49,8a5.68,5.68,0,0,1-7.26-4.3c-1-3.74.63-7,4.48-8A5.73,5.73,0,0,1,188.11,99.25Zm-9.05,3c.56,2.13,2.23,3.19,4,2.71,2-.52,3-2.44,2.37-4.77-.57-2.18-2.28-3.19-4.09-2.72C179.2,98,178.48,100,179.06,102.22Z"/><path class="cls-6" d="M194.15,100.32c.27,1,.82,3,.87,3.12.12.49,0,.62-.53.76l-1.34.35c-.54.14-.7.08-.83-.4,0-.16-.5-2.1-.77-3.15l-1.18-4.48c-.27-1-.83-3-.87-3.12-.13-.49,0-.62.52-.76l1-.25c.6-.16.77-.11.92.5s.26.68.39.64.17-.12.3-.3a5.17,5.17,0,0,1,2.79-2.12c.35-.1.49,0,.61.51l.46,1.76c.09.35,0,.5-.27.57s-.34,0-.57.1a4.11,4.11,0,0,0-2.18,1.54,1.15,1.15,0,0,0-.24,1.18Z"/><polygon class="cls-6" points="16.85 97.57 18.73 103.36 24.82 103.36 19.89 106.94 21.78 112.74 16.85 109.16 11.92 112.74 13.8 106.94 8.87 103.36 14.96 103.36 16.85 97.57"/><polygon class="cls-6" points="30.02 108.14 31.9 113.93 37.99 113.93 33.06 117.52 34.95 123.31 30.02 119.73 25.09 123.31 26.97 117.52 22.04 113.93 28.13 113.93 30.02 108.14"/><polygon class="cls-6" points="43.19 118.71 45.07 124.5 51.16 124.5 46.23 128.09 48.12 133.88 43.19 130.3 38.26 133.88 40.14 128.09 35.21 124.5 41.3 124.5 43.19 118.71"/></g></g></svg>