<svg xmlns="http://www.w3.org/2000/svg" xmlns:xlink="http://www.w3.org/1999/xlink" viewBox="0 0 120.55 88.73"><defs><style>.cls-1{fill:none;}.cls-2{fill:#c37394;}.cls-3{fill:#d18fa1;}.cls-4{fill:#eeb1c0;}.cls-5{fill:#aa7285;}.cls-6{fill:#001e36;}.cls-7{fill:#31a8ff;}.cls-8{isolation:isolate;}.cls-9{clip-path:url(#clip-path);}.cls-10{fill:#fff;}.cls-11{clip-path:url(#clip-path-2);}</style><clipPath id="clip-path"><polygon class="cls-1" points="33.99 73.67 11.25 68.8 11.13 58.73 33.92 63.54 33.99 73.67"/></clipPath><clipPath id="clip-path-2"><polygon class="cls-1" points="54.42 75.19 54.28 61.26 110.53 29.02 110.38 42.64 54.42 75.19"/></clipPath></defs><g id="レイヤー_2" data-name="レイヤー 2"><g id="About_Me" data-name="About Me"><g id="Photoshop"><polygon class="cls-2" points="107.56 14.48 60.49 3.72 0 39.85 3.11 40.56 60.9 5.26 106 15.41 107.56 14.48"/><polygon class="cls-3" points="60.9 5.26 60.9 39.85 3.11 74.38 3.11 40.56 60.9 5.26"/><polygon class="cls-4" points="60.9 39.85 106 50 106 15.41 60.9 5.26 60.9 39.85"/><polygon class="cls-5" points="60.9 39.85 43.91 50 47.07 50.62 64.06 40.56 60.9 39.85"/><rect class="cls-6" x="28.15" width="52.61" height="52.61" rx="9.45"/><path class="cls-7" d="M49.36,14.36a7.23,7.23,0,0,1,5.12,1.83,6.1,6.1,0,0,1,2,4.69,6,6,0,0,1-2,4.71,7.53,7.53,0,0,1-5.25,1.79H45v9.41H40.69V14.36ZM48.29,24a4.16,4.16,0,0,0,2.7-.8,2.85,2.85,0,0,0,1-2.35c0-2.07-1.32-3.1-4-3.1H45V24Z"/><path class="cls-7" d="M64.26,21.51a9.18,9.18,0,0,1,2.33.28,11.58,11.58,0,0,1,2.31.89v3.16a10.93,10.93,0,0,0-2.41-1.16,7,7,0,0,0-2.29-.44,2.32,2.32,0,0,0-1.33.32,1,1,0,0,0-.49.91,1,1,0,0,0,.4.68A15.39,15.39,0,0,0,65,27.38a13.54,13.54,0,0,1,3.61,2.4,3.74,3.74,0,0,1,1,2.65,4.2,4.2,0,0,1-1.5,3.41A6.23,6.23,0,0,1,64,37.08a12.46,12.46,0,0,1-3-.35,10.42,10.42,0,0,1-2.3-.85V32.59a10.58,10.58,0,0,0,4.86,1.6,3.27,3.27,0,0,0,1.64-.36,1.08,1.08,0,0,0,.63-.95,1.05,1.05,0,0,0-.23-.65,2.89,2.89,0,0,0-.67-.59c-.3-.2-1.24-.69-2.81-1.46a8.06,8.06,0,0,1-2.68-1.89,3.59,3.59,0,0,1-.87-2.41,3.79,3.79,0,0,1,1.56-3.18A6.52,6.52,0,0,1,64.26,21.51Z"/><polygon class="cls-2" points="47.07 88.73 0 76.22 0 39.85 47.07 50.62 47.07 88.73"/><polygon class="cls-2" points="47.07 50.62 47.07 88.73 107.56 53.48 107.56 14.48 47.07 50.62"/><path class="cls-2" d="M107.55,53.49,120.42,46s2.35-10.11-12.87-31.49"/><g id="星"><g class="cls-8"><g class="cls-9"><polyline class="cls-10" points="29.09 62.52 30.25 66.63 33.95 67.41 30.97 69.17 32.15 73.27 29.15 70.25 26.19 72 27.29 68.38 24.3 65.36 27.98 66.14 29.09 62.52"/><polyline class="cls-10" points="15.91 59.74 17.09 63.83 20.75 64.61 17.81 66.36 18.98 70.45 16 67.44 13.08 69.19 14.15 65.58 11.18 62.58 14.82 63.35 15.91 59.74"/></g></g></g><g class="cls-8"><g class="cls-11"><path class="cls-10" d="M56.08,66.05l-.18.09a.14.14,0,0,1-.11,0,.15.15,0,0,1,0-.1,1.18,1.18,0,0,1,0-.22l0-2.9a.83.83,0,0,1,0-.23.42.42,0,0,1,0-.17.45.45,0,0,1,.11-.13l.18-.12,1.13-.65a2.6,2.6,0,0,1,.61-.27.84.84,0,0,1,.5,0,.58.58,0,0,1,.33.34,1.89,1.89,0,0,1,.12.75,3.78,3.78,0,0,1-.12,1,3.42,3.42,0,0,1-.37.85,3.28,3.28,0,0,1-.55.68,3.66,3.66,0,0,1-.68.51l-.94.54m-1.44-4.57-.17.12a.71.71,0,0,0-.1.14.78.78,0,0,0,0,.18,1.77,1.77,0,0,0,0,.24c0,.21,0,.43,0,.64s0,.44,0,.65,0,.43,0,.63,0,.4,0,.59l0,4.64v1.6c0,.27,0,.51,0,.7v.33a.74.74,0,0,0,0,.18.12.12,0,0,0,.05.08.14.14,0,0,0,.11,0l.17-.09.73-.42.17-.11a.35.35,0,0,0,.1-.12.35.35,0,0,0,.06-.14,1.21,1.21,0,0,0,0-.2s0-.15,0-.33,0-.42,0-.68,0-.55,0-.83,0-.54,0-.75v-.35a1.4,1.4,0,0,1,0-.23.42.42,0,0,1,.05-.17.33.33,0,0,1,.11-.13,1.11,1.11,0,0,1,.18-.12L57,67a6.45,6.45,0,0,0,1.41-1.09,6.06,6.06,0,0,0,1-1.33,5.91,5.91,0,0,0,.56-1.5,6.56,6.56,0,0,0,.17-1.59,3.65,3.65,0,0,0-.19-1.27,1.22,1.22,0,0,0-.54-.66,1.25,1.25,0,0,0-.85-.09,3.73,3.73,0,0,0-1.13.46l-1.21.69-.47.27-.5.27a4.37,4.37,0,0,1-.4.22l-.2.11"/><path class="cls-10" d="M62.52,56.54l-.68.39-.17.11a.53.53,0,0,0-.1.12.35.35,0,0,0-.06.14,1.27,1.27,0,0,0,0,.2v.27c0,.14,0,.32,0,.53s0,.42,0,.63,0,.42,0,.59l0,6.24V67c0,.21,0,.39,0,.53v.27a.74.74,0,0,0,0,.18.12.12,0,0,0,0,.08h.11l.17-.09.67-.39.17-.11a.38.38,0,0,0,.1-.12.34.34,0,0,0,0-.14.62.62,0,0,0,0-.2s0-.12,0-.26,0-.32,0-.52,0-.42,0-.63,0-.41,0-.58l0-2.58a1.5,1.5,0,0,1,0-.22.71.71,0,0,1,0-.2,1,1,0,0,1,.08-.19c0-.06.07-.14.12-.22l.27-.38.28-.31.27-.25.28-.18a1.22,1.22,0,0,1,.5-.18.47.47,0,0,1,.36.1.72.72,0,0,1,.22.36,2,2,0,0,1,.07.58v2.22c0,.17,0,.37,0,.59v.63c0,.21,0,.39,0,.54v.26a.74.74,0,0,0,0,.18.12.12,0,0,0,0,.08.2.2,0,0,0,.11,0l.16-.09.68-.39.17-.11a.37.37,0,0,0,.15-.26,1.09,1.09,0,0,0,0-.19v-.26c0-.14,0-.33,0-.53s0-.42,0-.63,0-.41,0-.58V60.11a3.07,3.07,0,0,0-.15-1,1.25,1.25,0,0,0-.42-.6.9.9,0,0,0-.63-.17,2.07,2.07,0,0,0-.83.29,3.83,3.83,0,0,0-.42.28c-.14.11-.27.23-.4.35s-.25.26-.37.4l-.33.45-.06.08a.18.18,0,0,1,0,.07s0,0,0,0l0,0h-.05l0,0s0-.05,0-.09V57.53c0-.21,0-.4,0-.54v-.27a.44.44,0,0,0,0-.18s0-.07-.05-.08a.09.09,0,0,0-.1,0,.63.63,0,0,0-.17.08"/><path class="cls-10" d="M70.93,61.38a1.31,1.31,0,0,1-.63.2.7.7,0,0,1-.49-.17,1.15,1.15,0,0,1-.33-.53,2.66,2.66,0,0,1-.12-.86,5.36,5.36,0,0,1,.1-1.06,5,5,0,0,1,.32-1,3.65,3.65,0,0,1,.52-.83,2.86,2.86,0,0,1,.73-.61,1.36,1.36,0,0,1,.62-.2.69.69,0,0,1,.5.17,1.12,1.12,0,0,1,.34.52,3.12,3.12,0,0,1,.12.88A4.92,4.92,0,0,1,72.49,59a4.38,4.38,0,0,1-.35,1,3.91,3.91,0,0,1-.53.81,2.84,2.84,0,0,1-.68.58m.14-6.47A5.4,5.4,0,0,0,69.78,56a6.21,6.21,0,0,0-1,1.4,6.94,6.94,0,0,0-.6,1.65A7.58,7.58,0,0,0,68,60.78a3.83,3.83,0,0,0,.23,1.42,1.63,1.63,0,0,0,.6.82,1.4,1.4,0,0,0,.91.21,2.83,2.83,0,0,0,1.15-.4,5.14,5.14,0,0,0,1.24-1,6.33,6.33,0,0,0,1-1.36,7,7,0,0,0,.62-1.64A7.67,7.67,0,0,0,74,57a4.15,4.15,0,0,0-.22-1.42,1.72,1.72,0,0,0-.61-.83,1.39,1.39,0,0,0-.91-.24,2.76,2.76,0,0,0-1.14.39"/><path class="cls-10" d="M76.62,49.7l-.64.36-.16.11a.38.38,0,0,0-.1.12.29.29,0,0,0,0,.14,1.12,1.12,0,0,0,0,.2,1.88,1.88,0,0,0,0,.19v.37c0,.14,0,.29,0,.44s0,.28,0,.4a1,1,0,0,1,0,.19.28.28,0,0,1,0,.13.18.18,0,0,1-.07.08.53.53,0,0,1-.11.09l-.11,0-.11.06-.11.06-.08,0-.18.12a.35.35,0,0,0-.1.12.43.43,0,0,0,0,.16,1.77,1.77,0,0,0,0,.24V54a1.35,1.35,0,0,0,0,.22c0,.06,0,.09,0,.11a.09.09,0,0,0,.1,0,.5.5,0,0,0,.18-.09l.07,0,.1-.06.11-.07.12-.07a.28.28,0,0,1,.12-.05.06.06,0,0,1,.07,0s0,0,0,.09a.87.87,0,0,1,0,.18v3.41a3.74,3.74,0,0,0,.1,1,1,1,0,0,0,.32.56.73.73,0,0,0,.58.14,2.74,2.74,0,0,0,.88-.35l.16-.1.16-.11.16-.11.16-.11.17-.16a.71.71,0,0,0,.1-.14.48.48,0,0,0,0-.18,1.4,1.4,0,0,0,0-.23v-.62a1,1,0,0,0,0-.18.25.25,0,0,0,0-.1.05.05,0,0,0-.05,0l-.09,0-.08.06-.14.11-.17.13-.16.11a1.46,1.46,0,0,1-.39.16.38.38,0,0,1-.28,0,.47.47,0,0,1-.16-.26,2.14,2.14,0,0,1,0-.5v-3.1a.83.83,0,0,1,0-.23.69.69,0,0,1,0-.17.45.45,0,0,1,.11-.13.83.83,0,0,1,.17-.12l.23-.13.18-.1.2-.11.18-.1.12-.07.18-.11a.6.6,0,0,0,.11-.12.75.75,0,0,0,0-.16,1.55,1.55,0,0,0,0-.23v-.64a1.28,1.28,0,0,0,0-.22s0-.09,0-.1,0,0-.1,0a.59.59,0,0,0-.18.09l-.13.07-.18.11-.19.12-.18.1-.31.18-.14.07a.11.11,0,0,1-.08,0,.19.19,0,0,1,0-.09.87.87,0,0,1,0-.18c0-.13,0-.28,0-.43v-.44c0-.14,0-.27,0-.37v-.19a.87.87,0,0,0,0-.18.1.1,0,0,0-.06-.08s0,0-.1,0a1.18,1.18,0,0,0-.16.08"/><path class="cls-10" d="M82.48,54.69a1.23,1.23,0,0,1-.62.19.65.65,0,0,1-.48-.17,1,1,0,0,1-.32-.52,2.66,2.66,0,0,1-.12-.86,5.19,5.19,0,0,1,.11-1,4.42,4.42,0,0,1,.32-1,3.55,3.55,0,0,1,.51-.82,2.74,2.74,0,0,1,.72-.6,1.25,1.25,0,0,1,.62-.2.69.69,0,0,1,.49.17,1.19,1.19,0,0,1,.32.52,2.79,2.79,0,0,1,.12.88A4.84,4.84,0,0,1,84,52.34a4.36,4.36,0,0,1-.34,1,3.83,3.83,0,0,1-.53.8,2.75,2.75,0,0,1-.67.57m.18-6.44a4.92,4.92,0,0,0-1.28,1,6.48,6.48,0,0,0-1,1.39,7.65,7.65,0,0,0-.6,1.64,8,8,0,0,0-.2,1.76,4,4,0,0,0,.21,1.41,1.68,1.68,0,0,0,.59.82,1.31,1.31,0,0,0,.9.22,2.79,2.79,0,0,0,1.12-.39,5.61,5.61,0,0,0,1.24-1,6.35,6.35,0,0,0,.95-1.36,7.15,7.15,0,0,0,.62-1.62,7.58,7.58,0,0,0,.22-1.8A4.07,4.07,0,0,0,85.26,49a1.74,1.74,0,0,0-.59-.84,1.35,1.35,0,0,0-.89-.24,2.61,2.61,0,0,0-1.12.38"/><path class="cls-10" d="M88.81,44.7a5,5,0,0,0-1,.72,4.83,4.83,0,0,0-.71.87,3.86,3.86,0,0,0-.43,1,3.65,3.65,0,0,0-.16,1,1.72,1.72,0,0,0,.18.84.89.89,0,0,0,.45.41,1.68,1.68,0,0,0,.6.11c.21,0,.44,0,.64,0l.42,0a1.61,1.61,0,0,1,.33,0,.35.35,0,0,1,.23.13.36.36,0,0,1,.09.26,1.34,1.34,0,0,1-.07.39,1.62,1.62,0,0,1-.2.36,2.24,2.24,0,0,1-.3.32,2.14,2.14,0,0,1-.39.28,3.14,3.14,0,0,1-.37.18,2.54,2.54,0,0,1-.37.1l-.35,0a1.46,1.46,0,0,1-.31,0l-.07,0H87l0,0a.08.08,0,0,0-.05.05.16.16,0,0,0,0,.08.73.73,0,0,0,0,.12,1.38,1.38,0,0,0-.06.16l-.2.69,0,.1a.29.29,0,0,0,0,.09.64.64,0,0,1,0,.07V53a.25.25,0,0,0,0,.09.21.21,0,0,0,0,.06l.07,0,.1,0a1.34,1.34,0,0,0,.4,0,2.56,2.56,0,0,0,.45-.09A3.17,3.17,0,0,0,88,52.9a5,5,0,0,0,.52-.26,5.41,5.41,0,0,0,.85-.62,4.64,4.64,0,0,0,.72-.81,3.88,3.88,0,0,0,.5-1,3.4,3.4,0,0,0,.19-1.11,1.8,1.8,0,0,0-.16-.82.85.85,0,0,0-.43-.39,1.54,1.54,0,0,0-.58-.12c-.21,0-.43,0-.64,0l-.42,0a1.86,1.86,0,0,1-.36,0,.46.46,0,0,1-.24-.12.41.41,0,0,1-.09-.26,1,1,0,0,1,.07-.34,1.24,1.24,0,0,1,.18-.34,2,2,0,0,1,.28-.31,1.83,1.83,0,0,1,.36-.26,2.3,2.3,0,0,1,.32-.15l.3-.09.29,0,.26,0h.18l0,0a.12.12,0,0,0,.05,0,.56.56,0,0,0,0-.08.83.83,0,0,0,0-.12s0-.1,0-.16l.2-.82,0-.09a.29.29,0,0,1,0-.09s0,0,0-.07V44.4a.22.22,0,0,0,0-.09l0-.05a.11.11,0,0,0-.08,0l-.1,0-.33,0-.37.09-.41.15-.43.22"/><path class="cls-10" d="M93,39.06l-.65.38a.74.74,0,0,0-.16.11.38.38,0,0,0-.11.11.58.58,0,0,0,0,.14c0,.06,0,.12,0,.2s0,.13,0,.26v.53c0,.2,0,.41,0,.62V42l0,6.17c0,.16,0,.36,0,.57s0,.43,0,.64,0,.38,0,.52v.26a.87.87,0,0,0,0,.18.1.1,0,0,0,.06.08s0,0,.1,0l.16-.08L93,50a.74.74,0,0,0,.16-.11.35.35,0,0,0,.1-.11.35.35,0,0,0,.06-.14,1.21,1.21,0,0,0,0-.2v-.25c0-.14,0-.32,0-.52V44.88c0-.08,0-.16,0-.22s0-.13,0-.19,0-.12.08-.19l.12-.21c.09-.14.18-.26.27-.38a2.55,2.55,0,0,1,.26-.3,2.91,2.91,0,0,1,.27-.24l.27-.18a1.07,1.07,0,0,1,.48-.17.44.44,0,0,1,.34.11.7.7,0,0,1,.2.35,2,2,0,0,1,.07.58l0,2.19v.58c0,.21,0,.43,0,.63s0,.39,0,.53V48a.81.81,0,0,0,0,.17.15.15,0,0,0,0,.09.15.15,0,0,0,.11,0A.78.78,0,0,0,96,48.2l.65-.37.16-.11.1-.11a.66.66,0,0,0,0-.15,1,1,0,0,0,0-.19s0-.12,0-.26V45.87a5.41,5.41,0,0,1,0-.57V42.65a3,3,0,0,0-.13-1,1.21,1.21,0,0,0-.39-.6.9.9,0,0,0-.61-.18,1.94,1.94,0,0,0-.79.28,3.62,3.62,0,0,0-.41.27c-.13.11-.26.22-.38.34a4.4,4.4,0,0,0-.35.39c-.12.14-.22.28-.33.43a.41.41,0,0,0,0,.09l-.06.06,0,0,0,0s0,0,0,0l0,0s0,0,0-.09a.53.53,0,0,1,0-.13V41.26c0-.17,0-.37,0-.58s0-.43,0-.64,0-.39,0-.53v-.26a.87.87,0,0,0,0-.18.15.15,0,0,0,0-.09.12.12,0,0,0-.1,0,1,1,0,0,0-.17.07"/><path class="cls-10" d="M101,44a1.19,1.19,0,0,1-.6.19.62.62,0,0,1-.47-.17,1.13,1.13,0,0,1-.31-.53,3,3,0,0,1-.1-.85,5.17,5.17,0,0,1,.11-1,4.9,4.9,0,0,1,.31-1,3.48,3.48,0,0,1,.51-.81,2.78,2.78,0,0,1,.7-.59,1.19,1.19,0,0,1,.6-.19.63.63,0,0,1,.48.17,1.15,1.15,0,0,1,.31.52,3.12,3.12,0,0,1,.11.87,4.68,4.68,0,0,1-.13,1.07,4.83,4.83,0,0,1-.34,1,3.8,3.8,0,0,1-.52.8A2.61,2.61,0,0,1,101,44m.22-6.38a5,5,0,0,0-1.25,1A6.34,6.34,0,0,0,99,40a7.29,7.29,0,0,0-.6,1.62,7.83,7.83,0,0,0-.21,1.75,4.28,4.28,0,0,0,.2,1.4,1.64,1.64,0,0,0,.57.82,1.28,1.28,0,0,0,.87.22,2.58,2.58,0,0,0,1.1-.38,5.32,5.32,0,0,0,1.2-1,6,6,0,0,0,.94-1.33,7.24,7.24,0,0,0,.61-1.61,7,7,0,0,0,.23-1.78,4.07,4.07,0,0,0-.19-1.41,1.77,1.77,0,0,0-.57-.84,1.29,1.29,0,0,0-.87-.24,2.48,2.48,0,0,0-1.09.37"/><path class="cls-10" d="M107.29,40.35l-.13.08-.12.06-.12,0-.1,0-.16,0a.1.1,0,0,1-.09,0s0-.06,0-.12a.66.66,0,0,1,0-.21l0-3a1.55,1.55,0,0,1,0-.22,1.06,1.06,0,0,1,0-.19c0-.06,0-.12.08-.19l.13-.22c.07-.11.15-.21.23-.32s.17-.19.25-.28l.27-.25a2.31,2.31,0,0,1,.28-.19,1.18,1.18,0,0,1,.55-.18.6.6,0,0,1,.42.16.93.93,0,0,1,.28.48,2.77,2.77,0,0,1,.09.82,4.51,4.51,0,0,1-.17,1.23,4.43,4.43,0,0,1-.43,1.07,3.9,3.9,0,0,1-.6.85,2.52,2.52,0,0,1-.68.57m.9-6.79a3.81,3.81,0,0,0-.41.29,3.33,3.33,0,0,0-.39.36c-.12.13-.24.27-.35.41s-.22.29-.32.44a.35.35,0,0,0,0,.08l0,0,0,0,0,0h0l0,0a.56.56,0,0,1,0-.07.37.37,0,0,1,0-.11c0-.09,0-.15,0-.2s0-.08,0-.09a.09.09,0,0,0-.09,0l-.16.07-.54.32a.74.74,0,0,0-.16.1.28.28,0,0,0-.1.12.3.3,0,0,0-.06.14,1.09,1.09,0,0,0,0,.19v2l-.05,5.65c0,.17,0,.37,0,.57s0,.43,0,.63,0,.38,0,.52a1.37,1.37,0,0,1,0,.26.74.74,0,0,0,0,.18c0,.05,0,.07.05.08s.06,0,.1,0l.16-.08.64-.37.16-.11a.31.31,0,0,0,.09-.11.29.29,0,0,0,0-.14,1,1,0,0,0,0-.19v-2c0-.07,0-.14,0-.19a.51.51,0,0,1,0-.13.41.41,0,0,1,0-.09l.09-.06,0,0,0,0,0,0,0,0,.11,0,.11-.05.11-.06.12-.06a5,5,0,0,0,1.15-.92,6.9,6.9,0,0,0,1-1.36,7.79,7.79,0,0,0,.74-1.74,8,8,0,0,0,.3-2.06,5,5,0,0,0-.15-1.32,1.66,1.66,0,0,0-.45-.81,1,1,0,0,0-.72-.28,2,2,0,0,0-1,.3"/></g></g></g></g></g></svg>