<svg xmlns="http://www.w3.org/2000/svg" viewBox="0 0 168.62 118.92"><defs><style>.cls-1{fill:#c37394;}.cls-2{fill:#d18fa1;}.cls-3{fill:#eeb1c0;}.cls-4{fill:#aa7285;}.cls-5{fill:#470137;}.cls-6{fill:#ff61f6;}.cls-7{fill:#fff;}</style></defs><g id="レイヤー_2" data-name="レイヤー 2"><g id="レイヤー_1-2" data-name="レイヤー 1"><polygon class="cls-1" points="150.44 15.06 84.61 0 0 50.54 4.35 51.54 85.19 2.15 148.28 16.36 150.44 15.06"/><polygon class="cls-2" points="85.19 2.15 85.19 50.54 4.35 98.83 4.35 51.54 85.19 2.15"/><polygon class="cls-3" points="85.19 50.54 148.28 64.74 148.28 16.36 85.19 2.15 85.19 50.54"/><polygon class="cls-4" points="85.19 50.54 61.42 64.74 65.84 65.6 89.61 51.54 85.19 50.54"/><rect class="cls-5" x="40.87" y="1.12" width="69.8" height="69.8" rx="12.54"/><path class="cls-6" d="M60.17,20.17l6.59,10.08,6.48-10.08H79L69.63,34.53l10.23,15.4H74L66.76,38.81,59.51,49.93H53.69l10.13-15.4L54.36,20.17Z"/><path class="cls-6" d="M92.91,29.94V20.17h4.94V48.64s-2.68,1.29-8.72,1.29a9.73,9.73,0,0,1-7.24-2.74,10.23,10.23,0,0,1-2.71-7.5,10.5,10.5,0,0,1,1.26-5.12A9.41,9.41,0,0,1,83.91,31a9.27,9.27,0,0,1,4.78-1.31A19.09,19.09,0,0,1,92.91,29.94ZM90.3,45.66h2.61V34.13a6.42,6.42,0,0,0-3.19-.56,5.1,5.1,0,0,0-4,1.64,6.18,6.18,0,0,0-1.48,4.31C84.27,43.79,86.28,45.66,90.3,45.66Z"/><polygon class="cls-1" points="65.84 118.92 0 101.42 0 50.54 65.84 65.6 65.84 118.92"/><polygon class="cls-1" points="65.84 65.6 65.84 118.92 150.44 69.61 150.44 15.06 65.84 65.6"/><path class="cls-1" d="M150.44,69.61l18-10.51s3.29-14.13-18-44"/><path class="cls-7" d="M111.17,75.3c-.09,1.07-.16,2.07-.23,3.24a.87.87,0,0,1-.55.89l-1.31.74c-.28.16-.43.18-.5,0a.76.76,0,0,1,0-.37c.15-1.23.33-2.67.45-3.91l.37-3.68a.87.87,0,0,0-.07-.57,1.11,1.11,0,0,0-.43-.31l-2.58-1.22c-1.22-.57-2.45-1.12-4-1.79a.85.85,0,0,1-.31-.22c-.06-.12,0-.24.31-.4l1.39-.79a.84.84,0,0,1,1,0c1.14.57,2.15,1.06,3.2,1.57l1.29.62c.22.1.36.14.45.09s.12-.18.14-.43l.13-1.43c.11-1.19.2-2.25.25-3.52a.85.85,0,0,1,.56-.89l1.34-.76c.28-.16.43-.18.5-.06a.72.72,0,0,1,0,.38c-.2,1.7-.37,3.11-.49,4.35l-.28,2.9a1,1,0,0,0,0,.53.89.89,0,0,0,.45.34l3.3,1.55c1.11.54,2.32,1,3.59,1.62a.64.64,0,0,1,.3.22c.08.12,0,.24-.3.4l-1.39.79a.84.84,0,0,1-1,0c-1-.56-2-1-2.9-1.46l-1.93-.91c-.21-.1-.35-.14-.44-.09s-.12.19-.15.43Z"/><path class="cls-7" d="M124.32,71.52c-.82.46-2.18,1.27-2.3,1.35-.38.21-.56.13-.8-.29-.54-1-1.14-2.08-1.62-2.92l-3.1-5.46c-.49-.85-1.09-1.89-1.69-2.89-.23-.41-.21-.61.17-.83.13-.07,1.52-.81,2.34-1.28L119.46,58c3.44-2,6.58-1.21,8.78,2.66,2.31,4.06,1.48,7.79-2.34,10Zm-2.07-1.89c.25.43.39.47.82.22l1.76-1c2.73-1.55,3-4.16,1.42-6.93-1.33-2.34-3.4-3.38-5.92-2l-2.17,1.24c-.44.25-.47.38-.23.82Z"/></g></g></svg>