<svg xmlns="http://www.w3.org/2000/svg" xmlns:xlink="http://www.w3.org/1999/xlink" viewBox="0 0 115.14 81.2"><defs><style>.cls-1{fill:none;}.cls-2{fill:#c37394;}.cls-3{fill:#d18fa1;}.cls-4{fill:#eeb1c0;}.cls-5{fill:#aa7285;}.cls-6{fill:#0c4b33;fill-rule:evenodd;}.cls-7{isolation:isolate;}.cls-8{clip-path:url(#clip-path);}.cls-9{fill:#fff;}.cls-10{clip-path:url(#clip-path-2);}</style><clipPath id="clip-path"><polygon class="cls-1" points="33.94 67.34 11.2 62.47 11.08 52.41 33.87 57.22 33.94 67.34"/></clipPath><clipPath id="clip-path-2"><polygon class="cls-1" points="63.35 64.94 63.28 50.88 97.64 31.18 97.54 45.05 63.35 64.94"/></clipPath></defs><g id="レイヤー_2" data-name="レイヤー 2"><g id="About_Me" data-name="About Me"><g id="Django"><polygon class="cls-2" points="102.73 10.28 57.77 0 0 34.51 2.97 35.19 58.17 1.47 101.24 11.17 102.73 10.28"/><polygon class="cls-3" points="58.17 1.47 58.17 34.51 2.97 67.49 2.97 35.19 58.17 1.47"/><polygon class="cls-4" points="58.17 34.51 101.24 44.21 101.24 11.17 58.17 1.47 58.17 34.51"/><polygon class="cls-5" points="58.17 34.51 41.94 44.21 44.95 44.79 61.19 35.19 58.17 34.51"/><polygon class="cls-2" points="44.95 81.2 0 69.25 0 34.51 44.95 44.79 44.95 81.2"/><g id="Page-1"><g id="logo-django"><path id="Shape" class="cls-6" d="M25.21,12.9h3.63V29.52a24.16,24.16,0,0,1-4.71.49c-4.42,0-6.73-2-6.73-5.79s2.45-6,6.23-6a5.85,5.85,0,0,1,1.58.18V12.9Zm0,8.36A3.57,3.57,0,0,0,24,21.08c-1.83,0-2.89,1.11-2.89,3.08a2.63,2.63,0,0,0,2.87,3A8.39,8.39,0,0,0,25.21,27V21.26Zm9.39-2.82v8.32c0,2.87-.21,4.25-.84,5.43a5.75,5.75,0,0,1-3,2.66l-3.36-1.58a5.25,5.25,0,0,0,2.87-2.41c.52-1,.68-2.21.68-5.34V18.44ZM31,12.92h3.63V16.6H31Zm5.81,6.34a10.93,10.93,0,0,1,4.8-1.07c1.86,0,3.09.49,3.63,1.44a5.58,5.58,0,0,1,.4,2.73v7.3a40.71,40.71,0,0,1-5.18.39c-3,0-4.4-1.05-4.4-3.38,0-2.52,1.81-3.68,6.26-4.05v-.79c0-.65-.33-.89-1.24-.89A9.68,9.68,0,0,0,36.79,22ZM42.46,25c-2.39.23-3.17.6-3.17,1.54,0,.7.44,1,1.43,1a9.6,9.6,0,0,0,1.74-.16V25Zm4.92-6a22,22,0,0,1,5.7-.81,5.5,5.5,0,0,1,4,1.23c.75.77,1,1.61,1,3.4v7H54.44V23c0-1.38-.47-1.89-1.76-1.89a5.4,5.4,0,0,0-1.67.25v8.53H47.38Zm12.1,12.82a8.16,8.16,0,0,0,3.88,1c2.37,0,3.39-1,3.39-3.24v-.07a5.16,5.16,0,0,1-2.36.49c-3.17,0-5.19-2.08-5.19-5.37,0-4.08,3-6.38,8.28-6.38a23.06,23.06,0,0,1,4.73.51L71,21.31c-1-.19-.08,0-.81-.1v.37l0,1.52,0,2c0,.49,0,1,0,1.47v1c0,3.08-.26,4.52-1,5.72q-1.69,2.61-5.86,2.61a10.38,10.38,0,0,1-3.9-.7V31.82Zm7.2-10.72H66.3a4,4,0,0,0-2.1.51,2.78,2.78,0,0,0-1.31,2.64c0,1.79.89,2.82,2.49,2.82a4.86,4.86,0,0,0,1.37-.23V25.6c0-.42,0-.89,0-1.38l0-1.66,0-1.18Zm11.15-3c3.63,0,5.84,2.26,5.84,5.92s-2.31,6.11-6,6.11-5.86-2.26-5.86-5.9S74.14,18.14,77.83,18.14Zm-.07,9.13c1.39,0,2.21-1.14,2.21-3.12S79.17,21,77.78,21s-2.26,1.15-2.26,3.13.83,3.12,2.24,3.12Z"/></g></g><polygon class="cls-2" points="44.95 44.79 44.95 81.2 102.73 47.53 102.73 10.28 44.95 44.79"/><path class="cls-2" d="M102.73,47.53,115,40.35s2.25-9.65-12.28-30.07"/><g id="星"><g class="cls-7"><g class="cls-8"><polyline class="cls-9" points="29.03 56.2 30.2 60.31 33.89 61.09 30.93 62.85 32.09 66.94 29.09 63.92 26.14 65.67 27.24 62.06 24.24 59.04 27.92 59.82 29.03 56.2"/><polyline class="cls-9" points="15.86 53.42 17.03 57.51 20.69 58.29 17.75 60.04 18.92 64.12 15.94 61.12 13.02 62.86 14.11 59.27 11.12 56.26 14.77 57.03 15.86 53.42"/></g></g></g><g class="cls-7"><g class="cls-10"><path class="cls-9" d="M66.11,58.9a1.32,1.32,0,0,1-.57.19.64.64,0,0,1-.45-.14,1.05,1.05,0,0,1-.31-.48,2.78,2.78,0,0,1-.11-.83,5.18,5.18,0,0,1,.16-1.26,5.61,5.61,0,0,1,.44-1.1,4.46,4.46,0,0,1,.62-.88,3,3,0,0,1,.73-.59l.13-.08.13-.06.11-.05.11,0,.17,0a.12.12,0,0,1,.1,0s0,.06,0,.12a.62.62,0,0,1,0,.21V57a1.34,1.34,0,0,1,0,.21,1.06,1.06,0,0,1,0,.19,1.08,1.08,0,0,1-.08.19l-.13.23-.24.33c-.09.1-.17.2-.26.29l-.28.26-.3.2m2.3-11-.68.39a1.11,1.11,0,0,0-.16.11.5.5,0,0,0-.1.11.38.38,0,0,0,0,.15,1,1,0,0,0,0,.2s0,.12,0,.26v.53c0,.2,0,.42,0,.63s0,.41,0,.58v.74c0,.06,0,.1,0,.14a.2.2,0,0,1-.05.09.22.22,0,0,1-.09.07l0,0,0,0,0,0,0,0-.12.05-.11,0-.12.06-.12.06a5.79,5.79,0,0,0-1.21,1,7,7,0,0,0-1.06,1.4,7.27,7.27,0,0,0-.76,1.8,7.46,7.46,0,0,0-.28,2.1,4.3,4.3,0,0,0,.18,1.34,1.69,1.69,0,0,0,.49.81,1.09,1.09,0,0,0,.77.26,2.25,2.25,0,0,0,1-.33,3.11,3.11,0,0,0,.43-.31,3.51,3.51,0,0,0,.41-.37,5,5,0,0,0,.36-.42,3.72,3.72,0,0,0,.33-.45l.06-.08,0-.06,0,0,0,0h0l0,0s0,0,0,.08a.38.38,0,0,0,0,.1.62.62,0,0,0,0,.21c0,.05,0,.08.05.1a.16.16,0,0,0,.1,0,.78.78,0,0,0,.16-.08l.57-.33a.74.74,0,0,0,.16-.11.41.41,0,0,0,.11-.12.46.46,0,0,0,0-.14,1.12,1.12,0,0,0,0-.2s0-.12,0-.26,0-.32,0-.53,0-.41,0-.62v-.58l0-6.22c0-.17,0-.37,0-.58v-.65c0-.2,0-.39,0-.53v-.27a.5.5,0,0,0,0-.18s0-.07,0-.08h-.1l-.17.08"/><path class="cls-9" d="M71.49,49.53l-.67.39a.83.83,0,0,0-.17.11.35.35,0,0,0-.1.11.35.35,0,0,0-.06.14,1.21,1.21,0,0,0,0,.2v.26c0,.14,0,.33,0,.53s0,.42,0,.63,0,.41,0,.58V57.9a4.52,4.52,0,0,1,0,.54,1.78,1.78,0,0,1-.1.44,1,1,0,0,1-.18.34,1,1,0,0,1-.29.24l-.11.07-.09.06a.42.42,0,0,0-.06.08.3.3,0,0,0,0,.1.53.53,0,0,0,0,.13v.83a1,1,0,0,0,0,.19.53.53,0,0,0,0,.11s0,0,.07,0a.21.21,0,0,0,.11,0l.22-.15a2.64,2.64,0,0,0,.29-.23l.31-.28a2.05,2.05,0,0,0,.25-.27,2.82,2.82,0,0,0,.42-.62,3.06,3.06,0,0,0,.28-.67,5.4,5.4,0,0,0,.14-.74,7.33,7.33,0,0,0,0-.83V51.15c0-.21,0-.44,0-.64s0-.39,0-.53v-.27a.87.87,0,0,0,0-.18c0-.05,0-.07-.06-.08s0,0-.1,0l-.16.08m-.31-2.85a1.35,1.35,0,0,0-.37.3,2.21,2.21,0,0,0-.28.4,2.85,2.85,0,0,0-.17.46,2.61,2.61,0,0,0,0,.48,1,1,0,0,0,.06.37.45.45,0,0,0,.17.21.38.38,0,0,0,.26.06.94.94,0,0,0,.32-.11,1.48,1.48,0,0,0,.36-.3,1.62,1.62,0,0,0,.27-.41,2.21,2.21,0,0,0,.23-1,.93.93,0,0,0-.06-.36.42.42,0,0,0-.17-.2.37.37,0,0,0-.26,0,.61.61,0,0,0-.31.11"/><path class="cls-9" d="M75.2,53.72a1.47,1.47,0,0,1-.33.14.52.52,0,0,1-.25,0,.33.33,0,0,1-.16-.15.6.6,0,0,1-.06-.29,1.42,1.42,0,0,1,.16-.6,3.68,3.68,0,0,1,.43-.66,7.74,7.74,0,0,1,.63-.67,9.25,9.25,0,0,1,.75-.63l.14-.09a.16.16,0,0,1,.1,0,.07.07,0,0,1,.06,0,.41.41,0,0,1,0,.1v.84a1.62,1.62,0,0,1,0,.23,1.06,1.06,0,0,1,0,.19.76.76,0,0,1-.09.18l-.14.21-.29.37a3.26,3.26,0,0,1-.31.33,3.92,3.92,0,0,1-.31.28,2.58,2.58,0,0,1-.31.22M75.78,47a5.39,5.39,0,0,0-.56.37c-.19.15-.38.3-.57.47l-.54.52c-.17.18-.33.37-.48.55a1.34,1.34,0,0,0-.11.14l-.07.11a.49.49,0,0,0,0,.11.31.31,0,0,0,0,.1v0a.2.2,0,0,0,0,.07.14.14,0,0,0,0,.06.19.19,0,0,0,0,.07l.23.53a1,1,0,0,0,0,.1l0,.07,0,0s0,0,.05,0l0,0,0,0,.06-.08a.86.86,0,0,0,.07-.1c.11-.14.22-.29.34-.43a3.88,3.88,0,0,1,.39-.42,4.48,4.48,0,0,1,.4-.36,2.28,2.28,0,0,1,.39-.27,1.39,1.39,0,0,1,.3-.15,1.38,1.38,0,0,1,.25,0,.38.38,0,0,1,.19,0,.44.44,0,0,1,.15.12l.08.12a.88.88,0,0,1,0,.15.83.83,0,0,1,0,.15.62.62,0,0,1,0,.13.5.5,0,0,1,0,.12l0,.1-.09.09-.13.1a10.63,10.63,0,0,0-1.16.94,8.27,8.27,0,0,0-1,1.16,5.63,5.63,0,0,0-.77,1.31,3.77,3.77,0,0,0-.29,1.4,2.25,2.25,0,0,0,.13.81.78.78,0,0,0,.36.41.84.84,0,0,0,.55.06,2.09,2.09,0,0,0,.69-.27l.44-.3c.15-.12.29-.25.44-.39a5.92,5.92,0,0,0,.41-.45,6.12,6.12,0,0,0,.39-.5l.06-.08a.15.15,0,0,1,0-.06l0,0,0,0s0,0,0,0,0,0,0,0,0,.05,0,.07v.11c0,.1,0,.17,0,.22s0,.09.06.1,0,0,.1,0l.16-.08.51-.3a.74.74,0,0,0,.16-.11.32.32,0,0,0,.1-.1.5.5,0,0,0,0-.13.79.79,0,0,0,0-.17c0-.06,0-.17,0-.31s0-.33,0-.53,0-.42,0-.64v-.66l0-2.27a4.76,4.76,0,0,0-.14-1.26,1.2,1.2,0,0,0-.41-.69.86.86,0,0,0-.68-.14,3.16,3.16,0,0,0-1,.39"/><path class="cls-9" d="M82.62,43a3.52,3.52,0,0,0-.45.3l-.42.38a5.46,5.46,0,0,0-.38.44c-.12.15-.23.31-.34.47l-.06.09,0,.06s0,0,0,0l0,0h0l0,0s0-.05,0-.08,0-.08,0-.12a1.22,1.22,0,0,0,0-.21.13.13,0,0,0,0-.09.09.09,0,0,0-.1,0,.63.63,0,0,0-.17.08l-.54.31-.17.11a.5.5,0,0,0-.1.11.34.34,0,0,0-.05.14.62.62,0,0,0,0,.2v.26c0,.14,0,.33,0,.53s0,.42,0,.63v4c0,.22,0,.44,0,.64s0,.39,0,.53v.27a1,1,0,0,0,0,.18.12.12,0,0,0,0,.08.15.15,0,0,0,.11,0,.78.78,0,0,0,.16-.08l.66-.38a.74.74,0,0,0,.16-.11.33.33,0,0,0,.1-.11.59.59,0,0,0,.06-.14,1.21,1.21,0,0,0,0-.2v-.26c0-.14,0-.32,0-.52s0-.42,0-.63V46.81c0-.08,0-.15,0-.22a1.05,1.05,0,0,1,0-.19.89.89,0,0,1,.07-.19L81.1,46c.09-.14.18-.26.27-.38s.18-.21.27-.3a2.05,2.05,0,0,1,.27-.25,2.11,2.11,0,0,1,.27-.18,1.15,1.15,0,0,1,.49-.17.46.46,0,0,1,.35.1.78.78,0,0,1,.21.36,1.92,1.92,0,0,1,.06.57v2.78c0,.21,0,.43,0,.64s0,.38,0,.53,0,.24,0,.26a.74.74,0,0,0,0,.18.12.12,0,0,0,0,.08s.06,0,.1,0l.16-.08.66-.38.16-.11a.33.33,0,0,0,.1-.11.39.39,0,0,0,.06-.15,1,1,0,0,0,0-.19v-.26c0-.14,0-.32,0-.52s0-.42,0-.63V44.56a3.26,3.26,0,0,0-.14-1,1.15,1.15,0,0,0-.4-.61.85.85,0,0,0-.61-.17,1.92,1.92,0,0,0-.8.28"/><path class="cls-9" d="M88.1,49.25a2.66,2.66,0,0,1-.55.26,1.28,1.28,0,0,1-.43.08.37.37,0,0,1-.27-.13.49.49,0,0,1-.09-.32,1.71,1.71,0,0,1,0-.31,2.13,2.13,0,0,1,.11-.33,2.41,2.41,0,0,1,.15-.33c.07-.11.13-.22.21-.33l.09-.14.09-.1.09-.09.09-.06,0,0,0,0,.05,0,0,0,.13,0,.12,0,.13-.05.13,0a5.7,5.7,0,0,1,.56-.17,1.6,1.6,0,0,1,.45-.07.4.4,0,0,1,.3.1.38.38,0,0,1,.11.3.94.94,0,0,1-.12.44,2.26,2.26,0,0,1-.33.5,6.1,6.1,0,0,1-.51.5,5,5,0,0,1-.68.46m.19-5.59a1.25,1.25,0,0,1-.47.19.56.56,0,0,1-.35,0,.41.41,0,0,1-.22-.23,1,1,0,0,1-.08-.42,2.72,2.72,0,0,1,.29-1.09,2.66,2.66,0,0,1,.38-.52,2.29,2.29,0,0,1,.54-.42,1.31,1.31,0,0,1,.45-.18.56.56,0,0,1,.35,0,.41.41,0,0,1,.22.23,1,1,0,0,1,.08.42,2.49,2.49,0,0,1-.07.52,2.07,2.07,0,0,1-.21.55,2.21,2.21,0,0,1-.36.52,2.38,2.38,0,0,1-.55.43m.13-3.94a4.94,4.94,0,0,0-1,.8,5.14,5.14,0,0,0-.77,1,5,5,0,0,0-.48,1.12A4.56,4.56,0,0,0,86,43.79a3.38,3.38,0,0,0,0,.47,2.23,2.23,0,0,0,.09.39,1.4,1.4,0,0,0,.15.3.93.93,0,0,0,.21.23l.07,0,0,0,0,0a.19.19,0,0,1,0,.12s0,.05,0,.08l0,.1a.49.49,0,0,1-.06.13l-.09.23a2.17,2.17,0,0,0-.07.24,1.55,1.55,0,0,0,0,.23,2.29,2.29,0,0,0,0,.25c0,.07,0,.13,0,.19l0,.16c0,.05,0,.1,0,.14l.06.11.05.07,0,.06,0,0a.11.11,0,0,1,0,.05.2.2,0,0,1,0,.07l0,.08a.3.3,0,0,1-.06.11.77.77,0,0,1-.09.13,6.32,6.32,0,0,0-.33.56,5.62,5.62,0,0,0-.25.56,3.92,3.92,0,0,0-.16.56,2.37,2.37,0,0,0-.06.52,1.41,1.41,0,0,0,.15.69.78.78,0,0,0,.46.35,1.66,1.66,0,0,0,.78,0,4.83,4.83,0,0,0,1.1-.5,8,8,0,0,0,1.38-1,5.77,5.77,0,0,0,.94-1.08,4.47,4.47,0,0,0,.55-1.09,3.11,3.11,0,0,0,.18-1,1.35,1.35,0,0,0-.22-.85.78.78,0,0,0-.56-.3,2.59,2.59,0,0,0-.76.08,6.23,6.23,0,0,0-.83.28c-.22.08-.41.15-.57.19a2.21,2.21,0,0,1-.41.09.43.43,0,0,1-.24,0,.25.25,0,0,1-.07-.21.53.53,0,0,1,0-.13.36.36,0,0,1,0-.11.19.19,0,0,1,0-.09l.08-.07,0,0,.07,0,.07,0,.06,0,.11-.05.11,0,.11-.06.11-.07a4.57,4.57,0,0,0,1.06-.81,4.7,4.7,0,0,0,.75-1A4.55,4.55,0,0,0,90.5,42a4.46,4.46,0,0,0,.15-1.14v-.16a.66.66,0,0,0,0-.14c0-.05,0-.09,0-.14s0-.09,0-.13v-.16a.43.43,0,0,0,0-.05s0-.06,0-.08a.16.16,0,0,1,0-.07l.06-.06.09-.07.17-.09.13-.09a.61.61,0,0,0,.07-.1.57.57,0,0,0,0-.14,1.62,1.62,0,0,1,0-.21V38.6a1.15,1.15,0,0,0,0-.2.41.41,0,0,0,0-.1.08.08,0,0,0-.08,0,.48.48,0,0,0-.15.07l-.15.09a2.36,2.36,0,0,1-.23.13l-.25.16-.26.15-.18.1-.27.15-.27.14-.28.14-.27.12-.08,0-.09,0-.09,0-.09.06"/><path class="cls-9" d="M94.63,42.4a1.16,1.16,0,0,1-.6.19.71.71,0,0,1-.47-.17,1.18,1.18,0,0,1-.31-.53,2.68,2.68,0,0,1-.1-.85,5.07,5.07,0,0,1,.42-2,4,4,0,0,1,.51-.81,2.61,2.61,0,0,1,.7-.58,1.22,1.22,0,0,1,.61-.2.71.71,0,0,1,.48.17,1.13,1.13,0,0,1,.31.53,2.68,2.68,0,0,1,.11.86,4.84,4.84,0,0,1-.13,1.08,4.2,4.2,0,0,1-.34,1,3.45,3.45,0,0,1-.52.8,2.53,2.53,0,0,1-.67.56M94.85,36a5.13,5.13,0,0,0-1.26,1,5.8,5.8,0,0,0-.94,1.38,7.29,7.29,0,0,0-.6,1.62,7.9,7.9,0,0,0-.21,1.75,4.28,4.28,0,0,0,.2,1.4,1.61,1.61,0,0,0,.58.82,1.29,1.29,0,0,0,.87.23,2.61,2.61,0,0,0,1.11-.39,4.87,4.87,0,0,0,1.21-1,6.18,6.18,0,0,0,.94-1.34,7.24,7.24,0,0,0,.61-1.61,7.08,7.08,0,0,0,.23-1.79,3.9,3.9,0,0,0-.2-1.41,1.73,1.73,0,0,0-.57-.83,1.31,1.31,0,0,0-.87-.24,2.47,2.47,0,0,0-1.1.37"/></g></g></g></g></g></svg>