<svg xmlns="http://www.w3.org/2000/svg" viewBox="0 0 235.63 145.68"><defs><style>.cls-1{fill:#d18fa1;}.cls-2{fill:#c37394;}.cls-3{fill:#eeb1c0;}.cls-4{fill:#00c58e;}.cls-5{fill:#2f495e;}.cls-6{fill:#108775;}.cls-7{fill:#2e4960;}.cls-7,.cls-8{isolation:isolate;}.cls-8{fill:#00bc7e;}.cls-9{fill:#fff;}</style></defs><g id="レイヤー_2" data-name="レイヤー 2"><g id="レイヤー_1-2" data-name="レイヤー 1"><polygon class="cls-1" points="0 106.03 157.36 59.85 157.36 2.01 0.05 47.3 0 106.03"/><polygon class="cls-2" points="0.05 106.35 0.05 45.11 57.7 86.13 57.7 145.68 0.05 106.35"/><polygon class="cls-2" points="215.06 40 157.36 0 0 45.11 2.21 46.68 157.29 2.01 212.82 40.73 215.06 40"/><polygon class="cls-3" points="212.82 40.73 157.36 2.01 157.36 59.85 212.82 98.44 212.82 40.73"/><path class="cls-4" d="M155,40.3l-2.23,3.87-7.64-13.23L121.64,71.55h15.88a3.86,3.86,0,0,0,3.86,3.87H121.64a3.87,3.87,0,0,1-3.35-5.8L141.74,29a3.86,3.86,0,0,1,6.7,0Z"/><path class="cls-5" d="M171.89,69.62l-14.7-25.45L155,40.3l-2.23,3.87L138,69.62a3.87,3.87,0,0,0,3.35,5.8h27.15a3.87,3.87,0,0,0,3.35-5.8Zm-30.51,1.93L155,48l13.57,23.51Z"/><path class="cls-6" d="M182.39,73.48A3.87,3.87,0,0,1,179,75.42H168.53a3.87,3.87,0,0,0,3.87-3.87H179L160.21,39l-3,5.22L155,40.3l1.9-3.29a3.87,3.87,0,0,1,6.7,0l18.83,32.61A3.86,3.86,0,0,1,182.39,73.48Z"/><g id="A4gAvk.tif"><polygon class="cls-7" points="91.67 58.5 121.06 7.63 103.17 7.63 91.67 27.01 80.16 7.63 62.28 7.63 91.67 58.5"/><polyline class="cls-8" points="91.67 58.58 121.06 7.7 140.6 7.7 91.67 92.41 91.67 92.34 42.73 7.63 62.28 7.63 91.67 58.5"/></g><polygon class="cls-2" points="215.06 99.49 57.7 145.68 57.7 86.13 57.7 86.18 215.06 40 215.06 99.49"/><path class="cls-2" d="M215.06,99.49,235.63,93C233.49,69.75,215.06,40,215.06,40"/><path class="cls-9" d="M89.47,111c-.16,1.11-.35,2.38-.5,3.78-.06.61-.15.74-.76.9l-1,.25c-.61.16-.75.1-1.13-.4-.82-1.15-1.58-2.14-2.26-3l-5.33-6.89c-.85-1.09-1.68-2.14-2.84-3.54a1.59,1.59,0,0,1-.22-.37c0-.18.1-.27.47-.37l1.79-.47c.61-.16.75-.1,1.1.41,1,1.36,1.71,2.35,2.41,3.31l5.09,6.73c.12.17.24.23.33.21s.14-.13.18-.34L88,102.85c.15-1.23.32-2.47.46-4.12.06-.61.15-.74.76-.89l1.72-.45c.37-.1.52-.09.57.09a1.33,1.33,0,0,1,0,.43c-.32,1.8-.53,3.17-.71,4.46Z"/><path class="cls-9" d="M106.25,110.92c-.56.15-.69.11-.87-.49-.11-.29-.16-.4-.28-.37s-.17.09-.3.25a5.6,5.6,0,0,1-3,1.92,3.94,3.94,0,0,1-5.08-3.11l-1.11-4.2c-.26-1-.82-2.94-.86-3.1-.13-.49,0-.62.52-.76l1.35-.35c.53-.14.7-.09.82.4.05.16.51,2.1.77,3.12l1,3.65a2.19,2.19,0,0,0,2.9,1.77,3.77,3.77,0,0,0,2-1.34,1.16,1.16,0,0,0,.24-1.18l-1.11-4.2c-.27-1-.82-2.94-.86-3.1-.13-.49,0-.62.52-.76l1.35-.35c.53-.14.69-.08.82.4,0,.17.5,2.1.77,3.13l1.18,4.5c.28,1,.83,3,.87,3.12.13.49,0,.62-.52.76Z"/><path class="cls-9" d="M120.32,105.47a1,1,0,0,1,.26.4c0,.21,0,.36-.34.61a8.91,8.91,0,0,1-3.58,1.86c-4.13,1.08-6.56-1.18-7.38-4.32-1-3.59.61-6.93,4.21-7.88,3-.78,5.22.82,6.16,4.39.31,1.19.17,1.42-.43,1.58l-6.57,1.72c-.42.11-.56.22-.49.5a3.06,3.06,0,0,0,.83,1.17,3.33,3.33,0,0,0,3.32.55,5.77,5.77,0,0,0,2.43-1.31,1.47,1.47,0,0,1,.42-.31c.18-.05.32.09.57.37Zm-3.46-5.37a2.77,2.77,0,0,0-.62-1,2.11,2.11,0,0,0-2.24-.6,3,3,0,0,0-2.21,2,2.29,2.29,0,0,0-.17,1.06c0,.19.23.21.6.12l4.11-1.08C116.75,100.45,116.89,100.34,116.86,100.1Z"/><path class="cls-9" d="M123.15,106.49c-.33.08-.5.08-.54-.06a.88.88,0,0,1,.06-.44c.26-.81.49-1.62.75-2.43l3.66-12.82c.23-.81.45-1.58.66-2.38.15-.59.26-.72.87-.88l1.41-.37c.33-.08.5-.08.54.06a.88.88,0,0,1-.06.44c-.26.81-.51,1.65-.74,2.45l-3.67,12.78c-.22.77-.45,1.6-.66,2.4-.15.59-.26.72-.87.87Z"/><path class="cls-9" d="M138.43,97.51c.36,1.35,1.1,3.88,1.14,4,.13.48,0,.61-.52.75l-1.39.37c-.54.14-.7.08-.83-.41,0-.16-.64-2.73-1-4.08l-1.93-7.38c-.35-1.3-1-3.65-1.08-3.81-.13-.49,0-.62.52-.76l.77-.2a1.15,1.15,0,0,1,1.26.27c1,.76,1.95,1.47,2.93,2.18l7.7,5.72c.16.11.27.15.34.13s.12-.18.06-.41l-1.51-5.76c-.35-1.34-1.09-3.88-1.13-4-.13-.49,0-.62.52-.76l1.39-.36c.53-.14.7-.09.82.4,0,.16.65,2.73,1,4.08l1.94,7.38c.33,1.28,1,3.65,1.07,3.82.13.48,0,.61-.52.75l-.46.12a1.12,1.12,0,0,1-1.26-.26c-.93-.7-1.82-1.36-2.83-2.09l-8.18-6a.52.52,0,0,0-.33-.14c-.12,0-.13.19-.07.42Z"/><path class="cls-9" d="M162.45,96.17c-.56.15-.69.11-.87-.49-.11-.29-.16-.41-.28-.37s-.17.09-.3.25a5.59,5.59,0,0,1-2.95,1.91,3.93,3.93,0,0,1-5.08-3.1l-1.11-4.21c-.26-1-.82-2.93-.86-3.09-.13-.49,0-.62.52-.76l1.35-.35c.53-.14.7-.09.82.4.05.16.51,2.1.77,3.12l1,3.65a2.19,2.19,0,0,0,2.9,1.77,3.77,3.77,0,0,0,2-1.34,1.16,1.16,0,0,0,.24-1.18l-1.11-4.2c-.27-1-.82-2.94-.86-3.1-.13-.49,0-.62.52-.76l1.35-.35c.53-.14.69-.08.82.4,0,.16.5,2.1.77,3.13l1.18,4.5c.28,1,.83,3,.87,3.12.13.49,0,.62-.52.76Z"/><path class="cls-9" d="M170.22,91.08c-.29.87-.57,1.71-.85,2.63-.19.6-.33.73-.91.88l-1.65.44c-.35.09-.52.08-.56-.08a.67.67,0,0,1,.06-.41c.54-1.36,1-2.5,1.44-3.71l.83-2.2c.22-.6.18-.74-.3-1.16l-1.44-1.21c-1-.86-2-1.67-3.05-2.55a.75.75,0,0,1-.26-.33c0-.16.11-.25.46-.34l1.76-.47a1,1,0,0,1,1.22.3c.73.68,1.46,1.31,2.14,1.9l.41.34c.19.17.35.28.49.24s.18-.14.28-.44l.16-.49c.31-.93.58-1.77.85-2.66.19-.59.33-.73.91-.88l1.6-.42c.35-.09.52-.09.56.07a.7.7,0,0,1-.06.42c-.5,1.3-1,2.51-1.39,3.69l-.71,1.92c-.22.6-.18.74.3,1.16l1.67,1.43c1,.87,2.09,1.73,3,2.52a.68.68,0,0,1,.26.33c0,.16-.1.25-.45.34l-1.74.46a1,1,0,0,1-1.22-.3c-.72-.63-1.5-1.34-2.13-1.87l-.67-.57c-.23-.19-.37-.28-.49-.25s-.2.18-.28.45Z"/><path class="cls-9" d="M186.05,89.11c.15.58.07.75-.46,1a9.65,9.65,0,0,1-1.25.42c-2.83.75-4.17-.39-4.79-2.73l-1.4-5.34c-.12-.47-.22-.57-.62-.46s-.66.2-.78.23c-.6.16-.72.09-.88-.52l-.25-1c-.16-.6-.09-.72.51-.88.19-.05.57-.12.82-.19.4-.1.43-.18.3-.67-.19-.72-.58-2-.63-2.19-.13-.49,0-.62.52-.76l1.28-.34c.53-.14.7-.08.83.41,0,.16.31,1.4.53,2.22.13.48.21.54.68.41l.63-.16,1.36-.38c.6-.16.72-.09.87.49l.26,1c.16.58.09.7-.52.86-.2.06-.95.23-1.37.34l-.47.12c-.58.15-.66.3-.51.88L182,86.75c.35,1.32,1,1.62,2.23,1.3a9.39,9.39,0,0,0,1.1-.44c.28-.07.37.08.49.52Z"/><path class="cls-9" d="M191.73,86.62A1.84,1.84,0,0,1,190.39,89a1.64,1.64,0,0,1-2.1-1.19,1.81,1.81,0,0,1,1.37-2.34A1.62,1.62,0,0,1,191.73,86.62Z"/><path class="cls-9" d="M194.22,71.65A1.74,1.74,0,0,1,193,73.94a1.58,1.58,0,0,1-2-1.13,1.73,1.73,0,0,1,1.28-2.22A1.54,1.54,0,0,1,194.22,71.65Zm.86,20.84c-.37.1-.49,0-.61-.53l-.34-1.3c-.09-.32,0-.44.26-.52l.21,0c1-.25,1-1,.7-2.24l-2.23-8.48c-.27-1-.82-3-.86-3.12-.13-.49,0-.62.52-.76l1.34-.35c.54-.14.7-.08.83.4,0,.17.5,2.1.77,3.15l2.26,8.61c.49,1.84.36,3.16-.81,4.16A6.87,6.87,0,0,1,195.08,92.49Z"/><path class="cls-9" d="M208.49,80.54c.65,2.46-1.27,4-3.7,4.69a8.85,8.85,0,0,1-4,.12c-.35-.09-.52-.19-.58-.4a1.11,1.11,0,0,1,0-.47l.19-1c.07-.37.13-.53.29-.57a1,1,0,0,1,.52.08,5.65,5.65,0,0,0,3.08.11c1.19-.31,1.86-1,1.65-1.77s-1.31-.9-2.6-1c-1.88-.18-4.21-.44-4.82-2.78-.53-2,.73-3.92,3.68-4.69a8.1,8.1,0,0,1,3.3-.2c.36.08.56.15.62.39a1.67,1.67,0,0,1,0,.44L206,74.68c-.05.36-.1.54-.27.59a1.2,1.2,0,0,1-.51-.07,5.27,5.27,0,0,0-2.56,0c-1.09.29-1.69.94-1.51,1.64s1.35.88,2.7,1C205.7,78,207.9,78.29,208.49,80.54Z"/><polygon class="cls-9" points="21.22 86.96 23.1 92.76 29.2 92.76 24.27 96.34 26.15 102.14 21.22 98.56 16.29 102.14 18.17 96.34 13.24 92.76 19.33 92.76 21.22 86.96"/><polygon class="cls-9" points="36.53 98.09 38.41 103.89 44.51 103.89 39.58 107.47 41.46 113.27 36.53 109.69 31.6 113.27 33.48 107.47 28.55 103.89 34.65 103.89 36.53 98.09"/></g></g></svg>