<svg xmlns="http://www.w3.org/2000/svg" xmlns:xlink="http://www.w3.org/1999/xlink" viewBox="0 0 129.58 94.41"><defs><style>.cls-1{fill:none;}.cls-2{fill:#d18fa1;}.cls-3{fill:#c37394;}.cls-4{fill:#eeb1c0;}.cls-5{fill:#00c58e;}.cls-6{fill:#2f495e;}.cls-7{fill:#108775;}.cls-8{fill:#2e4960;}.cls-10,.cls-8,.cls-9{isolation:isolate;}.cls-9{fill:#00bc7e;}.cls-11{clip-path:url(#clip-path);}.cls-12{fill:#fff;}.cls-13{clip-path:url(#clip-path-2);}</style><clipPath id="clip-path" transform="translate(-7.91)"><polygon class="cls-1" points="42.38 84.32 42.23 67.55 125.48 39.24 125.25 55.44 42.38 84.32"/></clipPath><clipPath id="clip-path-2" transform="translate(-7.91)"><polygon class="cls-1" points="35 78.22 12.36 62.24 12.3 51.01 35.01 66.79 35 78.22"/></clipPath></defs><g id="レイヤー_2" data-name="レイヤー 2"><g id="About_Me" data-name="About Me"><g id="Vue_Nuxt.js" data-name="Vue/Nuxt.js"><polygon class="cls-2" points="0 68.72 86.53 38.79 86.53 1.3 0.03 30.66 0 68.72"/><polygon class="cls-3" points="0.03 68.92 0.03 29.23 31.73 55.82 31.73 94.41 0.03 68.92"/><polygon class="cls-3" points="118.26 25.92 86.53 0 0 29.23 1.22 30.25 86.49 1.3 117.03 26.39 118.26 25.92"/><polygon class="cls-4" points="117.03 26.39 86.53 1.3 86.53 38.79 117.03 63.8 117.03 26.39"/><path class="cls-5" d="M97.22,26.26,95.62,29l-5.47-9.47L73.36,48.64H84.73a2.77,2.77,0,0,0,2.77,2.77H73.36A2.78,2.78,0,0,1,71,47.25L87.75,18.18a2.77,2.77,0,0,1,4.8,0Z" transform="translate(-7.91)"/><path class="cls-6" d="M109.34,47.25,98.82,29l-1.6-2.77L95.62,29,85.1,47.25a2.78,2.78,0,0,0,2.4,4.16h19.43a2.78,2.78,0,0,0,2.4-4.16ZM87.5,48.64,97.22,31.8l9.71,16.84Z" transform="translate(-7.91)"/><path class="cls-7" d="M116.86,50a2.78,2.78,0,0,1-2.4,1.39h-7.53a2.77,2.77,0,0,0,2.77-2.77h4.75L101,25.29,98.82,29l-1.6-2.77,1.36-2.35a2.76,2.76,0,0,1,4.79,0l13.49,23.34A2.79,2.79,0,0,1,116.86,50Z" transform="translate(-7.91)"/><g id="A4gAvk.tif"><polygon class="cls-8" points="47.39 38.19 69.39 0.11 56.01 0.11 47.39 14.62 38.78 0.11 25.4 0.11 47.39 38.19"/><polyline class="cls-9" points="47.39 38.25 69.39 0.17 84.02 0.17 47.39 63.57 47.39 63.52 10.77 0.11 25.4 0.11 47.39 38.19"/></g><polygon class="cls-3" points="118.26 64.48 31.73 94.41 31.73 55.82 31.73 55.85 118.26 25.92 118.26 64.48"/><path class="cls-3" d="M126.18,64.48l11.31-4.24c-1.18-15-11.31-34.32-11.31-34.32" transform="translate(-7.91)"/><g class="cls-10"><g class="cls-11"><path class="cls-12" d="M52.55,64.18l-1.14.39-.25.11a.4.4,0,0,0-.16.13.68.68,0,0,0-.11.19c0,.08-.06.18-.1.3l-.25.93c-.08.3-.16.57-.24.84l-.22.77c-.08.26-.15.5-.22.75l-2,6.62s0,.08,0,.11a.56.56,0,0,1-.05.08.13.13,0,0,1,0,.06.05.05,0,0,1,0,0h0s0,0,0,0l0,0a.19.19,0,0,1,0-.09l-2.12-5.25-.22-.57c-.08-.19-.15-.39-.24-.6l-.25-.67q-.13-.35-.27-.75a1.38,1.38,0,0,0-.11-.24.32.32,0,0,0-.11-.12.27.27,0,0,0-.16,0,1.07,1.07,0,0,0-.25.07l-1.2.4-.16.07a.41.41,0,0,0-.11.07.19.19,0,0,0-.06.07.36.36,0,0,0,0,.1.13.13,0,0,0,0,.06s0,0,0,.07l0,.08,0,.08q.19.4.36.78l.31.7c.09.23.19.45.28.66l.27.64,2.26,5.37.21.54c.08.18.15.37.23.57s.16.39.24.6l.25.66a1.12,1.12,0,0,0,.11.22.32.32,0,0,0,.11.12.31.31,0,0,0,.17,0l.24-.06.65-.23a.91.91,0,0,0,.24-.1.53.53,0,0,0,.16-.13.69.69,0,0,0,.12-.19,2.82,2.82,0,0,0,.09-.3c.08-.28.16-.56.24-.82s.16-.53.23-.78.15-.49.23-.73l.21-.68,2.14-6.87c.08-.25.16-.52.25-.79s.17-.55.26-.84.2-.59.3-.91.22-.66.34-1l0-.11a.29.29,0,0,0,0-.09.19.19,0,0,0,0-.07.2.2,0,0,0,0-.07.19.19,0,0,0,0-.08.09.09,0,0,0-.06,0H52.7l-.15,0" transform="translate(-7.91)"/><path class="cls-12" d="M60.59,65l-.88.31-.22.09a.36.36,0,0,0-.13.11.33.33,0,0,0-.07.17.82.82,0,0,0,0,.24s0,.15,0,.32,0,.4,0,.64,0,.52,0,.77,0,.5,0,.7v3.31a2.09,2.09,0,0,1,0,.26.79.79,0,0,1-.06.22,1,1,0,0,1-.1.21,2,2,0,0,1-.16.24l-.36.39a2.51,2.51,0,0,1-.35.31c-.12.09-.25.17-.36.24a2.75,2.75,0,0,1-.36.15,1.5,1.5,0,0,1-.66.1.86.86,0,0,1-.47-.22,1.17,1.17,0,0,1-.28-.49,2.63,2.63,0,0,1-.1-.73V68c0-.25,0-.47,0-.65V67a.75.75,0,0,0,0-.23.16.16,0,0,0-.07-.12.25.25,0,0,0-.13,0l-.22.06-.89.3-.22.09a.38.38,0,0,0-.13.12.29.29,0,0,0-.07.16.9.9,0,0,0,0,.24s0,.15,0,.33,0,.39,0,.64,0,.52,0,.77,0,.51,0,.71l0,3.31a3.8,3.8,0,0,0,.2,1.29,1.88,1.88,0,0,0,.54.84,1.53,1.53,0,0,0,.83.36A2.39,2.39,0,0,0,57,75.74a4.41,4.41,0,0,0,.59-.26,5.35,5.35,0,0,0,.56-.36c.17-.14.34-.28.51-.44a5.47,5.47,0,0,0,.45-.51.6.6,0,0,1,.08-.08.17.17,0,0,1,.06-.06l0,0,0,0a0,0,0,0,1,.05,0l0,0s0,.06,0,.1a.71.71,0,0,0,0,.14,1,1,0,0,0,0,.28.17.17,0,0,0,.07.13.14.14,0,0,0,.13,0l.23-.06.73-.26.22-.09a.47.47,0,0,0,.13-.11.67.67,0,0,0,.07-.17,1.44,1.44,0,0,0,0-.24s0-.14,0-.31,0-.4,0-.65,0-.51,0-.77,0-.5,0-.71v-5c0-.25,0-.48,0-.65v-.33a.68.68,0,0,0,0-.22.15.15,0,0,0-.07-.12.17.17,0,0,0-.13,0,.74.74,0,0,0-.22,0" transform="translate(-7.91)"/><path class="cls-12" d="M65,67.19l-.16,0h-.11l-.06,0a.2.2,0,0,1,0-.09,1.15,1.15,0,0,1,0-.16c0-.07,0-.14.07-.22a2.25,2.25,0,0,1,.08-.24c0-.08.07-.15.1-.22a3.07,3.07,0,0,1,.31-.53,2.82,2.82,0,0,1,.38-.45,2.69,2.69,0,0,1,1-.61,1.76,1.76,0,0,1,.42-.09,1,1,0,0,1,.35,0,.88.88,0,0,1,.29.18,1.14,1.14,0,0,1,.21.3s.06.12.09.18l.06.2a1.6,1.6,0,0,1,0,.21,1.15,1.15,0,0,1,0,.18.28.28,0,0,1,0,.13.17.17,0,0,1-.07.1l-.11.08-.18.07L65,67.19m1.65-4.35a4.74,4.74,0,0,0-1.6.92,5.89,5.89,0,0,0-1.2,1.46,6.89,6.89,0,0,0-.77,1.85,7.41,7.41,0,0,0-.26,2.06,5.77,5.77,0,0,0,.22,1.67A2.89,2.89,0,0,0,63.76,72a2,2,0,0,0,1.19.58,3.62,3.62,0,0,0,1.73-.23,4.32,4.32,0,0,0,.67-.28,5.84,5.84,0,0,0,.65-.35l.61-.43a4.92,4.92,0,0,0,.54-.47l.14-.13.1-.12,0-.11a.5.5,0,0,0,0-.12.17.17,0,0,0,0-.07s0,0,0-.08l0-.07,0-.09-.26-.52L69,69.41l-.07-.1a.18.18,0,0,0-.07,0h-.08l0,0-.07,0-.09.07-.09.1c-.12.11-.25.23-.38.33a4,4,0,0,1-.42.3c-.14.09-.29.17-.44.25a3.71,3.71,0,0,1-.46.19,2.62,2.62,0,0,1-.66.16,1.59,1.59,0,0,1-.54,0,1,1,0,0,1-.42-.18,1.23,1.23,0,0,1-.31-.33,2,2,0,0,1-.12-.21,1.22,1.22,0,0,1-.1-.24,1.09,1.09,0,0,1-.07-.24.88.88,0,0,1,0-.21.68.68,0,0,1,0-.15.21.21,0,0,1,.06-.1l.12-.09.17-.07,4.28-1.47a.84.84,0,0,0,.25-.13.46.46,0,0,0,.16-.2,1.26,1.26,0,0,0,.09-.35c0-.15,0-.34,0-.57a6.74,6.74,0,0,0-.21-1.8,2.68,2.68,0,0,0-.6-1.18,1.63,1.63,0,0,0-1-.52,2.52,2.52,0,0,0-1.29.15" transform="translate(-7.91)"/><path class="cls-12" d="M78.16,55.47l-.91.31-.25.1a.76.76,0,0,0-.29.32,2,2,0,0,0-.12.28c-.07.16-.13.32-.19.47s-.13.32-.2.47-.13.32-.2.47-.13.32-.2.48L71.55,68.51l-.21.48-.21.48-.21.47-.21.48a.73.73,0,0,1,0,.12l0,.1a.19.19,0,0,0,0,.07.13.13,0,0,0,0,.06.14.14,0,0,0,0,.06l.06,0a.33.33,0,0,0,.1,0l.14,0,.92-.32a1.38,1.38,0,0,0,.24-.11.52.52,0,0,0,.17-.12.7.7,0,0,0,.13-.19,2.61,2.61,0,0,0,.12-.28l.19-.48.2-.48c.06-.16.13-.32.2-.48l.19-.46,4.25-10.1.21-.47.21-.49.21-.49.21-.48a.61.61,0,0,0,0-.12l0-.09a.64.64,0,0,1,0-.07v-.07a.07.07,0,0,0,0-.06l0,0h-.1l-.14,0" transform="translate(-7.91)"/><path class="cls-12" d="M88.22,52.05l-.89.3-.21.09a.53.53,0,0,0-.14.11.43.43,0,0,0-.06.17.79.79,0,0,0,0,.23v.41c0,.22,0,.51,0,.83s0,.67,0,1v5.39c0,.05,0,.09,0,.12a.3.3,0,0,1,0,.1l0,.07,0,0h0l0,0,0,0-.05,0-3.7-4.37-.36-.4-.35-.42q-.18-.19-.36-.42c-.11-.14-.23-.28-.34-.43a1.36,1.36,0,0,0-.16-.17.37.37,0,0,0-.15-.08.32.32,0,0,0-.17,0l-.24.06-.5.17-.21.09a.36.36,0,0,0-.13.11.44.44,0,0,0-.07.17,1.44,1.44,0,0,0,0,.24s0,.17,0,.38,0,.48,0,.78,0,.63,0,.94,0,.62,0,.87v5.76c0,.27,0,.59,0,.92s0,.69,0,1,0,.62,0,.84,0,.37,0,.41a1.27,1.27,0,0,0,0,.22.23.23,0,0,0,.07.11.18.18,0,0,0,.13,0l.21-.06.9-.31.21-.09a.38.38,0,0,0,.13-.12.26.26,0,0,0,.07-.16.79.79,0,0,0,0-.23v-.4c0-.22,0-.51,0-.83s0-.66,0-1,0-.65,0-.91V58.82a.49.49,0,0,1,0-.12.3.3,0,0,1,0-.1l0-.07a.05.05,0,0,1,0,0h0l0,0,0,0,.06.05,3.94,4.56.36.41.33.39.34.39.33.4a1.17,1.17,0,0,0,.15.16.44.44,0,0,0,.15.08.48.48,0,0,0,.17,0l.24-.06.29-.11a.69.69,0,0,0,.21-.09.28.28,0,0,0,.13-.11.26.26,0,0,0,.07-.16.82.82,0,0,0,0-.24v-.37c0-.2,0-.48,0-.78s0-.62,0-.94,0-.61,0-.86l0-5.73c0-.26,0-.59,0-.92s0-.69,0-1,0-.61,0-.84,0-.37,0-.4a1.3,1.3,0,0,0,0-.23.18.18,0,0,0-.07-.11.17.17,0,0,0-.13,0,.76.76,0,0,0-.21,0" transform="translate(-7.91)"/><path class="cls-12" d="M96.84,52.63l-.84.29a.91.91,0,0,0-.22.09.35.35,0,0,0-.13.11.48.48,0,0,0-.07.16,1.44,1.44,0,0,0,0,.24v.31c0,.17,0,.39,0,.64v.76c0,.25,0,.49,0,.69v3.25a2,2,0,0,1,0,.26,1.42,1.42,0,0,1-.05.22,1.86,1.86,0,0,1-.1.2,2.5,2.5,0,0,1-.16.24,4.33,4.33,0,0,1-.34.38c-.12.11-.23.21-.35.3a2.33,2.33,0,0,1-.35.23,2.52,2.52,0,0,1-.34.15,1.28,1.28,0,0,1-.64.09.74.74,0,0,1-.45-.22,1.06,1.06,0,0,1-.27-.48,3,3,0,0,1-.08-.72V57c0-.2,0-.44,0-.69s0-.53,0-.77,0-.47,0-.64,0-.29,0-.32a1.3,1.3,0,0,0,0-.23.14.14,0,0,0-.07-.11s-.07,0-.13,0l-.21.06-.85.29-.22.09a.47.47,0,0,0-.13.11.67.67,0,0,0-.07.17,1.4,1.4,0,0,0,0,.23s0,.15,0,.32v.64c0,.24,0,.5,0,.76v.69l0,3.26a4,4,0,0,0,.18,1.28,2,2,0,0,0,.51.83,1.44,1.44,0,0,0,.8.36,2.33,2.33,0,0,0,1-.14,4.29,4.29,0,0,0,.58-.26,4.41,4.41,0,0,0,.53-.35,4,4,0,0,0,.49-.43,4.32,4.32,0,0,0,.45-.5l.07-.08.06-.06.05,0,0,0h0l0,0s0,.06,0,.1,0,.08,0,.14a1.87,1.87,0,0,0,0,.27.22.22,0,0,0,.07.13.14.14,0,0,0,.13,0l.21-.06.71-.24.21-.09a.75.75,0,0,0,.13-.11.67.67,0,0,0,.07-.17,1.4,1.4,0,0,0,0-.23s0-.15,0-.31v-.64c0-.24,0-.5,0-.76v-.7l0-3.48c0-.19,0-.44,0-.69s0-.52,0-.77,0-.47,0-.64,0-.29,0-.32a.68.68,0,0,0,0-.22.2.2,0,0,0-.06-.12.3.3,0,0,0-.14,0l-.21.06" transform="translate(-7.91)"/><path class="cls-12" d="M105.27,49.74l-1,.35-.23.09a1.09,1.09,0,0,0-.17.13.7.7,0,0,0-.13.19,1.82,1.82,0,0,0-.14.28c-.08.18-.15.35-.23.52l-.22.51-.24.51c-.07.18-.15.35-.23.53l-.18.39s0,.1-.07.14a.44.44,0,0,1-.06.1l-.05.07-.06,0a.06.06,0,0,1-.06,0,.09.09,0,0,1-.06,0l-.06-.06L102,53.4l-.19-.26-.24-.34c-.07-.12-.15-.24-.23-.36l-.24-.36-.24-.38a1,1,0,0,0-.14-.18.28.28,0,0,0-.14-.09.29.29,0,0,0-.16,0,.93.93,0,0,0-.24.06l-1.11.38-.14,0-.1.06-.06.07a.29.29,0,0,0,0,.09v0l0,.06,0,.07.05.08.36.49.35.48.34.48c.12.16.23.32.34.49l.65.92a.75.75,0,0,1,.12.2.43.43,0,0,1,0,.19.59.59,0,0,1,0,.21,3,3,0,0,1-.13.29l-.84,1.72c-.12.24-.23.47-.34.71s-.23.46-.35.7-.24.47-.36.72-.25.5-.39.76c0,0,0,.08,0,.11a.16.16,0,0,0,0,.09.19.19,0,0,0,0,.07.11.11,0,0,0,0,0,.12.12,0,0,0,0,.07.06.06,0,0,0,.06,0h.1l.14,0,1-.36.23-.1a1.09,1.09,0,0,0,.17-.13,1,1,0,0,0,.13-.19c0-.07.09-.17.15-.28s.15-.36.23-.53L101,59c.08-.17.15-.34.23-.5l.23-.51.3-.64.06-.14.06-.11.06-.07,0,0h.06l.06,0,.06.06.07.09.3.44.23.32.23.35.25.38.24.36a.7.7,0,0,0,.14.18.22.22,0,0,0,.13.09.31.31,0,0,0,.17,0l.23-.06,1.09-.38.14-.06.1-.06.06-.07a.19.19,0,0,0,0-.08.07.07,0,0,0,0-.05s0,0,0-.06l0-.07,0-.07-.33-.46-.35-.47-.35-.49-.35-.49-.75-1.08-.12-.21a.45.45,0,0,1,0-.39,2.65,2.65,0,0,1,.12-.3l.72-1.49c.12-.23.23-.47.34-.7l.35-.71c.11-.24.23-.48.35-.73s.25-.49.37-.74a1.17,1.17,0,0,1,.05-.11l0-.09s0-.05,0-.07V49.8s0-.06,0-.08l0,0h-.1l-.15,0" transform="translate(-7.91)"/><path class="cls-12" d="M108.74,46l-.81.27-.2.09a.36.36,0,0,0-.13.11.39.39,0,0,0-.07.16,1.44,1.44,0,0,0,0,.24v.23c0,.13,0,.28,0,.45v1a1.48,1.48,0,0,1,0,.23.39.39,0,0,1,0,.14.18.18,0,0,1-.08.09l-.15.06-.13,0-.14,0-.13,0-.11,0a1,1,0,0,0-.23.1.37.37,0,0,0-.13.12.48.48,0,0,0-.06.18c0,.08,0,.17,0,.29v.73a2.18,2.18,0,0,0,0,.28.26.26,0,0,0,.06.14.14.14,0,0,0,.13,0l.23-.06.08,0,.13,0,.14-.05.14-.06.15,0a.13.13,0,0,1,.09,0,.34.34,0,0,1,0,.12,1.41,1.41,0,0,1,0,.22l0,4.11a5.06,5.06,0,0,0,.11,1.17,1.54,1.54,0,0,0,.4.76,1.1,1.1,0,0,0,.73.32,2.93,2.93,0,0,0,1.11-.19l.2-.08.2-.09.2-.09.19-.09.22-.14a.48.48,0,0,0,.13-.16.53.53,0,0,0,.06-.19,1.23,1.23,0,0,0,0-.29v-1c0-.06,0-.1,0-.14s0,0-.06,0a.14.14,0,0,0-.11,0l-.11,0-.18.1a1,1,0,0,1-.21.11l-.21.09a1.7,1.7,0,0,1-.49.1.55.55,0,0,1-.34-.11.65.65,0,0,1-.19-.35,1.82,1.82,0,0,1-.06-.61l0-3.74a2.16,2.16,0,0,1,0-.28.48.48,0,0,1,.07-.18.4.4,0,0,1,.13-.13,1.56,1.56,0,0,1,.22-.1l.29-.1.22-.07.25-.08.23-.07.15-.05.23-.1a.41.41,0,0,0,.14-.12.42.42,0,0,0,.06-.18,1.87,1.87,0,0,0,0-.27v-.77a1,1,0,0,0,0-.26.23.23,0,0,0-.06-.14.14.14,0,0,0-.13,0l-.23.06-.16.06-.22.08-.25.09-.22.08-.39.13-.18,0s-.08,0-.1,0a.14.14,0,0,1,0-.11,1.35,1.35,0,0,1,0-.22c0-.16,0-.34,0-.52s0-.36,0-.53,0-.32,0-.43,0-.2,0-.23a.75.75,0,0,0,0-.23.17.17,0,0,0-.06-.11.17.17,0,0,0-.13,0,.64.64,0,0,0-.2.05" transform="translate(-7.91)"/><path class="cls-12" d="M113.71,53.42a1.44,1.44,0,0,0-.51.29,1.73,1.73,0,0,0-.36.44,1.91,1.91,0,0,0-.22.53,2.1,2.1,0,0,0-.08.56,1.35,1.35,0,0,0,.07.48.76.76,0,0,0,.22.32.62.62,0,0,0,.32.14,1.05,1.05,0,0,0,.42,0,1.64,1.64,0,0,0,.48-.28,1.92,1.92,0,0,0,.36-.44,2.27,2.27,0,0,0,.22-.53,2.34,2.34,0,0,0,.09-.59,1.32,1.32,0,0,0-.08-.47.71.71,0,0,0-.21-.31.55.55,0,0,0-.32-.14.82.82,0,0,0-.4.05" transform="translate(-7.91)"/><path class="cls-12" d="M117.92,45.42l-.84.28-.2.09a.36.36,0,0,0-.13.11.59.59,0,0,0-.07.16,1.44,1.44,0,0,0,0,.24v.94c0,.24,0,.51,0,.76v.69l-.07,6.49a6,6,0,0,1,0,.66,1.75,1.75,0,0,1-.12.5.93.93,0,0,1-.23.36.91.91,0,0,1-.37.22l-.13,0-.11.06a.16.16,0,0,0-.07.07.36.36,0,0,0,0,.11.81.81,0,0,0,0,.16v1a1.55,1.55,0,0,0,0,.23.29.29,0,0,0,0,.14.1.1,0,0,0,.08.05.24.24,0,0,0,.14,0,2.57,2.57,0,0,0,.27-.12l.37-.2.39-.25a3,3,0,0,0,.32-.25,3.47,3.47,0,0,0,.52-.64,3.07,3.07,0,0,0,.35-.73,4.51,4.51,0,0,0,.19-.86,6,6,0,0,0,.07-1l.08-6.59c0-.2,0-.44,0-.7s0-.52,0-.76,0-.47,0-.64,0-.28,0-.31a1.3,1.3,0,0,0,0-.23.17.17,0,0,0-.06-.11.17.17,0,0,0-.13,0,.64.64,0,0,0-.2.05m-.33-3.5a1.37,1.37,0,0,0-.47.27,1.52,1.52,0,0,0-.34.41,2.17,2.17,0,0,0-.29,1,1.27,1.27,0,0,0,.07.46.77.77,0,0,0,.21.31.58.58,0,0,0,.31.13.77.77,0,0,0,.39,0,1.33,1.33,0,0,0,.46-.27,1.53,1.53,0,0,0,.34-.42,1.85,1.85,0,0,0,.22-.52,2.7,2.7,0,0,0,.08-.57,1.4,1.4,0,0,0-.07-.44.7.7,0,0,0-.21-.29.58.58,0,0,0-.31-.13.91.91,0,0,0-.39.05" transform="translate(-7.91)"/><path class="cls-12" d="M123,43.57a5,5,0,0,0-1.22.62,4.25,4.25,0,0,0-.89.85,3.62,3.62,0,0,0-.56,1,3.38,3.38,0,0,0-.2,1.14,2.28,2.28,0,0,0,.2,1.06,1.51,1.51,0,0,0,.56.61,2.34,2.34,0,0,0,.75.29,7.54,7.54,0,0,0,.81.12l.51.07a1.43,1.43,0,0,1,.43.12.61.61,0,0,1,.28.21.48.48,0,0,1,.1.34,1.08,1.08,0,0,1-.09.44,1.36,1.36,0,0,1-.25.39,1.47,1.47,0,0,1-.38.31,2.1,2.1,0,0,1-.5.24,2.56,2.56,0,0,1-.46.11l-.46,0a3.11,3.11,0,0,1-.44-.06,1.63,1.63,0,0,1-.39-.13l-.09,0-.08,0h-.12l-.07,0a.35.35,0,0,0-.06.09l-.06.13-.07.18-.26.78a.56.56,0,0,0,0,.12l0,.1s0,0,0,.08v.07a.37.37,0,0,0,0,.11.22.22,0,0,0,0,.08l.08.06.12.05a2.71,2.71,0,0,0,.51.1,3.57,3.57,0,0,0,.57,0,3.3,3.3,0,0,0,.61-.08,5.68,5.68,0,0,0,.65-.17,5.15,5.15,0,0,0,1.08-.53,4.48,4.48,0,0,0,.91-.78,3.66,3.66,0,0,0,.63-1,3.37,3.37,0,0,0,.25-1.29,2.14,2.14,0,0,0-.19-1,1.39,1.39,0,0,0-.53-.59,2.18,2.18,0,0,0-.72-.29,7.9,7.9,0,0,0-.8-.14l-.54-.07a2.55,2.55,0,0,1-.44-.12.74.74,0,0,1-.3-.21.53.53,0,0,1-.11-.34,1.38,1.38,0,0,1,.09-.39,1.16,1.16,0,0,1,.23-.36,2,2,0,0,1,.35-.3,1.78,1.78,0,0,1,.46-.22,1.86,1.86,0,0,1,.39-.1,2.56,2.56,0,0,1,.39,0,2.19,2.19,0,0,1,.36,0,1.78,1.78,0,0,1,.33.09l.08,0,.08,0h.12l.07,0a.35.35,0,0,0,.06-.09s0-.08.05-.13l.06-.19.28-.93,0-.1s0-.07,0-.1a.64.64,0,0,1,0-.07v-.07a.37.37,0,0,0,0-.11l-.06-.08-.09-.05-.13,0-.41,0a3.76,3.76,0,0,0-.47,0,3.35,3.35,0,0,0-.51.08,3.79,3.79,0,0,0-.53.14" transform="translate(-7.91)"/></g></g><g id="星"><g class="cls-10"><g class="cls-13"><polyline class="cls-12" points="23.93 64.59 24.67 69.47 27.09 71.16 25.13 72.49 25.88 77.36 23.93 73.3 21.98 74.62 22.72 70.8 20.78 66.75 23.18 68.43 23.93 64.59"/><polyline class="cls-12" points="15.62 58.82 16.36 63.66 18.75 65.33 16.82 66.66 17.56 71.5 15.64 67.48 13.73 68.79 14.45 64.99 12.53 60.99 14.9 62.64 15.62 58.82"/><polyline class="cls-12" points="7.44 53.14 8.18 57.95 10.53 59.59 8.64 60.92 9.38 65.72 7.48 61.74 5.6 63.06 6.3 59.28 4.41 55.31 6.74 56.94 7.44 53.14"/></g></g></g></g></g></g></svg>