<svg xmlns="http://www.w3.org/2000/svg" xmlns:xlink="http://www.w3.org/1999/xlink" viewBox="0 0 132.89 95.9"><defs><style>.cls-1{fill:none;}.cls-2{fill:#c37394;}.cls-3{fill:#d18fa1;}.cls-4{fill:#eeb1c0;}.cls-5{fill:#aa7285;}.cls-6{fill:#001e36;}.cls-7{fill:#31a8ff;}.cls-8{isolation:isolate;}.cls-9{clip-path:url(#clip-path);}.cls-10{fill:#fff;}.cls-11{clip-path:url(#clip-path-2);}</style><clipPath id="clip-path"><polygon class="cls-1" points="62.53 80.83 62.4 66.91 118.64 34.67 118.49 48.29 62.53 80.83"/></clipPath><clipPath id="clip-path-2"><polygon class="cls-1" points="36.74 77.44 14.01 72.57 13.89 62.51 36.67 67.32 36.74 77.44"/></clipPath></defs><g id="レイヤー_2" data-name="レイヤー 2"><g id="About_Me" data-name="About Me"><g id="Photoshop"><polygon class="cls-2" points="118.57 14.05 66.68 2.18 0 42.02 3.43 42.8 67.14 3.88 116.86 15.07 118.57 14.05"/><polygon class="cls-3" points="67.14 3.88 67.14 42.02 3.43 80.08 3.43 42.8 67.14 3.88"/><polygon class="cls-4" points="67.14 42.02 116.86 53.21 116.86 15.07 67.14 3.88 67.14 42.02"/><polygon class="cls-5" points="67.14 42.02 48.41 53.21 51.89 53.88 70.62 42.8 67.14 42.02"/><rect class="cls-6" x="35.27" width="52.61" height="52.61" rx="9.45"/><path class="cls-7" d="M56.48,14.36a7.21,7.21,0,0,1,5.11,1.83,6.11,6.11,0,0,1,2,4.69,6.07,6.07,0,0,1-2,4.71,7.53,7.53,0,0,1-5.25,1.79H52.14v9.41H47.81V14.36ZM55.4,24a4.17,4.17,0,0,0,2.71-.8,2.88,2.88,0,0,0,1-2.35q0-3.11-4-3.1h-3V24Z"/><path class="cls-7" d="M71.38,21.51a9.11,9.11,0,0,1,2.32.28,11.89,11.89,0,0,1,2.32.89v3.16a11.15,11.15,0,0,0-2.41-1.16,7,7,0,0,0-2.3-.44,2.32,2.32,0,0,0-1.33.32,1,1,0,0,0-.48.91.92.92,0,0,0,.4.68,14.8,14.8,0,0,0,2.2,1.23,13.62,13.62,0,0,1,3.6,2.4,3.75,3.75,0,0,1,1,2.65,4.18,4.18,0,0,1-1.51,3.41,6.23,6.23,0,0,1-4.08,1.24,12.32,12.32,0,0,1-3-.35,10.33,10.33,0,0,1-2.31-.85V32.59a10.57,10.57,0,0,0,4.87,1.6,3.29,3.29,0,0,0,1.64-.36,1.08,1.08,0,0,0,.62-.95,1,1,0,0,0-.22-.65,3,3,0,0,0-.68-.59c-.3-.2-1.23-.69-2.81-1.46a8.06,8.06,0,0,1-2.68-1.89,3.59,3.59,0,0,1-.87-2.41,3.79,3.79,0,0,1,1.56-3.18A6.55,6.55,0,0,1,71.38,21.51Z"/><polygon class="cls-2" points="51.89 95.9 0 82.11 0 42.02 51.89 53.88 51.89 95.9"/><polygon class="cls-2" points="51.89 53.88 51.89 95.9 118.57 57.05 118.57 14.05 51.89 53.88"/><path class="cls-2" d="M118.57,57.05l14.18-8.29s2.6-11.14-14.18-34.71"/><g class="cls-8"><g class="cls-9"><path class="cls-10" d="M64.19,71.7a.67.67,0,0,1-.18.08.11.11,0,0,1-.11,0,.19.19,0,0,1,0-.11,1.09,1.09,0,0,1,0-.22l0-2.89a1.7,1.7,0,0,1,0-.24.38.38,0,0,1,0-.16A.41.41,0,0,1,64,68l.18-.12,1.14-.65A2.6,2.6,0,0,1,65.9,67a.85.85,0,0,1,.5,0,.63.63,0,0,1,.33.35,1.86,1.86,0,0,1,.12.75,3.66,3.66,0,0,1-.12,1,3.33,3.33,0,0,1-.37.86,3.64,3.64,0,0,1-.55.68,3.42,3.42,0,0,1-.69.51l-.93.54m-1.45-4.57a1.11,1.11,0,0,0-.16.12.45.45,0,0,0-.1.14.78.78,0,0,0,0,.18,1.55,1.55,0,0,0,0,.23c0,.21,0,.43,0,.65s0,.44,0,.65,0,.43,0,.63,0,.4,0,.59l0,4.64v1.6c0,.27,0,.51,0,.69v.34a.9.9,0,0,0,0,.18.12.12,0,0,0,0,.08.2.2,0,0,0,.11,0l.16-.09.74-.42.17-.11.1-.12a.58.58,0,0,0,0-.14,1.21,1.21,0,0,0,0-.2v-.33c0-.18,0-.42,0-.68s0-.55,0-.83,0-.54,0-.76v-.34a.92.92,0,0,1,0-.24.43.43,0,0,1,.05-.16.41.41,0,0,1,.1-.13l.18-.12.93-.54a6,6,0,0,0,1.41-1.09,5.8,5.8,0,0,0,1-1.33,6,6,0,0,0,.56-1.51,6.51,6.51,0,0,0,.17-1.59,3.63,3.63,0,0,0-.19-1.26,1.28,1.28,0,0,0-.54-.67,1.33,1.33,0,0,0-.85-.08,3.68,3.68,0,0,0-1.14.46l-1.2.69-.47.26-.5.28L63,67l-.21.11"/><path class="cls-10" d="M70.63,62.19l-.69.39a1.11,1.11,0,0,0-.16.11.41.41,0,0,0-.11.12.46.46,0,0,0,0,.14,1.21,1.21,0,0,0,0,.2v.26c0,.15,0,.33,0,.53s0,.42,0,.64,0,.41,0,.58l0,6.24v1.23c0,.2,0,.39,0,.53v.26a.92.92,0,0,0,0,.19.12.12,0,0,0,0,.08.12.12,0,0,0,.1,0A.63.63,0,0,0,70,73.6l.68-.39.17-.11A.53.53,0,0,0,71,73a.34.34,0,0,0,0-.14.62.62,0,0,0,0-.2s0-.12,0-.26,0-.32,0-.52,0-.42,0-.63,0-.42,0-.58l0-2.59c0-.08,0-.15,0-.22s0-.13,0-.19,0-.12.08-.19l.13-.22c.09-.14.18-.26.27-.38a2.8,2.8,0,0,1,.28-.31,3.08,3.08,0,0,1,.27-.25,2.2,2.2,0,0,1,.28-.18,1.22,1.22,0,0,1,.5-.18.5.5,0,0,1,.36.1.72.72,0,0,1,.22.36,1.89,1.89,0,0,1,.07.57l0,2.23c0,.17,0,.37,0,.58v.64c0,.2,0,.39,0,.53v.27a.9.9,0,0,0,0,.18.12.12,0,0,0,0,.08h.1l.17-.09L74.5,71a.83.83,0,0,0,.17-.11.33.33,0,0,0,.1-.11.39.39,0,0,0,.06-.15,1.21,1.21,0,0,0,0-.2v-.26c0-.14,0-.32,0-.52s0-.42,0-.63,0-.41,0-.58V65.76a3.27,3.27,0,0,0-.16-1,1.2,1.2,0,0,0-.41-.61A1,1,0,0,0,73.6,64a2,2,0,0,0-.83.28c-.14.09-.29.19-.42.29a4.36,4.36,0,0,0-.4.35,4.73,4.73,0,0,0-.37.4l-.33.44-.06.09,0,.07,0,0,0,0h0s0,0,0,0a.64.64,0,0,1,0-.09V63.17c0-.2,0-.39,0-.53v-.27a.44.44,0,0,0,0-.18.11.11,0,0,0,0-.09.15.15,0,0,0-.11,0,.59.59,0,0,0-.16.08"/><path class="cls-10" d="M79,67a1.36,1.36,0,0,1-.62.2.75.75,0,0,1-.49-.17,1.21,1.21,0,0,1-.33-.53,2.66,2.66,0,0,1-.12-.86,5.29,5.29,0,0,1,.1-1.06,4.68,4.68,0,0,1,.32-1,3.46,3.46,0,0,1,.52-.82,3,3,0,0,1,.72-.61,1.31,1.31,0,0,1,.63-.2.69.69,0,0,1,.5.17,1.12,1.12,0,0,1,.34.52,3.06,3.06,0,0,1,.12.88,4.83,4.83,0,0,1-.12,1.08,4.65,4.65,0,0,1-.35,1,4.19,4.19,0,0,1-.53.81A2.88,2.88,0,0,1,79,67m.16-6.47a5,5,0,0,0-1.3,1,6.21,6.21,0,0,0-1,1.4,6.78,6.78,0,0,0-.6,1.65,7.45,7.45,0,0,0-.21,1.77,4.09,4.09,0,0,0,.23,1.42,1.68,1.68,0,0,0,.6.82,1.39,1.39,0,0,0,.91.21,2.79,2.79,0,0,0,1.14-.4,5.49,5.49,0,0,0,1.25-1,6.15,6.15,0,0,0,1-1.37,6.79,6.79,0,0,0,.62-1.63,7.73,7.73,0,0,0,.22-1.81,4.11,4.11,0,0,0-.22-1.42,1.71,1.71,0,0,0-.61-.84,1.32,1.32,0,0,0-.9-.23,2.54,2.54,0,0,0-1.14.39"/><path class="cls-10" d="M84.73,55.35l-.64.36a1.11,1.11,0,0,0-.16.11.33.33,0,0,0-.1.11.39.39,0,0,0-.06.15,1.15,1.15,0,0,0,0,.2v.19c0,.1,0,.23,0,.37s0,.29,0,.44v.59l0,.13a.27.27,0,0,1-.07.08l-.11.08-.11.06-.11.06-.11,0-.08.05L83,58.5a.41.41,0,0,0-.11.12.75.75,0,0,0-.05.16c0,.07,0,.15,0,.24v.62a1.18,1.18,0,0,0,0,.22.16.16,0,0,0,0,.11H83l.18-.09.07,0,.1-.06.11-.08.12-.06a.25.25,0,0,1,.11,0,.08.08,0,0,1,.07,0,.19.19,0,0,1,0,.1s0,.1,0,.18v3.41a3.74,3.74,0,0,0,.1.95,1.05,1.05,0,0,0,.32.56.75.75,0,0,0,.59.13,2.58,2.58,0,0,0,.88-.36l.16-.09.16-.11a.91.91,0,0,0,.16-.11l.15-.1a1.36,1.36,0,0,0,.17-.16.41.41,0,0,0,.1-.14.53.53,0,0,0,0-.18,1.54,1.54,0,0,0,0-.24v-.62a.81.81,0,0,0,0-.17.27.27,0,0,0,0-.11.05.05,0,0,0-.05,0,.09.09,0,0,0-.08,0l-.1.07-.14.11-.16.12a.82.82,0,0,1-.17.11,1.25,1.25,0,0,1-.39.17.31.31,0,0,1-.27,0,.44.44,0,0,1-.16-.25,2.2,2.2,0,0,1,0-.5v-3.1a1.77,1.77,0,0,1,0-.24.43.43,0,0,1,0-.16.41.41,0,0,1,.1-.13l.18-.12.23-.13.18-.1.2-.11.18-.1.12-.07.18-.12a.29.29,0,0,0,.1-.12.34.34,0,0,0,0-.16,1.41,1.41,0,0,0,0-.22V56.8a1.22,1.22,0,0,0,0-.21c0-.06,0-.09,0-.1a.09.09,0,0,0-.1,0,.5.5,0,0,0-.18.09l-.13.07-.18.11-.2.12-.17.1-.31.18-.14.07s-.06,0-.08,0,0,0,0-.08S85,57,85,57s0-.27,0-.42v-.45c0-.13,0-.26,0-.36v-.19a.74.74,0,0,0,0-.18.11.11,0,0,0-.05-.09.12.12,0,0,0-.1,0,.59.59,0,0,0-.16.08"/><path class="cls-10" d="M90.58,60.34a1.22,1.22,0,0,1-.61.19.63.63,0,0,1-.48-.17,1.08,1.08,0,0,1-.32-.52,3,3,0,0,1-.11-.86,5.36,5.36,0,0,1,.1-1.06,4.6,4.6,0,0,1,.32-1,3.78,3.78,0,0,1,.51-.82,2.66,2.66,0,0,1,.71-.59,1.31,1.31,0,0,1,.62-.2.73.73,0,0,1,.5.16,1.11,1.11,0,0,1,.32.53,2.73,2.73,0,0,1,.12.87A4.84,4.84,0,0,1,92.13,58a4.36,4.36,0,0,1-.34,1,4.19,4.19,0,0,1-.53.81,2.61,2.61,0,0,1-.68.57m.18-6.44a5,5,0,0,0-1.27,1,6.14,6.14,0,0,0-1,1.39,7.46,7.46,0,0,0-.6,1.64,7.91,7.91,0,0,0-.2,1.76,4.07,4.07,0,0,0,.21,1.41,1.73,1.73,0,0,0,.59.82,1.37,1.37,0,0,0,.9.22,2.67,2.67,0,0,0,1.12-.4,5.3,5.3,0,0,0,1.23-1,6.65,6.65,0,0,0,1-1.36,7.87,7.87,0,0,0,.62-1.62,7.65,7.65,0,0,0,.22-1.8,4.13,4.13,0,0,0-.21-1.42,1.76,1.76,0,0,0-.59-.83,1.35,1.35,0,0,0-.89-.24,2.7,2.7,0,0,0-1.13.38"/><path class="cls-10" d="M96.92,50.35a5,5,0,0,0-1,.72,4.77,4.77,0,0,0-.71.86,4.1,4.1,0,0,0-.43,1,3.27,3.27,0,0,0-.15,1,1.66,1.66,0,0,0,.17.85.91.91,0,0,0,.44.41,1.74,1.74,0,0,0,.61.1,4.79,4.79,0,0,0,.65,0,3,3,0,0,1,.4,0,1.19,1.19,0,0,1,.34,0,.47.47,0,0,1,.23.13.37.37,0,0,1,.09.27,1.22,1.22,0,0,1-.07.38,1.27,1.27,0,0,1-.2.36,1.87,1.87,0,0,1-.3.33,2.37,2.37,0,0,1-.4.28,2,2,0,0,1-.36.17,1.86,1.86,0,0,1-.37.1l-.35,0a1,1,0,0,1-.31,0H95l-.06,0,0,.08a.61.61,0,0,0,0,.12l-.06.16-.2.7,0,.1a.29.29,0,0,0,0,.09s0,.05,0,.07v.06a.19.19,0,0,0,0,.08.09.09,0,0,0,0,.06l.07,0,.09,0h.41l.45-.09a3.58,3.58,0,0,0,.49-.17,4.09,4.09,0,0,0,.51-.26,4.89,4.89,0,0,0,1.58-1.43,3.85,3.85,0,0,0,.49-1,3.4,3.4,0,0,0,.19-1.11A1.65,1.65,0,0,0,98.7,54a.83.83,0,0,0-.42-.39,1.62,1.62,0,0,0-.58-.12c-.21,0-.43,0-.64,0l-.43,0a1.3,1.3,0,0,1-.35,0,.42.42,0,0,1-.24-.12.37.37,0,0,1-.09-.26,1.07,1.07,0,0,1,.06-.35,1.86,1.86,0,0,1,.19-.33,1.36,1.36,0,0,1,.28-.31,2.42,2.42,0,0,1,.36-.27l.31-.15.31-.08.28,0a1.14,1.14,0,0,1,.27,0h.18l0,0a.13.13,0,0,0,.06,0l0-.08,0-.12a1.54,1.54,0,0,1,.05-.17l.2-.81,0-.1s0-.06,0-.08,0-.05,0-.07v-.05a.22.22,0,0,0,0-.09.12.12,0,0,0-.05-.05.09.09,0,0,0-.07,0l-.11,0-.32,0-.37.09-.41.15a3.51,3.51,0,0,0-.43.22"/><path class="cls-10" d="M101.12,44.71l-.66.38a1.11,1.11,0,0,0-.16.11.52.52,0,0,0-.1.11.58.58,0,0,0,0,.14,1.21,1.21,0,0,0,0,.2v.78c0,.2,0,.42,0,.63v.58l0,6.16v.58c0,.21,0,.43,0,.63s0,.39,0,.53v.26a.87.87,0,0,0,0,.18.12.12,0,0,0,.05.08h.1a1.18,1.18,0,0,0,.16-.08l.66-.38a1.11,1.11,0,0,0,.16-.11.35.35,0,0,0,.1-.11.58.58,0,0,0,0-.14,1.12,1.12,0,0,0,0-.2s0-.12,0-.25v-.52c0-.2,0-.42,0-.62v-.58l0-2.55a1.55,1.55,0,0,1,0-.22,1.62,1.62,0,0,1,0-.19,1.42,1.42,0,0,1,.08-.18,1.64,1.64,0,0,1,.12-.22l.26-.37q.14-.17.27-.3a2.91,2.91,0,0,1,.27-.24,2,2,0,0,1,.26-.18,1,1,0,0,1,.49-.17.43.43,0,0,1,.34.1.7.7,0,0,1,.2.36,1.93,1.93,0,0,1,.07.57v2.2c0,.16,0,.37,0,.58s0,.42,0,.63,0,.38,0,.52v.26a.87.87,0,0,0,0,.18.12.12,0,0,0,0,.08.09.09,0,0,0,.1,0l.16-.08.65-.37.16-.11a.5.5,0,0,0,.1-.11.67.67,0,0,0,.06-.15,1.09,1.09,0,0,0,0-.19v-.26c0-.14,0-.32,0-.51V51l0-2.65a3.62,3.62,0,0,0-.13-1,1.21,1.21,0,0,0-.39-.6.9.9,0,0,0-.61-.18,1.89,1.89,0,0,0-.79.28,3.62,3.62,0,0,0-.41.27,4,4,0,0,0-.38.34,3.33,3.33,0,0,0-.36.39c-.11.14-.22.28-.32.43l-.06.09-.05.06,0,0,0,0s0,0,0,0a.05.05,0,0,1,0,0,.64.64,0,0,1,0-.09v-1.4c0-.17,0-.37,0-.58s0-.43,0-.64,0-.39,0-.53,0-.24,0-.26a.74.74,0,0,0,0-.18s0-.08-.05-.09a.16.16,0,0,0-.1,0l-.16.08"/><path class="cls-10" d="M109.11,49.61a1.19,1.19,0,0,1-.6.19.67.67,0,0,1-.47-.18,1.09,1.09,0,0,1-.31-.52,3,3,0,0,1-.1-.85,5.07,5.07,0,0,1,.42-2,3.64,3.64,0,0,1,.51-.8,2.47,2.47,0,0,1,.7-.59,1.29,1.29,0,0,1,.6-.2.68.68,0,0,1,.48.18,1.09,1.09,0,0,1,.31.52,3,3,0,0,1,.11.87,4.82,4.82,0,0,1-.13,1.07,4.46,4.46,0,0,1-.34,1,4,4,0,0,1-.52.79,2.66,2.66,0,0,1-.66.56m.22-6.39a5.13,5.13,0,0,0-1.25,1,6,6,0,0,0-.94,1.38,7.4,7.4,0,0,0-.6,1.61,7.9,7.9,0,0,0-.21,1.75,4.28,4.28,0,0,0,.2,1.4,1.6,1.6,0,0,0,.57.82,1.29,1.29,0,0,0,.87.23,2.64,2.64,0,0,0,1.09-.38,5.37,5.37,0,0,0,1.21-1,6.18,6.18,0,0,0,.94-1.34,7.45,7.45,0,0,0,.84-3.39,4,4,0,0,0-.19-1.4,1.72,1.72,0,0,0-.57-.84,1.29,1.29,0,0,0-.87-.24,2.45,2.45,0,0,0-1.09.36"/><path class="cls-10" d="M115.39,46l-.13.07-.12.06-.11.06-.1,0-.16,0a.17.17,0,0,1-.1,0,.27.27,0,0,1,0-.12,1.22,1.22,0,0,1,0-.21l0-3a1.38,1.38,0,0,1,0-.22.58.58,0,0,1,0-.19,1,1,0,0,1,.08-.19,1.64,1.64,0,0,1,.12-.22l.24-.32a2.26,2.26,0,0,1,.25-.28,3.2,3.2,0,0,1,.27-.25,1.73,1.73,0,0,1,.28-.19,1.08,1.08,0,0,1,.54-.18.64.64,0,0,1,.43.15,1,1,0,0,1,.28.49,2.73,2.73,0,0,1,.09.82,4.91,4.91,0,0,1-.6,2.29,4.24,4.24,0,0,1-.6.86,3,3,0,0,1-.69.57m.91-6.79a2.78,2.78,0,0,0-.41.29,3.33,3.33,0,0,0-.39.36c-.12.13-.24.27-.35.41a4.48,4.48,0,0,0-.32.44l-.06.07s0,0,0,.06l0,0,0,0h0l0,0s0-.05,0-.08a.34.34,0,0,1,0-.11c0-.08,0-.14,0-.19s0-.08,0-.1h-.09l-.15.07-.55.32-.16.1-.1.11a.58.58,0,0,0,0,.14,1.21,1.21,0,0,0,0,.2v2L113.35,49c0,.16,0,.36,0,.57s0,.43,0,.63,0,.38,0,.52v.26a.48.48,0,0,0,0,.18s0,.07.05.08h.09l.16-.08.64-.37a.74.74,0,0,0,.16-.11.35.35,0,0,0,.1-.11.34.34,0,0,0,0-.14,1.12,1.12,0,0,0,0-.2v-.77c0-.19,0-.41,0-.61s0-.41,0-.57v-.08a1,1,0,0,1,0-.18.51.51,0,0,1,0-.13.19.19,0,0,1,0-.09.22.22,0,0,1,.09-.07l0,0,0,0,0,0h0l.1,0,.11,0,.11-.06.11-.06a5.92,5.92,0,0,0,1.16-.92,6.9,6.9,0,0,0,1-1.36,7.68,7.68,0,0,0,.74-1.75,7.87,7.87,0,0,0,.3-2.06,4.87,4.87,0,0,0-.15-1.31,1.69,1.69,0,0,0-.45-.82,1,1,0,0,0-.72-.27,2,2,0,0,0-1,.3"/></g></g><g id="星"><g class="cls-8"><g class="cls-11"><polyline class="cls-10" points="31.83 66.3 33.01 70.41 36.7 71.19 33.73 72.95 34.9 77.05 31.9 74.03 28.94 75.77 30.05 72.17 27.05 69.15 30.73 69.93 31.83 66.3"/><polyline class="cls-10" points="18.67 63.52 19.83 67.62 23.5 68.39 20.56 70.14 21.73 74.23 18.75 71.23 15.82 72.96 16.91 69.37 13.93 66.36 17.58 67.14 18.67 63.52"/></g></g></g></g></g></g></svg>