<svg xmlns="http://www.w3.org/2000/svg" xmlns:xlink="http://www.w3.org/1999/xlink" viewBox="0 0 98.57 78.93"><defs><style>.cls-1{fill:none;}.cls-2{fill:#c37394;}.cls-3{fill:#d18fa1;}.cls-4{fill:#eeb1c0;}.cls-5{fill:#aa7285;}.cls-6{fill:url(#名称未設定グラデーション_3);}.cls-7{fill:url(#名称未設定グラデーション_2);}.cls-8{isolation:isolate;}.cls-9{clip-path:url(#clip-path);}.cls-10{fill:#fff;}.cls-11{clip-path:url(#clip-path-2);}</style><linearGradient id="名称未設定グラデーション_3" x1="-2048.25" y1="-6673.22" x2="-2003.57" y2="-6711.66" gradientTransform="matrix(0.56, 0, 0, -0.57, 1173.05, -3788.89)" gradientUnits="userSpaceOnUse"><stop offset="0" stop-color="#5a9fd4"/><stop offset="1" stop-color="#306998"/></linearGradient><linearGradient id="名称未設定グラデーション_2" x1="-1986.3" y1="-6734.93" x2="-2002.25" y2="-6712.35" gradientTransform="matrix(0.56, 0, 0, -0.57, 1173.05, -3788.89)" gradientUnits="userSpaceOnUse"><stop offset="0" stop-color="#ffd43b"/><stop offset="1" stop-color="#ffe873"/></linearGradient><clipPath id="clip-path"><polygon class="cls-1" points="30.7 65.77 7.97 60.9 7.84 50.84 30.63 55.64 30.7 65.77"/></clipPath><clipPath id="clip-path-2"><polygon class="cls-1" points="52.45 63.81 52.6 49.25 83.86 29.91 83.58 44.17 52.45 63.81"/></clipPath></defs><g id="レイヤー_2" data-name="レイヤー 2"><g id="About_Me" data-name="About Me"><g id="Python"><polygon class="cls-2" points="87.94 13.18 49.46 3.65 0 35.64 2.54 36.27 49.8 5.01 86.67 14 87.94 13.18"/><polygon class="cls-3" points="49.8 5.01 49.8 35.64 2.54 66.21 2.54 36.27 49.8 5.01"/><polygon class="cls-4" points="49.8 35.64 86.67 44.63 86.67 14 49.8 5.01 49.8 35.64"/><polygon class="cls-5" points="49.8 35.64 35.9 44.63 38.48 45.18 52.38 36.27 49.8 35.64"/><polygon class="cls-2" points="38.48 78.93 0 67.85 0 35.64 38.48 45.18 38.48 78.93"/><path id="path1948" class="cls-6" d="M44.45,0A31.51,31.51,0,0,0,39.2.45c-4.65.82-5.49,2.54-5.49,5.71v4.19h11v1.4H29.58a6.85,6.85,0,0,0-6.86,5.57,20.54,20.54,0,0,0,0,11.16c.78,3.26,2.65,5.58,5.84,5.58h3.78V29a7,7,0,0,1,6.86-6.83h11a5.54,5.54,0,0,0,5.49-5.59V6.16c0-3-2.51-5.21-5.49-5.71A33.61,33.61,0,0,0,44.45,0ZM38.51,3.37a2.1,2.1,0,1,1-2.06,2.1A2.08,2.08,0,0,1,38.51,3.37Z"/><path id="path1950" class="cls-7" d="M57,11.75v4.87a7,7,0,0,1-6.86,7h-11a5.61,5.61,0,0,0-5.49,5.59V39.64c0,3,2.59,4.73,5.49,5.58a18.32,18.32,0,0,0,11,0c2.77-.8,5.49-2.41,5.49-5.58V35.45h-11V34.06H61.17c3.19,0,4.38-2.23,5.49-5.58s1.1-6.75,0-11.16c-.79-3.18-2.29-5.57-5.49-5.57ZM50.87,38.24a2.1,2.1,0,1,1-2.06,2.09A2.08,2.08,0,0,1,50.87,38.24Z"/><polygon class="cls-2" points="38.48 45.18 38.48 78.93 87.94 47.72 87.94 13.18 38.48 45.18"/><path class="cls-2" d="M87.94,47.72l10.52-6.66s1.93-9-10.52-27.88"/><g id="星"><g class="cls-8"><g class="cls-9"><polyline class="cls-10" points="25.79 54.62 26.96 58.74 30.65 59.52 27.69 61.27 28.86 65.37 25.85 62.36 22.9 64.1 24 60.49 21 57.47 24.69 58.25 25.79 54.62"/><polyline class="cls-10" points="12.63 51.85 13.79 55.94 17.45 56.72 14.52 58.47 15.69 62.55 12.71 59.55 9.78 61.29 10.87 57.69 7.89 54.69 11.54 55.46 12.63 51.85"/></g></g></g><g class="cls-8"><g class="cls-11"><path class="cls-10" d="M54,54.39a.48.48,0,0,1-.15.07s-.07,0-.09,0a.17.17,0,0,1,0-.12,1.48,1.48,0,0,1,0-.23l0-3a1.63,1.63,0,0,1,0-.24.58.58,0,0,1,.05-.17.38.38,0,0,1,.09-.13,1,1,0,0,1,.15-.11l1-.6a1.72,1.72,0,0,1,.51-.23.54.54,0,0,1,.42,0,.72.72,0,0,1,.27.38,2.72,2.72,0,0,1,.09.79,4.88,4.88,0,0,1-.13,1.06,4.24,4.24,0,0,1-.32.87,3.37,3.37,0,0,1-.48.67,2.65,2.65,0,0,1-.58.48l-.79.5m-1.13-4.87a.47.47,0,0,0-.13.11.38.38,0,0,0-.09.13.8.8,0,0,0,0,.18,1.81,1.81,0,0,0,0,.25v2.62l-.05,4.85c0,.23,0,.51,0,.8s0,.59,0,.87,0,.54,0,.73,0,.32,0,.35a1,1,0,0,0,0,.19s0,.08,0,.09.05,0,.09,0l.14-.08.62-.39a1,1,0,0,0,.15-.1l.09-.12a.54.54,0,0,0,0-.15,1,1,0,0,0,0-.2V58.6c0-.28,0-.58,0-.86s0-.57,0-.79v-.36a1.69,1.69,0,0,1,0-.25.43.43,0,0,1,0-.17.38.38,0,0,1,.09-.13,1,1,0,0,1,.15-.11l.79-.49a5.05,5.05,0,0,0,1.2-1,5.75,5.75,0,0,0,.84-1.33,7.1,7.1,0,0,0,.49-1.52,8.86,8.86,0,0,0,.18-1.64,5,5,0,0,0-.14-1.34,1.4,1.4,0,0,0-.44-.73.86.86,0,0,0-.71-.15,2.62,2.62,0,0,0-1,.39l-1,.63-.4.25-.42.25-.34.2-.18.11"/><path class="cls-10" d="M63,46.27l-.62.39-.16.11a.64.64,0,0,0-.1.13.67.67,0,0,0-.07.17c0,.08,0,.16-.07.27s-.09.44-.14.65l-.12.6c0,.19-.09.38-.13.57l-.12.55L60.75,53l0,.13a.46.46,0,0,1,0,.09l0,.07,0,0h0l0,0,0-.06,0-.08-.68-2.44c0-.13-.07-.27-.11-.41s-.07-.27-.11-.42-.07-.29-.11-.44-.09-.31-.13-.48a1.45,1.45,0,0,0-.06-.19.22.22,0,0,0-.07-.09.12.12,0,0,0-.1,0l-.16.08-.68.43-.11.07a.46.46,0,0,0-.07.07.25.25,0,0,0,0,.07.28.28,0,0,0,0,.09v0a.13.13,0,0,0,0,.06s0,0,0,.06,0,0,0,.07.11.32.15.47.1.29.14.43.09.28.13.41.09.28.13.42l1.24,4.07a.54.54,0,0,1,0,.1l0,.1s0,.06,0,.09V56s0,.07,0,.11a.69.69,0,0,1,0,.13s0,.09,0,.14l-.12.53c0,.13-.07.28-.11.44s-.08.32-.13.5-.09.38-.14.58l-.17.65,0,.1s0,.06,0,.08a.13.13,0,0,0,0,.06v.06s0,.05,0,.06,0,0,0,0l.06,0,.1-.06L60,59l.16-.12.1-.12a.75.75,0,0,0,.07-.18l.07-.27c0-.21.09-.41.13-.6s.09-.38.13-.55l.12-.53c0-.17.08-.33.11-.5L62.61,49c0-.17.09-.35.13-.54s.09-.37.14-.57.1-.4.15-.62.11-.45.17-.69l0-.09s0-.06,0-.08a.2.2,0,0,0,0-.07.11.11,0,0,0,0-.05.15.15,0,0,0,0-.07l0,0a.11.11,0,0,0-.07,0l-.11.05"/><path class="cls-10" d="M65.3,42.68l-.55.33-.14.11a.31.31,0,0,0-.09.11.54.54,0,0,0,0,.15,1,1,0,0,0,0,.2v1.47a1.15,1.15,0,0,1,0,.2.51.51,0,0,1,0,.13l-.06.09-.1.07-.09.05-.1.06L64,45.7l-.07,0a1,1,0,0,0-.15.11.34.34,0,0,0-.09.12.58.58,0,0,0,0,.17c0,.06,0,.14,0,.25V47a1.63,1.63,0,0,0,0,.24.19.19,0,0,0,0,.11s.05,0,.09,0l.15-.08.06,0,.08-.06.1-.07.1-.06a.16.16,0,0,1,.1,0s0,0,.06,0a.22.22,0,0,1,0,.1,1,1,0,0,1,0,.19l-.05,3.56a4.89,4.89,0,0,0,.07,1,1.24,1.24,0,0,0,.26.61.54.54,0,0,0,.49.18,1.81,1.81,0,0,0,.76-.31l.13-.09.14-.1.13-.1.13-.1a1.06,1.06,0,0,0,.15-.15.46.46,0,0,0,.09-.15.8.8,0,0,0,0-.18,1.66,1.66,0,0,0,0-.24v-.84s0-.08,0-.11,0,0,0,0a.07.07,0,0,0-.07,0l-.08.06-.12.11-.14.12-.15.11a1.14,1.14,0,0,1-.33.15.26.26,0,0,1-.23-.06.49.49,0,0,1-.13-.27,2.64,2.64,0,0,1,0-.54l0-3.24a1.77,1.77,0,0,1,0-.24.84.84,0,0,1,0-.17.47.47,0,0,1,.09-.12.58.58,0,0,1,.15-.11L66,46l.15-.1.17-.1.15-.09.11-.06.15-.11a.47.47,0,0,0,.09-.12.69.69,0,0,0,.05-.17c0-.06,0-.14,0-.24v-.66a1.42,1.42,0,0,0,0-.23.14.14,0,0,0,0-.11s0,0-.09,0l-.15.08-.11.07-.15.1-.17.11-.15.1-.27.17-.12.06a.06.06,0,0,1-.06,0,.12.12,0,0,1,0-.09,1.09,1.09,0,0,1,0-.2c0-.13,0-.29,0-.44s0-.32,0-.47,0-.27,0-.38v-.2a1,1,0,0,0,0-.19.19.19,0,0,0,0-.09h-.09a.42.42,0,0,0-.13.07"/><path class="cls-10" d="M69,39.11l-.57.35a.5.5,0,0,0-.14.1.31.31,0,0,0-.09.11.53.53,0,0,0,0,.15,1.21,1.21,0,0,0,0,.2s0,.13,0,.28v1.2c0,.22,0,.43,0,.61L68,48.58c0,.18,0,.39,0,.61s0,.45,0,.66,0,.41,0,.56v.28a.48.48,0,0,0,0,.18A.1.1,0,0,0,68,51s0,0,.09,0l.14-.08.56-.35.14-.11a.24.24,0,0,0,.09-.11.47.47,0,0,0,0-.14,1.25,1.25,0,0,0,0-.21V48.5c0-.22,0-.43,0-.6l0-2.68c0-.08,0-.16,0-.22s0-.14,0-.2,0-.12.07-.19l.11-.22c.08-.13.15-.26.23-.37l.23-.3.23-.24.23-.17a.83.83,0,0,1,.42-.15.39.39,0,0,1,.3.14.89.89,0,0,1,.16.38,2.28,2.28,0,0,1,0,.61l0,2.3c0,.17,0,.38,0,.61s0,.45,0,.66,0,.4,0,.55,0,.25,0,.28a1,1,0,0,0,0,.19.13.13,0,0,0,0,.09h.08l.14-.07.56-.36a.5.5,0,0,0,.14-.1.31.31,0,0,0,.09-.11.57.57,0,0,0,0-.14,1.25,1.25,0,0,0,0-.21v-.82c0-.21,0-.43,0-.65s0-.43,0-.6l0-2.78a4.22,4.22,0,0,0-.1-1.08,1.37,1.37,0,0,0-.33-.66.69.69,0,0,0-.52-.22,1.3,1.3,0,0,0-.68.24,2.11,2.11,0,0,0-.35.26A3.51,3.51,0,0,0,70,42l-.31.38c-.1.14-.19.29-.28.44l-.05.08,0,.06,0,0,0,0h0l0,0s0-.06,0-.1v-.14l0-1.33c0-.18,0-.39,0-.61s0-.45,0-.67,0-.41,0-.55,0-.25,0-.28a1,1,0,0,0,0-.19c0-.05,0-.08,0-.09s0,0-.09,0l-.13.08"/><path class="cls-10" d="M75.79,44.77a.87.87,0,0,1-.52.16.57.57,0,0,1-.4-.21,1.37,1.37,0,0,1-.25-.57,3.49,3.49,0,0,1-.08-.91,6.38,6.38,0,0,1,.1-1.08,6,6,0,0,1,.28-1,3.32,3.32,0,0,1,.45-.81,2.35,2.35,0,0,1,.6-.58,1,1,0,0,1,.52-.16.55.55,0,0,1,.41.22,1.38,1.38,0,0,1,.26.57,3.49,3.49,0,0,1,.08.91,5.82,5.82,0,0,1-.12,1.12,5.73,5.73,0,0,1-.3,1,3.64,3.64,0,0,1-.46.8,2.23,2.23,0,0,1-.57.54m.26-6.68a4.33,4.33,0,0,0-1.08,1,6.07,6.07,0,0,0-.82,1.38,7.86,7.86,0,0,0-.53,1.66,9.14,9.14,0,0,0-.21,1.82,5.23,5.23,0,0,0,.16,1.48,1.92,1.92,0,0,0,.48.9,1,1,0,0,0,.74.3,1.94,1.94,0,0,0,.95-.33,4.21,4.21,0,0,0,1-1A6.06,6.06,0,0,0,77.6,44a8.09,8.09,0,0,0,.54-1.64,9.29,9.29,0,0,0,.22-1.86A5.43,5.43,0,0,0,78.21,39a2,2,0,0,0-.48-.91,1.06,1.06,0,0,0-.74-.32,1.85,1.85,0,0,0-.94.32"/><path class="cls-10" d="M82.13,34.3a3.12,3.12,0,0,0-.37.29,2.4,2.4,0,0,0-.35.36,4.63,4.63,0,0,0-.32.42,3.76,3.76,0,0,0-.3.47l-.05.08,0,.06,0,0,0,0h0l0,0s0,0,0-.08a.62.62,0,0,0,0-.13,1.22,1.22,0,0,0,0-.21.21.21,0,0,0,0-.11s0,0-.09,0l-.13.08-.46.28-.14.1a.31.31,0,0,0-.09.11.58.58,0,0,0-.05.14,1.28,1.28,0,0,0,0,.21v.27c0,.14,0,.33,0,.54v.66c0,.21,0,.42,0,.59l-.06,3c0,.17,0,.38,0,.6s0,.45,0,.66,0,.4,0,.55v.27a1.18,1.18,0,0,0,0,.19.13.13,0,0,0,0,.09.06.06,0,0,0,.08,0l.14-.07.55-.35a.5.5,0,0,0,.14-.1.28.28,0,0,0,.08-.11.29.29,0,0,0,0-.14c0-.06,0-.12,0-.2V42c0-.2,0-.43,0-.65v-.59l0-2.66c0-.08,0-.16,0-.23a1.29,1.29,0,0,1,0-.19c0-.06,0-.12.07-.19l.1-.21a4,4,0,0,1,.23-.37c.08-.11.15-.21.23-.3a2.44,2.44,0,0,1,.22-.23,1.7,1.7,0,0,1,.23-.17.77.77,0,0,1,.41-.14.36.36,0,0,1,.29.13.88.88,0,0,1,.16.39,2.64,2.64,0,0,1,.05.6l-.05,2.28c0,.18,0,.39,0,.6s0,.45,0,.66,0,.4,0,.55,0,.25,0,.28a.87.87,0,0,0,0,.18c0,.05,0,.08,0,.09s0,0,.09,0l.13-.07.55-.35.14-.1a.28.28,0,0,0,.08-.11.34.34,0,0,0,0-.14c0-.06,0-.13,0-.21V40c0-.21,0-.43,0-.65s0-.42,0-.59l0-2.76A4.23,4.23,0,0,0,83.63,35a1.46,1.46,0,0,0-.32-.66.67.67,0,0,0-.51-.22,1.32,1.32,0,0,0-.67.22"/></g></g></g></g></g></svg>