<svg xmlns="http://www.w3.org/2000/svg" xmlns:xlink="http://www.w3.org/1999/xlink" viewBox="0 0 144.35 115.59"><defs><style>.cls-1{fill:#c37394;}.cls-2{fill:#d18fa1;}.cls-3{fill:#eeb1c0;}.cls-4{fill:#aa7285;}.cls-5{fill:url(#名称未設定グラデーション_3);}.cls-6{fill:url(#名称未設定グラデーション_2);}.cls-7{font-size:20px;fill:#fff;font-family:PA1GothicStdN-Medium-83pv-RKSJ-H, A P-OTF A1Gothic StdN;}</style><linearGradient id="名称未設定グラデーション_3" x1="570.94" y1="-3534.26" x2="636.37" y2="-3590.56" gradientTransform="matrix(0.56, 0, 0, -0.57, -290.67, -2005.44)" gradientUnits="userSpaceOnUse"><stop offset="0" stop-color="#5a9fd4"/><stop offset="1" stop-color="#306998"/></linearGradient><linearGradient id="名称未設定グラデーション_2" x1="661.67" y1="-3624.63" x2="638.3" y2="-3591.57" gradientTransform="matrix(0.56, 0, 0, -0.57, -290.67, -2005.44)" gradientUnits="userSpaceOnUse"><stop offset="0" stop-color="#ffd43b"/><stop offset="1" stop-color="#ffe873"/></linearGradient></defs><g id="レイヤー_2" data-name="レイヤー 2"><g id="レイヤー_1-2" data-name="レイヤー 1"><polygon class="cls-1" points="128.79 19.3 72.43 5.34 0 52.2 3.73 53.12 72.93 7.34 126.93 20.51 128.79 19.3"/><polygon class="cls-2" points="72.93 7.34 72.93 52.2 3.73 96.97 3.73 53.12 72.93 7.34"/><polygon class="cls-3" points="72.93 52.2 126.93 65.37 126.93 20.51 72.93 7.34 72.93 52.2"/><polygon class="cls-4" points="72.93 52.2 52.58 65.37 56.36 66.16 76.72 53.12 72.93 52.2"/><polygon class="cls-1" points="56.36 115.59 0 99.37 0 52.2 56.36 66.16 56.36 115.59"/><path id="path1948" class="cls-5" d="M65.1,0a45.63,45.63,0,0,0-7.69.66c-6.81,1.2-8,3.72-8,8.36v6.14H65.46v2H43.33a10.05,10.05,0,0,0-10.06,8.16,30.2,30.2,0,0,0,0,16.36c1.15,4.76,3.88,8.16,8.56,8.16h5.53V42.52a10.22,10.22,0,0,1,10-10H73.49a8.12,8.12,0,0,0,8.05-8.18V9c0-4.36-3.68-7.64-8.05-8.36A50.56,50.56,0,0,0,65.1,0ZM56.4,4.93a3.07,3.07,0,1,1-3,3.08A3.06,3.06,0,0,1,56.4,4.93Z"/><path id="path1950" class="cls-6" d="M83.54,17.2v7.15a10.31,10.31,0,0,1-10.05,10.2H57.41a8.21,8.21,0,0,0-8,8.18V58.05c0,4.37,3.79,6.93,8,8.18a26.92,26.92,0,0,0,16.08,0c4.05-1.17,8.05-3.53,8.05-8.18V51.92H65.46v-2H89.58c4.68,0,6.42-3.27,8-8.16s1.61-9.89,0-16.36c-1.16-4.66-3.36-8.16-8-8.16ZM74.5,56a3.07,3.07,0,1,1-3,3.06A3,3,0,0,1,74.5,56Z"/><polygon class="cls-1" points="56.36 66.16 56.36 115.59 128.79 69.88 128.79 19.3 56.36 66.16"/><path class="cls-1" d="M128.79,69.88l15.4-9.75S147,47,128.79,19.3"/><text class="cls-7" transform="matrix(0.87, -0.49, 0.49, 0.87, 71.99, 93.39)">Python</text></g></g></svg>