<svg xmlns="http://www.w3.org/2000/svg" viewBox="0 0 189.77 138.27"><defs><style>.cls-1{fill:#d18fa1;}.cls-2{fill:#c37394;}.cls-3{fill:#eeb1c0;}.cls-4{fill:#0c4b33;fill-rule:evenodd;}.cls-5{fill:#fff;}</style></defs><g id="レイヤー_2" data-name="レイヤー 2"><g id="レイヤー_1-2" data-name="レイヤー 1"><polygon class="cls-1" points="0 100.64 126.73 56.81 126.73 1.9 0.04 44.9 0 100.64"/><polygon class="cls-2" points="0.04 100.94 0.04 42.81 46.47 81.75 46.47 138.27 0.04 100.94"/><polygon class="cls-2" points="173.2 37.97 126.73 0 0 42.81 1.78 44.3 126.67 1.9 171.39 38.66 173.2 37.97"/><polygon class="cls-3" points="171.39 38.66 126.73 1.9 126.73 56.81 171.39 93.44 171.39 38.66"/><g id="Page-1"><g id="logo-django"><path id="Shape" class="cls-4" d="M43.65,24.08H50V53a42,42,0,0,1-8.2.85C34.06,53.89,30,50.44,30,43.82,30,37.44,34.3,33.3,40.9,33.3a10.31,10.31,0,0,1,2.75.32V24.08Zm0,14.57a6.4,6.4,0,0,0-2.13-.32c-3.2,0-5,2-5,5.37s1.76,5.16,5,5.16a15,15,0,0,0,2.17-.16V38.65ZM60,33.74v14.5c0,5-.37,7.39-1.47,9.46S56.16,61,53.38,62.33l-5.87-2.76c2.79-1.29,4.14-2.44,5-4.19s1.19-3.85,1.19-9.3V33.74ZM53.7,24.12H60v6.42H53.7ZM63.82,35.17a19.17,19.17,0,0,1,8.37-1.87c3.25,0,5.37.85,6.32,2.52.53.93.7,2.15.7,4.75V53.28a71.3,71.3,0,0,1-9,.69c-5.29,0-7.67-1.83-7.67-5.88,0-4.39,3.16-6.42,10.91-7.07V39.64c0-1.13-.58-1.54-2.18-1.54A16.67,16.67,0,0,0,63.83,40Zm9.89,9.94c-4.18.41-5.54,1.06-5.54,2.69,0,1.21.78,1.78,2.51,1.78a17.83,17.83,0,0,0,3-.28V45.11Zm8.57-10.39A38,38,0,0,1,92.2,33.3c3.24,0,5.58.73,7,2.15s1.72,2.8,1.72,5.93V53.64H94.58v-12c0-2.4-.83-3.3-3.08-3.3a9.47,9.47,0,0,0-2.91.45V53.64H82.28Zm21.07,22.34a14.52,14.52,0,0,0,6.76,1.66c4.14,0,5.91-1.67,5.91-5.65V53a8.72,8.72,0,0,1-4.1.86c-5.54,0-9.06-3.62-9.06-9.35,0-7.11,5.21-11.13,14.43-11.13a40.17,40.17,0,0,1,8.25.89l-2.16,4.52c-1.69-.33-.14-.05-1.41-.17v.65l.08,2.64,0,3.42c0,.85,0,1.7.08,2.56v1.7c0,5.37-.45,7.88-1.8,10q-3,4.56-10.22,4.55a18,18,0,0,1-6.8-1.22V57.06ZM115.9,38.37h-.66a6.85,6.85,0,0,0-3.65.9c-1.52.85-2.3,2.4-2.3,4.59,0,3.12,1.57,4.91,4.35,4.91a7.92,7.92,0,0,0,2.38-.4V46.21c0-.73,0-1.55,0-2.4l0-2.88,0-2.07Zm19.44-5.15c6.31,0,10.16,3.94,10.16,10.32,0,6.54-4,10.63-10.42,10.63s-10.21-3.93-10.21-10.27C124.88,37.32,128.9,33.22,135.34,33.22Zm-.13,15.91c2.42,0,3.85-2,3.85-5.44s-1.39-5.45-3.81-5.45-3.94,2-3.94,5.45,1.44,5.44,3.9,5.44Z"/></g></g><polygon class="cls-2" points="173.2 94.43 46.47 138.27 46.47 81.75 46.47 81.8 173.2 37.97 173.2 94.43"/><path class="cls-2" d="M173.2,94.43l16.57-6.21C188,66.2,173.2,38,173.2,38"/><path class="cls-5" d="M84,106.83c-1.12.39-3,1.11-3.16,1.17-.53.18-.74,0-.94-.53-.45-1.35-1-2.87-1.37-4l-2.65-7.51c-.41-1.17-.94-2.6-1.45-4-.21-.57-.13-.82.4-1,.16-.06,2.07-.68,3.19-1.08l3-1c4.74-1.67,8.49,0,10.37,5.31,2,5.57.1,10-5.16,11.91ZM81.85,104c.21.59.37.67,1,.46l2.42-.85c3.76-1.33,4.67-4.53,3.33-8.33-1.14-3.24-3.48-5-6.95-3.77l-3,1.06c-.6.21-.68.37-.47,1Z"/><path class="cls-5" d="M95.11,85.36A1.86,1.86,0,0,1,94,87.89a1.68,1.68,0,0,1-2.22-1,1.84,1.84,0,0,1,1.16-2.46A1.64,1.64,0,0,1,95.11,85.36Zm2.71,21.89c-.38.13-.51,0-.69-.51l-.47-1.34c-.12-.33-.08-.46.23-.57l.22-.07c1-.35,1-1.11.54-2.43L94.57,93.6c-.38-1.08-1.13-3-1.19-3.22-.17-.5-.07-.64.49-.84l1.38-.49c.55-.19.73-.15.91.36.06.16.71,2.17,1.09,3.24l3.13,8.88c.67,1.89.65,3.3-.5,4.46A7.11,7.11,0,0,1,97.82,107.25Z"/><path class="cls-5" d="M111.29,97.2c-.55.19-.69.19-.94-.45-.12-.25-.19-.39-.34-.34a.75.75,0,0,0-.27.29A7.06,7.06,0,0,1,106.6,99c-2.06.73-4,.2-4.74-2-1.08-3.07,2.06-5.68,5.16-7.12.4-.17.53-.33.46-.6a2.05,2.05,0,0,0-2.86-1,6.76,6.76,0,0,0-2.82,2.09c-.16.22-.28.35-.4.39s-.31-.05-.58-.34l-.82-.89a1.06,1.06,0,0,1-.28-.41c-.08-.22,0-.41.29-.7a11.26,11.26,0,0,1,4.1-2.65c3.06-1.08,5.07-.2,6.26,3.17l1.21,3.66c.45,1.38,1.13,3.07,1.28,3.48s0,.55-.5.74ZM108,92a1.68,1.68,0,0,0-.28.13c-2.09,1.09-3.7,2.54-3.28,3.74.28.79,1.08,1,2.08.64a5.36,5.36,0,0,0,2.26-1.69,1,1,0,0,0,.23-1.26l-.37-1C108.48,92.06,108.35,91.91,108,92Z"/><path class="cls-5" d="M117.72,90.63c.38,1.07,1.13,3,1.18,3.21.18.5.07.65-.48.84l-1.39.49c-.55.2-.72.15-.9-.35-.06-.17-.71-2.17-1.09-3.25L113.41,87c-.38-1.07-1.13-3-1.19-3.21-.18-.5-.07-.65.48-.84l1.15-.41c.58-.2.7-.14.93.43.13.3.23.43.35.38a.69.69,0,0,0,.3-.29,5.89,5.89,0,0,1,2.94-2.27c2.47-.87,4.69.17,5.63,2.83l1.52,4.31c.38,1.07,1.13,3,1.19,3.21.17.5.06.65-.49.84l-1.39.49c-.55.2-.72.15-.9-.35-.06-.17-.71-2.17-1.09-3.25l-1.26-3.56a2.32,2.32,0,0,0-3.21-1.62,4,4,0,0,0-2,1.58,1.22,1.22,0,0,0-.14,1.27Z"/><path class="cls-5" d="M134.62,86.12c2.42-.45,5.38-.82,6.29,1.76.72,2-.53,4.6-5,6.19-3.56,1.26-5.76.53-6.4-1.29a3.77,3.77,0,0,1,.7-3.42c.22-.29.3-.46.25-.6s-.16-.21-.41-.39a2.28,2.28,0,0,1-.71-1,2.2,2.2,0,0,1,0-1.48c.1-.31.16-.46.11-.58s-.21-.22-.5-.36a4,4,0,0,1-2-2.35c-.87-2.46.3-4.94,3.65-6.13.26-.09.5-.17.75-.23.79-.2,1.6-.43,2.34-.69l.38-.14c.69-.24,1.57-.58,1.88-.69.5-.18.62-.08.81.47l.35,1c.18.52.15.67-.3.83l-.36.13c-.31.11-.38.21-.31.4a2.14,2.14,0,0,0,.17.34,4.16,4.16,0,0,1,.43.93c.88,2.49-.12,4.91-3.54,6.12a6.11,6.11,0,0,1-.95.28,4.66,4.66,0,0,0-.55.12c-.24.08-.33.3-.22.61C131.69,86.53,132.67,86.48,134.62,86.12Zm-5.08-4.32c.38,1.08,1.54,1.55,3,1,1.82-.64,2.09-2,1.72-3s-1.57-1.55-3-1C129.54,79.35,129.15,80.7,129.54,81.8Zm3.59,7a1.37,1.37,0,0,0-.66.56,2.26,2.26,0,0,0-.48,2c.33.93,1.65,1.06,3.37.45,2.1-.74,3.23-1.89,2.92-2.78s-1.78-.85-3.58-.54c-.39.06-.79.15-1.15.19A3.72,3.72,0,0,0,133.13,88.85Z"/><path class="cls-5" d="M152.24,75.57c1.41,4-.26,7.44-4,8.77a6,6,0,0,1-8-3.9c-1.36-3.85,0-7.41,4-8.81A6.05,6.05,0,0,1,152.24,75.57ZM143,79.49c.78,2.2,2.62,3.16,4.49,2.51,2.06-.73,2.93-2.84,2.08-5.23s-2.67-3.18-4.54-2.52C142.74,75.05,142.15,77.19,143,79.49Z"/><polygon class="cls-5" points="15.6 80.28 17.48 86.08 23.57 86.08 18.64 89.66 20.53 95.46 15.6 91.88 10.67 95.46 12.55 89.66 7.62 86.08 13.71 86.08 15.6 80.28"/><polygon class="cls-5" points="30.91 91.41 32.79 97.21 38.89 97.21 33.96 100.79 35.84 106.59 30.91 103 25.98 106.59 27.86 100.79 22.93 97.21 29.03 97.21 30.91 91.41"/></g></g></svg>