<?xml version="1.0" encoding="utf-8"?>
<!-- Generator: Adobe Illustrator 26.0.3, SVG Export Plug-In . SVG Version: 6.00 Build 0)  -->
<svg version="1.1" id="_x32_" xmlns="http://www.w3.org/2000/svg" xmlns:xlink="http://www.w3.org/1999/xlink" x="0px" y="0px"
	 viewBox="0 0 512 512" style="enable-background:new 0 0 512 512;" xml:space="preserve">
<style type="text/css">
	.st0{fill:#AD5A88;}
</style>
<g>
	<path class="st0" d="M502.3,307.3l-39-30.8c-6.2-4.9-9.7-12.4-9.7-20.3c0-0.1,0-0.2,0-0.3c0-7.9,3.4-15.5,9.7-20.4l39-30.8
		c8.9-7.1,12.1-19.2,7.7-29.7l-17.1-41.4c-4.4-10.5-15.2-16.9-26.5-15.5l-49.4,5.8c-7.9,0.9-15.7-2-21.3-7.6
		c-0.1-0.1-0.1-0.1-0.2-0.2c-5.6-5.6-8.5-13.4-7.6-21.2l5.8-49.4c1.3-11.3-5-22.1-15.5-26.5L337,1.9c-10.5-4.4-22.6-1.2-29.7,7.7
		l-30.8,39c-4.9,6.2-12.4,9.7-20.3,9.7c-0.1,0-0.2,0-0.3,0c-7.9,0-15.5-3.4-20.4-9.7l-30.8-39c-7.1-8.9-19.2-12.1-29.7-7.7
		l-41.4,17.1c-10.5,4.4-16.9,15.2-15.5,26.5l5.8,49.4c0.9,7.9-2,15.7-7.6,21.3c-0.1,0.1-0.1,0.1-0.2,0.2c-5.6,5.6-13.4,8.5-21.2,7.6
		l-49.4-5.8c-11.3-1.3-22.1,5-26.5,15.5L1.9,175c-4.4,10.5-1.2,22.6,7.7,29.7l39,30.8c6.2,4.9,9.7,12.4,9.7,20.3c0,0.1,0,0.2,0,0.3
		c0,7.9-3.4,15.5-9.7,20.4l-39,30.8c-8.9,7.1-12.1,19.2-7.7,29.7l17.1,41.4c4.4,10.5,15.2,16.9,26.5,15.5l49.4-5.8
		c7.9-0.9,15.7,2,21.3,7.6c0.1,0.1,0.1,0.1,0.2,0.2c5.6,5.6,8.5,13.4,7.6,21.2l-5.8,49.4c-1.3,11.3,5,22.1,15.5,26.5l41.4,17.1
		c10.5,4.4,22.6,1.2,29.7-7.7l30.8-39c4.9-6.2,12.4-9.7,20.3-9.7c0.1,0,0.2,0,0.3,0c7.9,0,15.5,3.4,20.4,9.7l30.8,39
		c7.1,8.9,19.2,12.1,29.7,7.7l41.4-17.1c10.5-4.4,16.9-15.2,15.5-26.5l-5.8-49.4c-0.9-7.9,2-15.7,7.6-21.3c0.1-0.1,0.1-0.1,0.2-0.2
		c5.6-5.6,13.4-8.5,21.2-7.6l49.4,5.8c11.3,1.3,22.1-5,26.5-15.5l17.1-41.4C514.4,326.5,511.3,314.4,502.3,307.3z M281.3,329.7
		c-39.7,16.4-85.2-2.4-101.6-42.1c-16.4-39.7,2.4-85.2,42.1-101.6c39.7-16.4,85.2,2.4,101.6,42.1C339.8,267.8,321,313.3,281.3,329.7
		z"/>
</g>
</svg>
