<svg xmlns="http://www.w3.org/2000/svg" viewBox="0 0 342.62 344.76"><defs><style>.cls-1{isolation:isolate;}.cls-2{fill:#c37394;}.cls-3{fill:#bf7999;}.cls-4{fill:#fff;}.cls-5{fill:#ad5a88;}</style></defs><g id="レイヤー_2" data-name="レイヤー 2"><g id="レイヤー_1-2" data-name="レイヤー 1"><g class="cls-1"><polygon class="cls-2" points="2.74 196.49 33.82 175.56 186.25 175.6 160.99 196.69 2.74 196.49"/><polygon class="cls-2" points="321.68 196.91 291.08 344.76 39.74 342.66 2.74 196.49 160.99 196.69 321.68 196.91"/><polygon class="cls-3" points="321.68 196.91 340.94 175.65 311.38 318 291.08 344.76 321.68 196.91"/><polygon class="cls-2" points="160.99 196.69 186.25 175.6 340.94 175.65 321.68 196.91 160.99 196.69"/></g><g class="cls-1"><path class="cls-2" d="M75.46,44.36l28.59-15.29q-4.71,2.52-9,5.4t-8.34,6.12q-4,3.24-7.6,6.85T72.17,55A110,110,0,0,0,59.54,74.28a130.69,130.69,0,0,0-8.31,20.17,157.15,157.15,0,0,0-4.88,19.61c-1.15,6.28-1.87,12.23-2.31,17.6-.27,3.29-.45,6.48-.55,9.52s-.13,6-.1,8.69.11,5.29.22,7.65.25,4.5.4,6.41L13.3,184.42c-.16-2-.31-4.22-.43-6.66s-.2-5.11-.23-7.94,0-5.86.09-9,.28-6.47.55-9.89c.45-5.58,1.2-11.75,2.39-18.28a160.6,160.6,0,0,1,5-20.36,135.32,135.32,0,0,1,8.6-21,113.44,113.44,0,0,1,13.09-20,104.32,104.32,0,0,1,7.14-7.86q3.75-3.74,7.89-7.11T66.07,50Q70.59,47,75.46,44.36Z"/><path class="cls-4" d="M104,29.09a123.2,123.2,0,0,1,16.65-7.37,150.13,150.13,0,0,1,18.61-5.34,187.32,187.32,0,0,1,20.57-3.29q10.75-1.12,22.49-1.21L156.75,26.55q-12.18.09-23.36,1.25A193.43,193.43,0,0,0,112,31.2a154.9,154.9,0,0,0-19.32,5.53,130.2,130.2,0,0,0-17.28,7.65Z"/><path class="cls-3" d="M69.11,32.8,97.94,18a137.85,137.85,0,0,1,17-7.32A163.79,163.79,0,0,1,134.43,5a202,202,0,0,1,22.33-3.62C164.68.57,173.1.08,182.05,0L156.44,14.22c-9.29.07-18,.56-26.27,1.44A211.93,211.93,0,0,0,107,19.41a171,171,0,0,0-20.29,5.8A143.19,143.19,0,0,0,69.11,32.8Z"/><path class="cls-4" d="M156.75,26.55a234.78,234.78,0,0,1,37.5,2.58,167.84,167.84,0,0,1,32.56,8.25,128.94,128.94,0,0,1,27.44,13.91,113.94,113.94,0,0,1,22.18,19.52,119,119,0,0,1,14.12,20.07,141.11,141.11,0,0,1,9.59,21.06,165.6,165.6,0,0,1,5.91,20.49,183.55,183.55,0,0,1,3.11,18.38c.41,3.46.72,6.81.94,10s.35,6.25.42,9.11.08,5.54,0,8-.11,4.71-.21,6.7l-297-.21c-.16-2-.31-4.22-.43-6.66s-.2-5.11-.23-7.94,0-5.86.09-9,.28-6.48.55-9.9c.45-5.58,1.2-11.75,2.39-18.27a160.32,160.32,0,0,1,5-20.37,135.32,135.32,0,0,1,8.6-21,113.44,113.44,0,0,1,13.09-20A106.34,106.34,0,0,1,63.08,52a120.81,120.81,0,0,1,26-13.92,158.47,158.47,0,0,1,31.25-8.52A226.75,226.75,0,0,1,156.75,26.55Z"/><polygon class="cls-5" points="13.3 184.42 44.01 163.93 330.05 163.85 310.35 184.63 13.3 184.42"/><path class="cls-4" d="M156.75,26.55l25.58-14.67a226,226,0,0,1,36.1,2.45,161.34,161.34,0,0,1,31.33,7.92,123.59,123.59,0,0,1,26.4,13.36,109.21,109.21,0,0,1,21.33,18.76,114.22,114.22,0,0,1,13.57,19.3,134.8,134.8,0,0,1,9.21,20.25,161,161,0,0,1,5.68,19.7c1.39,6.32,2.34,12.29,3,17.69.39,3.33.68,6.54.89,9.62s.33,6,.4,8.76.07,5.34,0,7.71-.11,4.53-.2,6.45l-19.7,20.78c.1-2,.18-4.24.21-6.7s0-5.15,0-8-.21-5.91-.42-9.11-.53-6.54-.94-10a183.55,183.55,0,0,0-3.11-18.38,165.6,165.6,0,0,0-5.91-20.49,141.11,141.11,0,0,0-9.59-21.06,119,119,0,0,0-14.12-20.07,113.94,113.94,0,0,0-22.18-19.52,128.94,128.94,0,0,0-27.44-13.91,167.84,167.84,0,0,0-32.56-8.25A234.78,234.78,0,0,0,156.75,26.55Z"/><path class="cls-3" d="M156.44,14.22,182.05,0c45.8-.37,78.81,9.89,102.49,25.65s38,37,46.46,58.55,11.1,43.3,11.55,60.23a187.13,187.13,0,0,1-1.61,31.21L321.68,196.9a194.32,194.32,0,0,0,1.65-32.42c-.48-17.61-3.24-40.25-12.05-62.63S287.59,57.37,263,41,204,13.86,156.44,14.22Z"/><path class="cls-2" d="M156.44,14.22C204,13.86,238.33,24.56,263,41s39.51,38.5,48.33,60.89,11.57,45,12.05,62.63a194.32,194.32,0,0,1-1.65,32.42L2.74,196.49A199,199,0,0,1,0,164.55c-.17-17.33,1.67-39.64,9.3-61.72S30.43,58.75,53.58,42.24,109.79,14.57,156.44,14.22ZM310.35,184.63c.1-2,.18-4.24.21-6.7s0-5.15,0-8-.21-5.91-.42-9.11-.53-6.54-.94-10a183.55,183.55,0,0,0-3.11-18.38,165.6,165.6,0,0,0-5.91-20.49,141.11,141.11,0,0,0-9.59-21.06,119,119,0,0,0-14.12-20.07,113.94,113.94,0,0,0-22.18-19.52,128.94,128.94,0,0,0-27.44-13.91,167.84,167.84,0,0,0-32.56-8.25,234.78,234.78,0,0,0-37.5-2.58,226.75,226.75,0,0,0-36.42,3,159.16,159.16,0,0,0-31.25,8.51A121.28,121.28,0,0,0,63.08,52,106.34,106.34,0,0,0,42.4,71.29a113.44,113.44,0,0,0-13.09,20,135.32,135.32,0,0,0-8.6,21,160.6,160.6,0,0,0-5,20.36c-1.19,6.53-1.94,12.7-2.39,18.28-.27,3.42-.45,6.73-.55,9.89s-.12,6.19-.09,9,.11,5.49.23,7.94.27,4.67.43,6.66l297.05.21"/></g><path class="cls-5" d="M104.05,29.07q-4.71,2.52-9,5.4t-8.34,6.12q-4,3.24-7.6,6.85T72.17,55A110,110,0,0,0,59.54,74.28a130.69,130.69,0,0,0-8.31,20.17,157.15,157.15,0,0,0-4.88,19.61c-1.15,6.28-1.87,12.23-2.31,17.6-.27,3.29-.45,6.48-.55,9.52s-.13,6-.1,8.69.11,5.29.22,7.65.25,4.5.4,6.41L13.3,184.42c-.16-2-.31-4.22-.43-6.66s-.2-5.11-.23-7.94,0-5.86.09-9,.28-6.47.55-9.89c.45-5.58,1.2-11.75,2.39-18.28a160.6,160.6,0,0,1,5-20.36,135.32,135.32,0,0,1,8.6-21,113.44,113.44,0,0,1,13.09-20,104.32,104.32,0,0,1,7.14-7.86q3.75-3.74,7.89-7.11T66.07,50q4.52-3,9.39-5.61"/></g></g></svg>