<svg xmlns="http://www.w3.org/2000/svg" viewBox="0 0 78.01 210.76"><defs><style>.cls-1{fill:#e595ac;}.cls-2{fill:#fff;}</style></defs><g id="レイヤー_2" data-name="レイヤー 2"><g id="レイヤー_1-2" data-name="レイヤー 1"><path class="cls-1" d="M39,0C84.48,0,84.3,52.93,68.13,76c-6.85,9.79-16.93,15.13-26,16.15L43.67,98l-5.49.17c-1.48,7.15-1,14.12.28,22.34,2,13.14,1.53,25.49,1,38.56l0,.58a66.75,66.75,0,0,0,1.2,13.06,77.24,77.24,0,0,1,1.26,11.71,64.84,64.84,0,0,1-1.45,11.88c-.87,4.69-1.77,9.54-1.28,14.29l-1.4.14c-.5-4.95.42-9.9,1.31-14.68a64.51,64.51,0,0,0,1.42-11.63A76.6,76.6,0,0,0,39.24,173,68.34,68.34,0,0,1,38,159.62l0-.58c.54-13,1.05-25.28-1-38.29-1.28-8.26-1.77-15.28-.34-22.51l-4.4.13L34.73,92C26,90.71,16.45,85.42,9.88,76-6.29,52.93-6.47,0,39,0Z"/><path class="cls-2" d="M27.91,18.39c.58,6-6.86,12.63-13.42,7.93-9.07-6.49,3-17.84,10.27-13,.2.13.4.28.6.44A6.68,6.68,0,0,1,27.91,18.39Z"/><path class="cls-2" d="M25.29,54.8c-.25.62-.45,1.13-.74,1.89-.11.29-.17.34-.48.34h-.66c-.31,0-.37-.05-.47-.35-.25-.77-.42-1.25-.63-1.89l-1.5-4.32-.71-1.94a.55.55,0,0,1-.05-.21c0-.11.09-.13.28-.13h1.6c.32,0,.38.05.46.35.24.83.37,1.26.53,1.76l.87,2.77c.05.13.09.19.12.19s.07-.06.12-.18l1.08-2.66c.23-.56.41-1,.73-1.89.11-.29.17-.34.48-.34h.48c.32,0,.38.05.48.34.32.85.51,1.34.74,1.9l1.05,2.63c.05.12.08.18.12.18s.07-.06.12-.19l.88-2.75c.15-.5.28-.93.52-1.76.09-.3.15-.35.46-.35h1.5c.19,0,.27,0,.27.13a.73.73,0,0,1,0,.21c-.34.91-.52,1.39-.71,1.94l-1.5,4.32c-.22.63-.4,1.15-.64,1.89-.09.3-.15.35-.46.35h-.68c-.31,0-.37-.05-.48-.34-.28-.76-.49-1.28-.73-1.88l-1.06-2.63c-.05-.13-.09-.19-.14-.19s-.08.06-.13.19Z"/><path class="cls-2" d="M39.86,53.6a3.28,3.28,0,0,1-3.53,3.5,3.11,3.11,0,0,1-3.27-3.21,3.29,3.29,0,0,1,3.54-3.53A3.12,3.12,0,0,1,39.86,53.6Zm-4.77.31a1.36,1.36,0,0,0,1.3,1.51,1.46,1.46,0,0,0,1.44-1.65,1.39,1.39,0,0,0-1.33-1.54C35.58,52.23,35.09,52.94,35.09,53.91Z"/><path class="cls-2" d="M43.1,55c0,.49,0,1.66,0,1.74,0,.25-.08.3-.35.3H41.45c-.28,0-.35-.05-.35-.3,0-.08,0-1.25,0-1.74V52.47c0-.49,0-1.65,0-1.74,0-.25.07-.3.35-.3h1c.31,0,.36,0,.4.36v.15c0,.15,0,.24.11.24a.43.43,0,0,0,.19-.12,2.73,2.73,0,0,1,1.66-.69c.2,0,.24.09.24.34v1.44c0,.13,0,.29-.16.29l-.33,0a2.17,2.17,0,0,0-1.22.41.55.55,0,0,0-.29.54Z"/><path class="cls-2" d="M48.26,54.91a.4.4,0,0,0-.12.32c0,.37,0,1.42,0,1.5,0,.25-.08.3-.35.3H46.55c-.28,0-.35-.05-.35-.3,0-.08,0-1.25,0-1.74V49.83c0-.49,0-1.65,0-1.74,0-.25.07-.3.35-.3h1.27c.27,0,.35.05.35.3s0,1.26,0,1.74v2.41c0,.14,0,.21.08.21a.27.27,0,0,0,.16-.11l.3-.34q.52-.57,1.14-1.29a.61.61,0,0,1,.59-.28h1.52c.17,0,.25,0,.25.14a.24.24,0,0,1-.08.15c-.58.61-1,1.08-1.45,1.56l-.31.35c-.11.12-.17.2-.17.3a.5.5,0,0,0,.11.27l1,1.73c.28.52.63,1.13,1,1.79a.37.37,0,0,1,.08.2c0,.09-.08.11-.26.11H50.58c-.32,0-.39-.05-.53-.32-.35-.68-.66-1.24-.94-1.73l-.18-.32c-.07-.14-.12-.2-.19-.2s-.12,0-.2.15Z"/><path class="cls-2" d="M58,55.12c0,1.44-1.3,2-2.71,2A4.84,4.84,0,0,1,53,56.63c-.17-.08-.24-.14-.24-.25a.56.56,0,0,1,.07-.24l.4-.85c.07-.17.12-.24.2-.24a.61.61,0,0,1,.24.1,3.2,3.2,0,0,0,1.52.45c.52,0,.77-.15.77-.42s-.4-.45-.92-.62c-.91-.3-2.16-.77-2.16-2.14,0-1.14.9-2.07,2.78-2.07a4.76,4.76,0,0,1,1.85.38c.17.09.25.15.25.25a.87.87,0,0,1-.06.23l-.38,1c-.08.17-.12.25-.21.25a.61.61,0,0,1-.24-.1A2.77,2.77,0,0,0,55.63,52c-.52,0-.73.18-.73.4s.42.45.93.63C56.79,53.38,58,53.83,58,55.12Z"/></g></g></svg>