<svg xmlns="http://www.w3.org/2000/svg" viewBox="0 0 61.43 165.97"><defs><style>.cls-1{fill:#ddd36f;}.cls-2{fill:#fff;}</style></defs><g id="レイヤー_2" data-name="レイヤー 2"><g id="レイヤー_1-2" data-name="レイヤー 1"><path class="cls-1" d="M30.72,0C66.53,0,66.38,41.68,53.65,59.87A29.68,29.68,0,0,1,33.2,72.59l1.19,4.61-4.33.13c-1.16,5.63-.79,11.12.22,17.59,1.62,10.35,1.21,20.07.78,30.36l0,.46A52.41,52.41,0,0,0,32,136a61.47,61.47,0,0,1,1,9.22,51.61,51.61,0,0,1-1.14,9.36c-.69,3.69-1.39,7.5-1,11.25l-1.1.11c-.39-3.9.33-7.8,1-11.56a49.84,49.84,0,0,0,1.11-9.16,59.9,59.9,0,0,0-1-9.05,53.39,53.39,0,0,1-1-10.51l0-.45c.43-10.24.83-19.91-.77-30.15-1-6.5-1.39-12-.26-17.73l-3.47.1,1.89-5A29.87,29.87,0,0,1,7.78,59.87C-4.95,41.68-5.1,0,30.72,0Z"/><path class="cls-2" d="M22,14.48c.46,4.72-5.4,10-10.57,6.25-7.14-5.12,2.39-14,8.09-10.22.15.11.31.22.47.35A5.28,5.28,0,0,1,22,14.48Z"/><path class="cls-2" d="M17.15,32.88a.23.23,0,0,0-.25.18c-.06.17-.13.33-.26.71-.07.21-.12.24-.34.24H15.22c-.13,0-.19,0-.19-.08a.29.29,0,0,1,.05-.15c.31-.71.49-1.09.63-1.43l1.26-3c.16-.39.36-.86.59-1.45.08-.2.12-.23.35-.23h.67c.22,0,.27,0,.35.23.22.59.43,1.07.58,1.42l1.26,2.94c.16.38.33.76.65,1.47a.43.43,0,0,1,0,.15c0,.07-.06.08-.2.08H20.11c-.22,0-.26,0-.34-.24-.13-.38-.2-.54-.26-.71s-.09-.18-.24-.18Zm.38-1.4a.31.31,0,0,0,0,.15c0,.08.06.09.19.09h1c.14,0,.19,0,.19-.09a.31.31,0,0,0,0-.15L18.3,30c0-.07-.06-.1-.09-.1s-.07,0-.1.1Z"/><path class="cls-2" d="M24.68,32.77c-.13.29-.26.61-.42,1-.08.21-.12.24-.35.24h-.38c-.22,0-.27,0-.34-.24-.14-.4-.27-.72-.38-1l-.76-2c-.14-.36-.27-.7-.49-1.22a.82.82,0,0,1,0-.14c0-.08.06-.1.2-.1h1c.22,0,.27,0,.33.25l.4,1.21.28.83c0,.08.06.11.08.11s.07,0,.11-.11l.42-1c.14-.34.26-.62.43-1.07.09-.2.13-.24.35-.24h.32c.22,0,.26,0,.35.24l.43,1.06.44,1c0,.08.07.11.09.11s.06,0,.09-.11l.28-.85c.13-.38.23-.7.39-1.21.06-.21.11-.25.33-.25h1c.14,0,.2,0,.2.1a.33.33,0,0,1,0,.14c-.21.52-.35.86-.49,1.24l-.74,2c-.13.33-.24.63-.38,1-.08.21-.12.24-.34.24h-.39c-.22,0-.26,0-.35-.24-.16-.39-.28-.68-.42-1l-.51-1.18c0-.07-.07-.11-.1-.11s-.07,0-.1.11Z"/><path class="cls-2" d="M32.31,34c-.19,0-.22,0-.23-.22s0-.16-.08-.16l-.11,0a2.29,2.29,0,0,1-1.26.38,1.25,1.25,0,0,1-1.4-1.29c0-1.07,1.15-1.64,2.52-1.77.13,0,.19-.05.19-.11a.42.42,0,0,0-.06-.15c-.11-.19-.29-.28-.63-.28a2.59,2.59,0,0,0-1.22.37.32.32,0,0,1-.16.08c-.06,0-.09-.05-.15-.17l-.27-.67a.45.45,0,0,1,0-.17c0-.08,0-.13.17-.19a4.33,4.33,0,0,1,1.87-.45c1.4,0,1.89.63,1.89,1.93l0,1.64c0,.32,0,.89,0,1s0,.18-.24.18Zm-.48-2h-.17c-.59.11-1.06.32-1.06.62s.17.37.48.37a1.42,1.42,0,0,0,.67-.19.34.34,0,0,0,.21-.37v-.22C32,32.05,32,32,31.83,32Z"/><path class="cls-2" d="M35.6,32.56c0,.35,0,1.18,0,1.24s0,.21-.25.21h-.95c-.19,0-.25,0-.25-.21s0-.89,0-1.24V30.77c0-.35,0-1.18,0-1.24s.06-.22.25-.22h.75c.22,0,.25,0,.28.26v.1c0,.11,0,.17.07.17a.23.23,0,0,0,.14-.08,1.93,1.93,0,0,1,1.19-.49c.13,0,.17.06.17.24v1c0,.09,0,.2-.12.2l-.23,0a1.51,1.51,0,0,0-.87.29.4.4,0,0,0-.21.39Z"/><path class="cls-2" d="M40.91,34c-.19,0-.23,0-.24-.22s0-.15-.07-.15-.06,0-.12.06a2,2,0,0,1-1.14.36,1.89,1.89,0,0,1-1.9-2.15,2.5,2.5,0,0,1,2.62-2.65l.35,0c.14,0,.16-.05.16-.24v-.16c0-.35,0-1.18,0-1.24s0-.22.24-.22h.94c.2,0,.25,0,.25.22s0,.89,0,1.24v3.67c0,.35,0,1.18,0,1.24s-.05.21-.25.21Zm-.81-3.46a1.2,1.2,0,0,0-1.22,1.31c0,.67.38,1,.89,1a1.25,1.25,0,0,0,.6-.16.33.33,0,0,0,.2-.35V30.82c0-.18,0-.23-.22-.26Z"/><path class="cls-2" d="M46.31,32.65c0,1-.93,1.42-1.93,1.42a3.54,3.54,0,0,1-1.58-.34c-.12-.06-.18-.1-.18-.18a.38.38,0,0,1,.06-.17l.28-.61c0-.12.08-.17.14-.17a.38.38,0,0,1,.17.07,2.22,2.22,0,0,0,1.09.33c.37,0,.55-.12.55-.3s-.29-.33-.66-.45c-.65-.21-1.54-.54-1.54-1.52,0-.81.64-1.48,2-1.48a3.17,3.17,0,0,1,1.32.28c.12.06.18.1.18.18a.73.73,0,0,1,0,.16l-.28.71c0,.12-.08.18-.14.18a.38.38,0,0,1-.17-.07,1.92,1.92,0,0,0-.92-.25c-.37,0-.52.13-.52.29s.3.32.67.45C45.47,31.42,46.31,31.73,46.31,32.65Z"/><path class="cls-2" d="M9.27,50.86H10.6c.18,0,.21,0,.21.24v.85c0,.2,0,.25-.21.25l-1.33,0H8.4l-1.2,0C7,52.19,7,52.13,7,52s0-1,0-1.46V47.56c0-.46,0-1.41,0-1.47s.06-.23.24-.23h3.21c.18,0,.21,0,.21.24V47c0,.2,0,.25-.21.25l-1.33,0H8.67c-.22,0-.26,0-.26.26V48c0,.2,0,.23.23.23h1.57c.18,0,.22,0,.22.24v.81c0,.2,0,.25-.22.25H8.64c-.2,0-.23,0-.23.23v.88c0,.21,0,.25.26.25Z"/><path class="cls-2" d="M13.22,51.31c-.1.16-.22.35-.39.64a.35.35,0,0,1-.39.22h-1c-.13,0-.19,0-.19-.08A.22.22,0,0,1,11.3,52l.85-1.23.51-.75a.46.46,0,0,0,.09-.22.4.4,0,0,0-.09-.21l-.41-.61c-.24-.36-.49-.71-.87-1.25a.28.28,0,0,1-.06-.13c0-.06.06-.08.19-.08h1.15a.36.36,0,0,1,.4.22c.18.3.33.52.42.66l.12.16c.06.09.1.13.14.13s.09,0,.14-.13l.1-.16.4-.66c.11-.19.16-.22.39-.22h1c.13,0,.19,0,.19.08a.3.3,0,0,1-.06.14c-.36.52-.61.87-.84,1.23l-.46.69a.37.37,0,0,0-.09.21.4.4,0,0,0,.09.21l.46.69L15.93,52a.3.3,0,0,1,.06.14c0,.06-.06.08-.19.08H14.66a.37.37,0,0,1-.4-.21c-.19-.31-.32-.51-.42-.65L13.66,51c-.06-.08-.1-.13-.14-.13s-.08,0-.14.13Z"/><path class="cls-2" d="M18.05,52.2c-.11,0-.14.06-.14.22,0,.36,0,1.19,0,1.25s-.05.21-.25.21h-.94c-.2,0-.25,0-.25-.21s0-.89,0-1.24V48.92c0-.35,0-1.18,0-1.24s.05-.21.25-.21h.84c.19,0,.23,0,.24.22s0,.16.06.16a.22.22,0,0,0,.12-.06,1.94,1.94,0,0,1,1.14-.37,1.9,1.9,0,0,1,1.91,2.15,2.5,2.5,0,0,1-2.63,2.65,1.32,1.32,0,0,1-.27,0Zm1.55-2.43c0-.67-.37-1-.89-1a1.18,1.18,0,0,0-.59.16.33.33,0,0,0-.21.35v1.54c0,.18,0,.23.22.26h.25A1.2,1.2,0,0,0,19.6,49.77Z"/><path class="cls-2" d="M25.71,51.54a.38.38,0,0,1,.06.17c0,.07-.05.11-.17.17a3.8,3.8,0,0,1-1.61.34,2.15,2.15,0,0,1-2.43-2.29,2.33,2.33,0,0,1,2.38-2.51c1.18,0,1.93.71,1.93,2.23,0,.58-.09.65-.35.65H23.17c-.14,0-.2,0-.2.09a.48.48,0,0,0,0,.15,1,1,0,0,0,1.06.51,2.47,2.47,0,0,0,1-.21.46.46,0,0,1,.18-.06c.07,0,.1,0,.16.18Zm-1.15-2.33a.34.34,0,0,0,0-.13.6.6,0,0,0-.67-.47.85.85,0,0,0-.81.48.47.47,0,0,0,0,.16c0,.06.06.08.2.08h1.14C24.5,49.33,24.56,49.31,24.56,49.21Z"/><path class="cls-2" d="M28,50.72c0,.35,0,1.18,0,1.24s-.05.21-.25.21h-.94c-.2,0-.25,0-.25-.21s0-.89,0-1.24v-1.8c0-.35,0-1.18,0-1.24s.05-.21.25-.21h.74c.22,0,.26,0,.28.26v.1c0,.11,0,.17.08.17a.33.33,0,0,0,.13-.08,1.9,1.9,0,0,1,1.19-.49c.14,0,.17.06.17.24v1c0,.1,0,.21-.12.21l-.23,0a1.51,1.51,0,0,0-.87.29.41.41,0,0,0-.21.39Z"/><path class="cls-2" d="M31.6,46.21a.85.85,0,0,1-.88.92.77.77,0,0,1-.8-.78.84.84,0,0,1,.88-.9A.76.76,0,0,1,31.6,46.21Zm-1.31,6c-.2,0-.25,0-.25-.21s0-.89,0-1.24v-1.8c0-.35,0-1.18,0-1.24s.05-.21.25-.21h.94c.2,0,.25,0,.25.21s0,.89,0,1.24v1.8c0,.35,0,1.18,0,1.24s-.05.21-.25.21Z"/><path class="cls-2" d="M36.37,51.54a.58.58,0,0,1,.06.17c0,.07-.06.11-.17.17a3.85,3.85,0,0,1-1.62.34,2.16,2.16,0,0,1-2.43-2.29,2.34,2.34,0,0,1,2.38-2.51c1.19,0,1.93.71,1.93,2.23,0,.58-.08.65-.34.65H33.82c-.14,0-.2,0-.2.09a.33.33,0,0,0,.05.15,1,1,0,0,0,1.06.51,2.46,2.46,0,0,0,1-.21.46.46,0,0,1,.18-.06c.07,0,.11,0,.16.18Zm-1.16-2.33a.66.66,0,0,0,0-.13.61.61,0,0,0-.68-.47.83.83,0,0,0-.8.48.32.32,0,0,0,0,.16c0,.06.06.08.19.08H35C35.15,49.33,35.21,49.31,35.21,49.21Z"/><path class="cls-2" d="M38.63,50.72c0,.35,0,1.18,0,1.24s0,.21-.25.21h-.94c-.2,0-.25,0-.25-.21s0-.89,0-1.24v-1.8c0-.35,0-1.18,0-1.24s0-.21.25-.21h.84c.19,0,.23,0,.24.22s0,.17.07.17,0,0,.11-.07a2.13,2.13,0,0,1,1.19-.37,1.51,1.51,0,0,1,1.6,1.67v1.63c0,.35,0,1.18,0,1.24s-.05.21-.25.21h-.94c-.2,0-.25,0-.25-.21s0-.89,0-1.24V49.44a.63.63,0,0,0-.69-.68,1,1,0,0,0-.58.16.35.35,0,0,0-.21.37Z"/><path class="cls-2" d="M45.87,51.8c0,.08-.06.12-.19.18a3,3,0,0,1-1.2.24A2.1,2.1,0,0,1,42.18,50a2.41,2.41,0,0,1,2.58-2.58,3.28,3.28,0,0,1,1,.17c.12,0,.19.09.19.18a.37.37,0,0,1,0,.15l-.3.8c0,.13-.08.19-.14.19a.32.32,0,0,1-.17,0,1.24,1.24,0,0,0-.48-.09,1.14,1.14,0,0,0-1.2,1.2,1,1,0,0,0,1.06,1,1.4,1.4,0,0,0,.58-.11.37.37,0,0,1,.17,0c.07,0,.1.06.16.19l.24.61A.73.73,0,0,1,45.87,51.8Z"/><path class="cls-2" d="M50.53,51.54a.38.38,0,0,1,.06.17c0,.07-.05.11-.17.17a3.8,3.8,0,0,1-1.61.34,2.15,2.15,0,0,1-2.43-2.29,2.33,2.33,0,0,1,2.38-2.51c1.18,0,1.93.71,1.93,2.23,0,.58-.09.65-.34.65H48c-.14,0-.2,0-.2.09a.48.48,0,0,0,0,.15,1,1,0,0,0,1.06.51,2.47,2.47,0,0,0,1-.21.46.46,0,0,1,.18-.06c.07,0,.1,0,.16.18Zm-1.15-2.33a.34.34,0,0,0,0-.13.6.6,0,0,0-.67-.47.85.85,0,0,0-.81.48.47.47,0,0,0-.05.16c0,.06.06.08.2.08h1.14C49.32,49.33,49.38,49.31,49.38,49.21Z"/><path class="cls-2" d="M54.79,50.81c0,1-.92,1.42-1.93,1.42a3.54,3.54,0,0,1-1.58-.34c-.12-.06-.17-.1-.17-.18a.35.35,0,0,1,0-.17l.28-.61c.05-.12.08-.17.14-.17a.38.38,0,0,1,.17.07,2.31,2.31,0,0,0,1.09.32c.37,0,.55-.11.55-.3s-.28-.32-.66-.44c-.65-.21-1.54-.55-1.54-1.52,0-.81.64-1.48,2-1.48a3.34,3.34,0,0,1,1.32.27c.12.06.18.11.18.18a.68.68,0,0,1,0,.17l-.28.71c-.05.11-.08.17-.14.17a.35.35,0,0,1-.17-.06,1.92,1.92,0,0,0-.92-.25c-.37,0-.52.13-.52.29s.3.32.67.44C54,49.57,54.79,49.89,54.79,50.81Z"/><path class="cls-2" d="M31.56,42.29l-.1-.11,0,0s-.06,0-.08,0l-.08,0a2.46,2.46,0,0,1-1.25.31c-.93,0-1.29-.5-1.29-1a1.28,1.28,0,0,1,.7-1.07c.07,0,.1-.07.1-.1a.28.28,0,0,0-.05-.12,1.32,1.32,0,0,1-.22-.71,1,1,0,0,1,1.14-1,.92.92,0,0,1,1.05.92,1.19,1.19,0,0,1-.55,1c-.05.05-.08.08-.08.11s0,.06.07.11l.34.34c.05,0,.08.06.11.06s0,0,.08-.09a2.82,2.82,0,0,0,.24-.83c0-.14,0-.16.18-.16h.55c.1,0,.14,0,.14.09a2.53,2.53,0,0,1-.09.45A3.34,3.34,0,0,1,32,41.46a.17.17,0,0,0-.05.11s0,0,.06.09l.65.64a.21.21,0,0,1,.06.08s0,0-.1,0h-.78A.29.29,0,0,1,31.56,42.29Zm-1.5-1.46a.17.17,0,0,0-.11.06.63.63,0,0,0-.31.47c0,.2.18.35.49.35a1.66,1.66,0,0,0,.54-.1c.07,0,.1,0,.1-.08s0-.05-.06-.1l-.53-.53C30.13,40.86,30.1,40.83,30.06,40.83Zm.32-1.68a.27.27,0,0,0-.3.27.75.75,0,0,0,.13.37c0,.06.07.09.11.09s.06,0,.11-.07a.5.5,0,0,0,.22-.4A.25.25,0,0,0,30.38,39.15Z"/></g></g></svg>