<svg xmlns="http://www.w3.org/2000/svg" viewBox="0 0 61.27 165.55"><defs><style>.cls-1{fill:#9bd1cf;}.cls-2{fill:#fff;}</style></defs><g id="レイヤー_2" data-name="レイヤー 2"><g id="レイヤー_1-2" data-name="レイヤー 1"><path class="cls-1" d="M30.64,0C66.36,0,66.21,41.58,53.51,59.72a29.59,29.59,0,0,1-20.4,12.69L34.3,77,30,77.13c-1.16,5.62-.79,11.09.22,17.55,1.61,10.32,1.2,20,.77,30.29l0,.45a52.11,52.11,0,0,0,.95,10.26,59.92,59.92,0,0,1,1,9.2,50.2,50.2,0,0,1-1.13,9.33c-.68,3.69-1.39,7.49-1,11.23l-1.1.11c-.39-3.89.33-7.78,1-11.54a49.41,49.41,0,0,0,1.11-9.13,59.78,59.78,0,0,0-1-9,53.85,53.85,0,0,1-1-10.48l0-.45c.43-10.21.83-19.85-.76-30.07-1-6.49-1.4-12-.27-17.69l-3.46.11,1.89-5A29.82,29.82,0,0,1,7.76,59.72C-4.94,41.58-5.08,0,30.64,0Z"/><path class="cls-2" d="M21.92,14.44c.46,4.71-5.38,9.93-10.54,6.24-7.12-5.1,2.39-14,8.07-10.19.15.1.31.22.47.35A5.17,5.17,0,0,1,21.92,14.44Z"/><path class="cls-2" d="M21.57,43.76c0,1.68-1.2,2.67-3.3,2.67a6.16,6.16,0,0,1-2.75-.65c-.16-.1-.23-.16-.23-.26a.6.6,0,0,1,.07-.24l.53-1.14c.07-.16.11-.24.19-.24a.62.62,0,0,1,.23.12,3.74,3.74,0,0,0,2.09.66c.71,0,1.14-.27,1.14-.72s-.72-.82-1.68-1.19-2.4-1.07-2.4-2.6,1.31-2.6,3.33-2.6a5.69,5.69,0,0,1,2.35.51c.16.08.24.14.24.24a.65.65,0,0,1-.06.23l-.48,1.25c-.07.16-.12.25-.2.25s-.12,0-.22-.11a3.75,3.75,0,0,0-1.82-.51c-.81,0-1.11.31-1.11.66s.63.72,1.36,1C20.11,41.59,21.57,42.2,21.57,43.76Z"/><path class="cls-2" d="M24.77,44.26a.39.39,0,0,0-.12.31c0,.37,0,1.4,0,1.48,0,.25-.07.29-.35.29H23.08c-.27,0-.34,0-.34-.29,0-.08,0-1.23,0-1.71V39.27c0-.49,0-1.63,0-1.71,0-.25.07-.3.34-.3h1.25c.28,0,.35.05.35.3s0,1.23,0,1.71v2.37c0,.13,0,.2.09.2a.29.29,0,0,0,.15-.11l.29-.33c.35-.38.72-.8,1.13-1.27a.57.57,0,0,1,.57-.27h1.5c.17,0,.25,0,.25.13a.24.24,0,0,1-.08.15l-1.43,1.53-.31.34a.52.52,0,0,0-.16.3.56.56,0,0,0,.1.27l.95,1.7c.28.51.62,1.11,1,1.76a.37.37,0,0,1,.08.2c0,.08-.08.1-.26.1H27.05c-.31,0-.38,0-.52-.31-.34-.67-.65-1.22-.92-1.7L25.43,44c-.07-.13-.12-.19-.19-.19s-.11,0-.2.14Z"/><path class="cls-2" d="M31.79,38.11a1.17,1.17,0,0,1-1.21,1.27,1,1,0,0,1-1.1-1.07,1.17,1.17,0,0,1,1.22-1.24A1,1,0,0,1,31.79,38.11ZM30,46.34c-.27,0-.34,0-.34-.29,0-.08,0-1.23,0-1.71V41.86c0-.48,0-1.63,0-1.71,0-.25.07-.29.34-.29h1.3c.27,0,.34,0,.34.29,0,.08,0,1.23,0,1.71v2.48c0,.48,0,1.63,0,1.71,0,.25-.07.29-.34.29Z"/><path class="cls-2" d="M35.66,46.37H35.1c-1.52,0-2-.65-2-2.11v-5c0-.49,0-1.63,0-1.71,0-.25.07-.3.34-.3h1.29c.27,0,.34.05.34.3,0,.08,0,1.22,0,1.71v4.8c0,.45.11.65.52.65l.29,0c.13,0,.18,0,.18.22V46C36,46.28,36,46.34,35.66,46.37Z"/><path class="cls-2" d="M39.7,46.37h-.57c-1.52,0-2-.65-2-2.11v-5c0-.49,0-1.63,0-1.71,0-.25.07-.3.34-.3h1.28c.28,0,.35.05.35.3,0,.08,0,1.22,0,1.71v4.8c0,.45.12.65.52.65l.3,0c.13,0,.17,0,.17.22V46C40.05,46.28,40,46.34,39.7,46.37Z"/><path class="cls-2" d="M45.93,44.47c0,1.41-1.27,2-2.67,2A4.83,4.83,0,0,1,41.08,46c-.16-.08-.23-.14-.23-.24a.56.56,0,0,1,.07-.24l.39-.84c.07-.16.11-.23.2-.23a.48.48,0,0,1,.23.09,3.09,3.09,0,0,0,1.5.45c.51,0,.76-.15.76-.41s-.39-.45-.91-.62c-.9-.29-2.13-.75-2.13-2.1,0-1.12.89-2,2.74-2a4.64,4.64,0,0,1,1.82.38c.16.08.24.14.24.25a.74.74,0,0,1,0,.22l-.38,1c-.07.17-.12.25-.2.25a.73.73,0,0,1-.24-.09,2.67,2.67,0,0,0-1.26-.35c-.51,0-.72.18-.72.4s.41.44.92.62C44.77,42.76,45.93,43.19,45.93,44.47Z"/></g></g></svg>