<svg xmlns="http://www.w3.org/2000/svg" viewBox="0 0 73.58 198.8"><defs><style>.cls-1{fill:#9bd1cf;}.cls-2{fill:#fff;}</style></defs><g id="レイヤー_2" data-name="レイヤー 2"><g id="レイヤー_1-2" data-name="レイヤー 1"><path class="cls-1" d="M36.79,0c42.9,0,42.72,49.93,27.47,71.72C57.8,81,48.29,86,39.76,87l1.43,5.52L36,92.62c-1.39,6.75-.94,13.32.26,21.08,1.94,12.4,1.45,24,.94,36.37l0,.54a63.16,63.16,0,0,0,1.14,12.33,72.38,72.38,0,0,1,1.18,11,61,61,0,0,1-1.36,11.21c-.82,4.42-1.67,9-1.22,13.48l-1.31.13c-.47-4.67.39-9.34,1.23-13.85a59.91,59.91,0,0,0,1.34-11A72,72,0,0,0,37,163.14a63.61,63.61,0,0,1-1.16-12.58l0-.55c.51-12.26,1-23.84-.92-36.11-1.22-7.79-1.68-14.42-.32-21.24l-4.15.13,2.26-6A35.79,35.79,0,0,1,9.32,71.71C-5.93,49.93-6.1,0,36.79,0Z"/><path class="cls-2" d="M26.33,17.35c.54,5.64-6.47,11.91-12.66,7.48C5.12,18.7,16.53,8,23.35,12.59l.57.42A6.32,6.32,0,0,1,26.33,17.35Z"/><path class="cls-2" d="M19,53.2c0,.11-.08.16-.24.24a5.21,5.21,0,0,1-2.12.42,3.8,3.8,0,0,1-4.06-4,4.15,4.15,0,0,1,4.44-4.47,5.15,5.15,0,0,1,1.88.36c.17.08.25.14.25.24a.82.82,0,0,1-.06.22l-.45,1.24c-.07.17-.11.24-.18.24a.45.45,0,0,1-.23-.08,2.69,2.69,0,0,0-1.21-.28,2.31,2.31,0,0,0-2.45,2.49,2.13,2.13,0,0,0,2.29,2.25,2.89,2.89,0,0,0,1.27-.27.45.45,0,0,1,.22-.08c.08,0,.13.07.2.24L19,53A.57.57,0,0,1,19,53.2Z"/><path class="cls-2" d="M26.34,50.56A3.09,3.09,0,0,1,23,53.86a2.93,2.93,0,0,1-3.09-3,3.11,3.11,0,0,1,3.34-3.33A2.94,2.94,0,0,1,26.34,50.56Zm-4.5.29a1.29,1.29,0,0,0,1.23,1.43,1.39,1.39,0,0,0,1.36-1.57,1.31,1.31,0,0,0-1.26-1.45C22.3,49.26,21.84,49.93,21.84,50.85Z"/><path class="cls-2" d="M29.38,51.87c0,.46,0,1.56,0,1.64,0,.24-.07.28-.33.28H27.83c-.26,0-.32,0-.32-.28,0-.08,0-1.18,0-1.64V49.49c0-.46,0-1.56,0-1.64,0-.24.06-.28.32-.28h1.11c.25,0,.31,0,.32.29s0,.22.09.22a.44.44,0,0,0,.16-.08,2.72,2.72,0,0,1,1.57-.5,2,2,0,0,1,2.12,2.21v2.16c0,.46,0,1.56,0,1.64,0,.24-.06.28-.33.28H31.65c-.26,0-.33,0-.33-.28,0-.08,0-1.18,0-1.64v-1.7a.82.82,0,0,0-.91-.89,1.38,1.38,0,0,0-.77.21.47.47,0,0,0-.28.49Z"/><path class="cls-2" d="M38.24,53.37c0,.28-.06.34-.33.4a4.26,4.26,0,0,1-.89.09c-1.55,0-2-.79-2-2V49.55c0-.29-.11-.34-.41-.34h-.19c-.27,0-.31-.06-.31-.33v-1c0-.25,0-.33.25-.33h.41c.16,0,.25-.07.25-.27v-.18c0-.32,0-.71,0-.85S35,46,35.3,46h1.18c.25,0,.33,0,.33.25s0,.73,0,1,0,.34.33.34h.78c.29,0,.34,0,.34.34v1c0,.26,0,.34-.25.34h-.86c-.29,0-.34,0-.34.34v2c0,.47.19.64.7.64a2.1,2.1,0,0,0,.43-.05l.18,0c.11,0,.14.08.14.28Z"/><path class="cls-2" d="M43.21,53.79c-.25,0-.3,0-.31-.29s0-.22-.1-.22a.4.4,0,0,0-.16.07,3,3,0,0,1-1.67.51,1.66,1.66,0,0,1-1.85-1.72c0-1.42,1.53-2.16,3.34-2.34.17,0,.25-.06.25-.15a.55.55,0,0,0-.08-.19.84.84,0,0,0-.83-.38,3.45,3.45,0,0,0-1.62.5.45.45,0,0,1-.21.1c-.08,0-.13-.06-.2-.22l-.36-.9a.55.55,0,0,1,0-.21c0-.12,0-.17.22-.26a5.84,5.84,0,0,1,2.48-.59c1.86,0,2.5.84,2.5,2.56l0,2.16c0,.43,0,1.19,0,1.34s-.07.23-.31.23Zm-.65-2.67-.22,0c-.79.14-1.4.42-1.4.82s.23.49.64.49a1.84,1.84,0,0,0,.88-.25.46.46,0,0,0,.28-.49v-.29C42.75,51.19,42.72,51.12,42.56,51.12Z"/><path class="cls-2" d="M50.53,53.31c0,.1-.08.16-.25.23a4,4,0,0,1-1.59.32,2.78,2.78,0,0,1-3-2.94,3.19,3.19,0,0,1,3.42-3.42,4.35,4.35,0,0,1,1.32.22c.17.07.25.13.25.24a.58.58,0,0,1,0,.2l-.4,1.06c-.07.18-.1.26-.19.26a.53.53,0,0,1-.23-.07,1.61,1.61,0,0,0-.63-.12,1.5,1.5,0,0,0-1.59,1.59A1.32,1.32,0,0,0,49,52.24a1.9,1.9,0,0,0,.76-.14A.56.56,0,0,1,50,52c.09,0,.14.08.21.26l.31.8A.56.56,0,0,1,50.53,53.31Z"/><path class="cls-2" d="M55.36,53.37c0,.28-.06.34-.33.4a4.17,4.17,0,0,1-.88.09c-1.55,0-2-.79-2-2V49.55c0-.29-.1-.34-.41-.34h-.19c-.27,0-.3-.06-.3-.33v-1c0-.25,0-.33.25-.33h.4c.16,0,.25-.07.25-.27v-.18c0-.32,0-.71,0-.85s.08-.29.34-.29h1.18c.25,0,.32,0,.32.25s0,.73,0,1,.05.34.33.34H55c.3,0,.34,0,.34.34v1c0,.26,0,.34-.25.34h-.86c-.28,0-.34,0-.34.34v2c0,.47.19.64.7.64a2,2,0,0,0,.43-.05l.19,0c.11,0,.13.08.13.28Z"/><path class="cls-2" d="M61.13,52c0,1.36-1.22,1.88-2.55,1.88a4.77,4.77,0,0,1-2.1-.45c-.16-.08-.23-.14-.23-.24a.67.67,0,0,1,.07-.22l.38-.81c.06-.16.11-.22.19-.22a.52.52,0,0,1,.23.09,2.92,2.92,0,0,0,1.43.43c.49,0,.73-.15.73-.4s-.38-.43-.87-.59c-.86-.28-2-.72-2-2,0-1.08.85-2,2.62-2a4.3,4.3,0,0,1,1.75.36c.16.08.24.14.24.24a.87.87,0,0,1-.06.21l-.36.94c-.07.16-.12.24-.2.24a.5.5,0,0,1-.22-.09,2.64,2.64,0,0,0-1.21-.33c-.49,0-.69.17-.69.39s.39.41.88.58C60,50.35,61.13,50.77,61.13,52Z"/></g></g></svg>