<svg xmlns="http://www.w3.org/2000/svg" viewBox="0 0 71.86 194.14"><defs><style>.cls-1{fill:#b5a081;}.cls-2{fill:#fff;}</style></defs><g id="レイヤー_2" data-name="レイヤー 2"><g id="レイヤー_1-2" data-name="レイヤー 1"><path class="cls-1" d="M35.93,0C77.82,0,77.65,48.76,62.76,70c-6.31,9-15.6,13.93-23.93,14.87l1.39,5.39-5,.15c-1.36,6.6-.93,13,.25,20.58,1.89,12.11,1.42,23.48.91,35.52l0,.54a61.63,61.63,0,0,0,1.11,12,70.38,70.38,0,0,1,1.15,10.78,58.12,58.12,0,0,1-1.33,10.95c-.8,4.32-1.62,8.78-1.18,13.16l-1.28.13c-.46-4.56.38-9.12,1.2-13.52a58.92,58.92,0,0,0,1.31-10.71,71.14,71.14,0,0,0-1.14-10.59A62.25,62.25,0,0,1,35,147l0-.53c.5-12,1-23.29-.9-35.27-1.19-7.61-1.64-14.08-.31-20.74l-4.06.12L32,84.78A35,35,0,0,1,9.1,70C-5.79,48.76-6,0,35.93,0Z"/><path class="cls-2" d="M25.71,16.94c.53,5.51-6.32,11.64-12.36,7.31C5,18.27,16.14,7.81,22.81,12.3a6.52,6.52,0,0,1,.55.41A6.11,6.11,0,0,1,25.71,16.94Z"/><path class="cls-2" d="M20.34,44.54a.32.32,0,0,0-.35.25c-.08.23-.18.46-.36,1-.11.29-.17.33-.48.33H17.64c-.19,0-.27,0-.27-.12a.52.52,0,0,1,.07-.2l.89-2,1.76-4.13c.23-.55.51-1.21.83-2,.12-.29.18-.34.49-.34h.95c.31,0,.37,0,.49.34.31.82.6,1.5.81,2l1.77,4.13c.22.52.46,1.06.91,2.06a.79.79,0,0,1,.07.2c0,.1-.08.12-.28.12H24.5c-.31,0-.37,0-.48-.33-.18-.54-.27-.77-.36-1s-.13-.25-.35-.25Zm.54-2a.52.52,0,0,0-.05.21c0,.11.09.13.28.13h1.44c.19,0,.27,0,.27-.13a.68.68,0,0,0,0-.21l-.82-2c0-.09-.08-.14-.13-.14s-.1,0-.13.14Z"/><path class="cls-2" d="M31.07,39.46c1.65,0,2.67,1.18,2.67,3A3.51,3.51,0,0,1,30,46.2a6.92,6.92,0,0,1-2.27-.32c-.28-.08-.35-.19-.35-.44s0-1.22,0-1.72V38.93c0-.49,0-1.66,0-1.74,0-.25.07-.3.35-.3H29c.27,0,.34,0,.34.3,0,.08,0,1.25,0,1.74v.76c0,.17,0,.26.1.26a.5.5,0,0,0,.2-.09A2.74,2.74,0,0,1,31.07,39.46Zm.64,3.29c0-.93-.52-1.41-1.24-1.41a1.63,1.63,0,0,0-.84.23.45.45,0,0,0-.29.49v2.16c0,.25.06.32.31.36H30A1.68,1.68,0,0,0,31.71,42.75Z"/><path class="cls-2" d="M41.51,42.69A3.28,3.28,0,0,1,38,46.2,3.11,3.11,0,0,1,34.71,43a3.29,3.29,0,0,1,3.53-3.52A3.11,3.11,0,0,1,41.51,42.69ZM36.73,43A1.36,1.36,0,0,0,38,44.52a1.47,1.47,0,0,0,1.44-1.66,1.38,1.38,0,0,0-1.33-1.53C37.22,41.33,36.73,42,36.73,43Z"/><path class="cls-2" d="M47.19,46.12c-.26,0-.32,0-.33-.32s0-.22-.1-.22a.45.45,0,0,0-.17.09,2.9,2.9,0,0,1-1.66.53,2.13,2.13,0,0,1-2.25-2.34V41.57c0-.5,0-1.66,0-1.74,0-.25.07-.3.35-.3h1.32c.27,0,.35,0,.35.3,0,.08,0,1.24,0,1.74v1.94a.88.88,0,0,0,1,1,1.48,1.48,0,0,0,.82-.23.5.5,0,0,0,.29-.52V41.57c0-.5,0-1.66,0-1.74,0-.25.07-.3.35-.3h1.32c.28,0,.35,0,.35.3,0,.08,0,1.24,0,1.74v2.51c0,.5,0,1.66,0,1.74,0,.26-.07.3-.35.3Z"/><path class="cls-2" d="M54.12,45.68c0,.29-.06.36-.35.42a4.73,4.73,0,0,1-.93.1c-1.65,0-2.16-.84-2.16-2.12V41.63c0-.3-.11-.36-.43-.36H50c-.29,0-.32-.06-.32-.35v-1c0-.27,0-.35.26-.35h.43c.17,0,.27-.07.27-.29v-.19c0-.33,0-.74,0-.9s.09-.3.36-.3h1.25c.26,0,.35.05.35.27s0,.76,0,1,.05.36.35.36h.83c.31,0,.36.05.36.36v1c0,.27,0,.36-.26.36h-.92c-.3,0-.36.06-.36.36v2.14c0,.49.21.67.75.67a3.42,3.42,0,0,0,.45,0,.63.63,0,0,1,.19,0c.12,0,.15.08.15.3Z"/><path class="cls-2" d="M29.72,58.76c0,.66,0,1.72,0,2s-.06.36-.36.36H28c-.27,0-.34,0-.34-.3,0-.08.07-1.58.08-2.22l.07-3.81c0-.66,0-1.88,0-2.15s.06-.36.36-.36H29a.61.61,0,0,1,.59.28c.42.53.84,1,1.25,1.51l1.39,1.62c.1.11.17.17.23.17s.14-.06.24-.17L34,54.13c.41-.48.87-1,1.31-1.57a.59.59,0,0,1,.58-.28h.8c.3,0,.36.06.36.36,0,.54,0,1.22,0,2.15l.07,3.81c0,.62.08,2.1.08,2.22s-.07.3-.35.3H35.47c-.3,0-.35-.06-.35-.36s0-1.52,0-2l0-2.48c0-.12,0-.22-.09-.22s-.08,0-.16.12L32.67,58.6a.33.33,0,0,1-.57,0L30,56.25c-.09-.09-.13-.13-.18-.13s-.07.1-.07.22Z"/><path class="cls-2" d="M44.2,60.24a.56.56,0,0,1,.08.24c0,.09-.07.15-.24.24a5.44,5.44,0,0,1-2.26.48c-2.45,0-3.41-1.48-3.41-3.22a3.28,3.28,0,0,1,3.34-3.52c1.66,0,2.71,1,2.71,3.13,0,.81-.12.91-.48.91H40.63c-.2,0-.28,0-.28.13a.45.45,0,0,0,.06.2,1.47,1.47,0,0,0,1.49.72,3.33,3.33,0,0,0,1.42-.3.73.73,0,0,1,.26-.08c.09,0,.14.07.22.25ZM42.58,57a.69.69,0,0,0,0-.18.86.86,0,0,0-1-.66,1.18,1.18,0,0,0-1.13.69.43.43,0,0,0-.07.21c0,.09.08.12.28.12h1.59C42.5,57.14,42.58,57.11,42.58,57Z"/></g></g></svg>