<svg xmlns="http://www.w3.org/2000/svg" viewBox="0 0 491.95 473.03"><defs><style>.cls-1{fill:#cdbb9d;}.cls-2{fill:#dbccb4;}.cls-3{fill:#fff68c;}.cls-4{fill:#baa485;}.cls-5{fill:#f7cbd8;}.cls-6{fill:#f2a9ba;}.cls-7{fill:#f7d7c4;}.cls-8{fill:#ef96bd;}.cls-9{fill:#f3b2c1;}.cls-10{fill:#fff;}.cls-11{fill:#f6c8dd;}.cls-12{fill:#f1a3bd;}.cls-13{fill:#fbf9d6;}.cls-14{fill:#706873;}.cls-15{fill:#fff695;}.cls-16{fill:#8897cb;}.cls-17{fill:#7db9e5;}.cls-18{fill:#8daad8;}.cls-19{fill:#b5e0f8;}.cls-20{fill:#f6c3cb;}.cls-21{fill:#f7c07e;}.cls-22{fill:#fcdc8e;}.cls-23{fill:#f8c571;}.cls-24{fill:#fff198;}.cls-25{fill:#c5e5e8;}.cls-26{fill:#cde7ee;}</style></defs><g id="レイヤー_2" data-name="レイヤー 2"><g id="レイヤー_1-2" data-name="レイヤー 1"><rect class="cls-1" x="230.56" y="137.2" width="36.48" height="303"/><rect class="cls-2" x="90.49" y="158.93" width="9.44" height="278.02"/><rect class="cls-2" x="397.95" y="158.93" width="9.44" height="278.02"/><rect class="cls-2" x="247.61" y="158.93" width="9.44" height="278.02"/><path class="cls-3" d="M40.15,173.22A16.19,16.19,0,1,0,56.33,189.4,16.19,16.19,0,0,0,40.15,173.22Z"/><path class="cls-3" d="M72.52,173.22A16.19,16.19,0,1,0,88.7,189.4,16.19,16.19,0,0,0,72.52,173.22Z"/><path class="cls-3" d="M104.88,173.22a16.19,16.19,0,1,0,16.18,16.18A16.18,16.18,0,0,0,104.88,173.22Z"/><path class="cls-3" d="M137.25,173.22a16.19,16.19,0,1,0,16.18,16.18A16.19,16.19,0,0,0,137.25,173.22Z"/><path class="cls-3" d="M169.61,173.22a16.19,16.19,0,1,0,16.18,16.18A16.18,16.18,0,0,0,169.61,173.22Z"/><path class="cls-3" d="M202,173.22a16.19,16.19,0,1,0,16.18,16.18A16.19,16.19,0,0,0,202,173.22Z"/><path class="cls-3" d="M234.34,173.22a16.19,16.19,0,1,0,16.18,16.18A16.19,16.19,0,0,0,234.34,173.22Z"/><path class="cls-3" d="M266.7,173.22a16.19,16.19,0,1,0,16.18,16.18A16.18,16.18,0,0,0,266.7,173.22Z"/><path class="cls-3" d="M299.06,173.22a16.19,16.19,0,1,0,16.18,16.18A16.19,16.19,0,0,0,299.06,173.22Z"/><path class="cls-3" d="M331.42,173.22a16.19,16.19,0,1,0,16.19,16.18A16.19,16.19,0,0,0,331.42,173.22Z"/><path class="cls-3" d="M363.79,173.22A16.19,16.19,0,1,0,380,189.4,16.18,16.18,0,0,0,363.79,173.22Z"/><path class="cls-3" d="M396.16,173.22a16.19,16.19,0,1,0,16.18,16.18A16.18,16.18,0,0,0,396.16,173.22Z"/><path class="cls-3" d="M428.52,173.22A16.19,16.19,0,1,0,444.7,189.4,16.18,16.18,0,0,0,428.52,173.22Z"/><path class="cls-3" d="M460.88,173.22a16.19,16.19,0,1,0,16.18,16.18A16.19,16.19,0,0,0,460.88,173.22Z"/><rect class="cls-4" x="23.97" y="166.21" width="453.7" height="23.36"/><path class="cls-1" d="M250.57,33.24c0,49.16-226.85,133-226.85,133H477.41S250.57,82.4,250.57,33.24Z"/><rect class="cls-5" x="248.8" width="3.54" height="41.09"/><polygon class="cls-3" points="252.34 0 289.3 15.41 252.34 30.82 252.34 0"/><rect class="cls-6" x="49.27" y="427.1" width="403.11" height="30.62"/><rect class="cls-5" x="23.72" y="442.41" width="453.95" height="30.62"/><path class="cls-7" d="M18.44,241.39s2.67,11,13.31,7.19"/><path class="cls-8" d="M24.92,353.76a39.24,39.24,0,0,0,4.48,4.61s7.25.91,6.33-7.91a20.27,20.27,0,0,0-1-4.67A11.48,11.48,0,0,1,24.92,353.76Z"/><path class="cls-9" d="M46.37,318.71c-2.69-4.49-5-4.5-5-4.5S27.59,321.78,20.45,324s-8.35,8.36-2.95,18.72a58.54,58.54,0,0,0,7.42,11.09,11.48,11.48,0,0,0,9.79-8,21.3,21.3,0,0,0-5.81-9.05L41,327.54S49.06,323.18,46.37,318.71Z"/><path class="cls-9" d="M143.56,339.87c.62-4.93-1.83-10.9-3.45-12.49s-18,2.9-18,2.9l-2,1.86a25.1,25.1,0,0,0,13,7.81c-.35,1.37-5.12,8.81-7.73,16.09,2,1.41,5.64,2.73,11.76,1.42,0-.55,0-1.13,0-1.76C138.06,352.11,142.93,344.82,143.56,339.87Z"/><path class="cls-8" d="M125.38,356a28.33,28.33,0,0,0-1.56,6.31c.62,3.25,2.67,3.08,6.35,3.09,3.45,0,6.52.65,7-8C131,358.77,127.4,357.45,125.38,356Z"/><path class="cls-8" d="M143.52,296.12s-1.34-12.42,9.74-16,20.49-.92,25.69,26.17a24.67,24.67,0,0,0,5.49,10.93c2,2.06,5.49,2.23,7.3,4.48,2.73,3.36-.12,5.93-3.56,5.38,1.81.29,1.52,4.65.36,5.52-2,1.5-5.58-.89-6.8-2.54,1.35,1.81-1.37,4.65-2.64,5.27a8.15,8.15,0,0,1-6.81-.22c-5.72-2.9-7.11-11.8-7.18-17.83-.19-13.22-1.16-23.73-8.4-23.24s-11.21,13.8-11.06,14.61S143.52,296.12,143.52,296.12Z"/><path class="cls-8" d="M140.91,355.5a23.78,23.78,0,0,0-.55,3.58c-.21,3.56-.59,7.41,3.51,7.15,2.53-.16,8.74-1.47,9.94-4.24,1.06-2.47-.55-5.17-1.11-7.71C146.76,356.63,143,356.24,140.91,355.5Z"/><path class="cls-8" d="M43.38,361.71c2.42.33,6.68-.63,7.06-5.51a12.32,12.32,0,0,0-2.59-4.41c-2.68,3.44-7.88,5-10.37,5.63C39.67,359.86,41.76,361.52,43.38,361.71Z"/><path class="cls-10" d="M5.2,268.74c-.7,1-1.38,1.93-2,2.92,4.89.68,13.21,4.15,19,18.77,1.17-.31,2.33-.7,3.47-1.12C19.63,274.24,11,269.89,5.2,268.74Z"/><path class="cls-11" d="M35.08,232.82a25.21,25.21,0,0,0-19.53,12.6c-.94,3.32-2.48,13-7.7,19.8-.88,1.16-1.79,2.33-2.65,3.52,5.77,1.15,14.43,5.5,20.45,20.57a36.38,36.38,0,0,0,9.14-5,.61.61,0,0,1,.5-.07C56.76,256.86,42,239,35.08,232.82Z"/><path class="cls-11" d="M3.22,271.66c-3.19,5.1-4.91,10.48-.81,15.67,3.75,4.73,11.82,5.3,19.77,3.1C16.43,275.81,8.11,272.34,3.22,271.66Z"/><path class="cls-11" d="M80,276.91c-6.6-8.67-11.37-20.06-16.87-28.14A74.38,74.38,0,0,0,52.47,236c-5.52-5.1,7.22-15.46-2.81-25-4.86-4.59-8.63,6.38-9.3,10.55a38.47,38.47,0,0,0-.08,10.77c6.41,7,19.43,26.68-2.66,54A26.81,26.81,0,0,1,39.5,289c2.12,3.91.91,8.26.28,12.43-.19,1.36-.4,2.73-.53,4.1C62.4,306.57,75.79,285,80,276.91Z"/><path class="cls-11" d="M158.82,330.73c-2.27-5.15-5.41-10.39-7.27-15.91s-2.05-11.71-5.59-16.46c-4.92-6.58-13.6-8-21.47-8.43.71,12-.23,33.45-18,31.4-16.44-1.88-19.28-26.82-19.73-37.28a36.12,36.12,0,0,1-5-4.91c-13,29.25-35.09,30.3-42.77,29.72a32.41,32.41,0,0,0,.5,6.87s-4.18,5.45-5.52,9.41c-.9.77-10.68,2.95-10.55,7.73.11,3.57,7.56,17.41,14,24.55,2.49-.59,7.69-2.19,10.37-5.63a17.82,17.82,0,0,0-2.63-2.35C41,346.46,38,342,37.7,337.59S50.52,339,62.55,326.67c-.1.09,9.6,5.15,10.11,5.36,17,6.87,34.7,4,52.2,1.91a55.08,55.08,0,0,1,9-.68c3.24.19,9.92,1.76,12,4.75s-.3,6.73-1.7,9.42a34.88,34.88,0,0,0-3.33,8.07c2.11.74,5.85,1.13,11.79-1.22a6.69,6.69,0,0,1-.17-1.14c-.24-3.64,2.49-5.42,4.23-8.24C159.72,340.12,161.22,336.18,158.82,330.73Z"/><path class="cls-10" d="M81.79,279.14c-.62-.73-1.23-1.48-1.8-2.23-4.2,8.11-17.59,29.66-40.74,28.62-.11,1.12-.2,2.23-.23,3.33C46.7,309.44,68.79,308.39,81.79,279.14Z"/><path class="cls-10" d="M40.28,232.37a3.44,3.44,0,0,0,0,.45,23.06,23.06,0,0,0-5.25,0c6.93,6.18,21.68,24,.21,51.42a6.92,6.92,0,0,1,2.33,2.11C59.71,259.05,46.69,239.4,40.28,232.37Z"/><path class="cls-10" d="M47.05,269.14c-5.92,7.26-28.73,13.77-28.73,13.77l-.68-3.51s22.81-6.5,28.73-13.77Z"/><path class="cls-12" d="M42.83,230c-3.42-3.1-6.49-6.59-11.84-6.76C23.54,223,17.24,228.6,13.6,234.8c-2.83,4.83-4.18,12.48-.31,16.95,4.64,5.36,15.45,3.79,18.46-3.17a7,7,0,0,0,8.74-2.25s6.63,2.75,10.92-2.45,2-8.08-2.95-10.09A19.52,19.52,0,0,1,42.83,230Z"/><path class="cls-13" d="M17.39,241.34s1.13,9.63,13.3,7.19C30.69,248.53,21.38,247.23,17.39,241.34Z"/><path class="cls-13" d="M39.47,246s-9,.88-10.65-6.37A14.65,14.65,0,0,0,39.47,246Z"/><path class="cls-13" d="M181.74,330s-9.61,2-12.74-22.41C169,307.62,172.74,326.52,181.74,330Z"/><path class="cls-13" d="M188.18,327.05s-9.32,3.21-14.22-15.45c0,0,5.41,14.6,13.81,14.71"/><path class="cls-14" d="M29.41,265.42c-.45-2.38-2.27-4-4-3.57a2.8,2.8,0,0,0-1.64,1.25l-2.43-1.79s-.18,1.57,1.92,2.82a5.42,5.42,0,0,0-.2,2.71c.46,2.37,2.25,4,4,3.58S29.87,267.79,29.41,265.42Z"/><path class="cls-10" d="M49.58,269.42a5.11,5.11,0,0,1-3.67,6.05,4.75,4.75,0,0,1-5.61-4,5.13,5.13,0,0,1,3.68-6A4.77,4.77,0,0,1,49.58,269.42Z"/><path class="cls-15" d="M47.45,269.89a2.78,2.78,0,0,1-2,3.28,2.57,2.57,0,0,1-3-2.15,2.76,2.76,0,0,1,2-3.27A2.57,2.57,0,0,1,47.45,269.89Z"/><path class="cls-10" d="M127.09,289.61l-4.76,0c1.36,12.17,1.55,31-14.93,31-17,0-18.18-26.85-18.13-34.88l-4.55-1.55s-3.57-.88-4,4.86,5.1,4.79,5.1,4.79-4.06.62-3,6.32,4.54,3.21,4.54,3.21a6.2,6.2,0,0,0-1,8.42c1.82,2.69,5.4,2.19,5.4,2.19s-2.49,4.76,1.45,7.57,5.93-.48,5.93-.48-1.83,4.08,3.15,5.5,5.69-3,5.69-3,2.26,4.85,7.26,2.32,3-6,3-6,3.28,3.49,6.76-2.94a7.09,7.09,0,0,0-.8-6.87s5.07.55,5.63-4.64-3.61-6.55-3.61-6.55a4.19,4.19,0,0,0,4.09-4.56C130.26,289.76,127.09,289.61,127.09,289.61Z"/><path class="cls-15" d="M107.4,320.57c16.48,0,16.29-18.83,14.93-31-4-.05-10-.12-15.67-.17-9.7-.09-15.3-3.35-15.3-3.35l-1.61-.21-.48-.15C89.22,293.72,90.39,320.6,107.4,320.57Z"/><path class="cls-12" d="M57.58,226.91s-5.53-1.55-6.87,5.1,0,20.86,12,25.53c.07,1.52-.28,13.28,12.58,16,.33,1.71,1.3,10.39,12.72,8.09,1.42-1.33,7.86-9.89-9.37-22.83-.33-3,3.18-11.89-10.56-16.68C67.49,240.2,69.08,229.94,57.58,226.91Z"/><path class="cls-7" d="M317.54,242.59s2.69,11,13.31,7.18"/><path class="cls-16" d="M324,355a40.86,40.86,0,0,0,4.47,4.61s7.26.91,6.34-7.91a20.15,20.15,0,0,0-1-4.67A11.46,11.46,0,0,1,324,355Z"/><path class="cls-17" d="M345.48,319.91c-2.7-4.49-5.05-4.5-5.05-4.5s-13.72,7.57-20.87,9.73-8.35,8.37-2.95,18.73A58.39,58.39,0,0,0,324,355a11.46,11.46,0,0,0,9.79-8,21.3,21.3,0,0,0-5.81-9.05l12.11-9.2S348.17,324.38,345.48,319.91Z"/><path class="cls-17" d="M442.67,341.06c.62-4.93-1.83-10.89-3.45-12.48s-18,2.89-18,2.89l-2,1.87a25,25,0,0,0,13,7.81c-.35,1.38-5.12,8.81-7.73,16.08,2,1.43,5.65,2.74,11.76,1.43,0-.55,0-1.13,0-1.77C437.17,353.31,442,346,442.67,341.06Z"/><path class="cls-16" d="M424.49,357.23a28.55,28.55,0,0,0-1.56,6.32c.62,3.25,2.67,3.08,6.35,3.08,3.45.06,6.52.66,7-8C430.14,360,426.51,358.66,424.49,357.23Z"/><path class="cls-18" d="M442.63,297.32s-1.34-12.42,9.74-16,20.49-.9,25.69,26.18a24.83,24.83,0,0,0,5.49,10.93c2,2.06,5.49,2.23,7.31,4.47,2.73,3.36-.13,5.94-3.57,5.39,1.81.29,1.52,4.65.36,5.52-2,1.5-5.58-.9-6.8-2.54,1.35,1.81-1.37,4.65-2.64,5.27a8.16,8.16,0,0,1-6.8-.22c-5.73-2.91-7.11-11.81-7.19-17.83-.19-13.22-1.16-23.73-8.4-23.24s-11.22,13.8-11.06,14.6S442.63,297.32,442.63,297.32Z"/><path class="cls-16" d="M440,356.7a23.53,23.53,0,0,0-.55,3.59c-.2,3.55-.59,7.4,3.51,7.14,2.53-.16,8.74-1.47,9.94-4.24,1.07-2.47-.55-5.18-1.11-7.71C445.88,357.83,442.13,357.44,440,356.7Z"/><path class="cls-16" d="M342.49,362.92c2.41.31,6.68-.64,7.06-5.52A12.33,12.33,0,0,0,347,353c-2.67,3.43-7.88,5-10.38,5.61C338.78,361.06,340.87,362.71,342.49,362.92Z"/><path class="cls-10" d="M304.3,269.93c-.69,1-1.37,1.94-2,2.93,4.89.68,13.22,4.15,19,18.77,1.17-.31,2.33-.71,3.47-1.13C318.75,275.44,310.08,271.09,304.3,269.93Z"/><path class="cls-19" d="M334.2,234a25.22,25.22,0,0,0-19.54,12.6c-.94,3.32-2.48,13-7.71,19.81-.87,1.14-1.78,2.32-2.65,3.5,5.78,1.16,14.45,5.51,20.46,20.57a36.36,36.36,0,0,0,9.14-5,.53.53,0,0,1,.49-.06C355.87,258.06,341.12,240.2,334.2,234Z"/><path class="cls-19" d="M302.33,272.86c-3.19,5.1-4.91,10.48-.81,15.67,3.75,4.73,11.81,5.3,19.77,3.1C315.55,277,307.22,273.54,302.33,272.86Z"/><path class="cls-19" d="M379.1,278.1c-6.6-8.66-11.37-20.05-16.86-28.13a74.44,74.44,0,0,0-10.66-12.72c-5.51-5.12,7.22-15.48-2.81-25-4.86-4.6-8.62,6.37-9.3,10.54a38.1,38.1,0,0,0-.08,10.77c6.41,7,19.43,26.67-2.66,54a27.12,27.12,0,0,1,1.88,2.64c2.12,3.91.91,8.27.28,12.43-.19,1.37-.4,2.74-.53,4.1C361.51,307.77,374.9,286.22,379.1,278.1Z"/><path class="cls-19" d="M457.93,331.93c-2.26-5.15-5.41-10.38-7.27-15.92s-2-11.7-5.59-16.45c-4.92-6.58-13.6-8-21.47-8.43.71,12-.23,33.45-18,31.4-16.44-1.88-19.27-26.82-19.73-37.28a36.82,36.82,0,0,1-5-4.92c-13,29.25-35.08,30.31-42.76,29.73a32,32,0,0,0,.5,6.88s-4.18,5.45-5.52,9.39c-.9.77-10.67,3-10.55,7.75.11,3.56,7.56,17.4,14,24.53,2.5-.59,7.71-2.18,10.38-5.61a15.56,15.56,0,0,0-2.64-2.35c-4.23-3-7.18-7.42-7.52-11.86s12.82,1.36,24.86-10.91c-.1.08,9.6,5.14,10.11,5.34,17.05,6.87,34.7,4,52.21,1.92a53.72,53.72,0,0,1,9-.67c3.24.18,9.92,1.75,12,4.73s-.29,6.74-1.69,9.42A35,35,0,0,0,440,356.7c2.11.74,5.86,1.13,11.79-1.22a6.69,6.69,0,0,1-.17-1.14c-.23-3.65,2.49-5.42,4.22-8.25C458.83,341.32,460.34,337.37,457.93,331.93Z"/><path class="cls-10" d="M380.89,280.33c-.61-.73-1.21-1.47-1.79-2.23-4.2,8.12-17.59,29.67-40.74,28.62-.11,1.12-.19,2.23-.23,3.34C345.81,310.64,367.91,309.58,380.89,280.33Z"/><path class="cls-10" d="M339.39,233.57a3.26,3.26,0,0,0,.05.45,23,23,0,0,0-5.24,0c6.92,6.18,21.67,24,.19,51.43a6.59,6.59,0,0,1,2.34,2.1C358.82,260.24,345.8,240.6,339.39,233.57Z"/><path class="cls-10" d="M346.15,270.35c-5.91,7.25-28.72,13.75-28.72,13.75l-.68-3.5s22.81-6.51,28.73-13.77Z"/><path class="cls-18" d="M341.94,231.17c-3.42-3.1-6.49-6.59-11.84-6.76-7.45-.23-13.76,5.39-17.39,11.59-2.83,4.82-4.18,12.47-.31,16.95,4.63,5.36,15.45,3.8,18.45-3.18a7.05,7.05,0,0,0,8.75-2.25s6.63,2.76,10.93-2.44,2-8.09-3-10.1A19.29,19.29,0,0,1,341.94,231.17Z"/><path class="cls-13" d="M316.5,242.54s1.13,9.64,13.3,7.18C329.8,249.72,320.49,248.42,316.5,242.54Z"/><path class="cls-13" d="M338.57,247.2s-9,.88-10.64-6.38A14.64,14.64,0,0,0,338.57,247.2Z"/><path class="cls-13" d="M480.85,331.23s-9.61,2-12.73-22.4C468.12,308.83,471.85,327.71,480.85,331.23Z"/><path class="cls-13" d="M487.29,328.25s-9.32,3.21-14.23-15.45c0,0,5.42,14.6,13.82,14.7"/><path class="cls-14" d="M328.53,266.62c-.46-2.37-2.28-4-4-3.58a2.81,2.81,0,0,0-1.65,1.26l-2.43-1.78s-.18,1.56,1.92,2.8a5.47,5.47,0,0,0-.19,2.72c.45,2.38,2.24,4,4,3.58S329,269,328.53,266.62Z"/><path class="cls-10" d="M348.69,270.62a5.11,5.11,0,0,1-3.67,6.05,4.77,4.77,0,0,1-5.61-4,5.14,5.14,0,0,1,3.68-6.05A4.76,4.76,0,0,1,348.69,270.62Z"/><path class="cls-20" d="M346.56,271.09a2.76,2.76,0,0,1-2,3.28,2.58,2.58,0,0,1-3-2.15,2.76,2.76,0,0,1,2-3.27A2.57,2.57,0,0,1,346.56,271.09Z"/><path class="cls-10" d="M426.2,290.81l-4.76,0c1.37,12.17,1.55,31-14.93,31-17,0-18.18-26.85-18.12-34.88l-4.57-1.56s-3.56-.87-4,4.86,5.1,4.8,5.1,4.8-4.06.62-3,6.31,4.54,3.22,4.54,3.22a6.18,6.18,0,0,0-1,8.41c1.82,2.69,5.4,2.19,5.4,2.19s-2.48,4.77,1.45,7.57,5.93-.48,5.93-.48-1.84,4.1,3.15,5.5,5.69-3,5.69-3,2.26,4.85,7.27,2.32,3-6,3-6,3.28,3.48,6.76-2.95a7.09,7.09,0,0,0-.8-6.87s5.07.56,5.63-4.64-3.61-6.55-3.61-6.55a4.19,4.19,0,0,0,4.09-4.56C429.37,291,426.2,290.81,426.2,290.81Z"/><path class="cls-20" d="M406.51,321.77c16.48,0,16.3-18.83,14.93-31-4-.06-10-.12-15.66-.17-9.71-.09-15.3-3.35-15.3-3.35l-1.62-.21-.47-.15C388.33,294.92,389.49,321.8,406.51,321.77Z"/><path class="cls-18" d="M356.68,228.1s-5.52-1.54-6.86,5.11,0,20.85,12,25.53c.07,1.52-.28,13.28,12.58,16,.33,1.7,1.3,10.39,12.72,8.09,1.43-1.32,7.86-9.89-9.37-22.83-.33-3,3.18-11.89-10.57-16.69C366.6,241.4,368.19,231.14,356.68,228.1Z"/><path class="cls-7" d="M172.84,284.79s2.68,11,13.3,7.19"/><path class="cls-21" d="M179.32,397.16a39.24,39.24,0,0,0,4.48,4.61s7.25.92,6.33-7.91a20.38,20.38,0,0,0-1-4.67A11.46,11.46,0,0,1,179.32,397.16Z"/><path class="cls-22" d="M200.77,362.11c-2.69-4.49-5.05-4.5-5.05-4.5s-13.72,7.57-20.87,9.74-8.35,8.36-2.95,18.72a58.06,58.06,0,0,0,7.42,11.09,11.46,11.46,0,0,0,9.79-8,21.34,21.34,0,0,0-5.8-9.05l12.09-9.2S203.46,366.58,200.77,362.11Z"/><path class="cls-22" d="M298,383.27c.63-4.94-1.83-10.89-3.44-12.49s-18,2.9-18,2.9l-2,1.86a25,25,0,0,0,13,7.81c-.35,1.38-5.12,8.81-7.73,16.09,2,1.42,5.65,2.73,11.76,1.42,0-.55,0-1.12,0-1.76C292.46,395.51,297.33,388.22,298,383.27Z"/><path class="cls-21" d="M279.78,399.44a28.89,28.89,0,0,0-1.56,6.31c.62,3.26,2.67,3.08,6.34,3.09,3.46.05,6.54.66,7-8C285.43,402.17,281.8,400.86,279.78,399.44Z"/><path class="cls-23" d="M297.92,339.52s-1.34-12.42,9.74-16,20.49-.92,25.69,26.17a24.67,24.67,0,0,0,5.49,10.93c2,2.06,5.49,2.23,7.31,4.48,2.72,3.35-.13,5.93-3.56,5.39,1.79.29,1.51,4.64.35,5.52-2,1.5-5.58-.9-6.8-2.54,1.35,1.81-1.37,4.64-2.64,5.27a8.16,8.16,0,0,1-6.8-.23c-5.73-2.9-7.11-11.8-7.19-17.83-.19-13.22-1.17-23.73-8.39-23.24S299.9,351.22,300.05,352,297.92,339.52,297.92,339.52Z"/><path class="cls-21" d="M295.31,398.91a23.2,23.2,0,0,0-.55,3.58c-.2,3.55-.6,7.4,3.51,7.15,2.53-.17,8.74-1.48,9.94-4.25,1.06-2.47-.55-5.17-1.11-7.71C301.17,400,297.42,399.64,295.31,398.91Z"/><path class="cls-21" d="M197.78,405.12c2.42.32,6.68-.64,7.06-5.52a12.17,12.17,0,0,0-2.6-4.41c-2.66,3.44-7.88,5-10.36,5.63C194.06,403.26,196.16,404.92,197.78,405.12Z"/><path class="cls-10" d="M159.6,312.13c-.7,1-1.38,1.94-2,2.93,4.89.68,13.21,4.15,19,18.77,1.18-.31,2.34-.7,3.47-1.12C174,317.64,165.37,313.29,159.6,312.13Z"/><path class="cls-24" d="M189.49,276.22A25.22,25.22,0,0,0,170,288.82c-.93,3.32-2.48,13-7.7,19.81-.89,1.15-1.79,2.32-2.65,3.5,5.77,1.16,14.44,5.51,20.45,20.58a36.56,36.56,0,0,0,9.14-5,.61.61,0,0,1,.5-.07C211.16,300.26,196.41,282.4,189.49,276.22Z"/><path class="cls-24" d="M157.62,315.06c-3.19,5.1-4.91,10.49-.81,15.67,3.75,4.73,11.82,5.3,19.77,3.1C170.83,319.21,162.51,315.74,157.62,315.06Z"/><path class="cls-24" d="M234.38,320.31c-6.59-8.67-11.36-20.05-16.85-28.14a74.36,74.36,0,0,0-10.66-12.72c-5.52-5.11,7.22-15.47-2.81-25-4.85-4.59-8.63,6.37-9.3,10.54a38.85,38.85,0,0,0-.08,10.77c6.41,7,19.43,26.67-2.66,54a25.9,25.9,0,0,1,1.88,2.64c2.13,3.91.91,8.26.28,12.43-.19,1.36-.41,2.73-.53,4.1C216.8,350,230.19,328.42,234.38,320.31Z"/><path class="cls-24" d="M313.22,374.13C311,369,307.81,363.75,306,358.22s-2-11.71-5.59-16.46c-4.92-6.58-13.6-8-21.47-8.43.7,12-.23,33.45-18,31.4-16.45-1.88-19.28-26.82-19.74-37.28a37.33,37.33,0,0,1-5-4.91c-13,29.24-35.07,30.3-42.76,29.72a32.45,32.45,0,0,0,.5,6.87s-4.18,5.45-5.52,9.4c-.9.78-10.67,3-10.54,7.74.1,3.57,7.55,17.41,14,24.55,2.48-.59,7.7-2.19,10.36-5.63a16.86,16.86,0,0,0-2.63-2.35c-4.23-3-7.18-7.41-7.51-11.85s12.82,1.36,24.85-10.91c-.1.08,9.6,5.15,10.11,5.34,17.05,6.88,34.69,4,52.21,1.92a54.82,54.82,0,0,1,9.05-.67c3.23.19,9.92,1.75,12,4.74s-.3,6.73-1.7,9.42a34.77,34.77,0,0,0-3.33,8.08c2.11.73,5.86,1.13,11.79-1.23a6.58,6.58,0,0,1-.17-1.13c-.23-3.65,2.49-5.43,4.23-8.25C314.12,383.53,315.62,379.58,313.22,374.13Z"/><path class="cls-10" d="M236.18,322.54c-.61-.73-1.21-1.48-1.8-2.23-4.19,8.11-17.58,29.66-40.73,28.62-.11,1.12-.19,2.23-.23,3.33C201.11,352.84,223.19,351.78,236.18,322.54Z"/><path class="cls-10" d="M194.68,275.77a3.44,3.44,0,0,0,0,.45,23,23,0,0,0-5.24,0c6.92,6.18,21.67,24,.2,51.42a7.17,7.17,0,0,1,2.33,2.12C214.11,302.44,201.09,282.8,194.68,275.77Z"/><path class="cls-10" d="M201.44,312.55c-5.91,7.25-28.72,13.76-28.72,13.76l-.67-3.51s22.8-6.5,28.72-13.77Z"/><path class="cls-23" d="M197.23,273.38c-3.43-3.11-6.48-6.59-11.85-6.77-7.45-.23-13.74,5.39-17.38,11.59-2.83,4.83-4.18,12.48-.31,16.95,4.63,5.36,15.45,3.8,18.45-3.17a7.06,7.06,0,0,0,8.76-2.25s6.62,2.75,10.92-2.45,2-8.08-3-10.09A19.69,19.69,0,0,1,197.23,273.38Z"/><path class="cls-13" d="M171.78,284.74s1.14,9.64,13.31,7.18C185.09,291.92,175.79,290.63,171.78,284.74Z"/><path class="cls-13" d="M193.87,289.39s-9,.9-10.65-6.36A14.62,14.62,0,0,0,193.87,289.39Z"/><path class="cls-13" d="M336.14,373.44s-9.61,2-12.73-22.41C323.41,351,327.14,369.92,336.14,373.44Z"/><path class="cls-13" d="M342.59,370.46s-9.33,3.21-14.23-15.46c0,0,5.42,14.6,13.81,14.71"/><path class="cls-14" d="M183.82,308.82c-.46-2.37-2.28-4-4-3.58a2.8,2.8,0,0,0-1.64,1.26l-2.43-1.78s-.2,1.57,1.92,2.81a5.42,5.42,0,0,0-.21,2.71c.46,2.38,2.25,4,4,3.58S184.27,311.19,183.82,308.82Z"/><path class="cls-10" d="M204,312.82a5.11,5.11,0,0,1-3.67,6.05,4.74,4.74,0,0,1-5.6-4,5.11,5.11,0,0,1,3.67-6A4.75,4.75,0,0,1,204,312.82Z"/><path class="cls-25" d="M201.85,313.3a2.77,2.77,0,0,1-2,3.27,2.57,2.57,0,0,1-3-2.15,2.76,2.76,0,0,1,2-3.26A2.57,2.57,0,0,1,201.85,313.3Z"/><path class="cls-10" d="M281.49,333s-1.87,0-4.76,0c1.36,12.18,1.55,31-14.92,31-17,0-18.19-26.86-18.13-34.89l-4.56-1.55s-3.57-.88-4,4.86,5.1,4.8,5.1,4.8-4.05.61-3,6.31,4.53,3.21,4.53,3.21a6.19,6.19,0,0,0-1,8.42c1.82,2.69,5.39,2.19,5.39,2.19s-2.49,4.76,1.45,7.56,5.93-.47,5.93-.47-1.84,4.08,3.15,5.5,5.69-3,5.69-3,2.26,4.84,7.26,2.32,3-6,3-6,3.28,3.49,6.76-2.95a7.09,7.09,0,0,0-.8-6.87s5.07.56,5.63-4.64-3.61-6.55-3.61-6.55a4.19,4.19,0,0,0,4.09-4.57C284.66,333.17,281.49,333,281.49,333Z"/><path class="cls-25" d="M261.81,364c16.47,0,16.28-18.83,14.92-31-4-.05-10-.12-15.66-.17-9.71-.08-15.3-3.35-15.3-3.35l-1.62-.21-.47-.15C243.62,337.12,244.78,364,261.81,364Z"/><path class="cls-23" d="M212,270.31s-5.52-1.54-6.86,5.1,0,20.86,12,25.53c.07,1.52-.28,13.29,12.59,16,.32,1.71,1.29,10.39,12.72,8.09,1.42-1.33,7.84-9.89-9.38-22.83-.32-3,3.18-11.89-10.57-16.68C221.89,283.61,223.48,273.34,212,270.31Z"/><path class="cls-26" d="M248.8,41.09s-47.31,99.12-142.72,125.12h88.53S237.91,102.74,248.8,41.09Z"/><path class="cls-26" d="M252.34,41.25s47.3,99.12,142.71,125.1H306.53S263.22,102.89,252.34,41.25Z"/></g></g></svg>