<?xml version="1.0" encoding="UTF-8"?><svg id="_レイヤー_2" xmlns="http://www.w3.org/2000/svg" viewBox="0 0 192.83 156.29"><defs><style>.cls-1{fill:#706873;}.cls-2{fill:#ef96bd;}.cls-3{fill:#f1a3bd;}.cls-4{fill:#fbf9d6;}.cls-5{fill:#fff695;}.cls-6{fill:#fff;}.cls-7{fill:#f7d7c4;}.cls-8{fill:#f6c8dd;}.cls-9{fill:#f3b2c1;}</style></defs><g id="_レイヤー_1-2"><path class="cls-7" d="M18.44,31.43s2.67,10.98,13.3,7.19"/><path class="cls-2" d="M24.92,143.81c2.59,3.06,4.48,4.61,4.48,4.61,0,0,7.25.91,6.33-7.91-.17-1.71-.53-3.26-1.02-4.67-2.23,6.79-8.34,7.83-9.79,7.97Z"/><path class="cls-9" d="M46.37,108.76c-2.69-4.49-5.05-4.5-5.05-4.5,0,0-13.73,7.57-20.88,9.74-7.18,2.17-8.34,8.36-2.95,18.73,2.48,4.8,5.21,8.5,7.42,11.09,1.45-.14,7.56-1.17,9.79-7.97-1.96-5.87-5.81-9.06-5.81-9.06l12.11-9.2s8.05-4.36,5.37-8.83Z"/><path class="cls-9" d="M143.56,129.92c.62-4.93-1.83-10.89-3.45-12.49-1.61-1.63-18.02,2.9-18.02,2.9l-2,1.86s4.51,5.75,13.02,7.81c-.36,1.38-5.12,8.81-7.73,16.09,2.02,1.41,5.64,2.73,11.76,1.42,0-.54.03-1.13.03-1.76.89-3.59,5.76-10.88,6.39-15.83Z"/><path class="cls-2" d="M125.38,146.09c-.77,2.17-1.36,4.33-1.56,6.31.63,3.25,2.67,3.08,6.35,3.09,3.45.04,6.53.65,6.97-7.98-6.12,1.32-9.73,0-11.76-1.42Z"/><path class="cls-2" d="M143.52,86.17s-1.34-12.42,9.74-16.03c11.07-3.6,20.49-.93,25.69,26.17.67,3.52,3.05,8.46,5.49,10.92,2.04,2.06,5.49,2.23,7.31,4.48,2.73,3.36-.13,5.93-3.56,5.38,1.81.29,1.52,4.65.36,5.51-2.05,1.5-5.58-.89-6.8-2.54,1.36,1.81-1.37,4.65-2.63,5.27-2.02,1-4.84.76-6.81-.22-5.72-2.9-7.11-11.8-7.18-17.83-.2-13.22-1.17-23.74-8.4-23.24-7.23.48-11.22,13.79-11.06,14.61.15.81-2.13-12.5-2.13-12.5Z"/><path class="cls-2" d="M140.91,145.55c-.27,1.12-.46,2.29-.55,3.58-.21,3.55-.6,7.41,3.51,7.15,2.52-.16,8.74-1.48,9.93-4.24,1.06-2.47-.55-5.18-1.11-7.71-5.94,2.35-9.68,1.96-11.79,1.22Z"/><path class="cls-2" d="M43.38,151.76c2.42.32,6.68-.63,7.06-5.51,0,0-.56-2.09-2.59-4.41-2.67,3.43-7.88,5.03-10.37,5.62,2.19,2.45,4.28,4.1,5.91,4.3Z"/><path class="cls-6" d="M5.2,58.79c-.7.97-1.38,1.93-1.98,2.92,4.9.68,13.22,4.15,18.96,18.77,1.17-.31,2.33-.7,3.47-1.12-6.02-15.07-14.68-19.42-20.45-20.57Z"/><path class="cls-8" d="M35.08,22.87c-5.44.59-13.89,3.1-19.53,12.6-.93,3.32-2.48,12.99-7.7,19.8-.88,1.16-1.79,2.32-2.65,3.52,5.77,1.15,14.44,5.5,20.45,20.57,3.3-1.25,6.46-2.95,9.13-5,.14-.1.31-.11.5-.07,21.47-27.38,6.72-45.24-.21-51.42Z"/><path class="cls-8" d="M3.22,61.71c-3.19,5.1-4.91,10.49-.81,15.67,3.75,4.73,11.82,5.3,19.77,3.1-5.75-14.62-14.07-18.09-18.96-18.77Z"/><path class="cls-8" d="M79.99,66.96c-6.6-8.67-11.36-20.06-16.86-28.14-3.15-4.61-6.63-9-10.66-12.72-5.52-5.11,7.22-15.46-2.81-24.99-4.85-4.59-8.63,6.38-9.3,10.54-.56,3.55-.53,7.21-.07,10.77,6.41,7.03,19.43,26.68-2.66,53.98.91,1.14,1.71,2.37,1.87,2.65,2.12,3.91.92,8.27.28,12.43-.19,1.36-.4,2.73-.53,4.1,23.15,1.04,36.54-20.51,40.74-28.62Z"/><path class="cls-8" d="M158.82,120.78c-2.27-5.15-5.41-10.39-7.27-15.92-1.83-5.54-2.04-11.71-5.58-16.45-4.92-6.58-13.6-8.02-21.48-8.44.71,12.03-.23,33.45-17.97,31.4-16.44-1.88-19.28-26.82-19.73-37.28-1.8-1.42-3.44-3.1-4.99-4.91-12.99,29.25-35.08,30.3-42.77,29.72-.05,2.3.06,4.58.5,6.87,0,0-4.18,5.45-5.52,9.41-.9.77-10.68,2.95-10.55,7.74.1,3.57,7.56,17.41,14.02,24.54,2.49-.59,7.7-2.19,10.37-5.62-.7-.76-1.56-1.59-2.63-2.35-4.24-2.98-7.19-7.41-7.52-11.85-.32-4.46,12.82,1.36,24.85-10.92-.1.09,9.6,5.15,10.12,5.35,17.04,6.87,34.69,3.97,52.2,1.91,2.96-.34,6.08-.84,9.05-.67,3.24.19,9.93,1.76,12.03,4.75,2.06,2.91-.3,6.73-1.69,9.42-1.46,2.79-2.65,5.23-3.33,8.07,2.1.74,5.85,1.12,11.79-1.22-.09-.39-.15-.77-.17-1.13-.23-3.65,2.49-5.43,4.23-8.25,2.96-4.78,4.46-8.72,2.06-14.16Z"/><path class="cls-6" d="M81.79,69.19c-.61-.73-1.23-1.47-1.8-2.23-4.2,8.11-17.58,29.66-40.74,28.62-.11,1.12-.2,2.23-.23,3.33,7.68.58,29.77-.47,42.77-29.72Z"/><path class="cls-6" d="M40.28,22.41c0,.15.01.31.05.46,0,0-2.12-.32-5.25,0,6.93,6.18,21.68,24.04.21,51.42.64.2,1.53,1.12,2.34,2.1,22.09-27.3,9.07-46.95,2.66-53.98Z"/><path class="cls-6" d="M47.05,59.19c-5.92,7.26-28.72,13.77-28.72,13.77l-.68-3.51s22.81-6.5,28.72-13.77l.68,3.52Z"/><path class="cls-3" d="M42.83,20.02c-3.42-3.1-6.49-6.59-11.84-6.77-7.45-.22-13.75,5.39-17.39,11.59-2.83,4.82-4.18,12.47-.31,16.95,4.63,5.36,15.45,3.79,18.45-3.17,0,0,4.94,2.57,8.75-2.25,0,0,6.63,2.75,10.92-2.45,4.32-5.2,1.97-8.08-2.95-10.1-2.19-.88-3.94-2.31-5.63-3.81Z"/><path class="cls-4" d="M17.39,31.39s1.13,9.63,13.31,7.18c0,0-9.31-1.3-13.31-7.18Z"/><path class="cls-4" d="M39.47,36.05s-9,.88-10.65-6.38c0,0,3.46,5.71,10.65,6.38Z"/><path class="cls-4" d="M181.74,120.08s-9.6,2.03-12.73-22.41c0,0,3.74,18.9,12.73,22.41Z"/><path class="cls-4" d="M188.18,117.1s-9.32,3.21-14.22-15.45c0,0,5.41,14.6,13.81,14.71"/><path class="cls-1" d="M29.41,55.47c-.45-2.38-2.27-3.97-4.02-3.57-.68.16-1.22.64-1.64,1.26l-2.43-1.79s-.19,1.57,1.92,2.82c-.27.81-.38,1.73-.2,2.71.46,2.37,2.25,3.96,4.01,3.58,1.74-.39,2.82-2.63,2.36-5Z"/><path class="cls-6" d="M49.58,59.46c.53,2.79-1.12,5.48-3.68,6.05-2.57.58-5.07-1.19-5.61-3.98-.52-2.76,1.11-5.47,3.68-6.04,2.56-.57,5.07,1.22,5.6,3.97Z"/><path class="cls-5" d="M47.45,59.94c.29,1.51-.61,2.97-1.99,3.28-1.38.31-2.74-.64-3.03-2.15-.29-1.51.6-2.96,1.99-3.27,1.38-.3,2.74.64,3.03,2.14Z"/><path class="cls-6" d="M127.09,79.66s-1.87-.03-4.76-.05c1.36,12.18,1.55,30.98-14.93,31.01-17.02.03-18.18-26.86-18.13-34.88l-4.55-1.55s-3.57-.88-4.04,4.86c-.46,5.75,5.09,4.79,5.09,4.79,0,0-4.05.62-2.96,6.32,1.1,5.69,4.54,3.21,4.54,3.21,0,0-4.29,3.5-1,8.42,1.82,2.69,5.39,2.19,5.39,2.19,0,0-2.48,4.77,1.46,7.57,3.93,2.79,5.93-.48,5.93-.48,0,0-1.83,4.09,3.15,5.51,4.97,1.42,5.69-2.97,5.69-2.97,0,0,2.26,4.85,7.26,2.32,5-2.52,3.03-6.03,3.03-6.03,0,0,3.28,3.49,6.76-2.94,1.56-4.02-.8-6.87-.8-6.87,0,0,5.07.55,5.64-4.64.57-5.21-3.61-6.55-3.61-6.55,0,0,4.18-.08,4.09-4.56-.08-4.52-3.25-4.67-3.25-4.67Z"/><path class="cls-5" d="M107.4,110.62c16.47-.03,16.29-18.83,14.93-31.01-4.04-.04-10.04-.12-15.67-.17-9.7-.1-15.29-3.35-15.29-3.35l-1.62-.21-.47-.15c-.05,8.03,1.11,34.91,18.13,34.88Z"/><path class="cls-3" d="M57.58,16.96s-5.53-1.54-6.86,5.1c-1.33,6.65-.04,20.86,12.03,25.54.06,1.52-.28,13.28,12.58,16,.33,1.7,1.3,10.39,12.72,8.09,1.42-1.33,7.86-9.89-9.37-22.83-.33-2.97,3.18-11.89-10.57-16.68-.61-1.92.97-12.18-10.53-15.21Z"/></g></svg>