<?xml version="1.0" encoding="UTF-8"?><svg id="_レイヤー_2" xmlns="http://www.w3.org/2000/svg" viewBox="0 0 453.95 473.03"><defs><style>.cls-1{fill:#fff68c;}.cls-2{fill:#f7cbd8;}.cls-3{fill:#cdbb9d;}.cls-4{fill:#dbccb4;}.cls-5{fill:#cde7ee;}.cls-6{fill:#f2a9ba;}.cls-7{fill:#baa485;}</style></defs><g id="_レイヤー_1-2"><rect class="cls-3" x="206.84" y="137.2" width="36.48" height="303"/><rect class="cls-4" x="66.77" y="158.93" width="9.44" height="278.02"/><rect class="cls-4" x="374.23" y="158.93" width="9.44" height="278.02"/><rect class="cls-4" x="223.89" y="158.93" width="9.44" height="278.02"/><path class="cls-1" d="M16.44,173.22c-8.93,0-16.18,7.25-16.18,16.18s7.25,16.18,16.18,16.18,16.18-7.25,16.18-16.18-7.24-16.18-16.18-16.18Z"/><path class="cls-1" d="M48.8,173.22c-8.94,0-16.19,7.25-16.19,16.18s7.25,16.18,16.19,16.18,16.18-7.25,16.18-16.18-7.24-16.18-16.18-16.18Z"/><path class="cls-1" d="M81.16,173.22c-8.94,0-16.18,7.25-16.18,16.18s7.24,16.18,16.18,16.18,16.18-7.25,16.18-16.18-7.24-16.18-16.18-16.18Z"/><path class="cls-1" d="M113.53,173.22c-8.94,0-16.19,7.25-16.19,16.18s7.24,16.18,16.19,16.18,16.18-7.25,16.18-16.18-7.25-16.18-16.18-16.18Z"/><path class="cls-1" d="M145.89,173.22c-8.94,0-16.18,7.25-16.18,16.18s7.24,16.18,16.18,16.18,16.18-7.25,16.18-16.18-7.25-16.18-16.18-16.18Z"/><path class="cls-1" d="M178.26,173.22c-8.94,0-16.18,7.25-16.18,16.18s7.24,16.18,16.18,16.18,16.18-7.25,16.18-16.18-7.24-16.18-16.18-16.18Z"/><path class="cls-1" d="M210.62,173.22c-8.93,0-16.18,7.25-16.18,16.18s7.25,16.18,16.18,16.18,16.18-7.25,16.18-16.18-7.24-16.18-16.18-16.18Z"/><path class="cls-1" d="M242.98,173.22c-8.93,0-16.18,7.25-16.18,16.18s7.25,16.18,16.18,16.18,16.18-7.25,16.18-16.18-7.24-16.18-16.18-16.18Z"/><path class="cls-1" d="M275.34,173.22c-8.93,0-16.18,7.25-16.18,16.18s7.25,16.18,16.18,16.18,16.18-7.25,16.18-16.18-7.24-16.18-16.18-16.18Z"/><path class="cls-1" d="M307.71,173.22c-8.93,0-16.18,7.25-16.18,16.18s7.25,16.18,16.18,16.18,16.18-7.25,16.18-16.18-7.24-16.18-16.18-16.18Z"/><path class="cls-1" d="M340.07,173.22c-8.93,0-16.18,7.25-16.18,16.18s7.24,16.18,16.18,16.18,16.19-7.25,16.19-16.18-7.25-16.18-16.19-16.18Z"/><path class="cls-1" d="M372.44,173.22c-8.94,0-16.18,7.25-16.18,16.18s7.24,16.18,16.18,16.18,16.18-7.25,16.18-16.18-7.25-16.18-16.18-16.18Z"/><path class="cls-1" d="M404.8,173.22c-8.94,0-16.18,7.25-16.18,16.18s7.24,16.18,16.18,16.18,16.18-7.25,16.18-16.18-7.25-16.18-16.18-16.18Z"/><path class="cls-1" d="M437.16,173.22c-8.93,0-16.18,7.25-16.18,16.18s7.25,16.18,16.18,16.18,16.18-7.25,16.18-16.18-7.24-16.18-16.18-16.18Z"/><rect class="cls-7" x=".25" y="166.21" width="453.7" height="23.36"/><path class="cls-3" d="M226.85,33.24C226.85,82.4,0,166.21,0,166.21h453.69S226.85,82.4,226.85,33.24Z"/><rect class="cls-2" x="225.08" width="3.54" height="41.09"/><polygon class="cls-1" points="228.62 0 265.58 15.41 228.62 30.82 228.62 0"/><rect class="cls-6" x="25.55" y="427.1" width="403.11" height="30.62"/><rect class="cls-2" y="442.41" width="453.95" height="30.62"/><path class="cls-5" d="M225.08,41.09s-47.31,99.12-142.72,125.11h88.53s43.3-63.46,54.19-125.11Z"/><path class="cls-5" d="M228.62,41.25s47.31,99.12,142.71,125.11h-88.52s-43.31-63.46-54.19-125.11Z"/></g></svg>