<?xml version="1.0" encoding="UTF-8"?><svg id="_レイヤー_2" xmlns="http://www.w3.org/2000/svg" viewBox="0 0 192.83 156.3"><defs><style>.cls-1{fill:#fcdc8e;}.cls-2{fill:#c5e5e8;}.cls-3{fill:#706873;}.cls-4{fill:#f7c07e;}.cls-5{fill:#fbf9d6;}.cls-6{fill:#fff198;}.cls-7{fill:#fff;}.cls-8{fill:#f7d7c4;}.cls-9{fill:#f8c571;}</style></defs><g id="_レイヤー_1-2"><path class="cls-8" d="M18.44,31.44s2.68,10.98,13.31,7.18"/><path class="cls-4" d="M24.92,143.81c2.59,3.06,4.48,4.61,4.48,4.61,0,0,7.25.92,6.33-7.91-.17-1.7-.53-3.26-1.02-4.67-2.23,6.8-8.34,7.83-9.79,7.97Z"/><path class="cls-1" d="M46.37,108.76c-2.69-4.49-5.05-4.5-5.05-4.5,0,0-13.72,7.57-20.87,9.73-7.18,2.18-8.35,8.36-2.95,18.73,2.48,4.8,5.2,8.5,7.42,11.09,1.44-.14,7.55-1.17,9.79-7.97-1.96-5.87-5.81-9.05-5.81-9.05l12.1-9.2s8.06-4.36,5.37-8.83Z"/><path class="cls-1" d="M143.55,129.91c.62-4.93-1.83-10.89-3.45-12.48-1.61-1.63-18.02,2.9-18.02,2.9l-2,1.86s4.51,5.76,13.02,7.81c-.35,1.38-5.12,8.81-7.73,16.09,2.02,1.42,5.65,2.73,11.76,1.42.01-.55.03-1.13.03-1.76.9-3.59,5.77-10.88,6.39-15.83Z"/><path class="cls-4" d="M125.38,146.08c-.76,2.17-1.35,4.33-1.56,6.31.62,3.25,2.67,3.07,6.34,3.09,3.45.04,6.53.65,6.97-7.98-6.11,1.31-9.73,0-11.76-1.42Z"/><path class="cls-9" d="M143.52,86.16s-1.34-12.42,9.74-16.02c11.07-3.6,20.49-.92,25.68,26.17.68,3.52,3.06,8.46,5.5,10.93,2.04,2.06,5.48,2.22,7.31,4.47,2.73,3.36-.13,5.93-3.56,5.39,1.8.29,1.51,4.65.35,5.52-2.04,1.5-5.58-.9-6.8-2.54,1.35,1.81-1.37,4.65-2.64,5.27-2,1-4.84.75-6.8-.23-5.73-2.9-7.11-11.8-7.19-17.83-.2-13.22-1.17-23.74-8.4-23.24-7.22.48-11.22,13.8-11.06,14.6.16.82-2.13-12.5-2.13-12.5Z"/><path class="cls-4" d="M140.91,145.55c-.27,1.11-.45,2.29-.55,3.58-.2,3.55-.6,7.4,3.51,7.15,2.53-.17,8.74-1.48,9.94-4.25,1.07-2.47-.54-5.18-1.11-7.71-5.93,2.36-9.68,1.96-11.79,1.23Z"/><path class="cls-4" d="M43.38,151.76c2.42.32,6.68-.64,7.06-5.52,0,0-.55-2.08-2.6-4.41-2.66,3.44-7.87,5.03-10.36,5.62,2.19,2.45,4.28,4.1,5.91,4.3Z"/><path class="cls-7" d="M5.19,58.78c-.69.98-1.37,1.93-1.98,2.92,4.89.68,13.22,4.15,18.96,18.77,1.18-.31,2.34-.7,3.48-1.13-6.02-15.07-14.68-19.42-20.46-20.57Z"/><path class="cls-6" d="M35.08,22.87c-5.44.59-13.9,3.1-19.54,12.6-.93,3.32-2.48,12.99-7.7,19.8-.89,1.15-1.79,2.32-2.65,3.51,5.78,1.16,14.44,5.51,20.46,20.57,3.3-1.25,6.45-2.95,9.14-5,.14-.1.31-.11.49-.06,21.48-27.38,6.73-45.24-.2-51.42Z"/><path class="cls-6" d="M3.22,61.7c-3.19,5.1-4.91,10.49-.81,15.67,3.75,4.73,11.82,5.3,19.77,3.1-5.74-14.62-14.07-18.09-18.96-18.77Z"/><path class="cls-6" d="M79.98,66.95c-6.59-8.67-11.36-20.05-16.86-28.14-3.16-4.62-6.63-9-10.66-12.72-5.52-5.11,7.22-15.47-2.81-24.99-4.85-4.59-8.63,6.38-9.3,10.54-.55,3.55-.53,7.21-.08,10.76,6.41,7.03,19.43,26.68-2.65,53.99.92,1.13,1.72,2.36,1.87,2.64,2.13,3.91.92,8.27.28,12.43-.19,1.36-.4,2.73-.53,4.1,23.15,1.04,36.54-20.51,40.74-28.62Z"/><path class="cls-6" d="M158.82,120.78c-2.26-5.16-5.41-10.38-7.27-15.92-1.83-5.54-2.04-11.71-5.59-16.45-4.92-6.58-13.6-8.02-21.47-8.43.7,12.04-.23,33.45-17.98,31.4-16.45-1.88-19.27-26.82-19.74-37.28-1.79-1.43-3.44-3.09-4.99-4.91-12.99,29.25-35.08,30.31-42.76,29.72-.06,2.3.06,4.57.5,6.87,0,0-4.18,5.45-5.52,9.4-.9.77-10.67,2.96-10.54,7.74.1,3.57,7.55,17.4,14.02,24.54,2.49-.59,7.7-2.19,10.36-5.62-.69-.76-1.56-1.58-2.63-2.35-4.23-2.99-7.18-7.41-7.51-11.85-.32-4.46,12.82,1.36,24.85-10.91-.1.08,9.6,5.15,10.11,5.34,17.05,6.88,34.69,3.97,52.2,1.92,2.95-.33,6.07-.84,9.05-.67,3.24.19,9.92,1.75,12.02,4.74,2.06,2.91-.3,6.73-1.7,9.42-1.45,2.79-2.65,5.24-3.33,8.08,2.11.74,5.86,1.13,11.79-1.23-.09-.39-.15-.76-.16-1.13-.24-3.65,2.49-5.42,4.23-8.25,2.96-4.77,4.46-8.72,2.06-14.16Z"/><path class="cls-7" d="M81.78,69.18c-.62-.73-1.22-1.47-1.8-2.23-4.2,8.11-17.58,29.66-40.74,28.62-.11,1.12-.19,2.23-.23,3.33,7.68.58,29.77-.48,42.76-29.72Z"/><path class="cls-7" d="M40.28,22.41c.01.15.02.31.06.46,0,0-2.12-.32-5.25,0,6.93,6.18,21.68,24.04.2,51.42.64.2,1.53,1.12,2.34,2.11,22.09-27.31,9.06-46.96,2.65-53.99Z"/><path class="cls-7" d="M47.04,59.19c-5.91,7.25-28.72,13.76-28.72,13.76l-.68-3.51s22.81-6.5,28.72-13.77l.68,3.52Z"/><path class="cls-9" d="M42.83,20.02c-3.42-3.1-6.48-6.59-11.85-6.77-7.45-.23-13.75,5.39-17.38,11.59-2.83,4.83-4.18,12.48-.31,16.95,4.63,5.36,15.45,3.79,18.45-3.18,0,0,4.95,2.57,8.75-2.24,0,0,6.63,2.75,10.92-2.45,4.31-5.2,1.96-8.08-2.96-10.1-2.18-.88-3.94-2.3-5.63-3.81Z"/><path class="cls-5" d="M17.38,31.39s1.13,9.63,13.31,7.18c0,0-9.3-1.29-13.31-7.18Z"/><path class="cls-5" d="M39.46,36.04s-9,.9-10.65-6.37c0,0,3.45,5.71,10.65,6.37Z"/><path class="cls-5" d="M181.74,120.08s-9.61,2.03-12.73-22.4c0,0,3.73,18.89,12.73,22.4Z"/><path class="cls-5" d="M188.19,117.1s-9.33,3.21-14.23-15.46c0,0,5.42,14.6,13.81,14.71"/><path class="cls-3" d="M29.42,55.46c-.46-2.37-2.28-3.97-4.02-3.58-.69.16-1.23.65-1.64,1.26l-2.43-1.79s-.2,1.57,1.92,2.82c-.27.81-.38,1.73-.2,2.71.46,2.38,2.25,3.96,4,3.57,1.74-.39,2.82-2.62,2.37-5Z"/><path class="cls-7" d="M49.58,59.47c.53,2.79-1.12,5.48-3.67,6.05-2.57.58-5.07-1.19-5.61-3.97-.53-2.76,1.11-5.47,3.67-6.04,2.56-.58,5.08,1.2,5.6,3.96Z"/><path class="cls-2" d="M47.45,59.94c.29,1.51-.61,2.97-1.99,3.27-1.38.32-2.74-.64-3.02-2.15-.29-1.5.6-2.96,1.98-3.26,1.38-.31,2.75.64,3.03,2.14Z"/><path class="cls-7" d="M127.09,79.67s-1.86-.03-4.76-.05c1.36,12.18,1.55,30.97-14.92,31.01-17.02.03-18.18-26.86-18.13-34.89l-4.56-1.55s-3.57-.88-4.04,4.86c-.47,5.75,5.1,4.79,5.1,4.79,0,0-4.05.62-2.96,6.31,1.09,5.69,4.53,3.21,4.53,3.21,0,0-4.29,3.5-1,8.42,1.82,2.69,5.39,2.19,5.39,2.19,0,0-2.49,4.77,1.46,7.57,3.93,2.8,5.92-.47,5.92-.47,0,0-1.83,4.09,3.15,5.51,4.98,1.42,5.69-2.97,5.69-2.97,0,0,2.26,4.85,7.26,2.32,5-2.53,3.03-6.03,3.03-6.03,0,0,3.28,3.49,6.76-2.95,1.56-4.02-.8-6.87-.8-6.87,0,0,5.07.56,5.64-4.64.58-5.21-3.62-6.55-3.62-6.55,0,0,4.18-.09,4.09-4.57-.08-4.51-3.25-4.65-3.25-4.65Z"/><path class="cls-2" d="M107.4,110.62c16.47-.04,16.28-18.83,14.92-31.01-4.04-.05-10.04-.12-15.66-.17-9.71-.08-15.3-3.35-15.3-3.35l-1.62-.2-.47-.15c-.06,8.03,1.1,34.91,18.13,34.89Z"/><path class="cls-9" d="M57.57,16.95s-5.53-1.54-6.86,5.11c-1.33,6.64-.04,20.85,12.03,25.53.06,1.52-.28,13.28,12.59,16,.33,1.7,1.29,10.39,12.72,8.09,1.42-1.33,7.85-9.89-9.37-22.83-.33-2.96,3.18-11.89-10.57-16.68-.61-1.91.98-12.18-10.53-15.21Z"/></g></svg>