<?xml version="1.0" encoding="UTF-8"?><svg id="_レイヤー_2" xmlns="http://www.w3.org/2000/svg" viewBox="0 0 192.84 156.29"><defs><style>.cls-1{fill:#8daad8;}.cls-2{fill:#706873;}.cls-3{fill:#f6c3cb;}.cls-4{fill:#fbf9d6;}.cls-5{fill:#7db9e5;}.cls-6{fill:#b5e0f8;}.cls-7{fill:#fff;}.cls-8{fill:#f7d7c4;}.cls-9{fill:#8897cb;}</style></defs><g id="_レイヤー_1-2"><path class="cls-8" d="M18.43,31.43s2.68,10.97,13.31,7.19"/><path class="cls-9" d="M24.92,143.8c2.59,3.06,4.48,4.61,4.48,4.61,0,0,7.26.92,6.33-7.91-.17-1.71-.53-3.26-1.02-4.67-2.23,6.8-8.34,7.83-9.79,7.97Z"/><path class="cls-5" d="M46.37,108.76c-2.7-4.49-5.05-4.51-5.05-4.51,0,0-13.72,7.57-20.87,9.73-7.18,2.18-8.35,8.37-2.94,18.73,2.47,4.8,5.2,8.49,7.41,11.09,1.45-.14,7.56-1.17,9.79-7.97-1.96-5.87-5.81-9.05-5.81-9.05l12.11-9.2s8.05-4.35,5.37-8.82Z"/><path class="cls-5" d="M143.56,129.91c.62-4.93-1.83-10.89-3.45-12.48-1.61-1.63-18.02,2.89-18.02,2.89l-1.99,1.86s4.5,5.75,13.02,7.81c-.35,1.38-5.12,8.81-7.73,16.08,2.02,1.43,5.64,2.74,11.76,1.43,0-.55.03-1.13.03-1.77.89-3.58,5.76-10.87,6.39-15.83Z"/><path class="cls-9" d="M125.38,146.08c-.77,2.18-1.35,4.34-1.56,6.32.62,3.25,2.68,3.08,6.35,3.08,3.45.06,6.53.66,6.97-7.97-6.11,1.31-9.74,0-11.76-1.43Z"/><path class="cls-1" d="M143.52,86.16s-1.34-12.42,9.74-16.03c11.06-3.59,20.49-.91,25.69,26.17.67,3.52,3.05,8.46,5.49,10.93,2.03,2.06,5.48,2.23,7.3,4.47,2.73,3.36-.13,5.94-3.56,5.39,1.81.29,1.52,4.65.36,5.51-2.05,1.5-5.58-.9-6.8-2.53,1.35,1.81-1.37,4.65-2.63,5.27-2.01,1-4.84.76-6.8-.22-5.73-2.91-7.11-11.81-7.19-17.83-.19-13.22-1.17-23.73-8.4-23.24-7.23.49-11.22,13.8-11.06,14.61.16.82-2.13-12.5-2.13-12.5Z"/><path class="cls-9" d="M140.91,145.54c-.27,1.11-.45,2.29-.55,3.59-.2,3.55-.6,7.4,3.51,7.15,2.53-.17,8.74-1.47,9.94-4.25,1.07-2.47-.54-5.18-1.11-7.71-5.93,2.35-9.68,1.96-11.79,1.22Z"/><path class="cls-9" d="M43.38,151.76c2.41.31,6.68-.64,7.06-5.52,0,0-.56-2.08-2.59-4.4-2.67,3.43-7.87,5.02-10.37,5.62,2.19,2.45,4.29,4.1,5.91,4.31Z"/><path class="cls-7" d="M5.19,58.78c-.69.98-1.37,1.93-1.97,2.92,4.89.69,13.22,4.15,18.96,18.77,1.17-.31,2.34-.71,3.48-1.13-6.01-15.06-14.68-19.42-20.46-20.57Z"/><path class="cls-6" d="M35.09,22.86c-5.45.6-13.9,3.11-19.54,12.6-.94,3.32-2.48,12.99-7.7,19.81-.88,1.15-1.79,2.32-2.65,3.51,5.78,1.15,14.44,5.51,20.46,20.57,3.3-1.26,6.45-2.95,9.14-4.99.14-.1.31-.11.49-.06,21.48-27.39,6.73-45.25-.19-51.43Z"/><path class="cls-6" d="M3.22,61.7c-3.19,5.1-4.91,10.49-.81,15.67,3.75,4.73,11.82,5.3,19.77,3.1-5.74-14.62-14.06-18.09-18.96-18.77Z"/><path class="cls-6" d="M79.99,66.95c-6.59-8.67-11.36-20.06-16.86-28.14-3.16-4.61-6.63-9-10.66-12.72-5.51-5.11,7.22-15.47-2.81-24.98-4.86-4.6-8.63,6.37-9.31,10.53-.56,3.55-.53,7.21-.08,10.77,6.41,7.03,19.43,26.67-2.66,53.98.92,1.13,1.72,2.36,1.88,2.64,2.12,3.92.92,8.27.28,12.43-.19,1.36-.4,2.73-.53,4.1,23.16,1.05,36.54-20.51,40.74-28.62Z"/><path class="cls-6" d="M158.82,120.77c-2.26-5.15-5.41-10.38-7.27-15.92-1.83-5.54-2.04-11.7-5.58-16.45-4.92-6.58-13.6-8.02-21.48-8.43.71,12.03-.23,33.45-17.97,31.4-16.44-1.88-19.27-26.82-19.73-37.28-1.79-1.43-3.44-3.09-5-4.92-12.98,29.26-35.08,30.31-42.77,29.73-.05,2.3.06,4.57.5,6.88,0,0-4.18,5.45-5.52,9.39-.9.77-10.67,2.96-10.55,7.74.11,3.56,7.56,17.4,14.02,24.54,2.5-.59,7.71-2.19,10.37-5.62-.7-.77-1.56-1.59-2.63-2.35-4.23-2.99-7.18-7.42-7.52-11.86-.31-4.46,12.82,1.36,24.85-10.92-.1.09,9.6,5.15,10.12,5.35,17.04,6.87,34.69,3.97,52.21,1.92,2.95-.34,6.06-.84,9.04-.67,3.23.19,9.92,1.75,12.02,4.73,2.06,2.92-.29,6.74-1.69,9.42-1.45,2.79-2.65,5.24-3.33,8.08,2.11.74,5.86,1.13,11.79-1.22-.09-.39-.15-.76-.16-1.13-.24-3.65,2.48-5.42,4.22-8.25,2.96-4.77,4.47-8.72,2.06-14.16Z"/><path class="cls-7" d="M81.78,69.17c-.61-.73-1.21-1.47-1.79-2.22-4.2,8.11-17.58,29.67-40.74,28.62-.11,1.12-.19,2.23-.23,3.33,7.69.58,29.78-.47,42.77-29.73Z"/><path class="cls-7" d="M40.28,22.41c.01.15.02.31.05.45,0,0-2.13-.32-5.24,0,6.92,6.18,21.68,24.04.19,51.43.64.2,1.53,1.11,2.34,2.1,22.09-27.31,9.07-46.96,2.66-53.98Z"/><path class="cls-7" d="M47.04,59.19c-5.91,7.25-28.72,13.76-28.72,13.76l-.68-3.51s22.81-6.51,28.72-13.77l.67,3.52Z"/><path class="cls-1" d="M42.83,20.02c-3.42-3.1-6.49-6.59-11.84-6.76-7.45-.23-13.75,5.39-17.39,11.59-2.83,4.82-4.18,12.47-.31,16.95,4.63,5.36,15.45,3.8,18.45-3.17,0,0,4.94,2.57,8.75-2.25,0,0,6.63,2.76,10.92-2.44,4.31-5.21,1.96-8.09-2.95-10.1-2.18-.87-3.94-2.3-5.63-3.81Z"/><path class="cls-4" d="M17.39,31.39s1.13,9.63,13.31,7.18c0,0-9.31-1.3-13.31-7.18Z"/><path class="cls-4" d="M39.46,36.04s-9,.89-10.64-6.38c0,0,3.45,5.72,10.64,6.38Z"/><path class="cls-4" d="M181.74,120.08s-9.6,2.03-12.72-22.41c0,0,3.73,18.89,12.72,22.41Z"/><path class="cls-4" d="M188.18,117.1s-9.32,3.21-14.23-15.45c0,0,5.42,14.6,13.81,14.7"/><path class="cls-2" d="M29.42,55.46c-.46-2.37-2.27-3.97-4.01-3.58-.7.16-1.23.65-1.65,1.26l-2.43-1.78s-.19,1.56,1.92,2.8c-.27.82-.38,1.74-.2,2.72.45,2.37,2.24,3.96,3.99,3.57,1.74-.39,2.82-2.62,2.37-5Z"/><path class="cls-7" d="M49.58,59.46c.53,2.79-1.12,5.48-3.68,6.05-2.57.58-5.07-1.19-5.61-3.97-.52-2.76,1.12-5.47,3.68-6.04,2.55-.58,5.07,1.21,5.6,3.96Z"/><path class="cls-3" d="M47.45,59.93c.29,1.51-.61,2.97-1.99,3.28-1.38.31-2.74-.65-3.03-2.15-.29-1.5.6-2.95,1.99-3.26,1.37-.31,2.74.63,3.03,2.14Z"/><path class="cls-7" d="M127.09,79.66s-1.87-.03-4.76-.05c1.36,12.18,1.55,30.97-14.93,31.01-17.02.03-18.18-26.86-18.13-34.89l-4.56-1.55s-3.57-.88-4.03,4.86c-.46,5.76,5.1,4.8,5.1,4.8,0,0-4.06.62-2.97,6.31,1.09,5.7,4.54,3.22,4.54,3.22,0,0-4.29,3.49-1,8.41,1.82,2.69,5.39,2.19,5.39,2.19,0,0-2.48,4.77,1.46,7.57,3.94,2.8,5.92-.48,5.92-.48,0,0-1.83,4.09,3.16,5.5,4.97,1.44,5.68-2.96,5.68-2.96,0,0,2.26,4.85,7.27,2.32,5-2.52,3.03-6.02,3.03-6.02,0,0,3.28,3.49,6.76-2.95,1.56-4.02-.8-6.87-.8-6.87,0,0,5.07.56,5.64-4.64.57-5.22-3.61-6.55-3.61-6.55,0,0,4.18-.08,4.09-4.56-.08-4.51-3.25-4.66-3.25-4.66Z"/><path class="cls-3" d="M107.4,110.62c16.47-.03,16.29-18.83,14.93-31.01-4.04-.05-10.04-.12-15.66-.17-9.71-.09-15.3-3.35-15.3-3.35l-1.62-.2-.47-.16c-.06,8.03,1.1,34.92,18.13,34.89Z"/><path class="cls-1" d="M57.57,16.95s-5.52-1.54-6.86,5.11c-1.33,6.64-.04,20.85,12.03,25.53.07,1.52-.28,13.28,12.58,15.99.33,1.71,1.3,10.39,12.72,8.1,1.42-1.33,7.85-9.9-9.37-22.83-.33-2.97,3.18-11.89-10.57-16.69-.61-1.91.98-12.17-10.53-15.21Z"/></g></svg>