<svg xmlns="http://www.w3.org/2000/svg" xmlns:xlink="http://www.w3.org/1999/xlink" viewBox="0 0 193.81 166.5"><defs><style>.cls-1{fill:none;}.cls-2{isolation:isolate;}.cls-3{fill:#c37394;}.cls-4{fill:#cde7ee;}.cls-5{clip-path:url(#clip-path);}</style><clipPath id="clip-path"><polygon class="cls-1" points="41.63 135.14 42.41 31.54 167.4 10.35 166.62 113.95 41.63 135.14"/></clipPath></defs><g id="レイヤー_2" data-name="レイヤー 2"><g id="レイヤー_1-2" data-name="レイヤー 1"><g class="cls-2"><path class="cls-3" d="M155.75,135.14l.78-130.46c0,.94,1.05,1.89,3.26,2.74L159,137.89C156.8,137,155.75,136.08,155.75,135.14Z"/><path class="cls-3" d="M193.81,5,193,135.41c0,1.53-2.84,3-8.11,3.91L185.7,8.86C191,8,193.8,6.48,193.81,5Z"/><ellipse class="cls-3" cx="175.17" cy="4.81" rx="4.81" ry="18.64" transform="translate(169.05 179.95) rotate(-89.57)"/><path class="cls-3" d="M159,137.89l.78-130.47c5.81,2.23,17.41,2.88,25.91,1.44l-.78,130.46C176.42,140.76,164.82,140.12,159,137.89Z"/></g><g class="cls-2"><polygon class="cls-4" points="167.4 10.35 42.41 31.54 27.2 25.69 152.18 4.5 159.79 7.42 167.4 10.35"/><polygon class="cls-4" points="26.42 129.29 27.2 25.69 42.41 31.54 41.63 135.14 26.42 129.29"/><polygon class="cls-4" points="41.63 135.14 42.41 31.54 167.4 10.35 166.62 113.95 41.63 135.14"/><g class="cls-2"><g class="cls-5"><path class="cls-3" d="M85.81,69.26a5.35,5.35,0,0,0-3,1.69c-.2.21-.3.32-.4.34s-.22-.08-.4-.28a2.47,2.47,0,0,0-2.36-.71A4.76,4.76,0,0,0,77,71.79a.64.64,0,0,1-.3.21c-.09,0-.13-.12-.15-.41,0-.53-.09-.61-.55-.53l-1,.16c-.46.08-.58.19-.58.67,0,.17,0,2.08,0,3.13l0,4.48c0,1-.07,3-.07,3.13,0,.49.11.56.57.49l1.15-.2c.46-.08.58-.19.58-.68,0-.15,0-2.08,0-3.12l0-4.06a1.42,1.42,0,0,1,.45-1.12,3.23,3.23,0,0,1,1.75-1c1.22-.21,1.79.65,1.78,2.06l0,3.45c0,1-.06,3-.06,3.14,0,.49.11.56.57.49l1.15-.2c.45-.08.57-.19.58-.68,0-.15,0-2.08,0-3.12l0-4.18a1.11,1.11,0,0,1,.39-1,3.17,3.17,0,0,1,1.74-1c1.24-.21,1.8.64,1.79,2.06l0,3.45c0,1-.06,3-.06,3.14,0,.49.12.56.57.48l1.15-.19c.46-.08.57-.19.58-.68,0-.16,0-2.08,0-3.12l0-4.18c0-2.57-1.28-3.92-3.24-3.59"/><path class="cls-3" d="M96.19,77.41c-1.54.26-2.65-.94-2.63-3.07s1-4.07,2.88-4.38c1.55-.26,2.69.91,2.67,3.09s-1.22,4.07-2.92,4.36m.37-10C93.27,68,91.29,71,91.27,74.7c0,3.55,2,5.45,4.85,5,3.12-.53,5.26-3.33,5.29-7.22,0-3.55-2-5.49-4.85-5"/><path class="cls-3" d="M109,65.35a4.46,4.46,0,0,0-1.09.42,6.12,6.12,0,0,0-1.59,1.33c-.14.17-.24.25-.3.26s-.17-.16-.17-.66-.12-.68-.63-.59l-.84.14c-.45.08-.57.19-.57.67,0,.17,0,2.08,0,3.13l0,4.47c0,1-.06,3-.06,3.14,0,.49.11.56.56.49l1.16-.2c.45-.08.57-.19.57-.68,0-.15,0-2.08,0-3.12l0-3.55a1.42,1.42,0,0,1,.45-1.12,3.8,3.8,0,0,1,2.07-1.25c.2,0,.37,0,.47,0s.34-.17.34-.52V65.91c0-.46-.07-.61-.37-.56"/><path class="cls-3" d="M113.64,69.36c-.32,0-.46,0-.46-.18a3.47,3.47,0,0,1,2.55-2.69,1.44,1.44,0,0,1,1.67.83,2.66,2.66,0,0,1,.26,1.05c0,.23-.16.34-.51.39l-3.51.6m2.19-5.19c-3.06.52-5,3.58-5.06,7.18,0,3.13,1.43,5.59,5,5A7.55,7.55,0,0,0,119,74.93c.28-.21.4-.34.4-.55a1,1,0,0,0-.12-.42l-.33-.71c-.14-.3-.22-.45-.37-.43a1.56,1.56,0,0,0-.4.26,4.88,4.88,0,0,1-2.22,1,2.19,2.19,0,0,1-2.53-.89A2.78,2.78,0,0,1,113,72c0-.28.13-.37.49-.43l5.61-1c.51-.09.68-.3.69-1.48,0-3.58-1.43-5.36-4-4.93"/><path class="cls-3" d="M123.26,71.59a2,2,0,0,0-1.6,2.12c0,1,.6,1.53,1.41,1.39A2.05,2.05,0,0,0,124.65,73c0-1-.6-1.5-1.39-1.37"/><path class="cls-3" d="M128.4,70.72a2,2,0,0,0-1.59,2.12c0,1,.6,1.52,1.41,1.38a2,2,0,0,0,1.58-2.14c0-1-.6-1.49-1.4-1.36"/><path class="cls-3" d="M133.56,69.85A2,2,0,0,0,132,72c0,1,.6,1.52,1.41,1.38A2.05,2.05,0,0,0,135,71.21c0-1-.6-1.5-1.39-1.36"/></g></g><path class="cls-3" d="M38.06,31.36l-.78,130.46c0,1.54-2.85,3-8.12,3.91l.78-130.46C35.21,34.38,38.05,32.89,38.06,31.36Z"/><path class="cls-3" d="M0,161.55.78,31.09C.77,32,1.83,33,4,33.83c5.81,2.24,17.41,2.88,25.91,1.44l-.78,130.46c-8.49,1.44-20.09.8-25.9-1.43C1.05,163.45,0,162.49,0,161.55Z"/><ellipse class="cls-3" cx="19.42" cy="31.23" rx="4.81" ry="18.64" transform="translate(-11.95 50.41) rotate(-89.57)"/></g></g></g></svg>