<svg xmlns="http://www.w3.org/2000/svg" viewBox="0 0 78.01 210.76"><defs><style>.cls-1{fill:#b5a081;}.cls-2{fill:#fff;}.cls-3{fill:none;stroke:#fff;stroke-linecap:round;stroke-linejoin:round;}</style></defs><g id="レイヤー_2" data-name="レイヤー 2"><g id="レイヤー_1-2" data-name="レイヤー 1"><path class="cls-1" d="M39,0C84.48,0,84.3,52.93,68.13,76c-6.85,9.79-16.93,15.13-26,16.15L43.67,98l-5.49.17c-1.48,7.15-1,14.12.28,22.34,2,13.14,1.53,25.49,1,38.56l0,.58a66.75,66.75,0,0,0,1.2,13.06,77.24,77.24,0,0,1,1.26,11.71,64.84,64.84,0,0,1-1.45,11.88c-.87,4.69-1.77,9.54-1.28,14.29l-1.4.14c-.5-4.95.42-9.9,1.31-14.68a64.51,64.51,0,0,0,1.42-11.63A76.6,76.6,0,0,0,39.24,173,68.34,68.34,0,0,1,38,159.62l0-.58c.54-13,1.05-25.28-1-38.29-1.28-8.26-1.77-15.28-.34-22.51l-4.4.13L34.73,92C26,90.71,16.45,85.42,9.88,76-6.29,52.93-6.47,0,39,0Z"/><path class="cls-2" d="M27.91,18.39c.58,6-6.86,12.63-13.42,7.93-9.07-6.49,3-17.84,10.27-13,.2.13.4.28.6.44A6.68,6.68,0,0,1,27.91,18.39Z"/><polyline class="cls-3" points="21.89 59.61 39.01 40.55 57.79 59.61"/></g></g></svg>