<?xml version="1.0" encoding="UTF-8"?><svg id="_レイヤー_1" xmlns="http://www.w3.org/2000/svg" viewBox="0 0 1272.09 81.87"><defs><style>.cls-1{fill:#af9679;}</style></defs><path class="cls-1" d="M39.39,34.7c.72.72,1.37,1.73,1.44,2.95.65,7.56-.29,15.62-1.37,20.52-.58,2.52-2.02,6.41-3.53,6.41-2.16,0-3.38-5.69-3.02-7.49.43-2.02,1.44-5.11,1.73-6.41.79-3.38,1.08-7.42,1.08-12.46,0-.72.07-2.09.29-3.17-2.66.29-5.18.58-7.34.86-4.68.58-7.49,1.8-9.43,1.58-2.3-.29-5.04-3.53-5.04-5.18,0-1.01,1.51-1.8,5.4-2.38,6.05-.94,26.35-2.95,32.83-2.09,2.02.29,3.74,2.45,3.74,3.53-.07,1.15-1.01,1.94-2.52,2.09-4.18.22-9.36.65-14.26,1.22ZM44.5,13.32c1.66.94,3.53,3.46,2.95,4.75-.36.79-1.66,1.01-3.02.79-3.02-.5-6.05-.72-10.51-1.01-2.88-.22-5.69.43-7.49.07-2.38-.5-5.4-4.25-4.68-5.9.65-1.44,4.75-1.37,6.55-1.3,3.67.22,13.61,1.15,16.2,2.59ZM60.27,7.12c3.31,0,7.06,2.38,7.06,4.46,0,1.58-.43,2.02-1.3,2.02-.79,0-1.73-.22-4.03-1.3-.22.07-.29,2.88,0,4.32.22,1.22.07,3.31-.94,3.96-.86.58-2.02,0-2.88-.58-1.22-.86-2.66-3.38-4.68-5.26-1.01-.94-1.94-2.16-1.58-3.1.29-.79,2.23-1.01,4.1-.29,1.3.5,2.23.94,2.66,1.51-.22-2.16-.5-4.39,0-5.18.29-.43.86-.58,1.58-.58Z"/><path class="cls-1" d="M95.11,24.48c.07-4.68.22-8.86.29-10.37.07-1.66.43-4.1,1.66-4.32,1.08-.22,3.96,2.16,3.96,4.54,0,1.66,0,5.47.07,9.65,4.18-.29,8.57-.5,12.67-.72.22-2.3.36-4.25.36-5.69,0-1.87.22-4.82,1.44-5.04,1.66-.36,3.96,2.95,4.1,5.04.07,1.44,0,3.38-.07,5.54,4.46-.14,9.14-.07,10.73.29,2.09.43,3.89,3.38,3.46,4.61-.36,1.08-2.02,1.37-3.46,1.44-1.94.07-6.26.14-11.31.36-.65,5.98-1.58,12.24-2.45,15.62-1.51,6.48-3.53,11.02-5.4,14.4-1.73,3.1-2.59,3.82-3.6,3.82-1.22,0-2.95-4.54-2.38-7.49.43-1.66,3.67-5.69,5.76-13.11.79-2.88,1.51-7.92,2.16-12.96-1.08.07-2.16.14-3.31.22-3.02.22-5.98.43-8.57.72.07,3.82.14,7.13.29,8.71.14,2.02-.07,3.75-.72,3.96-1.22.43-3.96-1.37-4.82-4.82-.43-1.58-.65-4.25-.79-7.13-.72.07-1.37.14-2.02.29-3.02.5-6.98,1.58-8.42,1.37-1.66-.29-4.9-3.31-4.9-5.26,0-1.37,1.73-2.02,7.63-2.88,2.09-.29,4.68-.58,7.63-.79ZM131.48,4.68c3.17,0,7.06,2.16,7.06,4.68,0,1.15-.36,1.8-1.22,1.8-.94,0-1.73-.22-4.1-1.3-.22.07-.29,2.88,0,4.32.22,1.22.07,3.31-.94,3.96-.86.58-2.02,0-2.88-.58-1.22-.86-2.66-3.38-4.68-5.26-1.01-.94-1.94-2.16-1.58-3.1.29-.79,2.23-1.01,4.1-.29,1.3.5,2.23.94,2.66,1.51-.22-2.16-.5-4.39,0-5.18.29-.43.86-.58,1.58-.58Z"/><path class="cls-1" d="M196.13,13.89c0,1.01-.14,2.09-.58,3.02-.94,2.16-4.97,5.83-9.58,9.86.29.36.5.72.72,1.15.94,2.02.58,4.1.58,5.54.14,6.26.14,22.25-.14,24.92-.5,3.67-.94,4.39-1.8,4.39-1.58,0-3.74-3.1-3.96-5.11-.14-1.22.36-6.41.36-8.93,0-2.38-.07-12.02-.14-18.15-2.88,2.66-7.49,6.26-11.74,9.22-3.89,2.74-7.99,5.04-9.07,4.46-.58-.36-.86-1.37-.86-2.67,0-2.02.65-4.46,1.3-5.18,1.15-1.22,5.04-2.67,7.63-4.39,8.35-5.54,13.97-10.73,22.25-19.59,1.01-1.08,2.38-2.52,3.38-2.52.58,0,1.66,1.01,1.66,3.96Z"/><path class="cls-1" d="M248.26,20.88c1.22,1.51,1.94,4.82.79,5.62-.79.58-2.38-.14-3.1-.58-3.38-2.02-8.79-4.32-10.51-5.9-1.15-1.08-1.8-3.24-1.8-4.68,0-.65.07-1.15.36-1.37.36-.29,1.01-.43,1.66-.43,1.08,0,2.38.29,3.67.79,3.31,1.22,6.77,3.82,8.93,6.55ZM250.2,52.78c-3.74,2.88-10.01,6.34-12.38,6.34-.29,0-.5-.07-.65-.14-1.94-1.15-.58-7.49.5-8.93.72-.94,6.48-3.31,8.42-4.46,10.37-6.12,16.06-12.1,21.46-19.01,1.58-2.02,3.31-3.67,4.61-3.53.86.14,1.87,2.3,1.87,4.39,0,.65-.07,1.22-.29,1.73-1.51,3.75-14.69,16.85-23.55,23.62Z"/><path class="cls-1" d="M315.15,31.61c-1.3-3.6-1.3-12.17-1.3-17.21,0-2.38.14-5.54,1.58-5.54,1.73,0,3.96,2.95,4.32,5.4.29,1.66,0,13.03.5,14.55.5,1.51,1.8,2.81,3.24,1.73,1.3-1.01,3.89-2.88,6.26-4.75,2.45-2.02,5.18-3.82,6.12-3.74,1.22.07,3.38,3.31,3.38,5.26,0,.29,0,.5-.14.79-.65,1.44-4.03,2.59-7.27,4.61-3.74,2.38-7.34,4.46-10.73,8.21-2.66,2.95-6.12,7.63-5.54,9.5,1.08,3.67,7.92,4.32,12.96,3.6,2.59-.36,4.32-1.22,5.4-1.08,1.37.22,4.68,4.03,3.67,5.54-.94,1.37-6.84,2.59-11.88,2.59-5.54,0-9.94-1.58-12.24-4.03-2.02-2.23-3.74-5.91-3.74-8.57,0-2.45,4.18-9.36,8.57-13.25-1.51,0-2.81-2.45-3.17-3.6Z"/><path class="cls-1" d="M411.77,60.19c0,.36-.07.79-.14,1.01-.58,1.58-2.66,1.51-4.1,1.51-4.1,0-12.38.29-14.62.5-2.38.29-4.03.43-5.11.43-.22,0-.5,0-.86-.07-1.51-.22-3.82-2.66-3.82-4.18,0-.94.58-1.8,2.38-2.16,2.81-.5,5.83-.72,7.34-1.08,1.58-.36,1.66-1.01,1.66-2.81.14-7.92.86-30.46,1.01-33.92-2.38.07-6.84.94-8.57.72-1.51-.22-3.38-2.45-3.46-4.1-.07-1.15,1.44-2.09,3.53-2.45,2.59-.5,9.94-.79,14.62-.79,1.44,0,2.66,0,3.38.07,1.87.14,3.82,2.16,3.6,3.82-.22,1.37-1.3,1.87-3.6,2.09-3.02.29-3.38,1.15-3.46,3.67-.14,3.6-.79,23.11-.79,33.77,2.59-.07,5.18-.07,7.78,0,1.66.07,3.24,2.09,3.24,3.96Z"/><path class="cls-1" d="M438.98,63.72c-2.02,0-3.6-4.32-3.89-6.19-.36-2.38,1.01-29.81,1.01-38.09-3.46-.07-12.31,1.3-13.61.94-1.87-.5-4.1-3.02-4.1-4.61,0-1.3,1.66-1.87,4.18-2.23,3.38-.43,9.58-.65,14.33-.79,3.17-.07,6.77-.14,9.86-.14,3.46,0,6.19.07,6.91.29,2.02.5,3.74,2.38,3.74,3.75,0,1.22-.86,1.8-4.39,1.94-2.45.07-5.98.22-8.5.43-1.37.14-2.16.86-2.23,2.16-.29,5.9-.58,35.14-.65,36.29-.22,4.18-1.44,6.26-2.66,6.26Z"/><path class="cls-1" d="M494.28,16.7c7.42-1.66,23.69-3.82,31.83-3.82,1.37,0,2.52.07,3.38.22,3.53.58,6.84,4.18,6.05,5.98-.58,1.37-6.26,4.9-10.51,9.58-4.54,5.04-7.34,10.08-7.34,13.83s2.88,8.57,5.62,11.52c.5.58.72,1.8.72,3.02,0,3.17-.65,5.04-1.73,5.04-1.8,0-5.33-3.89-6.91-6.84-3.24-6.12-4.32-12.31-3.24-17.5.65-3.1,3.1-7.49,6.34-11.38,4.03-4.9,8.28-7.06,7.85-7.56-.36-.43-13.03.86-21.46,2.95-3.17.79-8.21,2.59-10.01,2.59-2.38,0-6.12-3.02-6.12-4.82,0-1.15,2.95-2.23,5.54-2.81ZM542.02,23.47c1.66.36,3.67,1.66,4.32,2.52.36.5.65,1.37.65,2.09,0,.58-.14,1.08-.5,1.37-.65.5-2.02.07-2.59-.14-.79-.29-1.8-.72-2.23-.94-.22.07-.29,2.88,0,4.32.22,1.22.07,3.31-.94,3.96-.86.58-2.02,0-2.88-.58-1.22-.86-2.66-3.38-4.68-5.26-1.01-.94-1.94-2.16-1.58-3.1.29-.79,2.23-1.01,4.1-.29,1.3.5,2.23.94,2.67,1.51-.22-2.16-.5-4.39,0-5.18.5-.79,2.16-.65,3.67-.29Z"/><path class="cls-1" d="M566.93,66.53c-1.87,0-3.82-2.74-4.82-3.89-3.46-3.96-4.68-4.9-6.41-6.48-.72-.65-1.15-1.66-1.15-2.52,0-1.08.58-1.73,2.23-1.73.94,0,1.87.14,2.74.43,2.74.94,7.63,4.03,9.43,7.2.5.86.72,1.87.72,2.81,0,2.3-1.3,4.18-2.74,4.18Z"/><path class="cls-1" d="M652.03,62.78c-1.94,0-5.33-2.74-6.98-4.9-2.66-3.46-3.02-5.76-3.02-6.91,0-1.73.94-4.97,3.89-6.19,1.51-.65,4.25-1.01,6.84-1.22,0-4.54-.07-10.73-.22-15.19-.5-1.3-3.53-3.38-3.24-4.9.22-.94,1.73-1.51,3.24-1.87-.14-3.74-.29-6.62-.43-9.58-.29-4.68.14-5.11,1.01-5.11,1.37,0,3.6,2.38,4.46,5.4.36,1.22.36,4.32.29,8.5.79-.07,1.66-.14,2.59-.22,4.61-.36,10.73-.79,12.03-.29,1.73.72,3.6,3.24,3.6,4.82,0,1.44-1.37,1.66-6.19,1.8-2.81.14-7.99.43-12.1.65,0,1.58.07,3.1.07,4.68.07,4.32.07,7.99.14,11.16,6.55.22,12.17,1.37,14.11,2.74,1.58,1.08,3.31,5.11,2.59,6.48-.58,1.01-3.1.79-5.04-.07-1.58-.72-6.91-2.74-11.67-2.95,0,3.46-.14,5.83-.43,7.13-.72,3.46-3.17,6.05-5.54,6.05ZM651.17,56.74c.94-.29,1.15-3.1,1.37-6.77-2.74.36-4.03,1.08-4.39,1.73-.5,1.01,1.8,5.33,3.02,5.04Z"/><path class="cls-1" d="M720.43,8.42c1.58,0,3.46,3.67,3.46,6.48,0,1.58-.94,5.33-1.22,7.56-.72,5.33-.58,11.09-.22,11.16.65.07,1.3-1.58,2.02-1.58,1.51,0,3.24,4.03,2.66,6.05-.43,1.44-3.89,4.68-5.54,4.68-2.3,0-4.97-7.13-4.97-15.34,0-7.56,1.51-19.01,3.82-19.01ZM741.24,17.28c.43,1.44.86,5.26.86,10.51,0,8.21-2.45,21.82-5.4,30.46-1.3,3.6-3.31,7.63-4.9,7.63s-2.45-5.04-2.16-7.63c.22-1.73,3.1-6.7,4.25-12.53,2.3-12.02,2.81-18.94,1.73-28.15-.22-1.87-.14-4.82.94-5.11,1.3-.36,3.89,2.09,4.68,4.82Z"/><path class="cls-1" d="M796.03,62.78c-1.94,0-5.33-2.74-6.98-4.9-2.66-3.46-3.02-5.76-3.02-6.91,0-1.73.94-4.97,3.89-6.19,1.51-.65,4.25-1.01,6.84-1.22,0-4.54-.07-10.73-.22-15.19-.5-1.3-3.53-3.38-3.24-4.9.22-.94,1.73-1.51,3.24-1.87-.14-3.74-.29-6.62-.43-9.58-.29-4.68.14-5.11,1.01-5.11,1.37,0,3.6,2.38,4.46,5.4.36,1.22.36,4.32.29,8.5.79-.07,1.66-.14,2.59-.22,4.61-.36,10.73-.79,12.03-.29,1.73.72,3.6,3.24,3.6,4.82,0,1.44-1.37,1.66-6.19,1.8-2.81.14-7.99.43-12.1.65,0,1.58.07,3.1.07,4.68.07,4.32.07,7.99.14,11.16,6.55.22,12.17,1.37,14.11,2.74,1.58,1.08,3.31,5.11,2.59,6.48-.58,1.01-3.1.79-5.04-.07-1.58-.72-6.91-2.74-11.67-2.95,0,3.46-.14,5.83-.43,7.13-.72,3.46-3.17,6.05-5.54,6.05ZM795.17,56.74c.94-.29,1.15-3.1,1.37-6.77-2.74.36-4.03,1.08-4.39,1.73-.5,1.01,1.8,5.33,3.02,5.04Z"/><path class="cls-1" d="M862.99,54.43c-2.52,0-5.54-2.88-7.63-7.06-1.94-3.82-4.75-13.39-5.69-18.65-.29-1.37-.5-3.02-.5-4.39,0-1.51.5-1.87,1.22-1.87,1.44,0,3.75,1.87,4.32,2.95.72,1.3,2.59,10.23,3.89,14.4,1.08,3.46,2.52,6.12,3.31,6.19,1.37.14,4.03-3.74,4.97-3.46,1.15.29,3.46,3.74,2.81,6.12-.58,2.02-4.75,5.76-6.7,5.76ZM886.32,28.08c-.94-1.44-1.58-3.31-.79-3.96.86-.72,3.46-.22,5.98,2.23,2.59,2.52,4.97,6.41,5.83,9.29.36,1.22.58,2.66.58,3.89,0,1.44-.29,2.66-.94,2.95-1.3.58-4.18-.79-5.18-2.23-.79-1.08-1.73-3.38-2.09-4.46-1.01-2.95-1.73-5.11-3.38-7.71Z"/><path class="cls-1" d="M917.64,20.59c.14-.72,1.58-2.02,2.66-3.74-.58.29-1.15.43-1.58.29-1.51-.29-3.17-2.95-3.17-4.82,0-2.02,2.88-5.11,6.19-5.11,2.23,0,4.61,1.94,4.61,6.84,0,2.66-1.51,5.11-3.31,7.92-.72,1.15-2.81,3.89-3.67,3.89-1.44,0-2.02-3.96-1.73-5.26ZM931.54,20.59c.14-.79,1.58-2.02,2.66-3.82-.5.29-1.15.43-1.58.36-1.66-.29-3.38-3.46-3.1-5.33.36-2.02,3.1-4.61,6.05-4.61,2.23,0,4.68,1.94,4.68,6.84,0,2.66-1.51,5.11-3.31,7.92-.72,1.15-2.81,3.89-3.67,3.89-1.44,0-2.02-3.96-1.73-5.26Z"/><path class="cls-1" d="M1004.47,16.48c.22,2.88,1.01,39.89,1.01,41.98.07,2.3-.07,4.25-1.3,4.25-1.37,0-3.24-2.59-3.53-4.61-.79-5.91-1.3-34.13-1.3-40.61,0-2.59.22-5.04,1.15-5.26,1.51-.36,3.74,1.58,3.96,4.25ZM1010.23,31.39c2.52-.79,11.09-2.74,14.33-2.09s7.27,4.97,6.55,7.85c-.79,3.1-11.38,13.83-11.23,14.62.07.5,6.77-1.15,9-.72,1.08.22,2.09,1.08,2.81,2.16.29-6.19,2.52-33.92,2.02-34.42-.65-.65-8.86.14-13.46,1.08-4.18.86-6.84,2.16-8.79,1.87-2.02-.29-5.11-3.89-5.11-5.33,0-1.08,2.02-2.16,4.61-2.81,4.39-1.08,13.03-2.02,18.51-2.02,1.44,0,2.66.07,3.53.22,2.59.43,5.26,3.24,6.26,5.83.5,1.3.65,2.23.65,3.53,0,6.77-1.87,28.15-2.52,32.83-.43,3.02-1.15,5.62-2.02,5.69-1.01.07-2.02-.72-2.74-1.94-.72.65-2.09.86-3.67,1.01-1.66.14-5.54.36-7.13.5-4.32.36-8.21,1.73-9.65,1.51-2.16-.36-5.33-4.18-4.9-6.05.29-1.3,3.82-2.45,4.9-3.24,2.3-1.66,12.96-14.19,12.46-14.98s-3.1,0-5.62.65c-2.52.65-5.62,2.09-7.27,2.16-2.02.07-5.26-3.1-5.26-4.75,0-1.22,2.16-2.67,3.74-3.17Z"/><path class="cls-1" d="M1071.93,17.13c.29,2.16.86,9.5,1.08,12.31.14,2.16,0,3.46-1.01,3.75-1.15.36-3.6-1.66-4.46-4.75-.65-2.3-1.15-8.71-1.15-12.24,0-1.94.79-3.82,1.8-3.89,1.3-.07,3.46,2.59,3.74,4.82ZM1077.84,48.1c0,3.96.5,10.73.79,13.46.22,2.38,0,3.89-.94,3.89-1.58,0-4.1-3.17-4.32-5.18-.58-4.68-.86-8.28-.86-12.24,0-1.37.36-4.1,1.51-4.1,1.44,0,3.82,2.52,3.82,4.18ZM1084.32,11.59c.36.72.5,1.58.5,2.38,1.44-.22,2.95-.36,4.54-.5-.36-1.66-.65-5.47-.58-7.56.07-3.24.72-4.1,1.44-4.1,1.22,0,3.53,2.3,3.6,3.53.07,1.73,0,5.11-.07,7.71,1.37-.14,2.74-.29,3.96-.36,1.37-1.37,2.38-3.02,3.17-4.18,2.09-3.02,3.31-4.83,4.32-4.75,1.44.07,3.82,3.96,3.38,5.18-.29.86-1.87,2.16-3.53,3.89,2.38-.22,4.75-.22,6.34.07,2.81.72,5.26,4.03,5.26,5.18,0,2.95-2.3,9.07-3.82,9.58-1.66.43-4.68-2.81-4.9-4.18-.22-1.22,2.66-4.32,2.16-4.9-.22-.22-.65-.36-2.52-.36-6.98,0-21.46,1.37-26.64,2.66-1.58.36-2.95.58-3.89.58-1.8,0-4.25-3.24-4.25-4.25,0-.86,1.22-1.8,4.39-2.3.58-.07,1.22-.22,2.02-.29-1.01-1.22-1.66-2.52-2.38-4.54-.65-1.8-1.01-3.53-.22-3.96,1.87-1.01,6.12,2.23,7.7,5.47ZM1081.8,46.29c1.08-.29,3.75-.79,6.91-1.3v-.86c0-.86.07-1.8.22-2.59h-.22c-1.44-.29-3.53-2.95-3.02-4.39.29-.86,3.82-1.3,5.69-2.3,1.51-.79,6.34-5.9,5.98-6.41-.5-.72-8.64.86-12.46,3.31,0,2.52.07,5.54.14,7.2.07,1.44-.22,2.66-.79,2.88-.65.22-2.59-1.51-3.24-3.38-.65-1.94-.86-8.71-.86-12.31,0-1.58-.07-3.75.72-3.96s3.24.86,3.53,2.95c3.31-1.37,10.51-3.24,13.25-2.59,2.81.65,5.62,3.67,5.11,5.69-.58,2.3-3.82,5.62-3.74,5.9s.79-.07,1.37.14c.86.29,2.3,2.88,1.58,3.96-.86,1.3-3.96,1.08-6.55,1.58-.65.14-1.73.5-2.81.86.58.72,1.08,1.58,1.08,2.59v1.08c4.32-.5,8.5-.86,10.22-.65,2.38.36,5.47,4.03,5.47,6.05,0,1.15-.36,4.61-.79,6.48-.72,3.38-2.16,7.7-3.6,7.7-1.73,0-3.46-4.82-3.17-6.34.29-1.37,1.01-2.74,1.44-4.18.58-1.94.79-3.89.43-4.39-.29-.43-5.33,0-10.01.86-.07,5.18-.14,11.95-.14,15.91,0,3.02-.58,4.82-1.51,4.82-1.08,0-3.17-1.87-3.31-3.96-.22-3.53-.14-10.15-.07-15.48-2.09.72-4.39,1.51-5.47,1.51-1.58,0-4.9-2.45-4.9-3.67,0-1.01,1.58-2.23,3.53-2.74Z"/><path class="cls-1" d="M1134.93,20.59c.14-.72,1.58-2.02,2.66-3.74-.58.29-1.15.43-1.58.29-1.51-.29-3.17-2.95-3.17-4.82,0-2.02,2.88-5.11,6.19-5.11,2.23,0,4.61,1.94,4.61,6.84,0,2.66-1.51,5.11-3.31,7.92-.72,1.15-2.81,3.89-3.67,3.89-1.44,0-2.02-3.96-1.73-5.26ZM1148.83,20.59c.14-.79,1.58-2.02,2.66-3.82-.5.29-1.15.43-1.58.36-1.66-.29-3.38-3.46-3.1-5.33.36-2.02,3.1-4.61,6.05-4.61,2.23,0,4.68,1.94,4.68,6.84,0,2.66-1.51,5.11-3.31,7.92-.72,1.15-2.81,3.89-3.67,3.89-1.44,0-2.02-3.96-1.73-5.26Z"/><path class="cls-1" d="M1225.37,39.6c-1.87-1.37-2.81-4.32-2.52-6.62.29-2.16,2.66-6.12,5.26-10.44-1.66.43-3.17.86-4.1.65-1.94-.43-3.74-3.6-3.74-5.11,0-1.22,1.22-1.58,5.76-1.87,1.73-.07,3.75-.29,5.98-.58,3.02-5.18,4.75-6.34,6.7-6.34,2.3,0,4.9,7.13,4.03,8.78-.72,1.22-4.18,2.45-7.78,3.24-.72,1.15-1.51,2.52-2.16,3.75-2.23,4.1-4.18,7.42-3.89,8.21.79,1.94,6.26,3.82,7.42,3.74.79-.07,2.88-1.8,4.1-2.74,1.22-.94,3.1-2.3,4.97-3.46,1.87-1.15,3.89-2.45,5.26-2.09.72.22,1.44,2.38,1.44,4.68,0,2.45-.43,2.95-5.9,5.4-.94.43-1.51,1.01-1.87,1.8-.79,1.73-.79,4.97-1.87,5.4-.94.36-3.17,0-5.47-.79-2.45,2.66-4.9,6.62-4.18,8.14.94,2.16,3.38,2.45,6.26,2.38,3.02-.07,5.4-.94,6.62-.86,1.51.14,4.18,3.82,3.6,5.18-.65,1.3-5.54,2.38-8.79,2.38-2.66,0-7.13-1.15-9.58-2.95-1.87-1.37-3.82-4.61-3.46-8.14.22-2.02,2.52-5.98,4.25-8.35-1.01-.36-4.32-1.87-6.34-3.38Z"/></svg>