<svg xmlns="http://www.w3.org/2000/svg" viewBox="0 0 521.41 340.27"><defs><style>.cls-1{fill:#eeb1c0;}.cls-2{fill:#fff;}</style></defs><g id="レイヤー_2" data-name="レイヤー 2"><g id="レイヤー_1-2" data-name="レイヤー 1"><path class="cls-1" d="M486.93,275.76c0,35.64-101.95,64.51-243.45,64.51S0,311.4,0,275.76s102-76.58,243.48-76.58S486.93,240.11,486.93,275.76Z"/><path class="cls-2" d="M422.39,267.54c0,23.16-79.27,42-177,42s-177-18.8-177-42,79.27-42,177-42S422.39,244.35,422.39,267.54Z"/><path class="cls-1" d="M444.7,1.13C440.8,18.5,347,32.41,231.85,32.41c-117.65,0-213-14.51-213-32.41C15.18,0,25,77.12,26.45,84A335.15,335.15,0,0,0,55,167.69c35,69.6,96.23,112.77,176.46,108.73,80.25,4,141.44-39.13,176.47-108.73A333.9,333.9,0,0,0,436.52,84C437.78,77.6,446.4,10.61,444.7,1.13Z"/><path class="cls-1" d="M412.12,205.19a10.5,10.5,0,0,1-5.31-1.44,22.83,22.83,0,0,1-11.25-18.39,30.91,30.91,0,0,1,11.25-25.55c8.62-7,20-9.17,29.94-11.12a96.23,96.23,0,0,0,11.94-2.75c20.83-7,42.73-31.43,44.3-49.23,1.08-12.38-3.7-26.65-11.64-34.74A24.94,24.94,0,0,0,461,54.24c-7.35.48-11.07,10.06-11.2,16.38-.15,4.88,2.16,10.92,6.83,12.92,2,.85,4.37.13,4.8-.44h0a3.2,3.2,0,0,0-.05-.77A10.37,10.37,0,0,1,482,79.46a21.05,21.05,0,0,1-8.09,20.28,25.75,25.75,0,0,1-25.37,2.88C436.47,97.46,426.86,84.21,429,70c9.89-62.46,56.8-49.87,75.4-30.61C516.54,52,524.68,71.67,520.13,98.54c-11.42,68.18-95.71,73.67-100.28,77.42a10.46,10.46,0,0,0-3.57,7.89c.1,1.43.64,1.77,1.1,2a10.39,10.39,0,0,1-5.26,19.34Z"/></g></g></svg>