<svg xmlns="http://www.w3.org/2000/svg" viewBox="0 0 425.27 277.53"><defs><style>.cls-1{fill:#c1e2e4;}.cls-2{fill:#fff;}</style></defs><g id="レイヤー_2" data-name="レイヤー 2"><g id="レイヤー_1-2" data-name="レイヤー 1"><path class="cls-1" d="M397.15,224.91c0,29.07-83.16,52.62-198.57,52.62S0,254,0,224.91s83.18-62.46,198.58-62.46S397.15,195.84,397.15,224.91Z"/><path class="cls-2" d="M344.51,218.21c0,18.89-64.66,34.22-144.38,34.22S55.74,237.1,55.74,218.21,120.4,184,200.13,184,344.51,199.3,344.51,218.21Z"/><path class="cls-1" d="M336.13,167.35a8.47,8.47,0,0,1-4.33-1.17,18.65,18.65,0,0,1-9.18-15,25.25,25.25,0,0,1,9.18-20.84c7-5.72,16.29-7.47,24.42-9.07A79,79,0,0,0,366,119c17-5.74,34.85-25.63,36.13-40.15.88-10.1-3-21.74-9.49-28.34A20.35,20.35,0,0,0,376,44.24c-6,.39-9,8.21-9.13,13.36-.13,4,1.76,8.9,5.57,10.53a4.13,4.13,0,0,0,3.92-.35h0a3,3,0,0,0,0-.63,8.46,8.46,0,0,1,16.75-2.35,17.13,17.13,0,0,1-6.6,16.55,21,21,0,0,1-20.69,2.35c-9.8-4.21-17.64-15-15.88-26.58,8.07-50.94,46.34-40.68,61.5-25,9.89,10.28,16.53,26.31,12.82,48.22-9.32,55.61-78.06,60.09-81.79,63.15a8.55,8.55,0,0,0-2.92,6.43c.09,1.17.53,1.44.91,1.63a8.47,8.47,0,0,1-4.3,15.77Z"/><path class="cls-1" d="M362.7.92C359.52,15.09,283,26.43,189.1,26.43,93.15,26.43,15.35,14.6,15.35,0c-3,0,5.07,62.9,6.22,68.49a273.25,273.25,0,0,0,23.32,68.28c28.57,56.77,78.48,92,143.91,88.69,65.46,3.28,115.37-31.92,143.94-88.69A272.38,272.38,0,0,0,356,68.49C357.06,63.3,364.09,8.65,362.7.92Z"/></g></g></svg>