<?xml version="1.0" encoding="UTF-8"?><svg id="_レイヤー_1" xmlns="http://www.w3.org/2000/svg" viewBox="0 0 181.58 81.86"><defs><style>.cls-1{fill:#af9679;}</style></defs><path class="cls-1" d="M19.51,64.51c-7.27,0-12.53-3.1-14.04-8.57-.29-1.01-.36-1.94-.36-2.74,0-2.3.79-3.89,1.87-3.96,1.15-.07,2.02,2.3,3.02,3.96,2.02,3.24,5.47,4.54,9.15,4.54,5.76,0,10.8-3.96,9.94-9.79-.5-3.1-5.33-5.76-11.02-9.15-3.38-2.02-6.98-4.39-8.64-6.41-3.31-4.03-2.52-9.07-1.37-11.45,2.74-5.69,10.37-8.93,16.78-8.93,2.16,0,4.25.36,5.9,1.15,3.67,1.8,5.62,4.97,5.62,7.99,0,2.81-1.15,4.68-2.52,4.75-2.02.14-4.1-1.8-4.1-3.53,0-1.51.07-2.74-.94-3.53-3.96-3.1-15.91,2.3-15.91,7.56,0,2.02,3.02,4.46,7.92,7.13,6.7,3.67,13.75,7.56,15.05,14.19,1.8,9.79-8.28,16.78-16.35,16.78Z"/><path class="cls-1" d="M53.93,63.36c-1.58,0-3.74-2.95-4.1-5.33-.07-.36-.07-.72-.07-1.08,0-1.94.22-5.98.5-11.02.36-8.21,1.08-21.67,1.08-31.4,0-3.96.86-6.19,2.23-6.19,1.58,0,3.74,2.38,4.1,4.54.29,1.87-.43,8.93-1.01,16.06-.14,1.8-.29,4.46-.43,7.13,2.09-1.08,4.25-2.23,6.34-3.38,1.8-1.01,10.94-6.98,12.67-6.77,1.08.14,1.73,2.66,1.73,4.46,0,.65-.07,1.22-.29,1.58-.86,1.51-8.78,4.75-10.37,5.54-1.73.86-4.25,1.94-6.05,2.66,3.24,3.46,6.55,6.91,9.36,9.58,2.09,2.02,4.54,3.67,5.4,4.82.72,1.01,1.87,4.82,1.87,7.13,0,1.3-.43,1.8-1.22,1.8-1.3,0-3.17-1.3-5.62-3.82-3.17-3.46-9.15-10.44-14.11-16.42-.14,3.02-.14,11.02-.14,13.11,0,5.54-.72,6.98-1.87,6.98Z"/><path class="cls-1" d="M92.66,63.36c-1.73,0-4.03-3.38-4.1-6.05,0-3.6.5-22.11.79-27,.14-2.95.5-5.33,2.09-5.4,1.73-.07,4.03,3.6,4.1,6.41.22,3.96-.43,18.79-.65,24.99-.22,5.11-1.08,7.06-2.23,7.06ZM91.44,18.64c-1.15-1.3-1.22-3.24-1.73-4.39-.58-1.44-.29-3.1.79-3.38.29-.07.43-.07.65-.07,1.51,0,3.38,1.22,4.54,3.02.72,1.15,1.01,2.38,1.01,3.46s-.29,2.02-.94,2.45c-1.22.79-3.1.36-4.32-1.08Z"/><path class="cls-1" d="M114.19,63.43c-1.15,0-4.25-2.09-4.25-6.91,0-8.06.86-35.07,1.15-42.2.14-4.46,1.01-5.98,2.09-5.98,1.44,0,3.96,2.74,3.96,6.62,0,1.94-.14,5.98-.29,9-.29,6.77-.79,22.25-.79,28.08,0,.94.07,5.18,0,6.05-.14,3.53-.86,5.33-1.87,5.33Z"/><path class="cls-1" d="M135.14,63.43c-1.15,0-4.25-2.09-4.25-6.91,0-8.06.86-35.07,1.15-42.2.14-4.46,1.01-5.98,2.09-5.98,1.44,0,3.96,2.74,3.96,6.62,0,1.94-.14,5.98-.29,9-.29,6.77-.79,22.25-.79,28.08,0,.94.07,5.18,0,6.05-.14,3.53-.86,5.33-1.87,5.33Z"/><path class="cls-1" d="M162.94,63.86c-5.33,0-9.94-2.09-12.02-5.47-1.15-1.87-1.73-3.67-1.73-5.04,0-1.08.36-1.8.86-2.09,1.01-.5,2.16.36,3.46,1.73,2.16,2.23,4.32,3.31,7.49,3.89,4.46.79,9.86-.36,9.43-5.47-.29-2.59-4.32-3.74-8.71-5.4-4.03-1.51-7.92-3.31-9.72-6.12-1.01-1.66-1.51-3.38-1.51-5.04,0-1.87.43-3.24,1.44-4.46,2.52-2.95,8.21-4.9,13.83-4.9,1.66,0,3.31.22,4.9.58,2.74.65,4.75,2.3,5.62,4.68.72,1.8.94,5.4-1.08,6.05-1.37.43-3.6-.79-3.89-2.38-.07-.36,0-.72.07-1.3.07-.79-.07-1.22-.79-1.66-2.95-1.8-13.97.22-14.11,3.82-.07,1.94,3.31,3.46,6.84,4.82,6.77,2.52,13.61,4.54,13.61,12.17,0,6.26-5.11,11.09-12.46,11.52-.94.07-1.22.07-1.51.07Z"/></svg>