<?xml version="1.0" encoding="UTF-8"?><svg id="_レイヤー_1" xmlns="http://www.w3.org/2000/svg" viewBox="0 0 321.69 81.86"><defs><style>.cls-1{fill:#af9679;}</style></defs><path class="cls-1" d="M3.38,58.68c0-.94.07-1.94.36-2.81.43-1.58,2.52-4.39,3.6-6.41.72-1.37,1.73-3.31,2.66-5.26-1.66-.86-3.1-3.1-2.59-4.25.5-1.08,2.45-1.58,5.11-1.87,2.3-5.62,5.4-13.46,7.99-20.67,1.37-3.82,2.59-5.83,3.67-5.83,1.73,0,3.02,3.89,2.81,5.4,3.53,10.23,7.42,21.03,10.22,27.51.79,1.87,3.89,8.86,4.25,9.65.65,1.44,1.01,3.6,1.01,5.47,0,2.38-.5,4.18-1.58,4.18-1.3,0-3.31-2.45-5.33-6.41-1.66-3.67-3.46-8.5-5.26-13.75-.43.07-1.01,0-1.66,0-2.74,0-9,.36-12.17.72-1.73,4.18-4.1,9.79-6.05,13.83-1.66,3.46-3.53,5.62-4.82,5.62-1.15,0-2.23-2.02-2.23-5.11ZM19.3,37.65c3.38-.22,6.91-.22,9.07-.07-1.44-4.32-2.74-8.71-3.96-12.75-1.22,2.95-2.88,7.2-5.11,12.82Z"/><path class="cls-1" d="M57.46,63.43c-2.16,0-4.18-4.32-4.39-6.05-.07-.58-.07-.94-.07-1.44,0-3.82.43-13.39.58-19.87.22-12.96.29-19.44.29-22.75,0-3.53.79-4.97,1.94-4.97,1.58,0,4.03,2.52,4.18,4.54.14,2.02-.22,15.19-.29,19.23,2.88-2.59,7.85-5.18,11.95-5.4,5.69-.29,10.01,3.67,10.95,9.36.14.86.22,1.8.22,2.74,0,7.42-4.1,16.27-9.94,20.52-3.67,2.74-7.13,3.67-11.02,2.88-1.08-.22-2.02-.5-2.81-.79-.22,1.37-.79,2.02-1.58,2.02ZM69.84,53.86c2.52-2.02,5.26-5.9,6.34-9.86,1.44-5.11.72-9.29-1.73-10.37-3.46-1.58-11.38,2.09-14.76,6.84-.22,4.39-.29,12.31-.29,15.41l.5.22c2.95,1.15,6.55.5,9.94-2.23Z"/><path class="cls-1" d="M105.27,64.37c-5.26,0-10.08-3.1-12.89-8.5-1.37-2.66-2.09-5.9-2.09-9.14,0-4.97,1.58-10.08,4.46-13.83,3.17-4.03,7.06-6.41,11.23-6.98.5-.07,1.01-.07,1.58-.07,2.23,0,4.61.65,6.34,2.16.36.29.58.72.72,1.22.79.36,1.73,1.01,2.66,1.8,3.17,3.31,4.97,8.06,4.97,13.25,0,.94-.07,1.87-.22,2.88-1.01,8.14-6.77,15.34-13.54,16.85-1.08.22-2.16.36-3.24.36ZM107.14,58.61c2.95-.65,6.91-5.62,8.28-12.67.79-4.54-.07-8.35-2.3-11.45-.14-.22-.29-.43-.43-.65-.14.07-.36.07-.5.07-1.58-.14-2.02-2.74-4.46-3.17-1.58-.29-5.4,2.02-7.99,5.98-3.1,4.75-3.6,11.3-1.22,16.27,1.8,4.03,5.54,6.26,8.64,5.62Z"/><path class="cls-1" d="M156.6,25.63c1.66,0,4.18,2.81,4.18,5.26,0,2.95-1.08,13.18-.86,23.33.22,8.42-.65,9.22-1.58,9.22-1.37,0-3.31-1.94-3.82-4.1-.43-1.66.07-6.7.22-7.99-2.16,4.39-7.13,11.59-11.74,11.74-4.82.22-8.57-3.74-9.58-10.01-.29-1.87-.43-4.54-.43-7.42,0-5.04.36-10.8.94-14.4.43-2.95,1.44-5.18,2.52-5.33,1.37-.22,3.46,3.38,3.53,6.26.07,1.66-.72,6.7-1.01,13.1-.29,6.34.58,10.44,2.38,11.16,4.03,1.58,10.15-7.92,12.24-14.26.94-2.81,1.15-6.77,1.22-9.72.07-4.97.5-6.84,1.8-6.84Z"/><path class="cls-1" d="M184.82,63.58c-1.58,0-3.53-3.1-3.82-5.62-.29-2.45.43-8.5.5-10.58.14-3.17.29-8.21.36-13.32-2.95.65-6.12,1.73-7.2,1.51-1.66-.43-4.82-3.1-4.82-4.97,0-1.58,2.66-2.3,5.18-2.81,1.58-.29,4.25-.58,6.98-.86.07-5.76.14-10.51.22-11.38.22-3.53.58-4.61,1.37-4.97.14-.07.29-.07.43-.07,1.51,0,3.82,2.59,4.18,4.46.29,1.66-.29,6.98-.29,9.72,0,1.37.58,1.73,2.02,1.73,4.61,0,6.55.07,7.49.5,1.08.5,2.16,2.23,2.16,3.46,0,.14,0,.36-.07.58-.5,1.51-2.66,1.58-4.97,1.73-2.52.14-4.75.36-6.84.5-.29,6.55-.22,13.18-.58,20.02-.36,8.64-1.01,10.37-2.3,10.37Z"/><path class="cls-1" d="M276.84,60.48c0,2.16-.36,3.38-1.37,3.38-1.66,0-3.96-2.88-4.46-5.98-.65-3.67-2.45-25.78-3.24-31.75-.58,1.51-9.22,22.25-11.09,26.93-1.44,3.53-2.59,5.26-3.75,5.33-1.66.22-4.03-3.17-4.82-5.62-1.08-3.17-3.02-9.5-7.92-25.71-1.15,7.13-4.39,27.58-5.04,30.82-.86,4.39-1.51,5.9-2.66,5.9-1.58,0-3.1-3.6-3.1-7.13,0-1.08.72-5.33,1.73-11.02,1.22-7.06,2.95-16.42,3.96-24.7.43-5.9.65-9.29,2.67-9.29,1.73,0,3.74,2.38,4.54,4.97,1.66,5.54,7.78,23.62,10.37,30.24,3.46-5.9,9.94-24.05,11.59-28.15,1.87-4.68,3.53-6.98,5.47-6.98,1.66,0,2.95,3.46,3.38,7.34.22,1.58.5,5.47.79,8.64.94,9.58,2.16,21.53,2.74,28.66.14,1.44.22,2.88.22,4.1Z"/><path class="cls-1" d="M292.25,60.62c-2.59-2.45-4.97-6.48-4.97-12.1,0-11.74,9.14-22.39,18.36-22.39,4.25,0,7.34,2.88,8.57,4.75,1.94,3.02,3.1,6.62,3.1,9.29,0,1.22-.22,2.23-.72,2.88-1.73,2.23-17.79,3.38-20.45,2.81-.72-.14-1.51-.65-2.3-1.37-.36,1.3-.58,2.59-.65,3.82-.22,6.26,3.24,9.5,6.34,10.3,4.68,1.15,8.93-.94,11.95-4.46,1.87-2.16,3.1-3.67,4.39-3.31.94.22,1.51,1.87,1.51,3.53,0,1.01-.22,1.94-.65,2.59-3.02,4.39-9.07,7.49-14.69,7.49-3.6,0-7.13-1.37-9.79-3.82ZM295.92,39.6h.36c6.7,0,14.55-.65,14.83-1.3.29-.79-1.51-6.55-4.61-7.13-3.24-.58-7.71,3.38-10.58,8.42Z"/></svg>