<?xml version="1.0" encoding="UTF-8"?><svg id="_レイヤー_1" xmlns="http://www.w3.org/2000/svg" viewBox="0 0 751.17 72.15"><defs><style>.cls-1{fill:#af9679;}</style></defs><path class="cls-1" d="M0,50.19c0-.94.07-1.94.36-2.81.43-1.58,2.52-4.39,3.6-6.41.72-1.37,1.73-3.31,2.66-5.26-1.66-.86-3.1-3.1-2.59-4.25.5-1.08,2.45-1.58,5.11-1.87,2.3-5.62,5.4-13.46,7.99-20.67,1.37-3.82,2.59-5.83,3.67-5.83,1.73,0,3.02,3.89,2.81,5.4,3.53,10.22,7.42,21.03,10.22,27.51.79,1.87,3.89,8.86,4.25,9.65.65,1.44,1.01,3.6,1.01,5.47,0,2.38-.5,4.18-1.58,4.18-1.3,0-3.31-2.45-5.33-6.41-1.66-3.67-3.46-8.5-5.26-13.75-.43.07-1.01,0-1.66,0-2.74,0-9,.36-12.17.72-1.73,4.18-4.1,9.79-6.05,13.83-1.66,3.46-3.53,5.62-4.82,5.62-1.15,0-2.23-2.02-2.23-5.11ZM15.91,29.16c3.38-.22,6.91-.22,9.07-.07-1.44-4.32-2.74-8.71-3.96-12.75-1.22,2.95-2.88,7.2-5.11,12.82Z"/><path class="cls-1" d="M91.23,23.76c0,.58-.07,1.3-.14,1.66-.36,1.8-6.7,17.79-9.07,23.76-1.37,3.31-2.3,5.62-4.03,5.62s-4.25-2.45-5.33-5.62c-.72-2.16-2.66-10.44-3.96-16.56l-6.62,15.84c-2.23,5.18-3.38,6.34-4.46,6.34-2.02,0-4.54-3.17-5.47-6.77-1.01-3.17-4.18-15.55-5.04-22.75-.22-1.66-.29-2.95-.29-3.96,0-1.73.29-2.59.94-2.81,1.66-.58,4.68,2.81,5.4,6.19,1.08,5.04,3.1,15.05,4.39,21.39,1.73-4.18,6.84-16.78,8.14-21.31,1.22-4.75,2.16-6.48,3.53-6.48,1.58,0,3.67,2.88,3.89,4.54.14.94.07,1.8,0,2.81-.07.79-.07,1.44.07,2.74.5,4.61,2.74,13.97,4.1,18.51,1.8-4.54,6.55-18.36,7.2-20.16,1.87-5.33,2.88-8.35,4.25-8.28,1.8.07,2.52,2.95,2.52,5.33Z"/><path class="cls-1" d="M127.8,48.39c-.14,5.4-.79,6.34-1.8,6.34-1.87,0-3.96-3.38-4.18-4.82-.14-1.01-.07-4.39-.07-4.61-3.46,5.11-7.56,8.5-10.73,9.07-4.1.65-9.5-1.87-11.23-5.33-1.3-2.3-1.94-5.18-1.94-8.21,0-2.38.43-4.83,1.3-7.13,2.3-5.83,8.86-13.46,15.84-15.05,2.38-.58,5.04.65,5.04,2.09s-2.88,2.23-3.96,2.95c-4.39,2.81-9.86,8.42-11.31,13.75-1.51,5.47.36,10.15,2.81,10.8,5.11,1.44,12.89-8.71,14.26-13.9.29-1.51.58-10.22.65-11.59.14-3.6.86-5.33,1.94-5.33,1.58,0,3.89,3.02,3.89,5.69,0,5.69-.22,15.84-.5,25.27Z"/><path class="cls-1" d="M168.19,22.47c0,.65-.43,1.3-2.95,1.94-1.37.36-2.81.79-4.32,1.44-4.9,2.16-12.17,6.48-13.1,13.9-.29,2.52-.29,6.41-.36,8.28-.14,5.18-.58,6.91-1.87,6.91-1.58,0-3.96-2.66-4.32-5.54-.07-.5-.07-.79-.07-1.08,0-3.96,1.01-16.35,1.01-24.99,0-4.32,1.08-5.9,2.23-5.9,1.8,0,4.18,3.38,4.25,5.98.07.65,0,3.38-.07,4.39,3.38-4.03,10.73-9.15,14.33-9.29,2.52,0,5.26,2.09,5.26,3.96Z"/><path class="cls-1" d="M199.58,0c2.02,0,3.96,3.67,3.96,6.34,0,2.45-.58,13.97-.72,22.68l-.36,19.3c-.07,4.25-.86,6.62-2.09,6.62-1.37,0-3.31-2.23-3.82-4.46-.22-.94-.22-3.53-.22-5.26-2.38,3.31-7.27,8.14-10.87,9-4.03,1.01-9-1.37-11.23-5.4-1.3-2.23-1.94-4.68-1.94-7.42,0-1.94.36-4.03,1.01-6.26,1.8-5.54,8.93-14.47,16.78-16.56,2.81-.65,5.76,1.01,5.69,2.74-.07,1.3-3.82,2.74-4.97,3.38-4.75,2.74-10.44,9.5-11.38,14.62-1.01,5.54.79,9,4.03,9s11.23-8.28,12.75-13.9c.5-3.17.94-26.71,1.15-28.87.43-4.32,1.08-5.54,2.23-5.54Z"/><path class="cls-1" d="M228.02,55.37c-5.33,0-9.94-2.09-12.02-5.47-1.15-1.87-1.73-3.67-1.73-5.04,0-1.08.36-1.8.86-2.09,1.01-.5,2.16.36,3.46,1.73,2.16,2.23,4.32,3.31,7.49,3.89,4.46.79,9.86-.36,9.43-5.47-.29-2.59-4.32-3.74-8.71-5.4-4.03-1.51-7.92-3.31-9.72-6.12-1.01-1.66-1.51-3.38-1.51-5.04,0-1.87.43-3.24,1.44-4.46,2.52-2.95,8.21-4.9,13.83-4.9,1.66,0,3.31.22,4.9.58,2.74.65,4.75,2.3,5.62,4.68.72,1.8.94,5.4-1.08,6.05-1.37.43-3.6-.79-3.89-2.38-.07-.36,0-.72.07-1.3.07-.79-.07-1.22-.79-1.66-2.95-1.8-13.97.22-14.11,3.82-.07,1.94,3.31,3.46,6.84,4.83,6.77,2.52,13.61,4.54,13.61,12.17,0,6.26-5.11,11.09-12.46,11.52-.94.07-1.22.07-1.51.07Z"/><path class="cls-1" d="M317.88,58.61c-1.51,0-5.4-2.59-7.85-4.82-1.58-1.44-3.53-3.24-5.47-5.18-4.82,3.67-10.15,6.7-13.97,6.98-6.19.43-12.31-2.74-14.76-8.14-.58-1.22-.86-2.66-.86-4.18,0-2.3.72-4.75,2.3-6.99,1.44-1.94,4.61-5.11,8.14-8.42-1.94-2.38-3.31-4.32-3.74-5.4-1.66-3.96-2.23-7.27-1.08-10.15,2.02-5.18,7.63-9.07,13.75-9.07,5.18,0,8.28,2.88,9.43,5.18,1.87,3.82.65,8.93-1.3,11.67-1.51,2.09-5.11,5.33-8.86,8.71,1.15,1.37,2.45,2.81,3.89,4.54,1.8,2.09,3.74,4.25,5.76,6.34,2.16-2.23,3.96-4.32,5.04-5.69,1.15-1.51,3.53-4.46,4.9-4.39s3.24,4.75,2.66,7.06c-.43,1.66-3.24,4.97-7.06,8.35,3.24,3.02,5.9,5.26,6.91,6.05,1.51,1.15,3.02,4.25,3.02,6.26,0,.58-.14,1.01-.36,1.15-.22.14-.36.14-.5.14ZM289.01,48.6c3.24-.22,6.91-2.52,10.3-5.26-3.46-3.6-6.91-7.34-9.94-10.73-3.74,3.46-6.84,6.62-7.2,8.5-.72,3.82,1.87,7.78,6.84,7.49ZM293.9,9.94c-3.82.5-7.99,5.18-7.49,8.71.22,1.58,1.3,3.17,3.1,5.4,5.11-4.82,9.79-9.36,10.01-10.94.29-2.52-2.38-3.6-5.62-3.17Z"/><path class="cls-1" d="M352.15,50.48c0-.86.94-1.51,2.59-2.02-.14-5.69,1.08-14.76-.22-18.36-.79-2.23.29-4.54,1.08-5.47.22-6.98.14-11.02.07-13.54-1.58-.94-3.17-2.88-3.02-4.03.22-1.15,2.02-2.02,4.82-2.23,2.3-.29,9.29-.72,15.12-.72,2.81,0,5.33.07,6.91.36,2.02.43,4.03,3.46,3.53,5.04-.36,1.3-2.59,1.3-4.75,1.3-3.24-.07-10.44-.29-15.48.29-.22,0-.5.07-.86.14.14,1.51.07,6.7-.22,12.82,3.96-.14,11.88-.58,14.83.14,2.09.5,4.25,3.31,3.6,4.9-.36,1.15-1.73,1.66-4.54,1.66-3.82,0-8.86.07-10.51.22-1.22.07-2.45.22-3.67.22-.29,6.19-.58,12.46-.86,16.63,6.05-.36,16.13-.58,19.73-.14,2.3.36,4.39,2.59,4.39,4.46,0,.29-.07.58-.22.86-.5.94-2.09,1.37-4.46,1.22-4.68-.22-11.59,0-16.13.29-1.94.14-5.83.94-6.98.94-2.09,0-4.75-3.1-4.75-4.97Z"/><path class="cls-1" d="M392.25,52.06c0-1.8.58-3.96,1.51-5.11,1.73-1.73,6.91-7.13,10.58-11.16-2.95-4.25-6.12-8.86-7.42-11.95-1.01-2.38-.43-5.33.43-5.76.29-.14.43-.14.58-.14,1.15,0,2.88,1.51,3.89,3.38,2.81,4.61,4.82,7.85,6.34,10.08,3.89-4.46,6.84-8.35,8.42-10.66,1.51-1.87,2.59-2.67,3.53-2.67,1.66,0,2.23,3.53.86,5.91-1.15,2.02-4.18,5.69-9.22,11.59.86,1.15,1.94,2.45,3.67,4.25,1.58,1.87,6.19,5.54,6.7,6.7.58,1.22.94,3.02.94,4.61,0,1.73-.36,3.24-1.15,3.53-1.01.36-2.88-.86-5.26-3.67-2.95-3.6-6.19-7.34-8.71-11.02-2.67,3.1-6.19,7.56-9.36,10.94-2.45,2.59-4.03,4.03-4.97,4.03-.86,0-1.37-1.15-1.37-2.88Z"/><path class="cls-1" d="M441.36,52.92c-.07,4.1-.22,8.21-.29,12.31-.14,5.62-.79,6.91-1.94,6.91-2.02,0-4.68-3.74-4.68-7.06,0-3.1.43-11.16.5-12.46.29-6.77.36-18.65.43-26.35.07-8.21.72-9.58,2.16-9.58,1.87,0,4.32,3.46,4.32,6.05,3.1-2.16,8.06-4.68,12.96-4.61,4.25.07,10.15,4.39,10.15,11.74,0,4.9-1.44,9.87-4.03,14.19-3.46,5.69-9.79,9.72-15.41,9.65-1.51-.07-2.95-.29-4.18-.79ZM455.32,40.61c3.31-4.97,5.18-13.68.65-15.99-3.1-1.44-11.52,2.45-14.33,6.62-.07,5.4-.14,10.73-.22,16.13.22.07.58.22.72.29.5.22.94.36,1.44.36,4.46.29,9-3.46,11.74-7.42Z"/><path class="cls-1" d="M477.57,52.13c-2.59-2.45-4.97-6.48-4.97-12.1,0-11.74,9.14-22.39,18.36-22.39,4.25,0,7.34,2.88,8.57,4.75,1.94,3.02,3.1,6.62,3.1,9.29,0,1.22-.22,2.23-.72,2.88-1.73,2.23-17.79,3.38-20.45,2.81-.72-.14-1.51-.65-2.3-1.37-.36,1.3-.58,2.59-.65,3.82-.22,6.26,3.24,9.5,6.34,10.3,4.68,1.15,8.93-.94,11.95-4.46,1.87-2.16,3.1-3.67,4.39-3.31.94.22,1.51,1.87,1.51,3.53,0,1.01-.22,1.94-.65,2.59-3.02,4.39-9.07,7.49-14.69,7.49-3.6,0-7.13-1.37-9.79-3.82ZM481.24,31.11h.36c6.7,0,14.55-.65,14.83-1.3.29-.79-1.51-6.55-4.61-7.13-3.24-.58-7.71,3.38-10.58,8.42Z"/><path class="cls-1" d="M540.57,22.47c0,.65-.43,1.3-2.95,1.94-1.37.36-2.81.79-4.32,1.44-4.9,2.16-12.17,6.48-13.11,13.9-.29,2.52-.29,6.41-.36,8.28-.14,5.18-.58,6.91-1.87,6.91-1.58,0-3.96-2.66-4.32-5.54-.07-.5-.07-.79-.07-1.08,0-3.96,1.01-16.35,1.01-24.99,0-4.32,1.08-5.9,2.23-5.9,1.8,0,4.18,3.38,4.25,5.98.07.65,0,3.38-.07,4.39,3.38-4.03,10.73-9.15,14.33-9.29,2.52,0,5.26,2.09,5.26,3.96Z"/><path class="cls-1" d="M552.88,54.87c-1.73,0-4.03-3.38-4.1-6.05,0-3.6.5-22.11.79-27,.14-2.95.5-5.33,2.09-5.4,1.73-.07,4.03,3.6,4.1,6.41.22,3.96-.43,18.79-.65,24.99-.22,5.11-1.08,7.06-2.23,7.06ZM551.66,10.15c-1.15-1.3-1.22-3.24-1.73-4.39-.58-1.44-.29-3.1.79-3.38.29-.07.43-.07.65-.07,1.51,0,3.38,1.22,4.54,3.02.72,1.15,1.01,2.38,1.01,3.46s-.29,2.02-.94,2.45c-1.22.79-3.1.36-4.32-1.08Z"/><path class="cls-1" d="M571.67,52.13c-2.59-2.45-4.97-6.48-4.97-12.1,0-11.74,9.14-22.39,18.36-22.39,4.25,0,7.34,2.88,8.57,4.75,1.94,3.02,3.1,6.62,3.1,9.29,0,1.22-.22,2.23-.72,2.88-1.73,2.23-17.79,3.38-20.45,2.81-.72-.14-1.51-.65-2.3-1.37-.36,1.3-.58,2.59-.65,3.82-.22,6.26,3.24,9.5,6.34,10.3,4.68,1.15,8.93-.94,11.95-4.46,1.87-2.16,3.1-3.67,4.39-3.31.94.22,1.51,1.87,1.51,3.53,0,1.01-.22,1.94-.65,2.59-3.02,4.39-9.07,7.49-14.69,7.49-3.6,0-7.13-1.37-9.79-3.82ZM575.35,31.11h.36c6.7,0,14.55-.65,14.83-1.3.29-.79-1.51-6.55-4.61-7.13-3.24-.58-7.71,3.38-10.58,8.42Z"/><path class="cls-1" d="M612.14,54.94c-1.66,0-3.67-3.67-3.96-5.18-.14-.65-.14-1.08-.14-2.23,0-2.66.22-8.21.65-22.61.14-6.77.79-8.06,2.09-8.06,1.51,0,3.75,2.45,3.96,4.75.07,1.01.07,2.3,0,3.31,2.88-3.02,8.93-7.27,12.75-7.13,4.18.14,7.63,4.32,7.92,9.22.07.72.07,1.66.07,2.66,0,5.11-.58,13.1-1.08,18.65-.43,5.47-1.08,6.55-2.09,6.55-1.3,0-3.24-2.66-3.67-5.18-.43-2.38.86-11.88.94-13.32.58-7.06.07-10.95-1.37-11.52-2.59-1.01-13.25,6.55-13.9,10.58-.07,1.08-.29,10.87-.43,13.61-.22,4.32-.72,5.9-1.73,5.9Z"/><path class="cls-1" d="M646.41,39.03c0-8.14,4.39-15.05,10.01-18.51,3.67-2.3,7.2-2.95,9.58-2.95,2.59,0,4.25.72,5.33,1.58,1.94,1.58,2.38,5.04,1.15,5.98-.79.58-1.94.14-3.02-.72-.86-.65-2.09-.94-3.24-.94-2.16,0-4.61,1.01-6.77,2.59-4.03,2.95-6.41,7.92-6.55,13.39-.14,4.9,2.3,9.14,6.05,10.22,4.39,1.3,8.35-.94,10.95-3.53,1.3-1.3,3.02-4.1,4.25-4.03,1.15.07,1.8,2.16,1.8,3.96,0,.72-.07,1.37-.29,1.87-1.08,2.52-5.18,6.62-11.81,7.78-.86.14-1.66.22-2.52.22-6.77,0-12.82-4.61-14.4-11.95-.36-1.66-.5-3.31-.5-4.97Z"/><path class="cls-1" d="M689.03,52.13c-2.59-2.45-4.97-6.48-4.97-12.1,0-11.74,9.14-22.39,18.36-22.39,4.25,0,7.34,2.88,8.57,4.75,1.94,3.02,3.1,6.62,3.1,9.29,0,1.22-.22,2.23-.72,2.88-1.73,2.23-17.79,3.38-20.45,2.81-.72-.14-1.51-.65-2.3-1.37-.36,1.3-.58,2.59-.65,3.82-.22,6.26,3.24,9.5,6.34,10.3,4.68,1.15,8.93-.94,11.95-4.46,1.87-2.16,3.1-3.67,4.39-3.31.94.22,1.51,1.87,1.51,3.53,0,1.01-.22,1.94-.65,2.59-3.02,4.39-9.07,7.49-14.69,7.49-3.6,0-7.13-1.37-9.79-3.82ZM692.7,31.11h.36c6.7,0,14.55-.65,14.83-1.3.29-.79-1.51-6.55-4.61-7.13-3.24-.58-7.71,3.38-10.58,8.42Z"/><path class="cls-1" d="M737.2,55.37c-5.33,0-9.94-2.09-12.03-5.47-1.15-1.87-1.73-3.67-1.73-5.04,0-1.08.36-1.8.86-2.09,1.01-.5,2.16.36,3.46,1.73,2.16,2.23,4.32,3.31,7.49,3.89,4.46.79,9.87-.36,9.43-5.47-.29-2.59-4.32-3.74-8.71-5.4-4.03-1.51-7.92-3.31-9.72-6.12-1.01-1.66-1.51-3.38-1.51-5.04,0-1.87.43-3.24,1.44-4.46,2.52-2.95,8.21-4.9,13.83-4.9,1.66,0,3.31.22,4.9.58,2.74.65,4.75,2.3,5.62,4.68.72,1.8.94,5.4-1.08,6.05-1.37.43-3.6-.79-3.89-2.38-.07-.36,0-.72.07-1.3.07-.79-.07-1.22-.79-1.66-2.95-1.8-13.97.22-14.11,3.82-.07,1.94,3.31,3.46,6.84,4.83,6.77,2.52,13.61,4.54,13.61,12.17,0,6.26-5.11,11.09-12.46,11.52-.94.07-1.22.07-1.51.07Z"/></svg>