<?xml version="1.0" encoding="UTF-8"?><svg id="_レイヤー_1" xmlns="http://www.w3.org/2000/svg" viewBox="0 0 312.12 81.87"><defs><style>.cls-1{fill:#af9679;}</style></defs><path class="cls-1" d="M23.33,64.3c-11.31,0-17.28-9.29-18.22-17.43-.14-1.37-.22-2.74-.22-4.1,0-14.33,9.14-28.51,23.33-30.39.58-.07,1.15-.07,1.73-.07,3.24,0,6.55.86,7.99,2.3,1.58,1.58,2.23,4.97,1.08,5.69-1.66.94-3.82-2.02-8.57-1.66-13.61,1.01-20.59,17.64-18.22,29.52,1.15,5.83,5.33,9.65,10.87,9.65s9-1.66,12.89-5.62c1.58-1.58,4.54-6.55,5.69-6.55,1.01,0,2.3,2.45,2.3,4.75,0,.5,0,.94-.14,1.37-.65,2.23-2.95,4.97-6.41,7.56-3.31,2.52-8.14,4.97-14.11,4.97Z"/><path class="cls-1" d="M67.75,64.37c-5.26,0-10.08-3.1-12.89-8.5-1.37-2.66-2.09-5.9-2.09-9.14,0-4.97,1.58-10.08,4.46-13.82,3.17-4.03,7.06-6.41,11.23-6.99.5-.07,1.01-.07,1.58-.07,2.23,0,4.61.65,6.34,2.16.36.29.58.72.72,1.22.79.36,1.73,1.01,2.66,1.8,3.17,3.31,4.97,8.06,4.97,13.25,0,.94-.07,1.87-.22,2.88-1.01,8.14-6.77,15.34-13.54,16.85-1.08.22-2.16.36-3.24.36ZM69.63,58.61c2.95-.65,6.91-5.62,8.28-12.67.79-4.54-.07-8.35-2.3-11.45-.14-.22-.29-.43-.43-.65-.14.07-.36.07-.5.07-1.58-.14-2.02-2.74-4.46-3.17-1.58-.29-5.4,2.02-7.99,5.98-3.1,4.75-3.6,11.3-1.22,16.27,1.8,4.03,5.54,6.26,8.64,5.62Z"/><path class="cls-1" d="M100.08,63.43c-1.66,0-3.67-3.67-3.96-5.18-.14-.65-.14-1.08-.14-2.23,0-2.66.22-8.21.65-22.61.14-6.77.79-8.06,2.09-8.06,1.51,0,3.74,2.45,3.96,4.75.07,1.01.07,2.3,0,3.31,2.88-3.03,8.93-7.27,12.75-7.13,4.18.14,7.63,4.32,7.92,9.22.07.72.07,1.66.07,2.66,0,5.11-.58,13.11-1.08,18.65-.43,5.47-1.08,6.55-2.09,6.55-1.3,0-3.24-2.66-3.67-5.18-.43-2.38.86-11.88.94-13.32.58-7.06.07-10.95-1.37-11.52-2.59-1.01-13.25,6.55-13.9,10.58-.07,1.08-.29,10.87-.43,13.61-.22,4.32-.72,5.9-1.73,5.9Z"/><path class="cls-1" d="M147.31,63.58c-1.58,0-3.53-3.1-3.82-5.62-.29-2.45.43-8.5.5-10.58.14-3.17.29-8.21.36-13.32-2.95.65-6.12,1.73-7.2,1.51-1.66-.43-4.82-3.1-4.82-4.97,0-1.58,2.66-2.3,5.18-2.81,1.58-.29,4.25-.58,6.98-.86.07-5.76.14-10.51.22-11.38.22-3.53.58-4.61,1.37-4.97.14-.07.29-.07.43-.07,1.51,0,3.82,2.59,4.18,4.46.29,1.66-.29,6.98-.29,9.72,0,1.37.58,1.73,2.02,1.73,4.61,0,6.55.07,7.49.5,1.08.5,2.16,2.23,2.16,3.46,0,.14,0,.36-.07.58-.5,1.51-2.66,1.58-4.97,1.73-2.52.14-4.75.36-6.84.5-.29,6.55-.22,13.18-.58,20.02-.36,8.64-1.01,10.37-2.3,10.37Z"/><path class="cls-1" d="M196.7,56.88c-.14,5.4-.79,6.34-1.8,6.34-1.87,0-3.96-3.38-4.18-4.82-.14-1.01-.07-4.39-.07-4.61-3.46,5.11-7.56,8.5-10.73,9.07-4.1.65-9.5-1.87-11.23-5.33-1.3-2.3-1.94-5.18-1.94-8.21,0-2.38.43-4.83,1.3-7.13,2.3-5.83,8.86-13.46,15.84-15.05,2.38-.58,5.04.65,5.04,2.09s-2.88,2.23-3.96,2.95c-4.39,2.81-9.86,8.42-11.31,13.75-1.51,5.47.36,10.15,2.81,10.8,5.11,1.44,12.89-8.71,14.26-13.9.29-1.51.58-10.22.65-11.59.14-3.6.86-5.33,1.94-5.33,1.58,0,3.89,3.02,3.89,5.69,0,5.69-.22,15.84-.5,25.27Z"/><path class="cls-1" d="M208,47.52c0-8.14,4.39-15.05,10.01-18.51,3.67-2.3,7.2-2.95,9.58-2.95,2.59,0,4.25.72,5.33,1.58,1.94,1.58,2.38,5.04,1.15,5.98-.79.58-1.94.14-3.02-.72-.86-.65-2.09-.94-3.24-.94-2.16,0-4.61,1.01-6.77,2.59-4.03,2.95-6.41,7.92-6.55,13.39-.14,4.9,2.3,9.14,6.05,10.22,4.39,1.3,8.35-.94,10.94-3.53,1.3-1.3,3.02-4.1,4.25-4.03,1.15.07,1.8,2.16,1.8,3.96,0,.72-.07,1.37-.29,1.87-1.08,2.52-5.18,6.62-11.81,7.78-.86.14-1.66.22-2.52.22-6.77,0-12.82-4.61-14.4-11.95-.36-1.66-.5-3.31-.5-4.97Z"/><path class="cls-1" d="M258.91,63.58c-1.58,0-3.53-3.1-3.82-5.62-.29-2.45.43-8.5.5-10.58.14-3.17.29-8.21.36-13.32-2.95.65-6.12,1.73-7.2,1.51-1.66-.43-4.82-3.1-4.82-4.97,0-1.58,2.66-2.3,5.18-2.81,1.58-.29,4.25-.58,6.98-.86.07-5.76.14-10.51.22-11.38.22-3.53.58-4.61,1.37-4.97.14-.07.29-.07.43-.07,1.51,0,3.82,2.59,4.18,4.46.29,1.66-.29,6.98-.29,9.72,0,1.37.58,1.73,2.02,1.73,4.61,0,6.55.07,7.49.5,1.08.5,2.16,2.23,2.16,3.46,0,.14,0,.36-.07.58-.5,1.51-2.67,1.58-4.97,1.73-2.52.14-4.75.36-6.84.5-.29,6.55-.22,13.18-.58,20.02-.36,8.64-1.01,10.37-2.3,10.37Z"/><path class="cls-1" d="M293.47,63.86c-5.33,0-9.94-2.09-12.03-5.47-1.15-1.87-1.73-3.67-1.73-5.04,0-1.08.36-1.8.86-2.09,1.01-.5,2.16.36,3.46,1.73,2.16,2.23,4.32,3.31,7.49,3.89,4.46.79,9.87-.36,9.43-5.47-.29-2.59-4.32-3.74-8.71-5.4-4.03-1.51-7.92-3.31-9.72-6.12-1.01-1.66-1.51-3.38-1.51-5.04,0-1.87.43-3.24,1.44-4.46,2.52-2.95,8.21-4.9,13.83-4.9,1.66,0,3.31.22,4.9.58,2.74.65,4.75,2.3,5.62,4.68.72,1.8.94,5.4-1.08,6.05-1.37.43-3.6-.79-3.89-2.38-.07-.36,0-.72.07-1.3.07-.79-.07-1.22-.79-1.66-2.95-1.8-13.97.22-14.11,3.82-.07,1.95,3.31,3.46,6.84,4.83,6.77,2.52,13.61,4.54,13.61,12.17,0,6.26-5.11,11.09-12.46,11.52-.94.07-1.22.07-1.51.07Z"/></svg>