<?xml version="1.0" encoding="UTF-8"?><svg id="_レイヤー_1" xmlns="http://www.w3.org/2000/svg" viewBox="0 0 215.21 81.86"><defs><style>.cls-1{fill:#af9679;}</style></defs><path class="cls-1" d="M44.07,64.01c-2.09,0-4.68-2.59-5.69-5.69-.5-1.58-2.66-12.31-6.77-30.53-4.46,15.27-8.64,28.15-10.94,33.56-1.01,2.38-1.51,2.59-2.09,2.59-2.09,0-4.61-2.45-5.47-5.26-.65-2.02-8.78-38.6-8.93-39.39-.36-1.8-.5-3.46-.5-4.75,0-1.87.36-2.81,1.22-2.81,1.51,0,4.46,2.38,5.54,5.83.58,1.8,6.84,34.06,7.7,37.08,1.08-2.88,8.28-28.51,8.93-31.47.94-4.18,1.3-7.56,2.66-8.28,1.22-.65,3.74,1.3,5.47,3.67.58.79,1.01,2.95,1.44,6.7.07.94,5.4,27,5.98,29.81.36-.94,9.5-30.75,11.23-36.51,1.73-5.76,2.38-6.84,3.46-6.84,1.8,0,3.82,3.53,3.82,6.34,0,.22,0,.5-.14,1.22-.5,2.81-7.99,25.35-11.38,35-2.59,7.7-4.1,9.72-5.54,9.72Z"/><path class="cls-1" d="M83.81,64.37c-5.26,0-10.08-3.1-12.89-8.5-1.37-2.66-2.09-5.9-2.09-9.14,0-4.97,1.58-10.08,4.46-13.83,3.17-4.03,7.06-6.41,11.23-6.98.5-.07,1.01-.07,1.58-.07,2.23,0,4.61.65,6.34,2.16.36.29.58.72.72,1.22.79.36,1.73,1.01,2.66,1.8,3.17,3.31,4.97,8.06,4.97,13.25,0,.94-.07,1.87-.22,2.88-1.01,8.14-6.77,15.34-13.54,16.85-1.08.22-2.16.36-3.24.36ZM85.68,58.61c2.95-.65,6.91-5.62,8.28-12.67.79-4.54-.07-8.35-2.3-11.45-.14-.22-.29-.43-.43-.65-.14.07-.36.07-.5.07-1.58-.14-2.02-2.74-4.46-3.17-1.58-.29-5.4,2.02-7.99,5.98-3.1,4.75-3.6,11.3-1.22,16.27,1.8,4.03,5.54,6.26,8.64,5.62Z"/><path class="cls-1" d="M138.67,30.96c0,.65-.43,1.3-2.95,1.94-1.37.36-2.81.79-4.32,1.44-4.9,2.16-12.17,6.48-13.1,13.9-.29,2.52-.29,6.41-.36,8.28-.14,5.18-.58,6.91-1.87,6.91-1.58,0-3.96-2.66-4.32-5.54-.07-.5-.07-.79-.07-1.08,0-3.96,1.01-16.35,1.01-24.99,0-4.32,1.08-5.9,2.23-5.9,1.8,0,4.18,3.38,4.25,5.98.07.65,0,3.38-.07,4.39,3.38-4.03,10.73-9.15,14.33-9.29,2.52,0,5.26,2.09,5.26,3.96Z"/><path class="cls-1" d="M150.7,63.36c-1.58,0-3.74-2.95-4.1-5.33-.07-.36-.07-.72-.07-1.08,0-1.94.22-5.98.5-11.02.36-8.21,1.08-21.67,1.08-31.4,0-3.96.86-6.19,2.23-6.19,1.58,0,3.74,2.38,4.1,4.54.29,1.87-.43,8.93-1.01,16.06-.14,1.8-.29,4.46-.43,7.13,2.09-1.08,4.25-2.23,6.34-3.38,1.8-1.01,10.94-6.98,12.67-6.77,1.08.14,1.73,2.66,1.73,4.46,0,.65-.07,1.22-.29,1.58-.86,1.51-8.78,4.75-10.37,5.54-1.73.86-4.25,1.94-6.05,2.66,3.24,3.46,6.55,6.91,9.36,9.58,2.09,2.02,4.54,3.67,5.4,4.82.72,1.01,1.87,4.82,1.87,7.13,0,1.3-.43,1.8-1.22,1.8-1.3,0-3.17-1.3-5.62-3.82-3.17-3.46-9.15-10.44-14.11-16.42-.14,3.02-.14,11.02-.14,13.11,0,5.54-.72,6.98-1.87,6.98Z"/><path class="cls-1" d="M196.56,63.86c-5.33,0-9.94-2.09-12.02-5.47-1.15-1.87-1.73-3.67-1.73-5.04,0-1.08.36-1.8.86-2.09,1.01-.5,2.16.36,3.46,1.73,2.16,2.23,4.32,3.31,7.49,3.89,4.46.79,9.86-.36,9.43-5.47-.29-2.59-4.32-3.74-8.71-5.4-4.03-1.51-7.92-3.31-9.72-6.12-1.01-1.66-1.51-3.38-1.51-5.04,0-1.87.43-3.24,1.44-4.46,2.52-2.95,8.21-4.9,13.83-4.9,1.66,0,3.31.22,4.9.58,2.74.65,4.75,2.3,5.62,4.68.72,1.8.94,5.4-1.08,6.05-1.37.43-3.6-.79-3.89-2.38-.07-.36,0-.72.07-1.3.07-.79-.07-1.22-.79-1.66-2.95-1.8-13.97.22-14.11,3.82-.07,1.94,3.31,3.46,6.84,4.82,6.77,2.52,13.61,4.54,13.61,12.17,0,6.26-5.11,11.09-12.46,11.52-.94.07-1.22.07-1.51.07Z"/></svg>