<?xml version="1.0" encoding="UTF-8"?><svg id="_レイヤー_1" xmlns="http://www.w3.org/2000/svg" viewBox="0 0 410.04 81.87"><defs><style>.cls-1{fill:#af9679;}</style></defs><path class="cls-1" d="M6.34,58.97c0-.86.94-1.51,2.59-2.02-.14-5.69,1.08-14.76-.22-18.36-.79-2.23.29-4.54,1.08-5.47.22-6.98.14-11.02.07-13.54-1.58-.94-3.17-2.88-3.02-4.03.22-1.15,2.02-2.02,4.82-2.23,2.3-.29,9.29-.72,15.12-.72,2.81,0,5.33.07,6.91.36,2.02.43,4.03,3.46,3.53,5.04-.36,1.3-2.59,1.3-4.75,1.3-3.24-.07-10.44-.29-15.48.29-.22,0-.5.07-.86.14.14,1.51.07,6.7-.22,12.82,3.96-.14,11.88-.58,14.83.14,2.09.5,4.25,3.31,3.6,4.9-.36,1.15-1.73,1.66-4.54,1.66-3.82,0-8.86.07-10.51.22-1.22.07-2.45.22-3.67.22-.29,6.19-.58,12.46-.86,16.63,6.05-.36,16.13-.58,19.73-.14,2.3.36,4.39,2.59,4.39,4.46,0,.29-.07.58-.22.86-.5.94-2.09,1.37-4.46,1.22-4.68-.22-11.59,0-16.13.29-1.94.14-5.83.94-6.98.94-2.09,0-4.75-3.1-4.75-4.97Z"/><path class="cls-1" d="M46.44,60.55c0-1.8.58-3.96,1.51-5.11,1.73-1.73,6.91-7.13,10.58-11.16-2.95-4.25-6.12-8.86-7.42-11.95-1.01-2.38-.43-5.33.43-5.76.29-.14.43-.14.58-.14,1.15,0,2.88,1.51,3.89,3.38,2.81,4.61,4.82,7.85,6.34,10.08,3.89-4.46,6.84-8.35,8.42-10.66,1.51-1.87,2.59-2.66,3.53-2.66,1.66,0,2.23,3.53.86,5.9-1.15,2.02-4.18,5.69-9.22,11.59.86,1.15,1.94,2.45,3.67,4.25,1.58,1.87,6.19,5.54,6.7,6.7.58,1.22.94,3.02.94,4.61,0,1.73-.36,3.24-1.15,3.53-1.01.36-2.88-.86-5.26-3.67-2.95-3.6-6.19-7.34-8.71-11.02-2.66,3.1-6.19,7.56-9.36,10.95-2.45,2.59-4.03,4.03-4.97,4.03-.86,0-1.37-1.15-1.37-2.88Z"/><path class="cls-1" d="M95.54,61.42c-.07,4.1-.22,8.21-.29,12.31-.14,5.62-.79,6.91-1.94,6.91-2.02,0-4.68-3.75-4.68-7.06,0-3.1.43-11.16.5-12.46.29-6.77.36-18.65.43-26.35.07-8.21.72-9.58,2.16-9.58,1.87,0,4.32,3.46,4.32,6.05,3.1-2.16,8.06-4.68,12.96-4.61,4.25.07,10.15,4.39,10.15,11.74,0,4.9-1.44,9.87-4.03,14.19-3.46,5.69-9.79,9.72-15.41,9.65-1.51-.07-2.95-.29-4.18-.79ZM109.51,49.1c3.31-4.97,5.18-13.68.65-15.99-3.1-1.44-11.52,2.45-14.33,6.62-.07,5.4-.14,10.73-.22,16.13.22.07.58.22.72.29.5.22.94.36,1.44.36,4.46.29,9-3.46,11.74-7.42Z"/><path class="cls-1" d="M131.76,60.62c-2.59-2.45-4.97-6.48-4.97-12.1,0-11.74,9.15-22.39,18.36-22.39,4.25,0,7.34,2.88,8.57,4.75,1.94,3.02,3.1,6.62,3.1,9.29,0,1.22-.22,2.23-.72,2.88-1.73,2.23-17.79,3.38-20.45,2.81-.72-.14-1.51-.65-2.3-1.37-.36,1.3-.58,2.59-.65,3.82-.22,6.26,3.24,9.5,6.34,10.3,4.68,1.15,8.93-.94,11.95-4.46,1.87-2.16,3.1-3.67,4.39-3.31.94.22,1.51,1.87,1.51,3.53,0,1.01-.22,1.94-.65,2.59-3.02,4.39-9.07,7.49-14.69,7.49-3.6,0-7.13-1.37-9.79-3.82ZM135.43,39.6h.36c6.7,0,14.54-.65,14.83-1.3.29-.79-1.51-6.55-4.61-7.13-3.24-.58-7.7,3.39-10.58,8.43Z"/><path class="cls-1" d="M194.76,30.96c0,.65-.43,1.3-2.95,1.94-1.37.36-2.81.79-4.32,1.44-4.9,2.16-12.17,6.48-13.1,13.9-.29,2.52-.29,6.41-.36,8.28-.14,5.18-.58,6.91-1.87,6.91-1.58,0-3.96-2.66-4.32-5.54-.07-.5-.07-.79-.07-1.08,0-3.96,1.01-16.34,1.01-24.99,0-4.32,1.08-5.91,2.23-5.91,1.8,0,4.18,3.38,4.25,5.98.07.65,0,3.38-.07,4.39,3.38-4.03,10.73-9.15,14.33-9.29,2.52,0,5.26,2.09,5.26,3.96Z"/><path class="cls-1" d="M207.07,63.36c-1.73,0-4.03-3.38-4.1-6.05,0-3.6.5-22.11.79-27,.14-2.95.5-5.33,2.09-5.4,1.73-.07,4.03,3.6,4.1,6.41.22,3.96-.43,18.79-.65,24.99-.22,5.11-1.08,7.06-2.23,7.06ZM205.85,18.64c-1.15-1.3-1.22-3.24-1.73-4.39-.58-1.44-.29-3.1.79-3.38.29-.07.43-.07.65-.07,1.51,0,3.38,1.22,4.54,3.02.72,1.15,1.01,2.38,1.01,3.46s-.29,2.02-.94,2.45c-1.22.79-3.1.36-4.32-1.08Z"/><path class="cls-1" d="M225.86,60.62c-2.59-2.45-4.97-6.48-4.97-12.1,0-11.74,9.15-22.39,18.36-22.39,4.25,0,7.34,2.88,8.57,4.75,1.94,3.02,3.1,6.62,3.1,9.29,0,1.22-.22,2.23-.72,2.88-1.73,2.23-17.79,3.38-20.45,2.81-.72-.14-1.51-.65-2.3-1.37-.36,1.3-.58,2.59-.65,3.82-.22,6.26,3.24,9.5,6.34,10.3,4.68,1.15,8.93-.94,11.95-4.46,1.87-2.16,3.1-3.67,4.39-3.31.94.22,1.51,1.87,1.51,3.53,0,1.01-.22,1.94-.65,2.59-3.02,4.39-9.07,7.49-14.69,7.49-3.6,0-7.13-1.37-9.79-3.82ZM229.53,39.6h.36c6.7,0,14.55-.65,14.83-1.3.29-.79-1.51-6.55-4.61-7.13-3.24-.58-7.71,3.39-10.59,8.43Z"/><path class="cls-1" d="M266.33,63.43c-1.66,0-3.67-3.67-3.96-5.18-.14-.65-.14-1.08-.14-2.23,0-2.66.22-8.21.65-22.61.14-6.77.79-8.06,2.09-8.06,1.51,0,3.75,2.45,3.96,4.75.07,1.01.07,2.3,0,3.31,2.88-3.02,8.93-7.27,12.75-7.13,4.18.14,7.63,4.32,7.92,9.22.07.72.07,1.66.07,2.66,0,5.11-.58,13.11-1.08,18.65-.43,5.47-1.08,6.55-2.09,6.55-1.3,0-3.24-2.66-3.67-5.18-.43-2.38.86-11.88.94-13.32.58-7.06.07-10.95-1.37-11.52-2.59-1.01-13.25,6.55-13.9,10.58-.07,1.08-.29,10.87-.43,13.61-.22,4.32-.72,5.9-1.73,5.9Z"/><path class="cls-1" d="M300.6,47.52c0-8.14,4.39-15.05,10.01-18.51,3.67-2.3,7.2-2.95,9.58-2.95,2.59,0,4.25.72,5.33,1.58,1.94,1.58,2.38,5.04,1.15,5.98-.79.58-1.94.14-3.02-.72-.86-.65-2.09-.94-3.24-.94-2.16,0-4.61,1.01-6.77,2.59-4.03,2.95-6.41,7.92-6.55,13.39-.14,4.9,2.3,9.14,6.05,10.22,4.39,1.3,8.35-.94,10.95-3.53,1.3-1.3,3.02-4.1,4.25-4.03,1.15.07,1.8,2.16,1.8,3.96,0,.72-.07,1.37-.29,1.87-1.08,2.52-5.18,6.62-11.81,7.78-.86.14-1.66.22-2.52.22-6.77,0-12.82-4.61-14.4-11.95-.36-1.66-.5-3.31-.5-4.97Z"/><path class="cls-1" d="M343.22,60.62c-2.59-2.45-4.97-6.48-4.97-12.1,0-11.74,9.14-22.39,18.36-22.39,4.25,0,7.34,2.88,8.57,4.75,1.94,3.02,3.1,6.62,3.1,9.29,0,1.22-.22,2.23-.72,2.88-1.73,2.23-17.79,3.38-20.45,2.81-.72-.14-1.51-.65-2.3-1.37-.36,1.3-.58,2.59-.65,3.82-.22,6.26,3.24,9.5,6.34,10.3,4.68,1.15,8.93-.94,11.95-4.46,1.87-2.16,3.1-3.67,4.39-3.31.94.22,1.51,1.87,1.51,3.53,0,1.01-.22,1.94-.65,2.59-3.02,4.39-9.07,7.49-14.69,7.49-3.6,0-7.13-1.37-9.79-3.82ZM346.89,39.6h.36c6.7,0,14.55-.65,14.83-1.3.29-.79-1.51-6.55-4.61-7.13-3.24-.58-7.71,3.39-10.58,8.43Z"/><path class="cls-1" d="M391.39,63.86c-5.33,0-9.94-2.09-12.03-5.47-1.15-1.87-1.73-3.67-1.73-5.04,0-1.08.36-1.8.86-2.09,1.01-.5,2.16.36,3.46,1.73,2.16,2.23,4.32,3.31,7.49,3.89,4.46.79,9.87-.36,9.43-5.47-.29-2.59-4.32-3.74-8.71-5.4-4.03-1.51-7.92-3.31-9.72-6.12-1.01-1.66-1.51-3.38-1.51-5.04,0-1.87.43-3.24,1.44-4.46,2.52-2.95,8.21-4.9,13.83-4.9,1.66,0,3.31.22,4.9.58,2.74.65,4.75,2.3,5.62,4.68.72,1.8.94,5.4-1.08,6.05-1.37.43-3.6-.79-3.89-2.38-.07-.36,0-.72.07-1.3.07-.79-.07-1.22-.79-1.66-2.95-1.8-13.97.22-14.11,3.82-.07,1.94,3.31,3.46,6.84,4.82,6.77,2.52,13.61,4.54,13.61,12.17,0,6.26-5.11,11.09-12.46,11.52-.94.07-1.22.07-1.51.07Z"/></svg>