<svg xmlns="http://www.w3.org/2000/svg" viewBox="0 0 47.66 47.66"><defs><style>.cls-1{fill:#470137;}.cls-2{fill:#ff61f6;}</style></defs><g id="レイヤー_2" data-name="レイヤー 2"><g id="About_Me" data-name="About Me"><rect class="cls-1" width="47.66" height="47.66" rx="8.56"/><path class="cls-2" d="M13.18,13l4.5,6.88L22.1,13H26l-6.39,9.81,7,10.51h-4l-4.95-7.59-5,7.59h-4l6.92-10.51L9.21,13Z"/><path class="cls-2" d="M35.53,19.68V13h3.38V32.45s-1.83.88-6,.88A6.6,6.6,0,0,1,28,31.45a7,7,0,0,1-1.85-5.11,7.12,7.12,0,0,1,.86-3.5,6.37,6.37,0,0,1,2.37-2.46,6.26,6.26,0,0,1,3.26-.9A13.34,13.34,0,0,1,35.53,19.68ZM33.75,30.41h1.78V22.54a4.32,4.32,0,0,0-2.18-.38,3.47,3.47,0,0,0-2.71,1.12,4.25,4.25,0,0,0-1,2.94C29.63,29.14,31,30.41,33.75,30.41Z"/></g></g></svg>