<svg xmlns="http://www.w3.org/2000/svg" xmlns:xlink="http://www.w3.org/1999/xlink" viewBox="0 0 66.72 67.46"><defs><style>.cls-1{fill:url(#名称未設定グラデーション_3);}.cls-2{fill:url(#名称未設定グラデーション_2);}</style><linearGradient id="名称未設定グラデーション_3" x1="2952.06" y1="-5749.68" x2="3017.49" y2="-5805.97" gradientTransform="matrix(0.56, 0, 0, -0.57, -1662.29, -3263.73)" gradientUnits="userSpaceOnUse"><stop offset="0" stop-color="#5a9fd4"/><stop offset="1" stop-color="#306998"/></linearGradient><linearGradient id="名称未設定グラデーション_2" x1="3042.79" y1="-5840.05" x2="3019.43" y2="-5806.99" gradientTransform="matrix(0.56, 0, 0, -0.57, -1662.29, -3263.73)" gradientUnits="userSpaceOnUse"><stop offset="0" stop-color="#ffd43b"/><stop offset="1" stop-color="#ffe873"/></linearGradient></defs><g id="レイヤー_2" data-name="レイヤー 2"><g id="レイヤー_1-2" data-name="レイヤー 1"><path id="path1948" class="cls-1" d="M33,0a45.63,45.63,0,0,0-7.69.66c-6.81,1.2-8,3.72-8,8.36v6.14H33.32v2H11.19A10.05,10.05,0,0,0,1.13,25.36a30.2,30.2,0,0,0,0,16.36C2.28,46.48,5,49.88,9.69,49.88h5.53V42.52a10.22,10.22,0,0,1,10-10H41.35a8.12,8.12,0,0,0,8-8.18V9c0-4.36-3.68-7.64-8-8.36A50.56,50.56,0,0,0,33,0Zm-8.7,4.93a3.07,3.07,0,1,1-3,3.08A3.06,3.06,0,0,1,24.26,4.93Z"/><path id="path1950" class="cls-2" d="M51.4,17.2v7.15a10.32,10.32,0,0,1-10,10.2H25.27a8.21,8.21,0,0,0-8,8.18V58.05c0,4.37,3.79,6.93,8,8.18a26.92,26.92,0,0,0,16.08,0c4-1.17,8-3.53,8-8.18V51.92H33.32v-2H57.44c4.68,0,6.42-3.27,8-8.16s1.61-9.89,0-16.36c-1.16-4.66-3.36-8.16-8-8.16ZM42.36,56a3.07,3.07,0,1,1-3,3.06A3,3,0,0,1,42.36,56Z"/></g></g></svg>