<svg xmlns="http://www.w3.org/2000/svg" xmlns:xlink="http://www.w3.org/1999/xlink" viewBox="0 0 94.8 98.87"><defs><style>.cls-1{fill:#fff;}.cls-2{fill:#494545;}.cls-3{fill:url(#名称未設定グラデーション_4);}.cls-4{fill:url(#名称未設定グラデーション_4-2);}.cls-5{fill:url(#名称未設定グラデーション_4-3);}.cls-6{fill:url(#名称未設定グラデーション_4-4);}.cls-7{isolation:isolate;font-size:8px;font-family:MyriadPro-Regular, Myriad Pro;}</style><linearGradient id="名称未設定グラデーション_4" x1="-686.83" y1="31.18" x2="-686.83" y2="31.33" gradientTransform="translate(505.36 35.1) scale(0.67)" gradientUnits="userSpaceOnUse"><stop offset="0" stop-color="#f29104"/><stop offset="1" stop-color="#ec6813"/></linearGradient><linearGradient id="名称未設定グラデーション_4-2" x1="-705.33" y1="32.25" x2="-705.33" y2="71.11" xlink:href="#名称未設定グラデーション_4"/><linearGradient id="名称未設定グラデーション_4-3" x1="-686.88" y1="-52.65" x2="-686.88" y2="71.16" xlink:href="#名称未設定グラデーション_4"/><linearGradient id="名称未設定グラデーション_4-4" x1="-738.28" y1="26.37" x2="-738.28" y2="70.22" xlink:href="#名称未設定グラデーション_4"/></defs><g id="レイヤー_2" data-name="レイヤー 2"><g id="Layer_1" data-name="Layer 1"><path class="cls-1" d="M49.33,72.6a13.8,13.8,0,0,0-.13-2.4c-.2-.67-.67-.73-1-1.27a11.75,11.75,0,0,1-1.8-5c-.07-1.53-.67-3-.73-4.53-.07-.73.06-1.53,0-2.27a6.32,6.32,0,0,0-.14-1.06,3.46,3.46,0,0,0-.13-.67l.2-.47a9.44,9.44,0,0,1,2.2-.13c.87,0,1.73.07,2.6.07a28.05,28.05,0,0,0,5.2-.2,12.6,12.6,0,0,0,6.6-2.87A16.75,16.75,0,0,0,67.4,45c.6-1.33.6-3.67,1.87-4.73,1.46-1.27,4-1.14,5.73-1.94a4,4,0,0,1,2.73-.46c.74.13,2.14,1.06,2.47-.2-.27-.14-.33-.47-.47-.6,1.4-.14,0-3.4-.53-4.07a7.53,7.53,0,0,0-3.87-1.87c-1.8-.46-3.46-1.06-5.2-.73-3,.6-2.8-1.13-4.53-1.13-2.13,0-5.87.13-6.53,2.13a5.21,5.21,0,0,1-1.14,1.73c-.46.6.07,1.2-.13,1.94s-.6,3.33-.93,4.26c-.6,1.54-1.34,3.47-2.67,3.47a10.6,10.6,0,0,1-4.87-.27l-3.2-1.13c-3.46-1.47-4.06-3.07-4.06-3.07a10.26,10.26,0,0,1-1.74-2.93C39.93,34,39.27,32.8,39,32s-1-2-1.53-3.33a9.05,9.05,0,0,0-2.4-3.6c-1.07-.94-2.07-2.47-4.27-2a5.48,5.48,0,0,0-2.93,1.06c-.74.6-1,1.94-1.67,3a42.91,42.91,0,0,0-1.73,3.94,6.59,6.59,0,0,1-1.14,2.2c-.4.26-.86.66-1.4.46a3.08,3.08,0,0,1-1.06-.66,17.66,17.66,0,0,1-2.4-3.8,37.16,37.16,0,0,0-2.67-4.2c-1.07-1.47-1.73-1.87-3.33-1.87C9,23.2,8.73,25.13,7.2,28c-.67,1.27-.93,3.2-2.27,4.73-.8.87-3.2,4.54-4.93,5.14H0v25.8c.13-.34.2-.67.33-.94C1,61.33,2.53,60,3.4,58.6a11.77,11.77,0,0,0,1.27-2.4,12.29,12.29,0,0,1,.8-2.4A2.67,2.67,0,0,1,7.4,52.67c1.2-.2,2.2,1.66,3.67,2.4.66.26,3.6,1.33,4.46,1.53,1.47.33,3.07.67,4.54.93.8.14,1.53.27,2.4.34a23.84,23.84,0,0,1,3.66.33c-1.4.73-2.2,2.73-2.73,4.13s-.93,3.14-1.6,4.54c-.73,1.6-2.27,2.26-2.07,4.13a9,9,0,0,1,.07,2.33,13.84,13.84,0,0,1-.73,2.34c-.34,1.06-.74,4.6-1.2,5.66l3.06-.4h0a35.75,35.75,0,0,0,.74-4.46,12.72,12.72,0,0,1,2.46-4.34c1.14-1.26,1.07-2.86,1.74-4.4a41.24,41.24,0,0,1,2.6-4.4c1.66-2.73,2.73-6.13,6.26-6.86.4-.07,2.54,1.46,3.47,2.4a14.73,14.73,0,0,1,3,3.73,43.73,43.73,0,0,1,3,9.07,4.24,4.24,0,0,0,1.33,2.4A18.59,18.59,0,0,1,47,76.53c.27.6.67,1.94,1,2.67A22.32,22.32,0,0,1,49.07,82l2.86-.07H52v-.06A33.27,33.27,0,0,1,49.33,72.6Z"/><path class="cls-2" d="M47.47,56Z"/><path class="cls-3" d="M47.47,56Z"/><path class="cls-4" d="M48.13,79.33c-.33-.66-.73-2.06-1-2.66a17.6,17.6,0,0,0-1.46-2.47,3.81,3.81,0,0,1-1.34-2.4,41.87,41.87,0,0,0-3-9.07,15.09,15.09,0,0,0-3-3.73c-.93-.93-3.06-2.47-3.46-2.4-3.54.67-4.6,4.13-6.27,6.87a41.94,41.94,0,0,0-2.6,4.4c-.67,1.46-.6,3.13-1.73,4.4A11.44,11.44,0,0,0,21.8,76.6c-.13.33-.4,3.67-.73,4.47h0l5.2-.34c4.86.34,3.46,2.2,11,1.8l11.93-.4h0A20.84,20.84,0,0,0,48.13,79.33Z"/><path class="cls-5" d="M82.8,0H12A11.92,11.92,0,0,0,.07,11.93v26h0C1.8,37.33,4.2,33.67,5,32.8c1.33-1.53,1.6-3.53,2.27-4.73,1.53-2.8,1.8-4.8,5.26-4.8,1.6,0,2.27.4,3.34,1.86a33.12,33.12,0,0,1,2.66,4.2,16.68,16.68,0,0,0,2.4,3.8A6.49,6.49,0,0,0,22,33.8c.53.2,1-.2,1.4-.47a6.33,6.33,0,0,0,1.13-2.2c.67-1.53,1.34-3.26,1.74-3.93.66-1.07.93-2.4,1.66-3a5.48,5.48,0,0,1,2.94-1.07c2.2-.46,3.2,1.07,4.26,2a11.08,11.08,0,0,1,2.4,3.6c.54,1.34,1.2,2.6,1.54,3.34a31.21,31.21,0,0,1,1.33,3.4,12.76,12.76,0,0,0,1.73,2.93s.6,1.6,4.07,3.07a31.15,31.15,0,0,0,3.2,1.13,10.72,10.72,0,0,0,4.87.27c1.33,0,2.06-1.94,2.66-3.47.34-.93.74-3.53.94-4.27s-.34-1.26.13-1.93.87-.8,1.13-1.73c.67-2.07,4.4-2.14,6.54-2.14,1.8,0,1.53,1.74,4.53,1.14,1.73-.34,3.4.2,5.2.73a7.57,7.57,0,0,1,3.87,1.87c.53.66,1.93,3.93.53,4.06.13.14.27.47.47.6-.34,1.27-1.67.34-2.47.2a4,4,0,0,0-2.73.47c-1.74.73-4.2.67-5.74,1.93-1.26,1.07-1.26,3.4-1.86,4.74a17.53,17.53,0,0,1-5.2,6.8,13.36,13.36,0,0,1-6.6,2.86,26.45,26.45,0,0,1-5.2.2c-.87-.06-1.74-.06-2.6-.06-.54,0-2.27-.07-2.2.13l-.2.47a2.21,2.21,0,0,0,.13.66c.07.4.07.74.13,1.07,0,.73-.06,1.53,0,2.27.07,1.53.67,2.93.74,4.53a10.94,10.94,0,0,0,1.8,5c.33.53.8.6,1,1.27a14.43,14.43,0,0,1,.13,2.4A32.94,32.94,0,0,0,52.2,82v.07h0c1.73-.27,3.53-.94,5.8-1.27,4.2-.6,10-.33,13.73-.67,9.47-.86,14.6,3.87,23.07,1.94V11.93A12,12,0,0,0,82.8,0ZM47.47,56Z"/><path class="cls-6" d="M21.93,66.93c.67-1.46,1.07-3.06,1.6-4.53s1.34-3.4,2.74-4.13a25.15,25.15,0,0,0-3.67-.34c-.8-.06-1.6-.2-2.4-.33-1.47-.27-3.13-.6-4.53-.93-.87-.2-3.87-1.27-4.47-1.54-1.53-.66-2.53-2.6-3.67-2.4A2.7,2.7,0,0,0,5.6,53.87a12.75,12.75,0,0,0-.8,2.4c-.33.8-.87,1.6-1.27,2.4C2.6,60.07,1.07,61.33.4,62.73c-.13.34-.2.67-.33,1V79.8a18.45,18.45,0,0,1,2.46.53c6.67,1.8,8.27,1.94,14.8,1.2l.6-.06h0c.47-1.07.87-4.6,1.2-5.67a19.39,19.39,0,0,0,.74-2.33,9.09,9.09,0,0,0-.07-2.34C19.67,69.2,21.2,68.53,21.93,66.93Z"/><text class="cls-7" transform="translate(5.41 95.65)"> </text><path class="cls-2" d="M24.13,98.67a6.17,6.17,0,0,1-2.53-.47,6,6,0,0,1-2-1.4,6.35,6.35,0,0,1-1.27-2.27,8.63,8.63,0,0,1-.46-3,8.45,8.45,0,0,1,.46-3,7.35,7.35,0,0,1,1.27-2.2,5.47,5.47,0,0,1,2-1.4,6.4,6.4,0,0,1,2.53-.46,6.22,6.22,0,0,1,2.54.46,6.12,6.12,0,0,1,2,1.4,5.73,5.73,0,0,1,1.26,2.27,9.81,9.81,0,0,1,0,6,7.39,7.39,0,0,1-1.26,2.27,5.55,5.55,0,0,1-2,1.4A7.69,7.69,0,0,1,24.13,98.67Zm0-2.67a2.7,2.7,0,0,0,2.27-1.2,6,6,0,0,0,.8-3.33,5.81,5.81,0,0,0-.8-3.27,2.55,2.55,0,0,0-2.27-1.13,2.81,2.81,0,0,0-2.26,1.13,5.73,5.73,0,0,0-.8,3.27,6,6,0,0,0,.8,3.33A2.69,2.69,0,0,0,24.13,96Z"/><path class="cls-2" d="M31.53,91.6a8.87,8.87,0,0,1,.54-3.07,6.49,6.49,0,0,1,1.4-2.26,7,7,0,0,1,2.06-1.4,6.47,6.47,0,0,1,2.54-.47,5.29,5.29,0,0,1,2.33.53,6.74,6.74,0,0,1,1.73,1.27L40.4,88.13a3.29,3.29,0,0,0-1.07-.73,2.52,2.52,0,0,0-1.26-.27,3.06,3.06,0,0,0-1.34.34,2.6,2.6,0,0,0-1.06.86,4.56,4.56,0,0,0-.74,1.4,6.57,6.57,0,0,0,.67,5.2,2.89,2.89,0,0,0,2.47,1.2,3.37,3.37,0,0,0,1.46-.33,4.67,4.67,0,0,0,1.14-.87L42.4,96.8a6.12,6.12,0,0,1-2,1.53,5.63,5.63,0,0,1-2.4.54,6.61,6.61,0,0,1-2.53-.47,6.08,6.08,0,0,1-2.07-1.33,6.24,6.24,0,0,1-1.4-2.2A10.92,10.92,0,0,1,31.53,91.6Z"/><path class="cls-2" d="M43.47,95.53a3,3,0,0,1,1.4-2.6,10.54,10.54,0,0,1,4.53-1.26,2,2,0,0,0-.4-1.14,1.67,1.67,0,0,0-1.2-.4,3,3,0,0,0-1.33.27c-.47.2-.94.4-1.47.67L43.87,89A12.55,12.55,0,0,1,46,88a6.75,6.75,0,0,1,2.33-.4,4.32,4.32,0,0,1,3.14,1.13,5.18,5.18,0,0,1,1.06,3.6v6H50l-.27-1.06h-.06a5.86,5.86,0,0,1-1.4.93,3.61,3.61,0,0,1-1.67.4,2.56,2.56,0,0,1-1.27-.27,2.67,2.67,0,0,1-1.6-1.66A2.07,2.07,0,0,1,43.47,95.53Zm2.93-.26a.85.85,0,0,0,.33.73,1.72,1.72,0,0,0,.87.27,1.94,1.94,0,0,0,.93-.2,3.43,3.43,0,0,0,.8-.67V93.53A6.22,6.22,0,0,0,47,94.2,1.61,1.61,0,0,0,46.4,95.27Z"/><path class="cls-2" d="M54.33,88.13h2.54l.2,1.34h.06a11.5,11.5,0,0,1,1.4-1.14,3.05,3.05,0,0,1,1.8-.46,3,3,0,0,1,1.8.46,3.13,3.13,0,0,1,1.07,1.34,12.76,12.76,0,0,1,1.47-1.27,3.41,3.41,0,0,1,1.86-.53A2.84,2.84,0,0,1,69,89a5.32,5.32,0,0,1,.8,3.13v6.54H66.73V92.53a3.21,3.21,0,0,0-.33-1.6,1.18,1.18,0,0,0-1-.4,2.81,2.81,0,0,0-1.8,1v7.14H60.47V92.53a3.2,3.2,0,0,0-.34-1.6,1.18,1.18,0,0,0-1-.4,2.81,2.81,0,0,0-1.8,1v7.14H54.2V88.13Z"/><path class="cls-2" d="M71.67,83.53H74.8V95.27a.88.88,0,0,0,.2.66.55.55,0,0,0,.4.2h.2a.26.26,0,0,0,.2-.06l.4,2.33c-.2.07-.4.13-.67.2a3.87,3.87,0,0,1-.93.07,2.63,2.63,0,0,1-1.33-.27,1.92,1.92,0,0,1-.87-.73,3,3,0,0,1-.47-1.14,10,10,0,0,1-.13-1.46l-.13-11.54Z"/></g></g></svg>