<svg xmlns="http://www.w3.org/2000/svg" viewBox="0 0 115.46 39.97"><defs><style>.cls-1{fill:#0c4b33;fill-rule:evenodd;}</style></defs><g id="レイヤー_2" data-name="レイヤー 2"><g id="レイヤー_1-2" data-name="レイヤー 1"><g id="Page-1"><g id="logo-django"><path id="Shape" class="cls-1" d="M13.61,0h6.32V29a42,42,0,0,1-8.2.85C4,29.8,0,26.35,0,19.73,0,13.35,4.26,9.21,10.86,9.21a10.31,10.31,0,0,1,2.75.33V0Zm0,14.57a6.4,6.4,0,0,0-2.13-.32c-3.19,0-5,1.95-5,5.36s1.76,5.17,5,5.17a15,15,0,0,0,2.17-.16v-10ZM30,9.66v14.5c0,5-.37,7.39-1.47,9.46s-2.37,3.25-5.16,4.63l-5.87-2.76c2.79-1.3,4.14-2.44,5-4.19s1.19-3.86,1.19-9.3V9.66ZM23.66,0H30V6.45H23.66ZM33.78,11.08a19.32,19.32,0,0,1,8.37-1.87c3.25,0,5.38.86,6.32,2.53.53.93.7,2.15.7,4.75V29.2a71.3,71.3,0,0,1-9,.69c-5.29,0-7.67-1.83-7.67-5.89,0-4.39,3.16-6.42,10.91-7.06V15.56c0-1.13-.58-1.55-2.17-1.55a16.84,16.84,0,0,0-7.43,1.91Zm9.89,10c-4.18.4-5.54,1.06-5.54,2.68,0,1.22.79,1.79,2.51,1.79a17.83,17.83,0,0,0,3-.28V21Zm8.57-10.4a38.47,38.47,0,0,1,9.92-1.42c3.24,0,5.58.74,7,2.16s1.73,2.8,1.73,5.92V29.56H64.54v-12c0-2.4-.82-3.29-3.08-3.29a9.47,9.47,0,0,0-2.91.45V29.56H52.24ZM73.31,33a14.41,14.41,0,0,0,6.77,1.66C84.21,34.63,86,33,86,29v-.12a8.85,8.85,0,0,1-4.1.85c-5.54,0-9.06-3.61-9.06-9.34,0-7.11,5.22-11.13,14.44-11.13a40.15,40.15,0,0,1,8.24.89l-2.16,4.51c-1.68-.32-.14-.05-1.41-.17v.66L92,17.78l0,3.41c0,.86,0,1.71.09,2.56v1.71c0,5.37-.46,7.88-1.81,10Q87.38,40,80.12,40a18.24,18.24,0,0,1-6.81-1.22V33ZM85.86,14.29H85.2a6.94,6.94,0,0,0-3.65.89c-1.51.86-2.29,2.4-2.29,4.59,0,3.13,1.56,4.92,4.35,4.92A7.61,7.61,0,0,0,86,24.28V22.13c0-.74,0-1.55,0-2.4l0-2.89,0-2.07ZM105.3,9.13c6.31,0,10.16,3.94,10.16,10.32,0,6.54-4,10.64-10.41,10.64S94.83,26.15,94.83,19.82C94.84,13.23,98.86,9.13,105.3,9.13Zm-.13,15.92c2.42,0,3.85-2,3.85-5.45s-1.39-5.44-3.81-5.44-3.94,2-3.94,5.44,1.44,5.45,3.9,5.45Z"/></g></g></g></g></svg>