<svg xmlns="http://www.w3.org/2000/svg" viewBox="0 0 72.9 72.9"><defs><style>.cls-1{fill:#49021f;}.cls-2{fill:#f36;}</style></defs><g id="レイヤー_2" data-name="レイヤー 2"><g id="About_Me" data-name="About Me"><rect class="cls-1" width="72.9" height="72.9" rx="9.45"/><path class="cls-2" d="M47.39,30.15V20.05h5.52V49.48s-3,1.33-9.74,1.33A11.32,11.32,0,0,1,35.09,48a10.11,10.11,0,0,1-3-7.75,10.14,10.14,0,0,1,5.28-9,11,11,0,0,1,5.34-1.35A23.06,23.06,0,0,1,47.39,30.15ZM44.48,46.39h2.91V34.48a7.62,7.62,0,0,0-3.56-.58,5.91,5.91,0,0,0-4.43,1.7A6.06,6.06,0,0,0,37.74,40C37.74,44.46,40,46.39,44.48,46.39Z"/><path class="cls-2" d="M26.82,20.05V50.81H20.75V20.05Z"/></g></g></svg>