<svg xmlns="http://www.w3.org/2000/svg" viewBox="0 0 72.9 72.9"><defs><style>.cls-1{fill:#300;}.cls-2{fill:#ff9a00;}</style></defs><g id="レイヤー_2" data-name="レイヤー 2"><g id="About_Me" data-name="About Me"><rect class="cls-1" width="72.9" height="72.9" rx="13.1"/><path class="cls-2" d="M34.45,19.9,47.46,51h-6l-3.06-7.56H25.29L22.45,51h-6L28.63,19.9ZM27,38.86h9.51l-5-12.3Z"/><path class="cls-2" d="M53.33,20.59a3.14,3.14,0,0,1,3.1,3.1,3.1,3.1,0,0,1-.91,2.17,2.91,2.91,0,0,1-2.19.94,2.94,2.94,0,0,1-2.17-.94,3.06,3.06,0,0,1-.92-2.17,3,3,0,0,1,.93-2.2A3,3,0,0,1,53.33,20.59Zm2.74,8.48V51H50.6V29.07Z"/></g></g></svg>