<svg xmlns="http://www.w3.org/2000/svg" viewBox="0 0 666.67 666.67"><defs><style>.cls-1{fill:#32373c;}</style></defs><g id="レイヤー_2" data-name="レイヤー 2"><g id="W_Mark" data-name="W Mark"><g id="W_Mark-2" data-name="W Mark"><path class="cls-1" d="M333.33,20A311.93,311.93,0,0,1,508.51,73.5,314.19,314.19,0,0,1,622.05,211.38a313,313,0,0,1-28.88,297.13A314.19,314.19,0,0,1,455.29,622.05a313,313,0,0,1-297.13-28.88A314.19,314.19,0,0,1,44.62,455.29,313,313,0,0,1,73.5,158.16,314.94,314.94,0,0,1,158.16,73.5,311.93,311.93,0,0,1,333.33,20m0-20C149.24,0,0,149.24,0,333.33S149.24,666.67,333.33,666.67,666.67,517.43,666.67,333.33,517.43,0,333.33,0Z"/><path class="cls-1" d="M55.56,333.32c0,110,63.89,205,156.56,250l-132.51-363A276.71,276.71,0,0,0,55.56,333.32Zm465.3-14c0-34.34-12.34-58.1-22.9-76.6-14.08-22.89-27.29-42.26-27.29-65.15,0-25.53,19.36-49.3,46.65-49.3,1.23,0,2.4.15,3.59.23A276.69,276.69,0,0,0,333.33,55.56c-97,0-182.42,49.79-232.09,125.19,6.52.21,12.67.34,17.88.34,29,0,74-3.53,74-3.53,15-.88,16.74,21.12,1.78,22.89,0,0-15.05,1.76-31.79,2.64L264.29,504l60.8-182.31L281.81,203.09c-15-.88-29.13-2.64-29.13-2.64-15-.88-13.22-23.77,1.76-22.89,0,0,45.86,3.53,73.16,3.53,29,0,74-3.53,74-3.53,15-.88,16.74,21.12,1.77,22.89,0,0-15.07,1.76-31.79,2.64L472,501.68l28.65-90.8C513.39,371.2,520.86,343.08,520.86,319.31ZM338.21,357.62,254.86,599.79a277.85,277.85,0,0,0,170.72-4.43,25.15,25.15,0,0,1-2-3.83ZM577.09,200.07A212,212,0,0,1,579,228.63c0,28.17-5.28,59.86-21.13,99.49L473,573.41c82.58-48.14,138.12-137.61,138.12-240.09A276.41,276.41,0,0,0,577.09,200.07Z"/></g></g></g></svg>