<svg xmlns="http://www.w3.org/2000/svg" viewBox="0 0 91.79 69.4"><defs><style>.cls-1{fill:#00c58e;}.cls-2{fill:#2f495e;}.cls-3{fill:#108775;}.cls-4{fill:#2e4960;}.cls-4,.cls-5{isolation:isolate;}.cls-5{fill:#00bc7e;}</style></defs><g id="レイヤー_2" data-name="レイヤー 2"><g id="レイヤー_1-2" data-name="レイヤー 1"><path class="cls-1" d="M72,44.58l-1.58,2.74L65.06,38,48.49,66.66H59.71a2.74,2.74,0,0,0,2.73,2.74H48.49a2.74,2.74,0,0,1-2.36-4.1L62.69,36.6a2.75,2.75,0,0,1,4.74,0Z"/><path class="cls-2" d="M84,65.3l-10.39-18L72,44.58l-1.58,2.74-10.38,18a2.74,2.74,0,0,0,2.36,4.1H81.63A2.74,2.74,0,0,0,84,65.3ZM62.44,66.66,72,50.05l9.59,16.61Z"/><path class="cls-3" d="M91.42,68a2.75,2.75,0,0,1-2.37,1.37H81.63a2.74,2.74,0,0,0,2.73-2.74h4.69l-13.3-23-2.14,3.7L72,44.58l1.34-2.32a2.73,2.73,0,0,1,4.73,0l13.31,23A2.72,2.72,0,0,1,91.42,68Z"/><g id="A4gAvk.tif"><polygon class="cls-4" points="38.94 40.48 62.33 0 48.1 0 38.94 15.42 29.79 0 15.56 0 38.94 40.48"/><polyline class="cls-5" points="38.94 40.55 62.33 0.06 77.89 0.06 38.94 67.47 38.94 67.41 0 0 15.56 0 38.94 40.48"/></g></g></g></svg>