<svg xmlns="http://www.w3.org/2000/svg" viewBox="0 0 52.61 52.61"><defs><style>.cls-1{fill:#001e36;}.cls-2{fill:#31a8ff;}</style></defs><g id="レイヤー_2" data-name="レイヤー 2"><g id="About_Me" data-name="About Me"><rect class="cls-1" width="52.61" height="52.61" rx="9.45"/><path class="cls-2" d="M21.21,14.36a7.19,7.19,0,0,1,5.11,1.83,6.11,6.11,0,0,1,2,4.69,6.07,6.07,0,0,1-2,4.71,7.53,7.53,0,0,1-5.25,1.79H16.87v9.41H12.54V14.36ZM20.13,24a4.17,4.17,0,0,0,2.71-.8,2.88,2.88,0,0,0,1-2.35q0-3.11-4-3.1h-3V24Z"/><path class="cls-2" d="M36.11,21.51a9.24,9.24,0,0,1,2.33.28,12.06,12.06,0,0,1,2.31.89v3.16a10.93,10.93,0,0,0-2.41-1.16,7,7,0,0,0-2.3-.44,2.34,2.34,0,0,0-1.33.32,1,1,0,0,0-.48.91.92.92,0,0,0,.4.68,14.8,14.8,0,0,0,2.2,1.23,13.62,13.62,0,0,1,3.6,2.4,3.75,3.75,0,0,1,1,2.65A4.18,4.18,0,0,1,40,35.84a6.21,6.21,0,0,1-4.08,1.24,12.32,12.32,0,0,1-3-.35,10.33,10.33,0,0,1-2.31-.85V32.59a10.57,10.57,0,0,0,4.87,1.6,3.29,3.29,0,0,0,1.64-.36,1.08,1.08,0,0,0,.62-.95,1,1,0,0,0-.22-.65,3,3,0,0,0-.68-.59c-.3-.2-1.23-.69-2.81-1.46a8.06,8.06,0,0,1-2.68-1.89,3.58,3.58,0,0,1-.86-2.41A3.78,3.78,0,0,1,32,22.7,6.55,6.55,0,0,1,36.11,21.51Z"/></g></g></svg>